<svg width="200" height="194" viewBox="0 0 200 194" fill="none" xmlns="http://www.w3.org/2000/svg">
    <circle cx="102.689" cy="97.3464" r="75.8337" fill="url(#paint0_linear_864_17886)"/>
    <circle cx="191.931" cy="29.5801" r="8.06742" fill="#860579"/>
    <circle cx="21.5144" cy="10.7566" r="10.7566" fill="#860579"/>
    <circle cx="10.7572" cy="143.062" r="5.37828" fill="#860579"/>
    <circle cx="178.021" cy="172.642" r="2.68914" fill="#860579"/>
    <path fill-rule="evenodd" clip-rule="evenodd" d="M93.9089 76.3721H112.561C119.854 76.3721 124.737 81.4922 124.737 89.1078V106.686C124.737 114.278 119.854 119.398 112.561 119.398H93.9089C86.6159 119.398 81.7109 114.278 81.7109 106.686V89.1078C81.7109 81.4922 86.6159 76.3721 93.9089 76.3721ZM101.998 104.318L112.216 94.0992C112.948 93.3677 112.948 92.1845 112.216 91.4315C111.485 90.7001 110.28 90.7001 109.549 91.4315L100.664 100.316L96.8991 96.5517C96.1676 95.8202 94.9629 95.8202 94.2314 96.5517C93.5 97.2831 93.5 98.4663 94.2314 99.2193L99.3516 104.318C99.7173 104.684 100.191 104.856 100.664 104.856C101.159 104.856 101.632 104.684 101.998 104.318Z" fill="white"/>
    <circle cx="114.556" cy="4.84051" r="2.68914" fill="#860579"/>
    <circle cx="67.2296" cy="189.854" r="3.76479" fill="#860579"/>
    <circle cx="131.232" cy="183.937" r="1.07566" fill="#860579"/>
    <circle cx="183.4" cy="118.86" r="2.68914" fill="#860579"/>
    <circle cx="1.07566" cy="80.6743" r="1.07566" fill="#860579"/>
    <defs>
        <linearGradient id="paint0_linear_864_17886" x1="178.523" y1="173.18" x2="-1.94773" y2="120.854" gradientUnits="userSpaceOnUse">
            <stop stop-color="#860579"/>
            <stop offset="1" stop-color="#F3E6F2"/>
        </linearGradient>
    </defs>
</svg>
