<svg width="200" height="194" viewBox="0 0 200 194" fill="none" xmlns="http://www.w3.org/2000/svg">
    <circle cx="102.689" cy="97.3469" r="75.8337" fill="url(#paint0_linear_555_16505)"/>
    <circle cx="191.933" cy="29.5806" r="8.06742" fill="#860579"/>
    <circle cx="21.5131" cy="10.7566" r="10.7566" fill="#860579"/>
    <circle cx="10.7565" cy="143.062" r="5.37828" fill="#860579"/>
    <circle cx="178.021" cy="172.643" r="2.68914" fill="#860579"/>
    <path fill-rule="evenodd" clip-rule="evenodd" d="M93.9116 76.3716H112.563C119.856 76.3716 124.74 81.4917 124.74 89.1073V106.686C124.74 114.278 119.856 119.398 112.563 119.398H93.9116C86.6186 119.398 81.7136 114.278 81.7136 106.686V89.1073C81.7136 81.4917 86.6186 76.3716 93.9116 76.3716ZM102 104.317L112.219 94.0987C112.951 93.3672 112.951 92.184 112.219 91.4311C111.488 90.6996 110.283 90.6996 109.551 91.4311L100.667 100.316L96.9017 96.5512C96.1703 95.8197 94.9656 95.8197 94.2341 96.5512C93.5027 97.2826 93.5027 98.4658 94.2341 99.2188L99.3542 104.317C99.72 104.683 100.193 104.855 100.667 104.855C101.161 104.855 101.635 104.683 102 104.317Z" fill="white"/>
    <circle cx="114.557" cy="4.84051" r="2.68914" fill="#860579"/>
    <circle cx="67.2284" cy="189.853" r="3.76479" fill="#860579"/>
    <circle cx="131.23" cy="183.937" r="1.07566" fill="#860579"/>
    <circle cx="183.399" cy="118.86" r="2.68914" fill="#860579"/>
    <circle cx="1.07566" cy="80.6743" r="1.07566" fill="#860579"/>
    <defs>
        <linearGradient id="paint0_linear_555_16505" x1="178.523" y1="173.181" x2="-1.94749" y2="120.855" gradientUnits="userSpaceOnUse">
            <stop stop-color="#860579"/>
            <stop offset="1" stop-color="#F3E6F2"/>
        </linearGradient>
    </defs>
</svg>
