<svg width="87" height="28" viewBox="0 0 87 28" fill="none" xmlns="http://www.w3.org/2000/svg">
    <path fill-rule="evenodd" clip-rule="evenodd" d="M2.06573 0.281678C-0.206498 0.895345 -0.621138 3.63197 1.17011 5.04174C2.53012 6.10322 12.7634 5.3237 16.0971 5.57248C20.9899 5.95395 22.5489 11.6262 20.0943 14.5619C16.3791 18.9736 10.06 14.678 8.18581 18.0946C7.63849 19.0897 7.82093 20.2839 8.4346 21.0634C9.09802 21.8927 9.91071 22.1083 11.3371 22.0917C16.5118 22.0751 19.8123 22.4898 23.4777 18.8078C29.8632 12.356 26.0153 1.6417 17.3908 0.314849C16.0474 0.0992367 2.99452 0.0494799 2.06573 0.281678Z" fill="#FAFAFA"/>
    <path fill-rule="evenodd" clip-rule="evenodd" d="M5.58174 7.71126C2.92805 8.09273 1.10363 9.81763 0.373866 11.9903C-0.190044 13.7152 0.05874 18.9231 0.05874 21.1124C0.05874 23.9486 -0.621269 27.8628 2.64609 27.9954C6.22858 28.1447 5.43247 23.6334 5.43247 21.2617C5.43247 17.8119 4.88515 15.2909 7.29006 13.6987C9.52911 12.2225 13.6755 13.6489 15.8482 12.8528C18.3858 11.9406 18.1039 7.87711 14.9858 7.6615C13.1282 7.51223 7.27347 7.46247 5.58174 7.71126Z" fill="#FAFAFA"/>
    <path fill-rule="evenodd" clip-rule="evenodd" d="M76.8835 13.5332C75.6395 16.2864 71.3273 19.8191 73.0024 21.4777C75.5732 23.9987 77.7625 17.8952 79.5703 16.2035C80.0016 16.9664 82.7879 21.1791 83.4679 21.6767C84.546 22.4396 87.4982 21.9089 85.989 19.305C85.2592 18.0445 82.4065 14.2961 82.0748 13.5332L84.4963 10.1995C85.0436 9.43654 86.8846 7.54578 85.5909 6.3682C84.1645 5.07452 82.8045 6.40137 81.9255 7.62871C81.1625 8.69018 80.2503 9.91752 79.5537 10.979C77.7293 9.12141 75.8552 4.32817 73.4337 6.30186C71.5429 7.8609 75.822 11.3936 76.8835 13.5332Z" fill="#FAFAFA"/>
    <path fill-rule="evenodd" clip-rule="evenodd" d="M55.9013 6.18582C54.7569 6.36827 53.6457 6.36827 53.6291 7.64536C53.6125 9.02196 54.6906 9.02196 55.8681 9.15465C56.3823 13.9313 54.5911 20.1509 57.8584 21.6104C59.0028 22.1246 61.0263 22.1246 62.3034 21.8426C63.4312 21.5938 65.04 20.6153 64.0283 19.2221C63.1658 18.0279 61.2087 19.5704 60.2799 18.6416C59.5502 17.9118 59.8653 10.7303 59.8653 9.13806C61.2253 9.12148 62.9502 9.22099 63.0165 7.77804C63.0995 6.06973 61.2916 6.23558 59.8653 6.23558C59.8819 4.11263 60.4126 0.546723 57.9248 0.480381C55.2877 0.414038 55.9179 4.07945 55.9013 6.18582Z" fill="#FAFAFA"/>
    <path fill-rule="evenodd" clip-rule="evenodd" d="M30.293 2.58754V18.7253C30.293 20.0688 30.3096 21.4122 31.4705 21.8932C32.9301 22.4737 34.0413 21.4454 34.2072 20.2678C34.3896 18.9907 34.2901 4.97586 34.2569 2.58754C34.2403 1.09483 33.7759 -0.0164024 32.2501 0.000183227C30.7408 0.000183227 30.293 1.128 30.293 2.58754Z" fill="#FAFAFA"/>
    <path fill-rule="evenodd" clip-rule="evenodd" d="M67.0156 6.02094C65.6058 6.55167 65.7716 8.07755 65.7716 9.75269V19.7206C65.8214 21.1802 66.8165 22.5899 68.5249 21.8768C69.8517 21.3294 69.7356 19.704 69.7356 18.1616V8.19365C69.6858 6.66777 68.6575 5.40727 67.0156 6.02094Z" fill="#FAFAFA"/>
    <path fill-rule="evenodd" clip-rule="evenodd" d="M44.7385 12.414C45.8492 12.1856 46.9786 11.9533 48.0405 11.6431C48.0737 8.95622 46.4981 8.25962 43.8775 8.7406C42.4167 9.01239 41.8779 9.84523 41.417 10.5576C40.9779 11.2363 40.6096 11.8057 39.5819 11.6763C37.7409 11.4441 37.6414 8.98939 39.7643 7.29766C41.1077 6.21959 43.4131 5.82154 45.5859 5.87129C52.1966 6.03015 52.0643 9.69105 51.9212 13.6504C51.8701 15.0651 51.8176 16.5179 52.0708 17.8627C52.1141 18.0983 52.1978 18.3883 52.288 18.7007C52.5089 19.4659 52.7686 20.3657 52.5684 20.931C52.0377 22.374 49.6659 22.6725 48.3888 19.853C48.0053 20.03 47.648 20.2693 47.2673 20.5243C46.792 20.8427 46.2803 21.1855 45.6356 21.4618C42.4843 22.7886 37.8404 21.8764 37.4755 17.9954C37.1003 13.9851 40.8015 13.2238 44.7385 12.414ZM46.5542 14.4767C47.0909 14.3246 47.641 14.1686 48.0899 14.1139C48.088 14.1645 48.0861 14.2146 48.0843 14.2642C48.0055 16.3797 47.958 17.6525 46.5806 18.6086C43.8108 20.5159 40.6098 18.7413 41.6215 16.4525C42.0843 15.4007 43.804 15.0722 45.0962 14.8254C45.3322 14.7803 45.554 14.7379 45.7513 14.6944C46.005 14.6324 46.2778 14.555 46.5542 14.4767Z" fill="#FAFAFA"/>
    <path fill-rule="evenodd" clip-rule="evenodd" d="M67.0626 0.314228C64.5914 1.25961 65.885 4.80892 68.5056 3.9133C70.6949 3.16695 69.7163 -0.697493 67.0626 0.314228Z" fill="#FAFAFA"/>
</svg>
