<svg width="330" height="322" viewBox="0 0 330 322" fill="none" xmlns="http://www.w3.org/2000/svg">
    <path d="M131.014 20.4917L131.544 13.8354L132.2 15.0454L128.602 12.2831L128.05 11.8492L127.65 11.4494L127.449 11.2507L127.219 10.9267C127.07 10.7019 126.929 10.4745 126.801 10.2472C126.644 9.78984 126.461 9.35341 126.44 8.88562C126.401 8.42043 126.396 7.96571 126.521 7.52405C126.574 7.06671 126.817 6.66945 127 6.2696C127.245 5.90373 127.525 5.54315 127.852 5.26613C128.204 5.02047 128.565 4.73293 128.894 4.59181L129.901 4.07437L133.936 2.00195L130.28 4.68592L129.367 5.35753C129.028 5.57444 128.85 5.82276 128.607 6.03967C128.4 6.2801 128.254 6.56757 128.121 6.83936C128.053 7.14513 127.912 7.42211 127.943 7.73572C127.901 8.03626 127.964 8.33157 128.037 8.61381C128.084 8.89867 128.275 9.14961 128.38 9.38743C128.466 9.47106 128.539 9.55465 128.604 9.64089L128.701 9.77679L128.931 9.94148L129.391 10.2733L129.448 10.3151C129.548 10.3883 129.318 10.2184 129.341 10.2367L129.347 10.242L129.354 10.2446L129.367 10.2524L129.399 10.2707L129.524 10.336L129.773 10.4719L133.761 12.628L134.349 12.9442L134.419 13.838L134.95 20.4943H131.014V20.4917Z" fill="#0F2047"/>
    <path d="M134.957 20.2434H131.013V44.5662H134.957V20.2434Z" fill="#0F2047"/>
    <path d="M135.94 2.00183C135.94 3.10729 135.043 4.00374 133.938 4.00374C132.832 4.00374 131.936 3.10729 131.936 2.00183C131.936 0.896368 132.832 0 133.938 0C135.046 0.00261339 135.94 0.896368 135.94 2.00183Z" fill="#0F2047"/>
    <path d="M132.935 41.7693C130.285 41.7693 127.661 43.975 127.19 46.706C125.026 61.8532 125.026 77.2329 127.19 92.3827C127.661 95.1137 130.285 97.3168 132.935 97.3168C132.95 97.3168 132.966 97.3168 132.984 97.3168V41.7719C132.968 41.7693 132.953 41.7693 132.935 41.7693Z" fill="#DCB3D9"/>
    <path d="M138.78 46.706C138.31 43.975 135.686 41.7693 133.036 41.7693C133.02 41.7693 133.005 41.7693 132.986 41.7693V97.3142C133.005 97.3142 133.02 97.3142 133.036 97.3142C135.686 97.3142 138.31 95.1111 138.78 92.3801C140.944 77.2303 140.944 61.8532 138.78 46.706Z" fill="#860579"/>
    <path d="M170.74 42.9823C170.74 48.1098 166.585 52.2677 161.455 52.2677C156.328 52.2677 152.17 48.1098 152.17 42.9823C152.17 37.8549 156.328 33.697 161.455 33.697C166.585 33.697 170.74 37.8549 170.74 42.9823Z" fill="#DFF7F0"/>
    <path d="M161.455 53.13C155.859 53.13 151.307 48.5775 151.307 42.9822C151.307 37.3844 155.859 32.8345 161.455 32.8345C167.05 32.8345 171.602 37.3844 171.602 42.9822C171.605 48.5749 167.053 53.13 161.455 53.13ZM161.455 34.5593C156.811 34.5593 153.032 38.3356 153.032 42.9822C153.032 47.6288 156.808 51.4052 161.455 51.4052C166.099 51.4052 169.878 47.6288 169.878 42.9822C169.878 38.3356 166.101 34.5593 161.455 34.5593Z" fill="#0F2047"/>
    <path d="M163.31 52.364H159.604V73.7128H163.31V52.364Z" fill="#0F2047"/>
    <path d="M167.251 78.4011C166.781 75.6701 164.157 73.4644 161.507 73.4644C161.488 73.4644 161.473 73.4644 161.454 73.4644V129.009C161.473 129.009 161.488 129.009 161.507 129.009C164.157 129.009 166.781 126.806 167.251 124.075C169.415 108.925 169.415 93.5482 167.251 78.4011Z" fill="#860579"/>
    <path d="M161.408 73.4644C158.758 73.4644 156.134 75.6701 155.663 78.4011C153.499 93.5482 153.499 108.928 155.663 124.078C156.136 126.809 158.76 129.012 161.408 129.012C161.423 129.012 161.442 129.012 161.457 129.012V73.467C161.439 73.4644 161.423 73.4644 161.408 73.4644Z" fill="#DCB3D9"/>
    <path d="M189.551 20.4914L189.693 13.8351L190.526 15.3692L182.148 8.85661L180.914 7.89485L182.203 7.27548L196.338 0.470215L183.099 8.88795L183.151 7.30946L192.52 12.2984L193.33 12.7296L193.354 13.8351L193.495 20.4914H189.551Z" fill="#0F2047"/>
    <path d="M193.496 20.2427H189.552V44.5655H193.496V20.2427Z" fill="#0F2047"/>
    <path d="M191.473 41.7693C188.823 41.7693 186.199 43.975 185.729 46.706C183.565 61.8532 183.565 77.2329 185.729 92.3827C186.199 95.1137 188.823 97.3168 191.473 97.3168C191.489 97.3168 191.507 97.3168 191.522 97.3168V41.7719C191.509 41.7693 191.491 41.7693 191.473 41.7693Z" fill="#DCB3D9"/>
    <path d="M197.319 46.706C196.848 43.975 194.225 41.7693 191.572 41.7693C191.556 41.7693 191.541 41.7693 191.522 41.7693V97.3142C191.541 97.3142 191.556 97.3142 191.572 97.3142C194.225 97.3142 196.846 95.1111 197.319 92.3801C199.483 77.2303 199.483 61.8532 197.319 46.706Z" fill="#860579"/>
    <path d="M272.28 198.029L193.402 232.476L229.189 314.424L308.068 279.977L272.28 198.029Z" fill="#DADADA"/>
    <path d="M226.28 321.843L186.021 229.646L275.148 190.73L315.404 282.927L226.28 321.843ZM200.74 235.416L232.051 307.127L300.688 277.157L269.378 205.448L200.74 235.416Z" fill="#F3E6F2"/>
    <path d="M313.871 207.103H227.799V296.53H313.871V207.103Z" fill="#A8409D"/>
    <path d="M319.461 302.117H222.209V201.512H319.461V302.117ZM233.386 290.94H308.281V212.692H233.386V290.94Z" fill="#E1E1E1" fill-opacity="0.2"/>
    <path d="M270.835 230.032C270.835 230.032 268.227 230.032 264.877 228.914C261.524 227.798 253.328 228.172 253.328 238.602C253.328 249.029 258.171 252.756 258.171 252.756C258.171 252.756 258.545 258.714 262.083 264.304C265.622 269.892 267.111 273.242 267.485 266.536C267.859 259.833 268.575 250.707 269.346 249.371C270.835 246.795 270.835 246.795 270.835 246.795V230.032Z" fill="#E6E7E8"/>
    <path d="M270.836 230.032C270.836 230.032 273.444 230.032 276.797 228.914C280.15 227.798 288.343 228.172 288.343 238.602C288.343 249.029 283.5 252.756 283.5 252.756C283.5 252.756 283.127 258.714 279.588 264.304C276.05 269.892 274.56 273.242 274.186 266.536C273.812 259.833 273.096 250.707 272.325 249.371C270.836 246.795 270.836 246.795 270.836 246.795V230.032Z" fill="#E6E7E8"/>
    <path d="M249.703 300.583C241.095 309.195 227.137 309.195 218.526 300.583C209.917 291.975 209.917 278.017 218.526 269.406C227.134 260.797 241.095 260.797 249.703 269.406C258.312 278.017 258.312 291.975 249.703 300.583Z" fill="#F3EAE6"/>
    <path d="M234.115 311.513C227.032 311.513 220.371 308.753 215.364 303.746C210.354 298.738 207.597 292.077 207.597 284.995C207.597 277.912 210.354 271.253 215.364 266.244C220.374 261.236 227.032 258.477 234.115 258.477C241.197 258.477 247.856 261.236 252.863 266.244C263.202 276.582 263.202 293.404 252.863 303.746C247.856 308.753 241.197 311.513 234.115 311.513ZM234.115 267.422C229.421 267.422 225.007 269.249 221.688 272.571C214.836 279.423 214.836 290.572 221.688 297.424C225.007 300.743 229.421 302.572 234.115 302.572C238.808 302.572 243.22 300.745 246.541 297.424C253.394 290.572 253.394 279.423 246.541 272.571C243.222 269.249 238.808 267.422 234.115 267.422Z" fill="#660F5D"/>
    <path d="M215.124 294.84L199.498 310.464L208.735 319.703L224.362 304.079L215.124 294.84Z" fill="#660F5D"/>
    <path d="M221.033 287.02C221.033 287.02 220.858 286.678 220.638 286.084C220.523 285.794 220.395 285.431 220.345 284.968C220.267 284.514 220.178 283.973 220.202 283.421C220.186 282.852 220.238 282.243 220.366 281.605C220.455 280.949 220.701 280.306 220.931 279.621C221.231 278.973 221.529 278.278 221.974 277.664C222.368 277.008 222.904 276.446 223.414 275.866C223.994 275.356 224.553 274.818 225.209 274.423C225.821 273.971 226.518 273.679 227.164 273.375C227.848 273.145 228.491 272.9 229.147 272.808C229.788 272.68 230.399 272.631 230.966 272.644C231.526 272.623 232.046 272.712 232.49 272.795C232.934 272.848 233.316 272.968 233.624 273.085C234.238 273.305 234.565 273.483 234.565 273.483C234.565 273.483 234.228 273.697 233.682 273.974C233.138 274.246 232.393 274.664 231.593 275.158C231.186 275.388 230.768 275.657 230.347 275.955C229.905 276.208 229.505 276.577 229.056 276.862C228.648 277.22 228.201 277.526 227.796 277.904C227.368 278.252 226.983 278.652 226.573 279.028C226.199 279.436 225.794 279.823 225.447 280.249C225.065 280.649 224.762 281.101 224.401 281.506C224.119 281.955 223.745 282.355 223.495 282.794C223.199 283.217 222.93 283.636 222.7 284.043C222.204 284.856 221.796 285.515 221.519 286.129C221.242 286.696 221.033 287.02 221.033 287.02Z" fill="#E6E7E8"/>
    <path d="M102.1 210.707C102.1 210.707 95.9661 210.707 88.0789 208.078C80.1943 205.449 60.918 206.324 60.918 230.858C60.918 255.396 72.3097 264.156 72.3097 264.156C72.3097 264.156 73.1852 278.171 81.5088 291.319C89.8325 304.459 93.337 312.346 94.2125 296.575C95.088 280.805 96.7736 259.339 98.5925 256.198C102.097 250.137 102.097 250.137 102.097 250.137V210.707H102.1Z" fill="#817474" fill-opacity="0.2"/>
    <path d="M139.342 215.256C135.521 209.494 129.539 207.398 124.224 207.108C124.623 207.701 124.906 208.37 125.117 209.073L139.342 215.256Z" fill="#660F5D"/>
    <path d="M136.272 231.851C132.971 233.6 129.49 234.81 126.247 234.737C117.662 234.543 116.475 226.69 116.554 218.262C113.303 217.525 110.872 214.632 110.872 211.159C110.872 210.579 110.956 210.022 111.084 209.478C105.774 210.696 102.099 210.701 102.099 210.701V250.129C102.099 250.129 102.099 250.129 105.604 256.19C107.423 259.331 109.108 280.798 109.986 296.567C110.862 312.339 114.366 304.454 122.69 291.311C131.014 278.166 131.892 264.148 131.892 264.148C131.892 264.148 141.428 256.796 143.043 236.741C139.897 236.71 137.254 234.674 136.272 231.851Z" fill="#DCB3D9"/>
    <path d="M125.458 211.161C125.458 215.189 122.194 218.455 118.167 218.455C117.613 218.455 117.077 218.382 116.557 218.265C116.478 226.693 117.665 234.546 126.25 234.739C129.496 234.81 132.974 233.602 136.275 231.854C136.011 231.104 135.841 230.304 135.841 229.463C135.841 225.715 138.674 222.668 142.309 222.253C141.624 219.477 140.605 217.162 139.345 215.257L125.121 209.073C125.317 209.737 125.458 210.43 125.458 211.161Z" fill="#660F5D"/>
    <path d="M120.73 207.163L125.118 209.071C124.906 208.368 124.624 207.699 124.224 207.105C123.014 207.037 121.835 207.066 120.73 207.163Z" fill="#660F5D"/>
    <path d="M116.554 218.265C116.575 215.855 116.697 213.401 116.784 211.062C116.831 209.842 116.771 208.817 116.648 207.916C116.467 207.97 116.287 208.02 116.117 208.078C114.33 208.673 112.639 209.128 111.084 209.483C110.956 210.027 110.872 210.584 110.872 211.164C110.872 214.634 113.303 217.528 116.554 218.265Z" fill="#660F5D"/>
    <path d="M125.458 211.161C125.458 210.43 125.32 209.737 125.118 209.071L120.731 207.163C119.212 207.299 117.83 207.565 116.651 207.916C116.774 208.817 116.831 209.842 116.787 211.062C116.698 213.401 116.578 215.855 116.557 218.265C117.077 218.382 117.613 218.455 118.167 218.455C122.194 218.455 125.458 215.189 125.458 211.161Z" fill="#660F5D"/>
    <path d="M143.13 227.411C141.055 228.985 138.713 230.563 136.27 231.852C137.255 234.671 139.894 236.707 143.041 236.746C143.19 234.891 143.276 232.936 143.276 230.856C143.279 229.648 143.221 228.509 143.13 227.411Z" fill="#660F5D"/>
    <path d="M135.838 229.46C135.838 230.302 136.008 231.101 136.272 231.851C138.713 230.563 141.057 228.982 143.132 227.411C142.978 225.53 142.696 223.82 142.309 222.25C138.671 222.668 135.838 225.715 135.838 229.46Z" fill="#660F5D"/>
    <path d="M133.604 183.737L122.879 200.034L135.708 201.609L124.669 223.755L147.008 198.455L134.945 195.565L147.008 185.315L133.604 183.737Z" fill="#DA3716"/>
    <path d="M19.7516 201.724L19.5739 201.591C14.3994 197.775 13.2939 190.458 17.1121 185.284L21.9181 178.768L23.1255 179.659L18.3194 186.175C14.9926 190.685 15.9543 197.059 20.465 200.386L20.6427 200.517C25.1534 203.844 31.5249 202.882 34.8543 198.374L46.4917 182.6L47.6991 183.491L36.0643 199.265C32.2435 204.437 24.9287 205.542 19.7516 201.724Z" fill="#11618E"/>
    <path d="M59.145 129.647C59.8506 130.168 60.3393 130.967 60.6373 131.9L65.3335 125.534L63.2507 123.997L59.1058 129.616C59.1189 129.629 59.132 129.637 59.145 129.647Z" fill="#699FB2"/>
    <path d="M59.1063 129.619L63.2512 124L61.1683 122.463L56.472 128.827C57.4495 128.837 58.3589 129.067 59.0645 129.587C59.0776 129.6 59.0933 129.608 59.1063 129.619Z" fill="#7CACC1"/>
    <path d="M59.7859 138.457C61.0064 136.272 61.2416 133.787 60.6379 131.9C60.3373 130.967 59.8512 130.167 59.1456 129.647C59.1326 129.637 59.1195 129.629 59.1038 129.618L43.0576 151.372L18.7349 184.345C18.7479 184.356 18.761 184.366 18.7741 184.377C20.9092 185.95 27.2127 186.878 29.7947 184.17C43.7606 168.882 49.3036 156.314 59.7859 138.457Z" fill="#860579"/>
    <path d="M59.0646 129.587C58.359 129.067 57.4522 128.837 56.4722 128.827C54.4912 128.806 52.1862 129.762 50.4588 131.576C36.4928 146.867 26.1203 155.87 15.638 173.727C13.8139 176.994 16.5632 182.743 18.6931 184.319C18.7061 184.33 18.7218 184.34 18.7349 184.348L43.0577 151.375L59.1038 129.621C59.0934 129.608 59.0777 129.6 59.0646 129.587Z" fill="#75838D"/>
    <path d="M54.0245 109.252L52.0159 111.976L58.4623 116.73L60.4709 114.006L54.0245 109.252Z" fill="#7CACC1"/>
    <path d="M66.4232 112.445L65.4185 113.809L73.356 119.659L74.3608 118.295L66.4232 112.445Z" fill="#860579"/>
    <path d="M64.4223 113.099L65.3997 113.821L66.4032 112.459L65.4258 111.738C62.5694 109.631 58.5474 110.24 56.441 113.097L56.3626 113.201C56.2032 113.415 56.0908 113.648 55.9628 113.878C58.1606 111.547 61.7802 111.152 64.4223 113.099Z" fill="#860579"/>
    <path d="M65.4155 113.856L58.7139 122.942L66.6495 128.795L73.3511 119.709L65.4155 113.856Z" fill="#9CC5DB"/>
    <path d="M57.719 122.186L58.6964 122.907L65.3971 113.821L64.4197 113.099C61.7776 111.152 58.158 111.547 55.9602 113.876C54.3895 116.661 55.0795 120.237 57.719 122.186Z" fill="#9CC5DB"/>
    <path d="M282.865 22.9929C282.865 22.9929 275.845 22.9929 266.821 19.9849C257.795 16.9769 235.733 17.9805 235.733 46.0613C235.733 74.1395 248.768 84.1697 248.768 84.1697C248.768 84.1697 249.772 100.216 259.297 115.258C268.826 130.301 272.835 139.325 273.838 121.275C274.842 103.226 276.771 78.6581 278.853 75.0594C282.865 68.1235 282.865 68.1234 282.865 68.1234V22.9929Z" fill="#AAA8A8" fill-opacity="0.2"/>
    <path d="M282.865 22.9929C282.865 22.9929 289.885 22.9929 298.911 19.9849C307.938 16.9769 330 17.9805 330 46.0613C330 74.1395 316.965 84.1697 316.965 84.1697C316.965 84.1697 315.961 100.216 306.435 115.258C296.907 130.301 292.895 139.325 291.894 121.275C290.891 103.226 288.96 78.6581 286.879 75.0594C282.868 68.1235 282.868 68.1234 282.868 68.1234V22.9929H282.865Z" fill="#DCB3D9"/>
    <path d="M259.509 29.2857C259.509 29.2857 256.486 23.7976 252.861 25.4702C249.236 27.1428 245.481 38.7305 246.009 42.222C246.537 45.7135 247.927 45.4495 251.507 45.1908C255.09 44.9268 257.011 46.9444 256.674 43.6489C256.337 40.3508 258.77 36.3968 259.766 34.1101C260.761 31.8233 259.509 29.2857 259.509 29.2857Z" fill="#F3FBFF"/>
    <path d="M315.64 28.8152C296.959 30.1036 295.914 31.1515 294.623 49.8294C293.332 31.1515 292.289 30.1036 273.609 28.8152C292.289 27.5242 293.332 26.4789 294.623 7.80103C295.914 26.4789 296.959 27.5242 315.64 28.8152Z" fill="#F3FBFF"/>
    <path d="M328.61 47.0331C316.651 47.8563 315.98 48.5279 315.156 60.4868C314.331 48.5279 313.661 47.8563 301.703 47.0331C313.659 46.2099 314.331 45.5383 315.156 33.582C315.98 45.5357 316.651 46.2073 328.61 47.0331Z" fill="#F3FBFF"/>
    <path d="M163.239 313.073C163.231 313.073 163.226 313.073 163.218 313.073L162.457 313.065C161.015 313.034 159.87 311.837 159.899 310.394C159.93 308.951 161.072 307.862 162.567 307.838L163.218 307.846C163.223 307.846 163.231 307.846 163.236 307.846C166.992 307.846 170.77 307.187 174.466 305.891C175.825 305.403 177.32 306.126 177.798 307.491C178.276 308.852 177.56 310.344 176.198 310.82C171.944 312.312 167.582 313.073 163.239 313.073ZM149.762 310.522C149.453 310.522 149.14 310.467 148.836 310.352C144.814 308.829 140.766 306.633 136.802 303.832C135.623 303.001 135.343 301.37 136.174 300.189C137.008 299.013 138.639 298.728 139.818 299.564C143.421 302.112 147.08 304.096 150.689 305.468C152.04 305.977 152.717 307.485 152.208 308.836C151.808 309.879 150.815 310.522 149.762 310.522ZM186.832 304.843C186.022 304.843 185.228 304.47 184.716 303.767C183.866 302.598 184.125 300.965 185.293 300.113C190.943 296.013 194.223 291.742 194.254 291.701C195.125 290.551 196.768 290.334 197.916 291.201C199.063 292.074 199.29 293.71 198.42 294.857C198.269 295.056 194.678 299.758 188.366 304.344C187.904 304.684 187.366 304.843 186.832 304.843Z" fill="#D8ADD3"/>
    <path d="M149.754 292.137L149.95 295.686L132.448 296.624L134.662 314.008L131.131 314.455L128.442 293.279L149.754 292.137Z" fill="#D8ADD3"/>
    <path d="M56.2948 263.492C53.3887 263.492 50.4748 263.262 47.6314 262.81C46.2071 262.585 45.235 261.244 45.4597 259.817C45.6871 258.393 47.0095 257.41 48.452 257.648C51.0236 258.056 53.6657 258.262 56.2974 258.262C59.0023 258.262 60.714 258.035 60.7297 258.032C62.1566 257.849 63.4764 258.842 63.6724 260.269C63.8658 261.699 62.8701 263.013 61.4406 263.209C61.3543 263.225 59.3891 263.492 56.2948 263.492ZM35.5759 259.044C35.1943 259.044 34.8102 258.963 34.4469 258.785C30.1427 256.72 26.3402 253.987 23.144 250.663C22.1431 249.622 22.1744 247.968 23.2146 246.967C24.2573 245.969 25.9116 245.998 26.9099 247.038C29.6723 249.91 32.9677 252.278 36.7075 254.07C38.0089 254.695 38.5578 256.255 37.9332 257.557C37.4837 258.497 36.5507 259.044 35.5759 259.044ZM17.8179 240.669C16.8222 240.669 15.871 240.097 15.4345 239.13C13.6679 235.21 12.3534 230.803 11.5301 226.026C11.2845 224.605 12.2384 223.251 13.66 223.008C15.0948 222.759 16.4328 223.716 16.6785 225.138C17.4285 229.478 18.6098 233.461 20.1961 236.979C20.7894 238.296 20.204 239.843 18.8868 240.436C18.5418 240.593 18.176 240.669 17.8179 240.669Z" fill="#D8ADD3"/>
    <path d="M28.9506 226.876L26.5776 229.525L13.5421 217.81L2.8089 231.668L-0.000488281 229.489L13.0717 212.614L28.9506 226.876Z" fill="#D8ADD3"/>
    <path d="M31.9008 127.22C30.5862 127.22 29.4546 126.234 29.3083 124.896C29.3004 124.839 29.1462 123.433 29.1462 121.159C29.1462 118.854 29.3083 115.237 30.074 111.103C30.3405 109.684 31.6995 108.733 33.1212 109.01C34.5403 109.276 35.4759 110.638 35.2145 112.057C34.5167 115.802 34.373 119.074 34.373 121.157C34.373 123.111 34.5011 124.306 34.5011 124.319C34.6579 125.754 33.623 127.042 32.1882 127.201C32.0941 127.214 31.9974 127.22 31.9008 127.22ZM36.7773 101.838C36.3749 101.838 35.9672 101.747 35.5856 101.551C34.3024 100.89 33.7954 99.3165 34.4566 98.0307C36.6414 93.7813 39.4743 90.0547 42.8796 86.9552C43.9484 85.983 45.6001 86.0614 46.5723 87.1276C47.5445 88.1939 47.4661 89.8456 46.3998 90.8178C43.4571 93.4965 41.0032 96.7292 39.1032 100.419C38.6407 101.321 37.726 101.838 36.7773 101.838ZM55.6277 84.577C54.6058 84.577 53.6363 83.9759 53.2155 82.975C52.6589 81.6422 53.2834 80.1108 54.6163 79.5541C58.5834 77.8894 63.0262 76.695 67.8165 76.0025C69.2512 75.7751 70.571 76.7839 70.7775 78.2134C70.9839 79.643 69.9934 80.9679 68.5665 81.1744C64.21 81.8068 60.1959 82.8836 56.6338 84.3758C56.3071 84.5143 55.9648 84.577 55.6277 84.577Z" fill="#D8ADD3"/>
    <path d="M66.502 93.3944L63.9174 90.9482L75.9729 78.2315L62.4069 67.1325L64.6622 64.3806L81.1814 77.8997L66.502 93.3944Z" fill="#D8ADD3"/>
    <path d="M213.975 148.388C209.958 148.388 205.913 147.743 201.954 146.472C200.579 146.031 199.824 144.559 200.265 143.185C200.707 141.813 202.173 141.055 203.553 141.497C207.497 142.761 211.464 143.302 215.509 143.127C216.918 143.028 218.172 144.175 218.24 145.618C218.306 147.06 217.192 148.284 215.75 148.349C215.151 148.375 214.561 148.388 213.975 148.388ZM228.304 145.466C227.275 145.466 226.3 144.857 225.884 143.846C225.336 142.508 225.976 140.982 227.311 140.436C230.889 138.969 234.49 136.887 238.021 134.244C239.176 133.377 240.815 133.617 241.68 134.772C242.545 135.925 242.309 137.563 241.152 138.428C237.271 141.332 233.28 143.634 229.295 145.268C228.971 145.404 228.636 145.466 228.304 145.466ZM191.092 140.783C190.583 140.783 190.068 140.634 189.616 140.323C183.184 135.907 179.465 131.307 179.311 131.114C178.41 129.987 178.593 128.346 179.716 127.444C180.843 126.54 182.484 126.723 183.388 127.844C183.422 127.886 186.814 132.062 192.572 136.016C193.761 136.834 194.064 138.46 193.248 139.649C192.744 140.386 191.926 140.783 191.092 140.783Z" fill="#D8ADD3"/>
    <path d="M247.102 148.905L243.564 148.553L245.312 131.119L227.792 130.646L227.891 127.089L249.227 127.666L247.102 148.905Z" fill="#D8ADD3"/>
</svg>
