<svg width="270" height="280" viewBox="0 0 270 280" fill="none" xmlns="http://www.w3.org/2000/svg">
    <path d="M61.4039 259.21C59.6931 258.482 58.0085 257.713 56.3549 256.899C34.3455 246.052 17.8405 225.749 9.09982 205.203C5.26597 196.202 2.73767 186.804 1.29931 177.302C-8.10497 114.969 44.2596 85.8436 56.1723 64.0932C68.0855 42.3434 88.8233 8.69263 140.075 6.90808C179.042 5.54468 218.291 22.078 239.311 57.9253C241.632 61.8732 243.732 66.0594 245.579 70.4811C249.017 78.706 251.608 87.7476 253.186 97.6245C257.719 125.994 252.986 149.968 237.09 174.675C233.395 180.418 229.148 186.194 229.382 193.086C229.551 198.096 231.975 202.593 236.504 196.832C241.827 190.06 254.421 195.784 247.945 212.188C237.129 239.586 208.753 253.526 179.252 261.893C143.041 272.163 96.8215 274.299 61.4039 259.21Z" fill="#860579"/>
    <path d="M120.695 270.062C99.962 270.062 79.3053 266.836 61.4039 259.21C59.6931 258.482 58.0086 257.713 56.3549 256.899C34.3456 246.052 17.8405 225.749 9.09985 205.203C5.266 196.202 2.7377 186.804 1.29934 177.302C0.53239 172.219 0.176371 167.357 0.175478 162.701C0.16588 110.268 45.231 84.0699 56.1723 64.0932C68.0855 42.3434 88.8234 8.6926 140.075 6.90805C141.557 6.85605 143.039 6.83035 144.52 6.83035C182.001 6.83035 219.09 23.4409 239.311 57.9253C241.632 61.8732 243.732 66.0594 245.579 70.4811C249.017 78.706 251.608 87.7476 253.186 97.6245C254.27 104.412 254.825 110.948 254.822 117.303C254.815 137.508 249.183 155.879 237.09 174.675C233.492 180.267 229.372 185.89 229.372 192.543C229.372 192.724 229.375 192.904 229.382 193.086C229.494 196.424 230.608 199.534 232.679 199.534C233.716 199.534 234.992 198.754 236.504 196.832C237.976 194.96 240.004 194.042 242.031 194.042C245.894 194.042 249.754 197.373 249.754 203.771C249.753 206.155 249.217 208.966 247.945 212.188C237.129 239.586 208.753 253.526 179.252 261.893C161.344 266.972 140.982 270.062 120.695 270.062Z" fill="#F3E6F2"/>
    <path d="M147.76 37.0449L98.898 47.3967L92.2695 16.1105L141.131 5.75872L147.76 37.0449Z" fill="#860579"/>
    <path d="M92.1689 16.3779L120.085 26.9097L141.332 5.9621L140.931 5.55525L119.944 26.2457L92.3707 15.843L92.1689 16.3779Z" fill="#F3E6F2"/>
    <path d="M97.8123 25.7092L70.4094 31.5148L70.5277 32.0742L97.9306 26.2686" fill="#F3E6F2"/>
    <path d="M90.7204 48.8374L84.6771 50.1179L84.7954 50.6768L90.8387 49.3962" fill="#F3E6F2"/>
    <path d="M98.8386 47.1172L92.5907 48.4406L92.709 49L98.9574 47.676" fill="#F3E6F2"/>
    <path d="M65.8975 43.7362L57.42 45.5321L57.5383 46.0916L66.0164 44.295" fill="#F3E6F2"/>
    <path d="M106.385 35.1581L68.5883 43.1659L68.7066 43.7253L106.504 35.7169" fill="#F3E6F2"/>
    <path d="M219.158 0.000612378C216.924 0.474317 214.689 0.947442 212.454 1.42115L212.573 1.97998C214.807 1.50628 217.042 1.03315 219.277 0.559446L219.158 0.000612378Z" fill="#F3E6F2"/>
    <path d="M240.884 17.0232L226.722 20.0237L226.84 20.5825L241.002 17.582" fill="#F3E6F2"/>
    <path d="M227.29 9.54342L199.464 15.4381L199.583 15.9976L227.408 10.1023" fill="#F3E6F2"/>
    <path d="M248.43 5.06388L229.547 9.06495L229.666 9.62378L248.549 5.6233" fill="#F3E6F2"/>
    <path d="M90.3399 116.296L41.4782 126.648L34.85 95.3625L83.7114 85.0102L90.3399 116.296Z" fill="#860579"/>
    <path d="M34.749 95.6296L62.665 106.161L83.912 85.2138L83.5108 84.807L62.5244 105.497L34.9506 95.0953L34.749 95.6296Z" fill="#F3E6F2"/>
    <path d="M40.3923 104.961L12.9894 110.766L13.108 111.326L40.5108 105.52" fill="#F3E6F2"/>
    <path d="M41.419 126.369L27.2573 129.369L27.3758 129.928L41.5375 126.928" fill="#F3E6F2"/>
    <path d="M9.94688 122.676L0 124.784L0.118524 125.343L10.0654 123.236" fill="#F3E6F2"/>
    <path d="M48.9655 114.41L12.7294 122.087L12.8479 122.646L49.084 114.969" fill="#F3E6F2"/>
    <path d="M232.385 86.2022L183.523 96.554L176.895 65.2683L225.757 54.916L232.385 86.2022Z" fill="#860579"/>
    <path d="M176.794 65.5357L204.71 76.0669L225.957 55.1199L225.556 54.7125L204.57 75.4029L176.996 65.0008L176.794 65.5357Z" fill="#F3E6F2"/>
    <path d="M182.437 74.8664L155.035 80.6726L155.153 81.2314L182.556 75.4258" fill="#F3E6F2"/>
    <path d="M183.464 96.2746L169.302 99.2751L169.421 99.834L183.583 96.8335" fill="#F3E6F2"/>
    <path d="M191.01 84.3159L142.044 94.6894L142.163 95.2488L191.129 84.8747" fill="#F3E6F2"/>
    <path d="M174.965 165.454L126.103 175.806L119.475 144.52L168.337 134.168L174.965 165.454Z" fill="#860579"/>
    <path d="M119.374 144.787L147.29 155.319L168.537 134.371L168.136 133.964L147.15 154.655L119.576 144.253L119.374 144.787Z" fill="#F3E6F2"/>
    <path d="M125.017 154.118L97.6146 159.924L97.7328 160.483L125.136 154.677" fill="#F3E6F2"/>
    <path d="M126.044 175.526L111.882 178.527L112.001 179.085L126.163 176.085" fill="#F3E6F2"/>
    <path d="M133.59 163.568L84.6251 173.942L84.7434 174.5L133.709 164.126" fill="#F3E6F2"/>
    <path d="M267.062 124.024L239.659 129.83L239.778 130.389L267.181 124.583" fill="#F3E6F2"/>
    <path d="M268.089 145.432L253.927 148.432L254.046 148.991L268.207 145.991" fill="#F3E6F2"/>
    <path d="M258.02 137.213C247.561 139.573 237.041 142.193 226.684 143.845L226.774 144.409C237.164 142.752 247.694 140.128 258.146 137.77L258.02 137.213Z" fill="#F3E6F2"/>
    <path d="M268.989 134.881C266.426 135.381 263.856 135.922 261.28 136.487L261.402 137.045C263.975 136.481 266.541 135.941 269.098 135.442L268.989 134.881Z" fill="#F3E6F2"/>
    <path d="M94.165 227.158L45.3035 237.51L38.6751 206.224L87.5371 195.872L94.165 227.158Z" fill="#860579"/>
    <path d="M38.5742 206.491L66.4906 217.023L87.7376 196.075L87.3365 195.669L66.3501 216.359L38.776 205.957L38.5742 206.492" fill="#F3E6F2"/>
    <path d="M44.2176 215.822L16.8149 221.629L16.9332 222.188L44.336 216.382" fill="#F3E6F2"/>
    <path d="M45.2444 237.231L31.0824 240.231L31.2009 240.79L45.3627 237.79" fill="#F3E6F2"/>
    <path d="M52.7909 225.272L3.82538 235.646L3.94368 236.205L52.9094 225.831" fill="#F3E6F2"/>
    <path d="M259.59 214.611L210.728 224.963L204.1 193.677L252.962 183.325L259.59 214.611Z" fill="#860579"/>
    <path d="M203.999 193.945L231.915 204.476L253.162 183.529L252.761 183.122L231.775 203.813L204.201 193.41L203.999 193.945Z" fill="#F3E6F2"/>
    <path d="M209.642 203.276L182.24 209.082L182.358 209.641L209.761 203.835" fill="#F3E6F2"/>
    <path d="M210.669 224.683L196.507 227.684L196.626 228.243L210.788 225.243" fill="#F3E6F2"/>
    <path d="M218.216 212.725L169.25 223.099L169.369 223.658L218.334 213.284" fill="#F3E6F2"/>
    <path d="M162.404 109.813L178.106 110.232C180.944 110.308 183.287 108.027 183.287 105.188V102.444C183.287 99.8358 181.299 97.6575 178.703 97.4187L166.708 96.3159C161.665 95.8519 156.581 96.4307 151.771 98.0158L136.595 103.017C135.242 103.463 133.937 104.043 132.7 104.748L105.621 120.189L105.115 114.727C105.07 114.239 105.115 113.748 105.249 113.277L108.623 101.375C109.754 97.3901 110.059 93.2159 109.522 89.1086L109.422 80.9876C109.223 76.2974 105.666 75.9248 103.42 76.3568C101.606 76.706 100.272 78.2591 100.201 80.1053L99.67 82.8201C99.5431 86.1155 98.7357 89.3491 97.2986 92.3171L87.1188 113.34C86.8228 113.952 86.6565 114.618 86.6302 115.298L85.8462 135.69C85.8382 135.894 85.8451 136.094 85.8691 136.297L85.792 164.714L28.3367 279.275H89.9833L112.363 194.943C115.518 195.259 118.726 194.42 121.349 192.501L163.239 161.88L168.792 159.171L171.402 159.379C172.667 161.316 175.087 162.632 177.386 161.683C179.612 160.764 180.84 158.423 180.181 156.107C178.864 151.48 172.717 150.137 168.681 149.563C167.31 149.368 165.925 149.213 164.542 149.276C161.846 149.397 159.264 150.332 156.729 151.257C156.438 150.684 156.146 150.111 155.855 149.539C157.883 149.138 159.877 148.567 161.811 147.836C163.007 147.383 164.953 145.942 166.242 145.942C166.537 145.942 169.2 146.427 171.195 146.799C172.003 148.548 173.419 149.904 175.595 150.261C179.213 150.855 182.426 147.923 182.431 144.257C182.436 139.532 180.219 136.878 175.823 135.068C174.535 134.537 171.61 133.019 170.216 133.017C167.721 133.013 164.645 132.66 163.054 132.872C161.377 133.096 154.213 134.417 150.084 135.186L149.941 134.897C155.523 133.233 167.47 129.684 167.835 129.684C168.115 129.684 169.971 129.412 171.467 129.186C172.342 130.706 173.708 131.866 175.638 132.169C179.211 132.732 182.395 129.834 182.431 126.218C182.477 121.537 179.971 118.525 175.559 116.708L172.772 115.872C172.772 115.872 161.724 115.619 160.092 116.011C158.764 116.33 144.626 117.823 144.626 117.823L162.404 109.813Z" fill="white"/>
    <path d="M162.404 109.813L162.396 110.098L178.098 110.517L178.243 110.519C181.177 110.519 183.572 108.14 183.572 105.188V102.444C183.572 99.6877 181.472 97.3867 178.728 97.1341L166.734 96.0312C165.599 95.9267 164.462 95.8747 163.327 95.8747C159.378 95.8747 155.446 96.5038 151.681 97.7444L136.506 102.745C135.134 103.197 133.812 103.785 132.558 104.5L105.864 119.72L105.4 114.701C105.389 114.587 105.384 114.474 105.384 114.361C105.384 114.021 105.43 113.682 105.524 113.355L108.898 101.453C109.674 98.7181 110.065 95.8947 110.065 93.0639C110.065 91.7319 109.978 90.3982 109.805 89.0714L109.522 89.1085L109.807 89.1051L109.708 80.9796L109.707 80.9756C109.627 79.0202 108.963 77.7322 108.019 76.9591C107.076 76.1859 105.894 75.9368 104.809 75.9362C104.3 75.9362 103.809 75.9917 103.366 76.0762C101.422 76.4505 99.9917 78.1156 99.9157 80.0944L100.201 80.1053L99.9208 80.0504L99.3854 82.787L99.3843 82.8092C99.2591 86.0652 98.4614 89.26 97.0415 92.1925L86.8617 113.216C86.5485 113.863 86.3725 114.568 86.3445 115.287L85.5605 135.679C85.5583 135.736 85.5571 135.792 85.5571 135.848C85.5571 136.009 85.5663 136.169 85.5851 136.33L85.8691 136.297L85.5834 136.296L85.5063 164.646L27.8738 279.561H90.2033L112.639 195.017L112.363 194.943L112.335 195.228C112.777 195.271 113.221 195.294 113.663 195.294C116.447 195.294 119.204 194.423 121.518 192.732L163.388 162.125L168.847 159.461L171.379 159.664L171.402 159.379L171.162 159.536C172.183 161.095 173.916 162.28 175.807 162.284C176.366 162.284 176.935 162.178 177.495 161.947C179.417 161.155 180.645 159.35 180.645 157.368C180.645 156.927 180.584 156.477 180.456 156.029C180.112 154.819 179.448 153.82 178.593 153.007C176.022 150.568 171.764 149.718 168.721 149.28C167.555 149.114 166.371 148.976 165.178 148.976C164.962 148.976 164.745 148.98 164.529 148.99C161.776 149.115 159.166 150.064 156.631 150.989L156.729 151.257L156.984 151.128C156.693 150.555 156.401 149.982 156.11 149.409L155.855 149.539L155.911 149.819C157.954 149.415 159.964 148.84 161.912 148.103C162.552 147.859 163.335 147.384 164.124 146.972C164.908 146.558 165.701 146.222 166.242 146.227C166.245 146.227 166.321 146.233 166.419 146.246C167.136 146.342 169.4 146.755 171.143 147.08L171.195 146.799L170.936 146.919C171.768 148.731 173.272 150.173 175.548 150.543C175.879 150.597 176.207 150.623 176.531 150.623C179.915 150.62 182.711 147.757 182.716 144.257V144.238C182.717 141.838 182.148 139.925 181.002 138.393C179.857 136.859 178.155 135.719 175.932 134.804C175.303 134.545 174.244 134.03 173.17 133.58C172.631 133.355 172.087 133.145 171.583 132.99C171.078 132.836 170.615 132.732 170.217 132.731C168.315 132.729 166.054 132.519 164.366 132.519C163.859 132.519 163.404 132.537 163.016 132.589C161.318 132.816 154.165 134.135 150.031 134.905L150.084 135.186L150.34 135.06L150.198 134.771L149.942 134.897L150.023 135.171C152.813 134.339 157.195 133.036 160.925 131.941C162.789 131.393 164.491 130.898 165.748 130.54C166.377 130.36 166.894 130.216 167.265 130.116C167.45 130.066 167.598 130.028 167.703 130.003C167.755 129.989 167.797 129.98 167.825 129.975L167.853 129.969H167.854L167.835 129.791V129.97L167.854 129.969L167.835 129.791V129.97C167.941 129.969 168.102 129.951 168.345 129.922C169.062 129.834 170.386 129.639 171.51 129.469L171.467 129.186L171.219 129.329C172.123 130.905 173.569 132.136 175.594 132.452C175.909 132.501 176.221 132.525 176.529 132.525C179.89 132.522 182.681 129.687 182.717 126.22L182.717 126.09C182.719 123.735 182.074 121.768 180.863 120.174C179.651 118.577 177.886 117.357 175.668 116.444L175.655 116.438L172.817 115.587L172.779 115.586C172.778 115.586 169.272 115.506 165.914 115.506C164.612 115.506 163.333 115.518 162.286 115.551C161.762 115.569 161.298 115.591 160.915 115.62C160.531 115.649 160.236 115.683 160.025 115.733C159.885 115.767 159.516 115.827 159.007 115.898C157.217 116.146 153.611 116.557 150.456 116.905C148.879 117.079 147.414 117.237 146.343 117.353C145.272 117.467 144.597 117.538 144.595 117.538L144.626 117.823L144.743 118.083L162.521 110.073L162.404 109.813L162.286 109.553L142.885 118.294L144.655 118.107C144.656 118.107 148.191 117.734 151.892 117.321C153.744 117.114 155.636 116.898 157.15 116.713C157.907 116.62 158.569 116.535 159.086 116.463C159.604 116.391 159.967 116.335 160.159 116.289C160.305 116.253 160.59 116.217 160.958 116.19C162.069 116.105 163.968 116.077 165.914 116.077C167.589 116.077 169.302 116.098 170.596 116.118C171.891 116.138 172.763 116.158 172.766 116.158L172.772 115.872L172.69 116.146L175.477 116.982L175.559 116.708L175.45 116.972C177.603 117.859 179.275 119.026 180.407 120.519C181.539 122.012 182.145 123.837 182.146 126.09L182.145 126.215C182.116 129.374 179.558 131.957 176.529 131.954C176.251 131.954 175.968 131.932 175.683 131.887C173.846 131.596 172.561 130.508 171.715 129.044L171.617 128.875L171.424 128.904C170.677 129.017 169.839 129.141 169.155 129.237C168.813 129.285 168.51 129.326 168.275 129.355C168.045 129.384 167.87 129.4 167.835 129.399C167.774 129.4 167.754 129.407 167.711 129.415C167.563 129.445 167.274 129.52 166.85 129.637C163.894 130.449 154.592 133.213 149.86 134.624L149.536 134.72L149.923 135.506L150.136 135.466C154.261 134.698 161.436 133.376 163.092 133.155C163.438 133.109 163.874 133.09 164.366 133.09C166.011 133.089 168.278 133.299 170.215 133.302C170.513 133.301 170.939 133.389 171.415 133.536C172.85 133.977 174.73 134.925 175.715 135.332C177.881 136.224 179.483 137.313 180.544 138.734C181.604 140.157 182.144 141.925 182.145 144.238V144.257V144.256C182.142 147.449 179.583 150.055 176.531 150.052C176.238 150.052 175.942 150.028 175.641 149.979C173.566 149.634 172.239 148.364 171.455 146.679L171.393 146.545L171.248 146.518C170.249 146.333 169.084 146.118 168.13 145.95C167.654 145.866 167.23 145.793 166.905 145.741C166.742 145.715 166.604 145.695 166.495 145.68C166.384 145.666 166.312 145.657 166.242 145.656C165.494 145.662 164.67 146.046 163.86 146.466C163.054 146.887 162.266 147.359 161.71 147.568C159.791 148.295 157.812 148.861 155.8 149.259L155.429 149.332L155.601 149.668C155.892 150.241 156.183 150.814 156.475 151.387L156.589 151.612L156.827 151.526C159.361 150.6 161.918 149.679 164.554 149.561C164.762 149.552 164.97 149.547 165.178 149.547C166.327 149.547 167.485 149.681 168.641 149.846C170.647 150.131 173.171 150.608 175.334 151.576C176.415 152.059 177.406 152.664 178.199 153.42C178.993 154.177 179.592 155.082 179.907 156.185C180.019 156.583 180.073 156.979 180.073 157.368C180.073 159.111 178.995 160.709 177.277 161.419C176.787 161.621 176.294 161.713 175.807 161.713C174.167 161.717 172.572 160.652 171.641 159.223L171.564 159.106L168.737 158.88L163.091 161.634L121.18 192.271C118.967 193.889 116.328 194.722 113.663 194.722C113.239 194.722 112.815 194.701 112.391 194.659L112.149 194.635L89.7633 278.989H28.7996L86.0771 164.782L86.1548 136.281L86.1525 136.264C86.1365 136.124 86.1285 135.987 86.1285 135.848L86.1314 135.701L86.9159 115.309C86.9405 114.669 87.0971 114.041 87.3759 113.465L97.5557 92.4416C99.0106 89.4377 99.8271 86.1657 99.9557 82.8309L99.67 82.8201L99.9505 82.875L100.486 80.1384L100.487 80.1161C100.553 78.403 101.791 76.9614 103.474 76.6374C103.885 76.5585 104.341 76.5077 104.809 76.5077C105.81 76.5077 106.855 76.7408 107.656 77.4008C108.457 78.0608 109.055 79.155 109.137 80.9996L109.422 80.9876L109.137 80.991L109.236 89.1285L109.238 89.1457C109.409 90.4479 109.494 91.7565 109.494 93.0639C109.494 95.8421 109.11 98.6129 108.349 101.297L104.974 113.199C104.866 113.577 104.812 113.969 104.812 114.361C104.812 114.491 104.818 114.622 104.83 114.753L105.377 120.656L132.841 104.997C134.062 104.3 135.35 103.728 136.685 103.288L151.86 98.2872C155.567 97.0655 159.438 96.4461 163.327 96.4461C164.445 96.4461 165.565 96.4975 166.682 96.6004L178.676 97.7032C181.126 97.9284 183.001 99.9832 183.001 102.444V105.188C183 106.506 182.467 107.694 181.604 108.556C180.741 109.417 179.553 109.948 178.243 109.948L178.114 109.946L162.346 109.526L162.286 109.553L162.404 109.813Z" fill="#F3E6F2"/>
    <path d="M105.342 120.254C105.343 120.256 105.503 120.928 105.738 121.938C105.974 122.949 106.284 124.296 106.585 125.644L107.142 125.52C106.541 122.82 105.898 120.123 105.898 120.122L105.342 120.254Z" fill="#F3E6F2"/>
    <path d="M137.788 114.007C137.789 114.008 137.949 114.305 138.235 114.838C140.237 118.568 148.405 133.826 150.781 138.945L151.299 138.704C148.564 132.813 138.293 113.74 138.291 113.737L137.788 114.007Z" fill="#F3E6F2"/>
    <path d="M154.328 147.911L157.473 160.283L158.027 160.142L154.882 147.771" fill="#F3E6F2"/>
    <path d="M170.909 154.226C170.9 154.247 170.408 155.351 170.407 156.786C170.407 157.64 170.585 158.617 171.16 159.532L171.643 159.227C171.139 158.425 170.979 157.563 170.979 156.786C170.978 156.135 171.092 155.547 171.207 155.125C171.264 154.914 171.322 154.744 171.364 154.629C171.385 154.571 171.402 154.527 171.414 154.498L171.427 154.466L171.431 154.457L170.909 154.226Z" fill="#F3E6F2"/>
    <path d="M163.126 152.454C163.126 152.463 163.126 153.576 163.339 154.936C163.557 156.296 163.969 157.905 164.875 158.934L165.303 158.554C164.531 157.696 164.106 156.16 163.903 154.847C163.801 154.19 163.749 153.59 163.723 153.154C163.71 152.937 163.703 152.761 163.701 152.639C163.697 152.518 163.697 152.454 163.697 152.454H163.126Z" fill="#F3E6F2"/>
    <path d="M172.803 135.759C172.797 135.778 170.542 140.157 170.536 144.258C170.536 145.163 170.647 146.058 170.924 146.89L171.466 146.709C171.214 145.95 171.107 145.117 171.107 144.258C171.106 142.311 171.656 140.242 172.209 138.668C172.486 137.881 172.762 137.216 172.969 136.75C173.072 136.517 173.159 136.333 173.219 136.208C173.279 136.083 173.311 136.02 173.311 136.019L172.803 135.759Z" fill="#F3E6F2"/>
    <path d="M162.875 136.08C162.874 136.087 162.546 138.244 162.546 140.446C162.547 141.548 162.626 142.659 162.883 143.542L163.431 143.381C163.2 142.593 163.117 141.518 163.117 140.446C163.117 139.373 163.198 138.3 163.279 137.497C163.319 137.096 163.359 136.762 163.39 136.529C163.42 136.296 163.44 136.165 163.44 136.165L162.875 136.08Z" fill="#F3E6F2"/>
    <path d="M160.232 99.569C160.232 99.569 159.953 104.167 161.625 108.069L160.232 99.569Z" fill="white"/>
    <path d="M159.946 99.5519C159.946 99.557 159.928 99.8501 159.928 100.348C159.93 101.846 160.083 105.192 161.362 108.181L161.888 107.956C160.658 105.094 160.498 101.804 160.5 100.348C160.5 100.106 160.504 99.9141 160.508 99.7838C160.513 99.6536 160.517 99.5867 160.517 99.5867L159.946 99.5519Z" fill="#F3E6F2"/>
    <path d="M143.65 105.004C143.65 105.004 142.396 109.602 148.109 113.642L143.65 105.004Z" fill="white"/>
    <path d="M143.374 104.928C143.369 104.948 143.248 105.4 143.247 106.141C143.242 107.827 143.899 111.022 147.944 113.875L148.274 113.409C144.379 110.647 143.825 107.688 143.819 106.141C143.819 105.802 143.847 105.532 143.874 105.348C143.888 105.257 143.902 105.187 143.911 105.141L143.923 105.091L143.926 105.079L143.374 104.928Z" fill="#F3E6F2"/>
    <path d="M170.96 118.519C170.96 118.519 169.494 123.623 171.379 128.134L170.96 118.519Z" fill="white"/>
    <path d="M170.686 118.44C170.682 118.456 170.132 120.37 170.131 122.909C170.132 124.54 170.359 126.432 171.115 128.244L171.642 128.024C170.924 126.306 170.703 124.488 170.703 122.909C170.703 121.68 170.836 120.599 170.97 119.826C171.037 119.44 171.104 119.131 171.154 118.919C171.179 118.814 171.199 118.732 171.214 118.678C171.228 118.624 171.235 118.598 171.235 118.598L170.686 118.44Z" fill="#F3E6F2"/>
    <path d="M159.117 119.634C159.117 119.634 157.305 125.208 161.764 129.388L159.117 119.634Z" fill="white"/>
    <path d="M158.845 119.546C158.839 119.565 158.468 120.711 158.467 122.367C158.465 124.4 159.038 127.225 161.569 129.596L161.96 129.179C159.57 126.938 159.041 124.301 159.038 122.367C159.038 121.582 159.127 120.916 159.216 120.448C159.26 120.215 159.304 120.031 159.336 119.907C159.353 119.844 159.366 119.797 159.375 119.766L159.388 119.722L158.845 119.546Z" fill="#F3E6F2"/>
    <path d="M114.897 138.378C114.897 138.379 114.954 138.567 115.057 138.916C115.771 141.354 118.628 151.615 118.626 158.86C118.626 159.513 118.602 160.141 118.553 160.736C118.387 162.729 117.499 164.629 116.184 166.376C114.215 168.997 111.293 171.259 108.524 172.944C105.758 174.629 103.131 175.741 101.805 176.07L101.944 176.625C102.896 176.386 104.38 175.807 106.104 174.941C108.686 173.641 111.793 171.696 114.332 169.284C116.868 166.872 118.852 163.985 119.122 160.783C119.174 160.17 119.197 159.527 119.197 158.86C119.196 154.641 118.256 149.489 117.319 145.38C116.382 141.273 115.445 138.216 115.443 138.211L114.897 138.378Z" fill="#F3E6F2"/>
    <path d="M106.99 127.499C107.258 128.752 107.477 129.856 107.565 130.468L108.13 130.388C108.038 129.743 107.818 128.639 107.549 127.38L106.99 127.499Z" fill="#F3E6F2"/>
    <path d="M167.955 187.217H113.974C111.35 187.217 109.223 185.09 109.223 182.466V63.3707C109.223 60.7467 111.35 58.6193 113.974 58.6193H167.955C170.579 58.6193 172.706 60.7467 172.706 63.3707V182.466C172.706 185.09 170.579 187.217 167.955 187.217Z" fill="#F3E6F2"/>
    <path d="M167.955 187.217V186.932H113.974C112.74 186.932 111.626 186.432 110.817 185.624C110.008 184.815 109.509 183.7 109.509 182.466V63.3706C109.509 62.1364 110.008 61.0221 110.817 60.213C111.626 59.4044 112.74 58.905 113.974 58.905H167.955C169.189 58.905 170.303 59.4044 171.112 60.213C171.921 61.0221 172.42 62.1364 172.42 63.3706V182.466C172.42 183.7 171.921 184.815 171.112 185.624C170.303 186.432 169.189 186.932 167.955 186.932V187.217V187.503C170.737 187.503 172.991 185.248 172.992 182.466V63.3706C172.991 60.5884 170.737 58.3336 167.955 58.3336H113.974C111.193 58.3336 108.938 60.5884 108.937 63.3706V182.466C108.938 185.248 111.193 187.503 113.974 187.503H167.955V187.217Z" fill="#721D6B"/>
    <path d="M164.825 62.0943H152.703V63.1246C152.703 64.1503 151.871 64.9823 150.845 64.9823H131.084C130.057 64.9823 129.226 64.1503 129.226 63.1246V62.0943H117.104C114.619 62.0943 112.606 64.1086 112.606 66.5925V177.003H169.323V66.5925C169.323 64.1086 167.31 62.0943 164.825 62.0943Z" fill="#8F4988"/>
    <path d="M169.323 74.3481V66.5923C169.323 64.1084 167.31 62.0941 164.825 62.0941H152.703V63.1244C152.703 64.1501 151.871 64.9821 150.845 64.9821H131.084C130.057 64.9821 129.226 64.1501 129.226 63.1244V62.0941H117.104C114.619 62.0941 112.606 64.1084 112.606 66.5923V74.3481H169.323Z" fill="white"/>
    <path d="M160.778 145.353H121.952C119.54 145.353 117.586 143.398 117.586 140.986V133.172C117.586 130.76 119.54 128.805 121.952 128.805H160.778C163.19 128.805 165.145 130.76 165.145 133.172V140.986C165.145 143.398 163.19 145.353 160.778 145.353Z" fill="#F3E6F2"/>
    <path d="M160.778 145.353V145.067H121.952C120.824 145.067 119.806 144.611 119.067 143.872C118.327 143.132 117.871 142.114 117.871 140.986V133.172C117.871 132.044 118.327 131.026 119.067 130.286C119.806 129.548 120.824 129.091 121.952 129.091H160.778C161.906 129.091 162.925 129.548 163.664 130.286C164.403 131.026 164.859 132.044 164.859 133.172V140.986C164.859 142.114 164.403 143.132 163.664 143.872C162.925 144.611 161.906 145.067 160.778 145.067V145.353V145.639C163.347 145.639 165.43 143.556 165.43 140.986V133.172C165.43 130.602 163.347 128.52 160.778 128.52H121.952C119.383 128.52 117.3 130.602 117.3 133.172V140.986C117.3 143.556 119.383 145.639 121.952 145.639H160.778V145.353Z" fill="#F3E6F2"/>
    <path d="M132.098 142.705C131.43 142.705 130.861 142.577 130.407 142.327C129.94 142.071 129.583 141.68 129.346 141.165C129.12 140.671 128.988 140.044 128.953 139.299L128.941 139.046L131.276 138.652L131.289 138.976C131.305 139.369 131.346 139.698 131.412 139.955C131.468 140.178 131.549 140.341 131.654 140.439C131.746 140.526 131.856 140.566 131.999 140.566C132.232 140.566 132.277 140.487 132.292 140.461C132.363 140.338 132.397 140.197 132.397 140.032C132.397 139.667 132.315 139.373 132.145 139.134C131.956 138.868 131.701 138.594 131.388 138.32L130.344 137.412C129.952 137.082 129.624 136.697 129.372 136.273C129.111 135.833 128.978 135.29 128.978 134.661C128.978 133.751 129.254 133.038 129.798 132.541C130.335 132.05 131.071 131.801 131.986 131.801C132.535 131.801 132.997 131.895 133.36 132.081C133.726 132.268 134.016 132.526 134.222 132.846C134.418 133.152 134.557 133.489 134.634 133.848C134.708 134.187 134.753 134.53 134.77 134.869L134.784 135.129L132.464 135.474L132.447 135.161C132.43 134.862 132.405 134.6 132.369 134.382C132.341 134.204 132.287 134.066 132.21 133.974C132.189 133.95 132.127 133.877 131.924 133.877C131.743 133.877 131.673 133.946 131.629 134.014C131.543 134.146 131.501 134.288 131.501 134.449C131.501 134.744 131.565 134.983 131.691 135.161C131.839 135.369 132.048 135.593 132.312 135.826L133.332 136.721C133.769 137.099 134.153 137.54 134.47 138.03C134.802 138.544 134.97 139.179 134.97 139.92C134.97 140.44 134.849 140.918 134.61 141.341C134.368 141.768 134.028 142.106 133.598 142.345C133.173 142.583 132.668 142.705 132.098 142.705Z" fill="white"/>
    <path d="M131.999 140.281C131.91 140.281 131.876 140.255 131.85 140.231C131.813 140.197 131.745 140.107 131.689 139.886C131.628 139.647 131.59 139.337 131.575 138.965L131.572 138.89C131.704 139.029 131.817 139.166 131.912 139.299C132.046 139.488 132.112 139.728 132.112 140.031C132.112 140.126 132.096 140.207 132.066 140.277L131.999 140.281ZM132.168 135.29C132.073 135.189 131.991 135.09 131.924 134.995C131.833 134.867 131.787 134.683 131.787 134.449C131.787 134.344 131.813 134.256 131.868 134.17L131.924 134.162C131.985 134.162 132.008 134.172 132.008 134.172C132.016 134.188 132.061 134.261 132.088 134.428C132.121 134.636 132.146 134.889 132.162 135.177L132.168 135.29ZM131.986 131.515C130.998 131.515 130.197 131.789 129.605 132.33C129 132.884 128.692 133.668 128.692 134.661C128.692 135.342 128.838 135.934 129.126 136.419C129.394 136.87 129.743 137.279 130.163 137.633L131.046 138.401L130.909 138.424L129.144 138.722L128.645 138.806L128.668 139.312C128.704 140.094 128.845 140.757 129.086 141.283C129.349 141.855 129.747 142.291 130.269 142.578C130.766 142.851 131.382 142.99 132.098 142.99C132.717 142.99 133.269 142.857 133.739 142.594C134.214 142.329 134.591 141.955 134.858 141.482C135.122 141.015 135.255 140.489 135.255 139.919C135.255 139.123 135.072 138.435 134.71 137.875C134.38 137.363 133.978 136.901 133.516 136.503L132.644 135.737L132.817 135.711L134.57 135.449L135.083 135.373L135.056 134.854C135.038 134.501 134.99 134.142 134.914 133.788C134.829 133.396 134.678 133.028 134.464 132.692C134.229 132.329 133.902 132.038 133.49 131.826C133.088 131.62 132.581 131.515 131.986 131.515ZM131.986 132.086C132.492 132.086 132.906 132.169 133.23 132.335C133.553 132.501 133.804 132.723 133.982 133.001C134.16 133.278 134.285 133.581 134.355 133.908C134.425 134.236 134.469 134.561 134.485 134.884L132.732 135.145C132.716 134.839 132.689 134.569 132.652 134.337C132.614 134.105 132.54 133.922 132.428 133.79C132.316 133.658 132.148 133.591 131.924 133.591C131.684 133.591 131.506 133.68 131.39 133.858C131.273 134.037 131.216 134.233 131.216 134.449C131.216 134.805 131.296 135.098 131.458 135.326C131.62 135.554 131.841 135.792 132.123 136.04L133.143 136.936C133.566 137.301 133.928 137.717 134.23 138.185C134.533 138.654 134.684 139.232 134.684 139.919C134.684 140.392 134.577 140.819 134.361 141.201C134.146 141.582 133.845 141.881 133.46 142.095C133.074 142.311 132.621 142.419 132.098 142.419C131.477 142.419 130.958 142.305 130.544 142.077C130.129 141.849 129.817 141.505 129.605 141.045C129.394 140.585 129.272 139.999 129.238 139.286L131.004 138.987C131.021 139.402 131.064 139.747 131.135 140.026C131.205 140.303 131.313 140.51 131.458 140.647C131.603 140.784 131.784 140.852 131.999 140.852C132.264 140.852 132.444 140.769 132.54 140.603C132.635 140.438 132.683 140.247 132.683 140.031C132.683 139.609 132.581 139.255 132.378 138.969C132.175 138.683 131.908 138.395 131.576 138.105L130.532 137.197C130.158 136.882 129.854 136.525 129.618 136.128C129.382 135.729 129.264 135.241 129.264 134.661C129.264 133.832 129.506 133.195 129.991 132.752C130.476 132.308 131.141 132.086 131.986 132.086Z" fill="#8F4988"/>
    <path d="M135.319 142.568V131.925H140.279V133.914H137.942V136.016H139.745V138.018H137.942V140.604H140.305V142.568H135.319Z" fill="white"/>
    <path d="M140.565 131.64H135.033V142.854H140.59V142.282V140.889V140.318H140.019H138.227V138.303H139.459H140.031V137.732V136.302V135.73H139.459H138.227V134.2H139.994H140.565V133.628V132.211V131.64ZM139.994 132.211V133.628H137.656V136.302H139.459V137.732H137.656V140.889H140.019V142.282H135.605V132.211H139.994Z" fill="#8F4988"/>
    <path d="M144.848 142.568L143.089 138.189V142.568H140.765V131.925H142.668L144.432 136.06V131.925H146.695V142.568H144.848Z" fill="white"/>
    <path d="M146.98 131.64H144.147V134.661L143.006 131.987L142.858 131.64H142.48H141.05H140.479V132.211V142.282V142.854H141.05H142.803H143.375V142.282V139.667L144.511 142.495L144.655 142.854H145.042H146.409H146.98V142.282V132.211V131.64ZM146.409 132.211V142.282H145.042L142.803 136.712V142.282H141.05V132.211H142.48L144.718 137.458V132.211H146.409Z" fill="#8F4988"/>
    <path d="M150.425 140.566C150.841 140.566 151.007 140.489 151.068 140.443C151.171 140.367 151.235 140.251 151.263 140.088C151.301 139.867 151.321 139.589 151.321 139.261V135.108C151.321 134.785 151.297 134.527 151.249 134.34C151.213 134.201 151.149 134.105 151.053 134.047C150.987 134.006 150.819 133.939 150.413 133.939H150.276V140.566H150.425ZM147.652 142.568V131.925H150.401C151.304 131.925 151.996 132.042 152.516 132.281C153.056 132.53 153.446 132.927 153.672 133.461C153.885 133.963 153.993 134.604 153.993 135.369V139.037C153.993 139.817 153.885 140.473 153.673 140.986C153.448 141.532 153.064 141.939 152.533 142.197C152.021 142.447 151.34 142.568 150.45 142.568H147.652Z" fill="white"/>
    <path d="M150.561 140.277V134.228C150.821 134.242 150.901 134.288 150.901 134.289C150.917 134.299 150.948 134.317 150.972 134.411C151.001 134.523 151.035 134.736 151.035 135.108V139.261C151.035 139.573 151.017 139.835 150.981 140.038C150.959 140.169 150.916 140.201 150.899 140.213C150.897 140.214 150.82 140.264 150.561 140.277ZM150.4 131.64H147.367V142.854H150.451C151.384 142.854 152.106 142.723 152.659 142.454C153.253 142.165 153.684 141.708 153.937 141.096C154.164 140.547 154.279 139.854 154.279 139.037V135.369C154.279 134.567 154.164 133.887 153.936 133.349C153.68 132.748 153.242 132.301 152.635 132.021C152.077 131.765 151.346 131.64 150.4 131.64ZM149.99 140.852H150.425C150.806 140.852 151.078 140.793 151.239 140.672C151.401 140.552 151.503 140.374 151.544 140.137C151.585 139.901 151.607 139.609 151.607 139.261V135.108C151.607 134.76 151.58 134.48 151.526 134.269C151.471 134.058 151.364 133.902 151.202 133.803C151.041 133.703 150.777 133.653 150.413 133.653H149.99V140.852ZM150.4 132.211C151.254 132.211 151.919 132.321 152.396 132.54C152.873 132.76 153.21 133.104 153.409 133.573C153.608 134.041 153.708 134.64 153.708 135.369V139.037C153.708 139.783 153.608 140.397 153.409 140.877C153.21 141.358 152.877 141.713 152.409 141.94C151.94 142.168 151.287 142.282 150.451 142.282H147.938V132.211H150.4Z" fill="#8F4988"/>
    <path d="M162.733 115.016H120.172V87.7644H162.733V115.016Z" fill="#F3E6F2"/>
    <path d="M162.733 115.016V114.73H120.458V88.0501H162.447V115.016H162.733H163.018V87.4787H119.887V115.302H163.018V115.016H162.733Z" fill="#F3E6F2"/>
    <path d="M162.22 113.819H119.659V86.5679H162.22V113.819Z" fill="white"/>
    <path d="M162.22 113.819V113.534H119.945V86.8535H161.934V113.819H162.22H162.505V86.2821H119.374V114.105H162.505V113.819H162.22Z" fill="#F3E6F2"/>
    <path d="M119.506 86.8087L140.939 100.533L162.374 86.8087L162.066 86.3275L140.939 99.8547L119.814 86.3275L119.506 86.8087Z" fill="#F3E6F2"/>
    <path d="M125.159 210.522C125.223 211.134 130.342 238.802 131.7 244.257C132.06 245.705 132.687 247.068 133.549 248.285L142.698 261.19L142.859 262.339V279.714H185.924V261.65L189.15 254.84C193.095 246.511 195.246 237.446 195.464 228.233L195.901 218.125L194.291 200.612C194.337 198.81 193.337 197.144 191.724 196.338L188.682 194.817C187.142 194.047 185.304 194.192 183.903 195.192L182.598 196.124L182.635 195.453C182.763 193.162 181.263 191.098 179.045 190.511L176.42 189.816C174.99 189.437 173.465 189.734 172.282 190.622L170.062 192.286L169.903 191.729C169.386 189.921 167.775 188.643 165.898 188.552L162.09 188.366C160.025 188.265 158.169 189.62 157.637 191.618L155.48 199.706L156.68 175.705C156.715 175.008 156.782 174.313 156.881 173.622L160.396 149.125C160.445 145.737 157.789 142.925 154.403 142.78C151.073 142.638 148.216 145.131 147.905 148.45L143.231 173.281C143.104 173.958 143.007 174.642 142.942 175.328L141.139 212.351L138.295 208.871C138.155 208.511 136.126 205.514 135.385 203.104C135.295 202.812 135.114 202.387 134.882 201.896C133.027 197.985 127.791 188.74 122.342 190.81C119.792 191.778 117.712 195.289 119.678 197.18C124.607 201.922 125.111 210.056 125.159 210.522Z" fill="white"/>
    <path d="M125.159 210.522L124.875 210.552C124.883 210.616 124.905 210.749 124.947 210.991C125.258 212.777 126.557 219.826 127.938 227.072C129.321 234.319 130.782 241.751 131.423 244.326C131.792 245.808 132.433 247.204 133.316 248.45L142.424 261.298L142.574 262.359V280H186.209V261.714L189.408 254.962C193.37 246.597 195.531 237.493 195.749 228.239L195.464 228.233L195.749 228.245L196.187 218.118L194.576 200.586L194.291 200.612L194.577 200.619L194.578 200.494C194.578 198.629 193.526 196.919 191.852 196.082L188.81 194.561C188.112 194.213 187.357 194.041 186.604 194.041C185.594 194.041 184.589 194.351 183.737 194.959L182.916 195.545L182.92 195.468C182.926 195.373 182.928 195.277 182.928 195.182C182.928 192.872 181.374 190.832 179.119 190.234L176.493 189.54C176.061 189.425 175.62 189.369 175.183 189.369C174.087 189.369 173.006 189.721 172.111 190.393L170.223 191.809L170.178 191.65C169.627 189.725 167.912 188.364 165.912 188.266L162.104 188.08C162.027 188.077 161.95 188.075 161.874 188.075C159.768 188.075 157.908 189.49 157.361 191.544L155.9 197.021L156.965 175.719C157 175.031 157.066 174.344 157.164 173.663L160.682 149.148V149.13L160.683 149.032C160.682 145.532 157.924 142.645 154.416 142.495C154.321 142.491 154.227 142.489 154.133 142.489C150.773 142.489 147.938 145.047 147.62 148.423L147.905 148.45L147.624 148.396L142.951 173.227C142.822 173.914 142.724 174.606 142.658 175.301L142.657 175.308L140.89 211.594L138.516 208.69L138.295 208.871L138.561 208.768C138.527 208.684 138.48 208.603 138.407 208.475C138.157 208.043 137.629 207.199 137.082 206.197C136.535 205.197 135.971 204.042 135.658 203.02C135.559 202.702 135.375 202.271 135.14 201.774C134.297 199.997 132.768 197.137 130.827 194.703C129.856 193.487 128.781 192.376 127.628 191.561C126.475 190.748 125.236 190.226 123.945 190.226C123.381 190.225 122.809 190.326 122.24 190.542C121.259 190.917 120.363 191.63 119.703 192.487C119.044 193.343 118.616 194.347 118.614 195.326C118.611 196.074 118.878 196.81 119.479 197.386C121.889 199.702 123.234 202.875 123.973 205.531C124.343 206.859 124.563 208.056 124.692 208.949C124.823 209.845 124.861 210.422 124.875 210.552L125.159 210.522L125.444 210.492C125.432 210.389 125.39 209.775 125.258 208.867C124.857 206.134 123.652 200.616 119.875 196.974C119.39 196.504 119.187 195.945 119.185 195.326C119.183 194.519 119.554 193.615 120.156 192.836C120.755 192.055 121.581 191.403 122.443 191.077C122.949 190.885 123.448 190.797 123.945 190.797C125.077 190.797 126.207 191.258 127.298 192.028C130.578 194.334 133.385 199.395 134.623 202.018C134.853 202.502 135.03 202.923 135.111 203.188C135.494 204.43 136.195 205.792 136.817 206.896C137.127 207.448 137.419 207.934 137.641 208.304C137.751 208.488 137.845 208.644 137.913 208.762C137.981 208.877 138.027 208.968 138.028 208.973L138.045 209.016L141.389 213.107L143.227 175.342L142.942 175.328L143.227 175.355C143.291 174.677 143.386 174.003 143.512 173.333L148.188 148.489L148.189 148.476C148.478 145.395 151.067 143.06 154.133 143.06C154.219 143.06 154.305 143.062 154.391 143.066C157.593 143.202 160.112 145.839 160.112 149.032L160.11 149.121L160.396 149.125L160.113 149.084L156.598 173.582C156.498 174.281 156.43 174.985 156.394 175.691L155.06 202.391L157.913 191.691C158.393 189.889 160.026 188.646 161.874 188.646C161.941 188.646 162.009 188.648 162.076 188.651L165.884 188.837C167.639 188.922 169.145 190.117 169.628 191.807L169.787 192.365L169.902 192.764L172.453 190.85C173.249 190.253 174.209 189.941 175.183 189.941C175.572 189.941 175.963 189.99 176.347 190.092L178.972 190.787C180.976 191.317 182.357 193.13 182.357 195.182C182.357 195.266 182.355 195.351 182.35 195.437L182.313 196.108L182.28 196.702L184.069 195.424C184.822 194.886 185.711 194.612 186.604 194.612C187.27 194.612 187.937 194.764 188.554 195.072L191.596 196.594C193.076 197.333 194.007 198.845 194.007 200.494L194.006 200.604L194.005 200.621L195.615 218.132L195.178 228.223V228.226C194.961 237.399 192.819 246.425 188.892 254.718L185.638 261.586V279.429H143.145V262.319L142.971 261.081L133.782 248.119C132.94 246.931 132.329 245.601 131.977 244.188C131.302 241.479 129.682 233.192 128.225 225.52C127.497 221.683 126.808 217.997 126.299 215.233C126.043 213.851 125.833 212.698 125.684 211.873C125.61 211.461 125.551 211.129 125.51 210.893C125.469 210.66 125.444 210.505 125.444 210.492L125.159 210.522Z" fill="#F3E6F2"/>
    <path d="M140.86 212.288L138.664 222.072L139.222 222.197L141.418 212.413" fill="#F3E6F2"/>
    <path d="M169.776 192.276L169.346 203.317L169.917 203.339L170.348 192.298" fill="#F3E6F2"/>
    <path d="M182.313 196.107L181.608 208.027L182.178 208.061L182.883 196.141" fill="#F3E6F2"/>
    <path d="M166.864 204.406L166.882 204.44C167.07 204.8 168.618 207.931 168.614 211.3C168.614 211.973 168.553 212.656 168.409 213.329L168.967 213.448C169.121 212.731 169.186 212.008 169.186 211.3C169.182 207.525 167.377 204.158 167.369 204.137L166.864 204.406Z" fill="#F3E6F2"/>
    <path d="M181.33 210.387L181.419 210.336L181.329 210.385L181.33 210.387L181.419 210.336L181.329 210.385C181.335 210.396 181.768 211.184 181.769 212.965C181.769 214.114 181.588 215.677 180.99 217.709L181.538 217.871C182.149 215.792 182.34 214.174 182.34 212.965C182.341 211.03 181.85 210.143 181.827 210.103L181.331 210.387" fill="#F3E6F2"/>
</svg>
