<svg width="377" height="280" viewBox="0 0 377 280" fill="none" xmlns="http://www.w3.org/2000/svg">
    <path d="M338.625 258.534H313.697V258.722H338.625V258.534Z" fill="#EBEBEB"/>
    <path d="M249.299 260.581H242.758V260.769H249.299V260.581Z" fill="#EBEBEB"/>
    <path d="M312.944 251.549H298.5V251.737H312.944V251.549Z" fill="#EBEBEB"/>
    <path d="M71.9926 252.813H39.4849V253.002H71.9926V252.813Z" fill="#EBEBEB"/>
    <path d="M83.4634 252.813H78.699V253.002H83.4634V252.813Z" fill="#EBEBEB"/>
    <path d="M169.463 255.99H98.9534V256.178H169.463V255.99Z" fill="#EBEBEB"/>
    <path d="M179.436 212.854H34.0958C32.956 212.854 31.8629 212.402 31.0569 211.596C30.2509 210.79 29.7981 209.697 29.7981 208.557V4.2601C29.808 3.1268 30.2652 2.0433 31.0701 1.24544C31.875 0.447583 32.9625 -4.34485e-05 34.0958 3.16312e-09H179.436C180 3.16313e-09 180.559 0.111163 181.081 0.327145C181.602 0.543126 182.076 0.859696 182.475 1.25878C182.874 1.65786 183.191 2.13164 183.407 2.65306C183.623 3.17449 183.734 3.73335 183.734 4.29773V208.557C183.734 209.121 183.623 209.68 183.407 210.201C183.191 210.723 182.874 211.197 182.475 211.596C182.076 211.995 181.602 212.311 181.081 212.527C180.559 212.743 180 212.854 179.436 212.854ZM34.0958 0.150534C33.0065 0.152524 31.9624 0.586133 31.1921 1.3564C30.4219 2.12666 29.9883 3.17079 29.9863 4.2601V208.557C29.9883 209.646 30.4219 210.69 31.1921 211.46C31.9624 212.231 33.0065 212.664 34.0958 212.666H179.436C180.525 212.664 181.569 212.231 182.34 211.46C183.11 210.69 183.544 209.646 183.546 208.557V4.2601C183.544 3.17079 183.11 2.12666 182.34 1.3564C181.569 0.586133 180.525 0.152524 179.436 0.150534H34.0958Z" fill="#EBEBEB"/>
    <path d="M342.238 212.854H196.898C195.758 212.854 194.665 212.402 193.859 211.596C193.053 210.79 192.6 209.697 192.6 208.557V4.2601C192.61 3.1268 193.067 2.0433 193.872 1.24544C194.677 0.447583 195.764 -4.34485e-05 196.898 3.16312e-09H342.238C343.378 3.16313e-09 344.471 0.452796 345.277 1.25878C346.083 2.06476 346.536 3.1579 346.536 4.29773V208.557C346.536 209.697 346.083 210.79 345.277 211.596C344.471 212.402 343.378 212.854 342.238 212.854ZM196.898 0.150534C195.809 0.152524 194.764 0.586133 193.994 1.3564C193.224 2.12666 192.79 3.17079 192.788 4.2601V208.557C192.79 209.646 193.224 210.69 193.994 211.46C194.764 212.231 195.809 212.664 196.898 212.666H342.238C343.327 212.664 344.371 212.231 345.142 211.46C345.912 210.69 346.346 209.646 346.348 208.557V4.2601C346.346 3.17079 345.912 2.12666 345.142 1.3564C344.371 0.586133 343.327 0.152524 342.238 0.150534H196.898Z" fill="#EBEBEB"/>
    <path d="M376.334 246.423H0V246.612H376.334V246.423Z" fill="#EBEBEB"/>
    <path d="M89.816 195.506C89.1837 188.235 81.7624 185.518 72.9637 186.286C64.165 187.053 57.3383 191.02 57.9555 198.291L89.816 195.506Z" fill="#F0F0F0"/>
    <path d="M72.6777 182.966C76.7571 182.605 78.0592 179.157 77.7055 175.078C77.3517 170.998 75.4475 167.83 71.3831 168.183C67.3187 168.537 66.0015 171.992 66.3552 176.071C66.709 180.151 68.5982 183.32 72.6777 182.966Z" fill="#F0F0F0"/>
    <path d="M255.982 40.6442C256.054 41.4512 255.884 42.2611 255.495 42.9717C255.106 43.6822 254.515 44.2614 253.797 44.6359C253.078 45.0104 252.265 45.1634 251.46 45.0755C250.654 44.9877 249.893 44.6629 249.273 44.1424C248.652 43.6218 248.2 42.9288 247.973 42.1511C247.746 41.3734 247.755 40.5459 247.999 39.7733C248.243 39.0008 248.71 38.3179 249.342 37.811C249.974 37.3042 250.742 36.9962 251.549 36.926C252.63 36.8321 253.704 37.1709 254.535 37.868C255.366 38.5651 255.887 39.5636 255.982 40.6442Z" fill="#F5F5F5"/>
    <path d="M278.615 38.6421C278.685 39.4474 278.515 40.2553 278.125 40.9637C277.736 41.6721 277.146 42.2492 276.428 42.622C275.711 42.9947 274.899 43.1465 274.096 43.058C273.293 42.9695 272.533 42.6447 271.915 42.1248C271.296 41.6048 270.845 40.913 270.619 40.1369C270.393 39.3608 270.403 38.5351 270.646 37.7643C270.89 36.9936 271.356 36.3123 271.987 35.8068C272.618 35.3012 273.384 34.9939 274.19 34.9239C275.269 34.8321 276.341 35.1718 277.17 35.8687C278 36.5656 278.52 37.5629 278.615 38.6421Z" fill="#F5F5F5"/>
    <path d="M301.255 36.6623C301.327 37.4692 301.157 38.2792 300.768 38.9897C300.379 39.7003 299.788 40.2795 299.07 40.654C298.351 41.0285 297.538 41.1815 296.733 41.0936C295.927 41.0058 295.166 40.681 294.546 40.1604C293.925 39.6398 293.473 38.9469 293.246 38.1691C293.019 37.3914 293.028 36.5639 293.272 35.7914C293.516 35.0188 293.983 34.3359 294.615 33.8291C295.247 33.3223 296.015 33.0143 296.822 32.9441C297.903 32.8501 298.977 33.1889 299.808 33.8861C300.639 34.5832 301.16 35.5817 301.255 36.6623Z" fill="#F5F5F5"/>
    <path d="M258 63.6909C258.071 64.4978 257.901 65.3078 257.512 66.0183C257.123 66.7289 256.532 67.308 255.814 67.6825C255.095 68.057 254.282 68.21 253.477 68.1222C252.672 68.0343 251.91 67.7096 251.29 67.189C250.669 66.6684 250.217 65.9754 249.99 65.1977C249.763 64.42 249.772 63.5925 250.016 62.82C250.26 62.0474 250.727 61.3645 251.359 60.8577C251.991 60.3508 252.759 60.0428 253.566 59.9727C254.647 59.8787 255.721 60.2175 256.552 60.9146C257.383 61.6118 257.904 62.6102 258 63.6909Z" fill="#F5F5F5"/>
    <path d="M280.632 61.7187C280.702 62.5239 280.532 63.3319 280.142 64.0403C279.753 64.7487 279.163 65.3257 278.445 65.6985C277.728 66.0713 276.917 66.223 276.113 66.1345C275.31 66.046 274.551 65.7213 273.932 65.2013C273.313 64.6814 272.862 63.9896 272.636 63.2134C272.411 62.4373 272.42 61.6116 272.663 60.8409C272.907 60.0701 273.374 59.3889 274.004 58.8833C274.635 58.3777 275.401 58.0705 276.207 58.0005C276.741 57.954 277.28 58.0133 277.792 58.175C278.304 58.3367 278.779 58.5976 279.19 58.9429C279.601 59.2881 279.939 59.711 280.187 60.1873C280.435 60.6635 280.586 61.1839 280.632 61.7187Z" fill="#F5F5F5"/>
    <path d="M303.272 59.7316C303.344 60.5386 303.174 61.3485 302.785 62.0591C302.396 62.7696 301.805 63.3488 301.087 63.7233C300.368 64.0978 299.555 64.2508 298.75 64.1629C297.945 64.0751 297.183 63.7503 296.563 63.2298C295.942 62.7092 295.49 62.0162 295.263 61.2385C295.036 60.4608 295.045 59.6333 295.289 58.8607C295.533 58.0882 296 57.4053 296.632 56.8984C297.264 56.3916 298.032 56.0836 298.839 56.0134C299.92 55.9195 300.994 56.2583 301.825 56.9554C302.656 57.6525 303.177 58.651 303.272 59.7316Z" fill="#F5F5F5"/>
    <path d="M260.017 86.7676C260.086 87.5729 259.916 88.3808 259.527 89.0892C259.138 89.7976 258.547 90.3747 257.83 90.7475C257.113 91.1203 256.301 91.272 255.497 91.1835C254.694 91.095 253.935 90.7702 253.316 90.2503C252.697 89.7303 252.246 89.0386 252.021 88.2624C251.795 87.4863 251.804 86.6606 252.048 85.8898C252.291 85.1191 252.758 84.4379 253.389 83.9323C254.019 83.4267 254.786 83.1195 255.591 83.0494C256.126 83.0019 256.665 83.0605 257.177 83.2218C257.689 83.3831 258.165 83.644 258.576 83.9895C258.987 84.3349 259.326 84.7581 259.573 85.2349C259.82 85.7116 259.971 86.2325 260.017 86.7676Z" fill="#F5F5F5"/>
    <path d="M282.657 84.7805C282.728 85.5874 282.559 86.3974 282.17 87.1079C281.781 87.8185 281.19 88.3976 280.471 88.7721C279.753 89.1466 278.94 89.2996 278.134 89.2118C277.329 89.1239 276.568 88.7992 275.947 88.2786C275.327 87.758 274.874 87.065 274.647 86.2873C274.421 85.5096 274.43 84.6821 274.674 83.9095C274.917 83.137 275.385 82.4541 276.017 81.9473C276.649 81.4404 277.417 81.1324 278.224 81.0623C279.305 80.9683 280.378 81.3071 281.21 82.0042C282.041 82.7014 282.561 83.6998 282.657 84.7805Z" fill="#F5F5F5"/>
    <path d="M305.29 82.7934C305.361 83.6003 305.191 84.4103 304.802 85.1209C304.413 85.8314 303.822 86.4106 303.104 86.7851C302.386 87.1596 301.572 87.3126 300.767 87.2247C299.962 87.1368 299.2 86.8121 298.58 86.2915C297.959 85.771 297.507 85.078 297.28 84.3002C297.053 83.5225 297.062 82.695 297.306 81.9225C297.55 81.1499 298.017 80.467 298.649 79.9602C299.281 79.4534 300.049 79.1454 300.856 79.0752C301.937 78.9813 303.011 79.32 303.842 80.0172C304.673 80.7143 305.194 81.7128 305.29 82.7934Z" fill="#F5F5F5"/>
    <path d="M300.397 84.1333L253.897 88.1977L295.128 38.1001L252.896 41.7957C252.778 41.807 252.659 41.7947 252.546 41.7594C252.433 41.7241 252.328 41.6665 252.238 41.59C252.148 41.5136 252.073 41.4198 252.02 41.3142C251.966 41.2087 251.934 41.0934 251.925 40.9753C251.904 40.7388 251.978 40.5036 252.131 40.3215C252.283 40.1395 252.502 40.0254 252.738 40.0043L299.246 35.9399L258.007 86.0375L300.254 82.3419C300.492 82.323 300.728 82.3985 300.911 82.5519C301.094 82.7054 301.21 82.9246 301.233 83.1623C301.242 83.281 301.228 83.4003 301.191 83.5135C301.153 83.6266 301.094 83.7313 301.017 83.8215C300.939 83.9117 300.844 83.9857 300.738 84.0392C300.632 84.0927 300.516 84.1247 300.397 84.1333Z" fill="#E6E6E6"/>
    <path d="M301.112 173.573C301.041 173.354 300.906 173.16 300.725 173.017C300.545 172.874 300.326 172.787 300.096 172.767C298.074 172.674 296.16 171.829 294.73 170.397C292.871 168.522 291.779 165.685 291.599 162.313C291.581 162.009 291.449 161.722 291.228 161.513C291.007 161.303 290.714 161.185 290.409 161.184C290.245 161.185 290.082 161.219 289.931 161.284C289.78 161.35 289.643 161.445 289.53 161.565C289.417 161.684 289.329 161.826 289.272 161.98C289.215 162.134 289.189 162.299 289.198 162.463C289.408 166.422 290.748 169.809 293.029 172.09C294.815 173.879 297.184 174.966 299.705 175.153H299.878C300.076 175.168 300.274 175.134 300.456 175.054C300.637 174.974 300.796 174.85 300.919 174.694C301.041 174.537 301.122 174.353 301.156 174.158C301.19 173.962 301.175 173.761 301.112 173.573Z" fill="#F0F0F0"/>
    <path d="M298.704 188.017C288.731 187.144 281.536 180.347 279.262 169.734C279.226 169.575 279.223 169.41 279.252 169.249C279.281 169.088 279.343 168.935 279.433 168.799C279.523 168.662 279.639 168.546 279.776 168.455C279.912 168.365 280.065 168.304 280.226 168.274C280.53 168.22 280.844 168.285 281.102 168.456C281.36 168.627 281.542 168.891 281.611 169.192C283.651 178.729 290.048 184.84 298.922 185.616C308.647 186.466 319.086 180.068 320.96 163.946C320.993 163.632 321.147 163.343 321.391 163.142C321.635 162.94 321.948 162.843 322.262 162.87C322.422 162.883 322.577 162.928 322.719 163.002C322.861 163.076 322.986 163.178 323.088 163.302C323.19 163.425 323.266 163.568 323.311 163.721C323.357 163.875 323.371 164.036 323.354 164.195C321.555 179.399 311.559 189.138 298.704 188.017Z" fill="#F0F0F0"/>
    <path d="M279.887 159.159C279.728 159.146 279.573 159.101 279.431 159.027C279.289 158.953 279.163 158.851 279.062 158.728C278.96 158.604 278.884 158.461 278.838 158.308C278.793 158.155 278.778 157.994 278.796 157.835C280.587 142.631 290.583 132.884 303.431 134.013C314.721 134.999 322.285 143.429 323.467 156.126C323.479 156.286 323.459 156.446 323.409 156.598C323.359 156.749 323.279 156.89 323.174 157.01C323.069 157.131 322.94 157.229 322.797 157.299C322.653 157.37 322.497 157.411 322.338 157.421C322.024 157.435 321.716 157.327 321.48 157.12C321.244 156.912 321.098 156.62 321.073 156.307C319.982 144.866 313.23 137.287 303.227 136.414C293.541 135.563 283.056 141.953 281.189 158.06C281.176 158.218 281.132 158.372 281.059 158.512C280.987 158.653 280.887 158.778 280.766 158.88C280.645 158.982 280.505 159.059 280.354 159.107C280.204 159.155 280.045 159.173 279.887 159.159Z" fill="#F0F0F0"/>
    <path d="M299.193 181.566C297.405 181.423 295.653 180.985 294.007 180.272C293.854 180.204 293.716 180.106 293.602 179.983C293.489 179.86 293.402 179.714 293.348 179.556C293.293 179.397 293.272 179.229 293.286 179.062C293.3 178.895 293.348 178.733 293.427 178.586C293.569 178.327 293.801 178.13 294.079 178.032C294.357 177.935 294.661 177.944 294.933 178.059C296.502 178.733 298.179 179.12 299.885 179.203C307.254 179.624 315.037 174.401 315.804 161.786C316.271 154.011 313.606 147.734 308.639 144.731C308.382 144.575 308.192 144.329 308.107 144.041C308.022 143.752 308.048 143.443 308.18 143.173C308.255 143.023 308.359 142.891 308.487 142.784C308.616 142.677 308.764 142.597 308.925 142.55C309.085 142.502 309.253 142.488 309.419 142.509C309.585 142.529 309.744 142.584 309.888 142.668C315.646 146.146 318.732 153.206 318.205 161.929C317.453 174.092 309.881 182.191 299.742 181.611L299.193 181.566Z" fill="#F0F0F0"/>
    <path d="M288.475 174.062C288.336 174.155 288.18 174.22 288.015 174.25C287.851 174.281 287.682 174.278 287.519 174.24C287.356 174.203 287.202 174.132 287.067 174.033C286.933 173.934 286.82 173.808 286.736 173.663C284.505 169.515 283.525 164.809 283.914 160.115C284.621 148.471 291.599 140.545 301.075 140.41C301.241 140.407 301.407 140.438 301.562 140.501C301.716 140.565 301.855 140.66 301.971 140.78C302.087 140.9 302.177 141.043 302.235 141.2C302.293 141.356 302.318 141.523 302.309 141.689C302.29 141.99 302.159 142.274 301.942 142.483C301.724 142.692 301.436 142.811 301.135 142.818C294.105 142.954 287.045 148.268 286.322 160.258C285.957 164.495 286.83 168.746 288.836 172.496C288.987 172.756 289.034 173.064 288.967 173.358C288.9 173.651 288.724 173.908 288.475 174.077V174.062Z" fill="#F0F0F0"/>
    <path d="M304.928 173.114C304.814 172.846 304.801 172.546 304.891 172.269C304.981 171.993 305.168 171.758 305.418 171.608C308.586 169.704 310.528 165.707 310.558 160.883C310.558 157.022 309.467 153.755 307.405 151.685C306.604 150.892 305.649 150.27 304.6 149.858C303.55 149.447 302.427 149.254 301.301 149.292C297.59 149.292 294.579 151.331 292.916 154.914C292.788 155.186 292.561 155.4 292.282 155.513C292.003 155.626 291.692 155.63 291.411 155.524C291.254 155.466 291.11 155.376 290.99 155.259C290.869 155.143 290.774 155.003 290.711 154.848C290.647 154.693 290.616 154.527 290.62 154.359C290.624 154.192 290.662 154.027 290.733 153.875C292.795 149.487 296.657 146.891 301.27 146.883C302.716 146.846 304.154 147.101 305.498 147.634C306.841 148.167 308.064 148.967 309.091 149.984C311.612 152.513 312.982 156.389 312.952 160.905C312.907 166.588 310.513 171.36 306.614 173.701C306.467 173.781 306.304 173.83 306.136 173.844C305.969 173.858 305.8 173.836 305.641 173.781C305.482 173.726 305.337 173.638 305.214 173.523C305.091 173.408 304.994 173.269 304.928 173.114Z" fill="#F0F0F0"/>
    <path d="M296.257 164.225C296.097 164.29 295.924 164.32 295.75 164.313C295.577 164.305 295.407 164.26 295.253 164.181C295.098 164.101 294.963 163.99 294.856 163.853C294.748 163.716 294.672 163.558 294.632 163.389C294.549 163.066 294.489 162.727 294.436 162.381C293.751 157.865 296.175 153.958 300.066 153.258C300.972 153.061 301.912 153.079 302.81 153.311C303.708 153.542 304.539 153.98 305.237 154.591C305.368 154.707 305.471 154.852 305.538 155.013C305.606 155.175 305.636 155.35 305.626 155.525C305.617 155.7 305.568 155.871 305.484 156.024C305.4 156.178 305.282 156.31 305.139 156.412L305.064 156.465C304.838 156.622 304.565 156.696 304.291 156.676C304.017 156.655 303.758 156.541 303.558 156.352C303.136 155.995 302.637 155.742 302.1 155.611C301.563 155.481 301.004 155.477 300.465 155.599C297.499 156.134 296.37 159.22 296.792 161.989C296.837 162.26 296.882 162.524 296.95 162.742C297.023 163.026 296.99 163.326 296.859 163.587C296.727 163.849 296.506 164.054 296.235 164.165L296.257 164.225Z" fill="#F0F0F0"/>
    <path d="M300.239 168.861C300.049 168.842 299.868 168.776 299.711 168.667C299.554 168.559 299.427 168.412 299.343 168.241C299.258 168.07 299.219 167.88 299.228 167.69C299.238 167.499 299.296 167.314 299.396 167.152L299.502 166.987C299.61 166.814 299.763 166.675 299.945 166.583C300.126 166.492 300.33 166.452 300.533 166.468C300.911 166.489 301.289 166.466 301.662 166.4C304.251 165.933 305.425 163.525 305.425 161.071C305.418 160.776 305.517 160.489 305.706 160.262C305.894 160.035 306.158 159.884 306.449 159.837C306.616 159.811 306.786 159.821 306.949 159.866C307.112 159.91 307.264 159.989 307.395 160.096C307.525 160.203 307.632 160.337 307.707 160.488C307.783 160.639 307.826 160.804 307.834 160.973C307.901 164.902 305.576 168.146 302.091 168.771C301.48 168.884 300.858 168.914 300.239 168.861Z" fill="#F0F0F0"/>
    <path d="M300.774 164.413C300.166 164.362 299.589 164.121 299.125 163.726C298.661 163.33 298.332 162.799 298.184 162.208C298.142 162.04 298.14 161.866 298.179 161.698C298.217 161.53 298.295 161.374 298.407 161.242C298.518 161.11 298.659 161.007 298.818 160.94C298.977 160.874 299.149 160.847 299.321 160.86H299.599C299.81 160.882 300.01 160.965 300.174 161.099C300.339 161.233 300.461 161.411 300.525 161.613C300.552 161.718 300.61 161.812 300.692 161.882C300.774 161.952 300.877 161.995 300.984 162.004C301.564 162.057 301.662 161.252 301.677 161.056C301.712 160.763 301.657 160.466 301.519 160.205C301.311 159.954 301.204 159.635 301.218 159.31C301.237 159.071 301.327 158.843 301.476 158.655C301.626 158.467 301.828 158.329 302.057 158.257C302.286 158.185 302.531 158.183 302.761 158.251C302.991 158.319 303.195 158.455 303.348 158.64C303.935 159.382 304.206 160.326 304.1 161.267C303.905 163.246 302.512 164.563 300.774 164.413Z" fill="#F0F0F0"/>
    <path d="M278.134 137.475C277.976 137.461 277.823 137.417 277.683 137.344C277.543 137.272 277.418 137.172 277.317 137.051C277.215 136.93 277.139 136.79 277.092 136.639C277.044 136.488 277.028 136.33 277.042 136.172L277.953 125.733L288.392 126.651C288.55 126.664 288.703 126.709 288.843 126.781C288.983 126.854 289.108 126.954 289.209 127.075C289.311 127.196 289.387 127.336 289.434 127.487C289.481 127.637 289.498 127.796 289.484 127.953C289.47 128.111 289.426 128.264 289.354 128.405C289.281 128.546 289.181 128.671 289.06 128.773C288.94 128.875 288.8 128.952 288.649 129C288.498 129.048 288.339 129.066 288.182 129.052L280.143 128.345L279.443 136.383C279.429 136.541 279.384 136.694 279.31 136.834C279.237 136.975 279.136 137.099 279.015 137.2C278.893 137.302 278.753 137.378 278.601 137.425C278.45 137.472 278.291 137.489 278.134 137.475Z" fill="#F0F0F0"/>
    <path d="M327.757 141.817C327.599 141.804 327.446 141.76 327.306 141.687C327.166 141.615 327.041 141.515 326.94 141.394C326.838 141.273 326.762 141.133 326.715 140.982C326.668 140.831 326.651 140.673 326.665 140.515L327.365 132.477L319.327 131.777C319.169 131.763 319.016 131.718 318.876 131.644C318.735 131.571 318.611 131.47 318.51 131.348C318.408 131.227 318.332 131.086 318.285 130.935C318.238 130.784 318.221 130.625 318.236 130.467C318.249 130.31 318.293 130.157 318.366 130.016C318.438 129.876 318.538 129.752 318.659 129.65C318.78 129.549 318.92 129.472 319.071 129.425C319.222 129.378 319.38 129.361 319.538 129.376L329.977 130.287L329.066 140.749C329.032 141.063 328.876 141.351 328.631 141.551C328.386 141.751 328.072 141.847 327.757 141.817Z" fill="#F0F0F0"/>
    <path d="M324.061 197.951L313.622 197.041C313.464 197.027 313.31 196.981 313.17 196.908C313.03 196.834 312.906 196.734 312.804 196.612C312.703 196.491 312.627 196.35 312.579 196.199C312.532 196.048 312.516 195.889 312.53 195.731C312.543 195.574 312.588 195.42 312.66 195.28C312.733 195.14 312.833 195.016 312.954 194.914C313.075 194.813 313.215 194.736 313.366 194.689C313.516 194.642 313.675 194.625 313.832 194.64L321.871 195.34L322.571 187.309C322.584 187.15 322.628 186.996 322.702 186.855C322.775 186.714 322.875 186.589 322.997 186.487C323.119 186.384 323.259 186.307 323.411 186.26C323.563 186.212 323.722 186.195 323.88 186.21C324.038 186.223 324.191 186.267 324.331 186.34C324.471 186.413 324.596 186.513 324.697 186.634C324.799 186.755 324.875 186.895 324.922 187.045C324.969 187.196 324.986 187.355 324.972 187.512L324.061 197.951Z" fill="#F0F0F0"/>
    <path d="M282.476 194.294L272.037 193.375L272.947 182.943C272.978 182.625 273.132 182.332 273.377 182.126C273.622 181.921 273.938 181.819 274.257 181.845C274.415 181.859 274.568 181.904 274.708 181.977C274.849 182.051 274.973 182.151 275.074 182.273C275.176 182.395 275.252 182.535 275.299 182.686C275.346 182.838 275.363 182.997 275.348 183.154L274.648 191.178L282.679 191.885C282.837 191.898 282.991 191.943 283.131 192.015C283.272 192.088 283.397 192.188 283.499 192.309C283.601 192.429 283.678 192.569 283.726 192.72C283.774 192.871 283.792 193.03 283.778 193.187C283.751 193.506 283.599 193.802 283.355 194.009C283.111 194.216 282.795 194.319 282.476 194.294Z" fill="#F0F0F0"/>
    <path d="M56.2469 171.706C56.0507 171.721 55.8566 171.658 55.7061 171.532C55.5556 171.405 55.4606 171.225 55.4415 171.029L54.8845 164.616L61.2973 164.052C61.4934 164.037 61.6875 164.1 61.838 164.226C61.9885 164.353 62.0835 164.533 62.1026 164.729C62.1153 164.924 62.0517 165.116 61.9253 165.265C61.7989 165.414 61.6196 165.508 61.4252 165.527L56.4877 165.963L56.9167 170.901C56.9315 171.096 56.8699 171.289 56.7449 171.439C56.6199 171.59 56.4412 171.685 56.2469 171.706Z" fill="#E0E0E0"/>
    <path d="M86.7601 169.034C86.5651 169.049 86.372 168.987 86.2217 168.862C86.0714 168.737 85.9756 168.559 85.9547 168.364L85.5257 163.419L80.5807 163.856C80.3845 163.871 80.1904 163.808 80.0399 163.681C79.8894 163.555 79.7944 163.374 79.7753 163.178C79.7606 162.982 79.8233 162.788 79.9499 162.638C80.0765 162.487 80.257 162.392 80.4527 162.373L86.8654 161.816L87.4299 168.229C87.4447 168.424 87.3831 168.617 87.2581 168.767C87.1331 168.918 86.9544 169.013 86.7601 169.034Z" fill="#E0E0E0"/>
    <path d="M89.9213 196.665L83.5011 197.229C83.3049 197.244 83.1108 197.181 82.9603 197.055C82.8098 196.928 82.7148 196.747 82.6957 196.552C82.681 196.356 82.7437 196.161 82.8703 196.011C82.9969 195.86 83.1774 195.765 83.3731 195.746L88.3106 195.317L87.8816 190.38C87.8668 190.185 87.9284 189.992 88.0534 189.841C88.1785 189.691 88.3571 189.595 88.5515 189.574C88.7464 189.56 88.9395 189.621 89.0898 189.746C89.2401 189.871 89.3359 190.05 89.3568 190.244L89.9213 196.665Z" fill="#E0E0E0"/>
    <path d="M64.3456 198.9L57.9555 199.457L57.391 193.037C57.3783 192.842 57.4419 192.65 57.5683 192.501C57.6947 192.352 57.874 192.258 58.0684 192.239C58.2621 192.226 58.4533 192.289 58.6019 192.414C58.7506 192.538 58.8453 192.716 58.8662 192.909L59.3028 197.854L64.2403 197.417C64.4364 197.403 64.6305 197.465 64.781 197.592C64.9315 197.718 65.0265 197.899 65.0456 198.095C65.0528 198.194 65.0403 198.293 65.009 198.387C64.9777 198.481 64.928 198.568 64.863 198.643C64.798 198.718 64.7188 198.779 64.63 198.823C64.5412 198.867 64.4446 198.893 64.3456 198.9Z" fill="#E0E0E0"/>
    <path d="M86.2407 64.7294L61.7187 66.8368L61.2145 61.094C61.1776 58.3531 62.1785 55.6997 64.0163 53.666C65.8541 51.6323 68.3929 50.3687 71.1235 50.1287C73.8541 49.8886 76.5744 50.69 78.7388 52.3719C80.9032 54.0539 82.3516 56.492 82.7934 59.1973L83.0795 62.5391L86.6245 62.2305L86.331 58.8887C86.1659 57.0038 85.6312 55.1698 84.7574 53.4915C83.8836 51.8133 82.6877 50.3236 81.2382 49.1074C79.7886 47.8913 78.1137 46.9726 76.3091 46.4038C74.5045 45.835 72.6056 45.6272 70.7206 45.7922C66.9139 46.1256 63.3955 47.9575 60.9394 50.885C59.7233 52.3346 58.8046 54.0095 58.2358 55.8141C57.667 57.6187 57.4592 59.5177 57.6242 61.4026L58.1285 67.1831C56.7322 67.4563 55.4862 68.2363 54.6303 69.3729C53.7744 70.5095 53.369 71.9224 53.4921 73.3399L55.2458 93.391C55.3084 94.1477 55.5198 94.8847 55.868 95.5595C56.2161 96.2344 56.6942 96.8338 57.2746 97.3233C57.8551 97.8129 58.5266 98.183 59.2505 98.4123C59.9744 98.6416 60.7365 98.7257 61.4929 98.6596L88.9879 96.2586C89.7447 96.1961 90.4816 95.9846 91.1565 95.6365C91.8313 95.2883 92.4307 94.8102 92.9203 94.2298C93.4098 93.6493 93.7799 92.9778 94.0092 92.2539C94.2385 91.53 94.3226 90.768 94.2566 90.0115L92.5029 69.9604C92.4357 69.2055 92.2204 68.4713 91.8692 67.7998C91.518 67.1282 91.0379 66.5324 90.4563 66.0466C89.8747 65.5607 89.203 65.1943 88.4796 64.9683C87.7562 64.7423 86.9954 64.6611 86.2407 64.7294ZM75.8087 80.1816L76.4108 87.0836C76.4513 87.3614 76.4347 87.6445 76.362 87.9156C76.2893 88.1868 76.1619 88.4402 75.9878 88.6604C75.8137 88.8806 75.5965 89.063 75.3494 89.1963C75.1023 89.3296 74.8307 89.411 74.551 89.4356C74.2714 89.4603 73.9897 89.4276 73.7231 89.3395C73.4566 89.2514 73.2108 89.1099 73.0009 88.9235C72.791 88.7371 72.6213 88.5098 72.5023 88.2556C72.3833 88.0013 72.3174 87.7255 72.3088 87.4449L71.7066 80.5354C71.0857 80.1541 70.6009 79.5866 70.3213 78.9137C70.0417 78.2408 69.9815 77.4969 70.1493 76.7878C70.317 76.0787 70.7043 75.4406 71.2558 74.9644C71.8073 74.4882 72.495 74.1982 73.221 74.1356C73.947 74.073 74.6742 74.241 75.2991 74.6157C75.924 74.9905 76.4148 75.5528 76.7015 76.2227C76.9882 76.8926 77.0562 77.6359 76.8959 78.3467C76.7356 79.0575 76.3552 79.6996 75.8087 80.1816Z" fill="#EBEBEB"/>
    <path d="M128.285 76.313L125.808 72.2562C124.56 72.4339 123.293 72.4339 122.045 72.2562L119.561 76.298L119.087 76.17C117.477 75.746 115.933 75.1054 114.496 74.2658L114.074 74.0249L115.12 69.6294C115.141 69.5441 115.178 69.4637 115.229 69.3928C115.281 69.322 115.346 69.262 115.421 69.2165C115.496 69.171 115.579 69.1408 115.666 69.1277C115.752 69.1146 115.841 69.1188 115.926 69.1401C116.096 69.1812 116.244 69.2882 116.335 69.4378C116.427 69.5874 116.456 69.7673 116.415 69.9379L115.587 73.3626C116.657 73.9453 117.784 74.4145 118.952 74.7626L121.375 70.8035L121.819 70.8788C123.225 71.1046 124.658 71.1046 126.064 70.8788L126.501 70.8035L128.924 74.7626C130.093 74.4172 131.22 73.9479 132.289 73.3626L131.213 68.8466L131.574 68.5831C132.554 67.876 133.433 67.0378 134.186 66.0918C134.29 65.9555 134.444 65.8652 134.614 65.84C134.783 65.8147 134.957 65.8564 135.096 65.9563C135.169 66.0071 135.232 66.0723 135.279 66.1479C135.326 66.2235 135.357 66.3079 135.37 66.396C135.384 66.484 135.379 66.5739 135.357 66.6601C135.334 66.7463 135.294 66.8269 135.239 66.8972C134.5 67.8312 133.648 68.6705 132.703 69.396L133.809 74.0099L133.38 74.2507C131.945 75.089 130.403 75.7295 128.796 76.155L128.285 76.313ZM113.066 67.4767C112.862 67.2434 112.659 66.995 112.464 66.7241L107.85 67.8305L107.601 67.409C106.768 65.9687 106.128 64.425 105.697 62.8177L105.577 62.3435L109.618 59.8597C109.441 58.6116 109.441 57.3445 109.618 56.0964L105.577 53.6201L105.697 53.1384C106.128 51.5335 106.768 49.9923 107.601 48.5547L107.85 48.1256L112.464 49.2321C113.234 48.224 114.135 47.3229 115.143 46.5526L114.308 43.0602C114.267 42.8895 114.295 42.7096 114.387 42.5601C114.479 42.4105 114.626 42.3034 114.797 42.2624C114.881 42.2423 114.968 42.239 115.053 42.2527C115.139 42.2665 115.22 42.297 115.294 42.3424C115.367 42.3879 115.431 42.4475 115.481 42.5177C115.532 42.5879 115.568 42.6674 115.587 42.7516L116.633 47.102L116.272 47.3579C115.112 48.1923 114.096 49.209 113.261 50.3686L112.998 50.7299L108.482 49.6536C107.897 50.7219 107.427 51.8498 107.082 53.018L111.034 55.4416L110.966 55.8781C110.714 57.282 110.714 58.7193 110.966 60.1232L111.034 60.5672L107.082 62.9908C107.429 64.1561 107.898 65.2814 108.482 66.3477L112.998 65.2714L113.261 65.6327C113.495 65.974 113.747 66.303 114.014 66.6187C114.13 66.7404 114.195 66.9021 114.195 67.0703C114.195 67.2384 114.13 67.4001 114.014 67.5219C113.95 67.5833 113.874 67.631 113.791 67.6621C113.708 67.6932 113.619 67.7071 113.53 67.7029C113.441 67.6986 113.355 67.6764 113.275 67.6375C113.195 67.5987 113.124 67.5439 113.066 67.4767ZM139.966 67.8455L138.265 67.4391C138.094 67.398 137.947 67.291 137.855 67.1414C137.764 66.9918 137.735 66.8119 137.776 66.6413C137.817 66.4707 137.924 66.3233 138.073 66.2316C138.223 66.1399 138.403 66.1113 138.574 66.152L139.326 66.3251C139.908 65.2586 140.375 64.1333 140.719 62.9682L136.767 60.5447L136.842 60.1006C137.094 58.6967 137.094 57.2594 136.842 55.8555L136.767 55.419L140.719 52.9954C140.376 51.8274 139.909 50.6995 139.326 49.631L134.81 50.7073L134.554 50.346C133.718 49.1881 132.702 48.1717 131.544 47.3353L131.182 47.0794L132.259 42.5634C131.19 41.9805 130.062 41.5137 128.894 41.171L126.448 45.1601L126.012 45.0849C124.606 44.859 123.173 44.859 121.767 45.0849L121.322 45.1601L118.921 41.186L118.47 41.3215C118.309 41.3745 118.134 41.3624 117.982 41.2879C117.83 41.2133 117.713 41.0822 117.657 40.9226C117.626 40.8401 117.612 40.7523 117.615 40.6643C117.618 40.5762 117.639 40.4897 117.676 40.4098C117.713 40.3299 117.766 40.2582 117.831 40.1989C117.896 40.1396 117.973 40.0939 118.056 40.0646C118.387 39.9592 118.726 39.8613 119.057 39.771L119.531 39.6431L122.015 43.6924C123.263 43.5069 124.531 43.5069 125.778 43.6924L128.255 39.6431L128.736 39.771C130.342 40.1997 131.883 40.8401 133.32 41.6753L133.749 41.9236L132.643 46.5375C133.652 47.3062 134.553 48.2074 135.322 49.217L139.936 48.1106L140.184 48.5396C141.021 49.9757 141.661 51.5173 142.089 53.1234L142.217 53.6051L138.167 56.0813C138.355 57.3288 138.355 58.5972 138.167 59.8447L142.217 62.3285L142.089 62.8027C141.661 64.4111 141.021 65.9552 140.184 67.3939L139.966 67.8455ZM123.723 64.4284C122.083 64.3635 120.528 63.6828 119.367 62.5222C118.207 61.3616 117.526 59.8063 117.461 58.1662C117.417 56.5531 117.977 54.9817 119.033 53.7614C120.089 52.5411 121.564 51.7603 123.167 51.5729C123.261 51.5611 123.356 51.5695 123.447 51.5974C123.537 51.6253 123.621 51.6721 123.692 51.7347C123.763 51.7973 123.82 51.8743 123.859 51.9606C123.898 52.0468 123.919 52.1404 123.919 52.2352C123.918 52.3953 123.859 52.5495 123.752 52.6688C123.645 52.7881 123.499 52.8641 123.34 52.8825C122.224 53.0097 121.182 53.4995 120.372 54.2768C119.562 55.054 119.029 56.0756 118.856 57.1848C118.683 58.2939 118.879 59.4292 119.413 60.4163C119.948 61.4034 120.792 62.1877 121.815 62.6487C122.839 63.1097 123.986 63.2219 125.079 62.9681C126.173 62.7144 127.153 62.1086 127.868 61.244C128.584 60.3793 128.997 59.3035 129.042 58.1818C129.087 57.0602 128.763 55.9547 128.119 55.0351C128.026 54.9048 127.985 54.7445 128.005 54.5856C128.024 54.4268 128.103 54.281 128.224 54.1771C128.295 54.1147 128.377 54.068 128.467 54.04C128.557 54.012 128.651 54.0034 128.745 54.0148C128.838 54.0262 128.928 54.0573 129.008 54.106C129.088 54.1548 129.157 54.22 129.21 54.2975C129.895 55.277 130.294 56.4277 130.362 57.6208C130.43 58.8139 130.165 60.0025 129.597 61.0537C129.028 62.1049 128.179 62.9773 127.143 63.5732C126.107 64.1692 124.926 64.4653 123.731 64.4284H123.723Z" fill="#F0F0F0"/>
    <path d="M81.5215 131.408L79.9184 128.797C79.1074 128.917 78.2831 128.917 77.4722 128.797L75.869 131.408L75.5604 131.326C74.5214 131.051 73.5239 130.639 72.5949 130.099L72.3239 129.941L73.0013 127.096C73.0282 126.986 73.0968 126.892 73.1926 126.833C73.2883 126.774 73.4034 126.754 73.5132 126.779C73.5681 126.793 73.6198 126.817 73.6655 126.85C73.7111 126.883 73.7497 126.925 73.7791 126.973C73.8085 127.022 73.828 127.075 73.8366 127.131C73.8452 127.187 73.8427 127.244 73.8293 127.299L73.3024 129.512C73.993 129.89 74.7222 130.193 75.4776 130.415L77.0432 127.863L77.3217 127.908C78.2312 128.059 79.1593 128.059 80.0689 127.908L80.3474 127.863L81.9205 130.415C82.6718 130.188 83.3981 129.885 84.0881 129.512L83.3957 126.606L83.629 126.433C84.2618 125.979 84.8291 125.439 85.315 124.83C85.3811 124.741 85.4799 124.681 85.5899 124.664C85.6999 124.647 85.8121 124.674 85.9021 124.74C85.9483 124.773 85.9875 124.814 86.0175 124.863C86.0475 124.911 86.0676 124.964 86.0767 125.02C86.0858 125.076 86.0837 125.134 86.0705 125.189C86.0573 125.244 86.0333 125.296 85.9999 125.342C85.5204 125.946 84.9695 126.489 84.3591 126.96L85.1118 129.971L84.8333 130.129C83.9049 130.67 82.9073 131.083 81.8678 131.356L81.5215 131.408ZM71.6917 125.696L71.3003 125.221L68.2896 125.929L68.1316 125.658C67.6013 124.725 67.1988 123.725 66.9348 122.685L66.8521 122.376L69.4638 120.773C69.3434 119.962 69.3434 119.138 69.4638 118.327L66.8521 116.724L66.9348 116.415C67.2077 115.376 67.6204 114.378 68.1617 113.45L68.3198 113.171L71.3304 113.924C71.8146 113.265 72.3783 112.668 73.0089 112.148L72.4745 109.89C72.4611 109.835 72.4587 109.779 72.4674 109.723C72.4761 109.668 72.4957 109.615 72.5252 109.567C72.5546 109.52 72.5932 109.478 72.6388 109.446C72.6844 109.413 72.736 109.39 72.7906 109.378C72.9003 109.353 73.0155 109.372 73.1112 109.431C73.2069 109.49 73.2756 109.585 73.3024 109.694L73.9798 112.501L73.739 112.674C72.9931 113.209 72.3397 113.863 71.8046 114.609L71.6315 114.842L68.7262 114.15C68.3524 114.84 68.0498 115.566 67.823 116.317L70.3745 117.883L70.3294 118.169C70.2518 118.621 70.2115 119.08 70.2089 119.539C70.2114 120 70.2517 120.461 70.3294 120.916L70.3745 121.195L67.823 122.76C68.0484 123.514 68.351 124.243 68.7262 124.935L71.6315 124.235L71.8046 124.469C71.9601 124.692 72.1285 124.905 72.3089 125.109C72.383 125.187 72.4243 125.29 72.4243 125.398C72.4243 125.506 72.383 125.61 72.3089 125.688C72.27 125.731 72.2226 125.765 72.1698 125.789C72.117 125.813 72.0599 125.826 72.0019 125.826C71.944 125.827 71.8866 125.816 71.8332 125.793C71.7798 125.771 71.7317 125.738 71.6917 125.696ZM89.0708 125.929L87.9719 125.673C87.917 125.66 87.8652 125.636 87.8196 125.603C87.774 125.569 87.7353 125.527 87.706 125.479C87.6766 125.431 87.6571 125.377 87.6484 125.321C87.6398 125.266 87.6423 125.209 87.6558 125.154C87.6682 125.099 87.6913 125.047 87.7239 125.002C87.7564 124.956 87.7977 124.918 87.8454 124.888C87.893 124.859 87.9461 124.839 88.0014 124.83C88.0567 124.822 88.1132 124.824 88.1676 124.838L88.6418 124.95C89.0201 124.26 89.3229 123.531 89.545 122.775L86.9934 121.21L87.0386 120.931C87.1163 120.476 87.1565 120.015 87.159 119.554C87.1565 119.095 87.1162 118.637 87.0386 118.184L86.9934 117.898L89.545 116.332C89.3215 115.58 89.0187 114.853 88.6418 114.165L85.7365 114.857L85.5634 114.624C85.0283 113.878 84.3749 113.225 83.629 112.689L83.3957 112.516L84.0881 109.611C83.3996 109.234 82.6729 108.931 81.9205 108.708L80.3474 111.259L80.0689 111.214C79.1593 111.064 78.2312 111.064 77.3217 111.214L77.0432 111.259L75.4776 108.708L75.1841 108.798C75.0793 108.832 74.9654 108.823 74.867 108.774C74.7685 108.725 74.6932 108.639 74.6572 108.535C74.637 108.482 74.6275 108.426 74.6295 108.369C74.6314 108.313 74.6448 108.257 74.6686 108.206C74.6925 108.154 74.7265 108.109 74.7685 108.071C74.8105 108.033 74.8597 108.004 74.9131 107.985L75.5604 107.79L75.869 107.714L77.4722 110.326C78.2831 110.206 79.1074 110.206 79.9184 110.326L81.5215 107.714L81.8301 107.79C82.8688 108.068 83.866 108.483 84.7957 109.024L85.0741 109.182L84.3215 112.193C84.9696 112.694 85.5513 113.276 86.0526 113.924L89.0633 113.171L89.2213 113.45C89.7627 114.378 90.1754 115.376 90.4482 116.415L90.531 116.724L87.9192 118.327C88.0397 119.138 88.0397 119.962 87.9192 120.773L90.531 122.376L90.4482 122.685C90.1741 123.724 89.7614 124.721 89.2213 125.65L89.0708 125.929ZM78.5786 123.724C77.5559 123.653 76.5948 123.209 75.879 122.475C75.1632 121.741 74.7428 120.77 74.6981 119.745C74.6534 118.721 74.9876 117.716 75.6368 116.923C76.2859 116.13 77.2046 115.603 78.2173 115.444C78.2777 115.438 78.3387 115.444 78.3965 115.463C78.4543 115.482 78.5075 115.512 78.5529 115.552C78.5982 115.593 78.6346 115.642 78.6598 115.697C78.6849 115.753 78.6983 115.813 78.699 115.873C78.6996 115.978 78.6615 116.079 78.592 116.156C78.5224 116.234 78.4265 116.284 78.3227 116.295C77.6878 116.367 77.0876 116.622 76.5942 117.028C76.1009 117.434 75.7356 117.975 75.5423 118.584C75.3491 119.193 75.3362 119.845 75.5052 120.461C75.6742 121.077 76.0179 121.631 76.4948 122.057C76.9717 122.482 77.5614 122.76 78.1929 122.858C78.8244 122.956 79.4707 122.868 80.0537 122.607C80.6368 122.346 81.1319 121.921 81.4791 121.385C81.8264 120.848 82.011 120.223 82.0108 119.584C82.0122 118.904 81.8017 118.241 81.4086 117.687C81.3512 117.602 81.3264 117.498 81.3388 117.396C81.3513 117.294 81.4001 117.199 81.4764 117.13C81.5217 117.089 81.5752 117.059 81.6333 117.04C81.6914 117.022 81.7528 117.016 81.8133 117.023C81.8738 117.03 81.9321 117.05 81.9844 117.082C82.0366 117.113 82.0815 117.155 82.1162 117.205C82.5564 117.839 82.8123 118.582 82.8555 119.352C82.8988 120.122 82.7275 120.889 82.361 121.567C81.9944 122.246 81.4468 122.81 80.779 123.196C80.1113 123.582 79.3496 123.775 78.5786 123.754V123.724Z" fill="#E6E6E6"/>
    <path d="M188.167 280C268.764 280 334.102 276.185 334.102 271.48C334.102 266.774 268.764 262.959 188.167 262.959C107.569 262.959 42.2322 266.774 42.2322 271.48C42.2322 276.185 107.569 280 188.167 280Z" fill="#F5F5F5"/>
    <path d="M273.557 68.3649H249.05L231.739 266.505H256.246C259.685 266.438 262.982 265.116 265.513 262.786C268.045 260.457 269.637 257.282 269.989 253.86L285.11 81.0022C285.286 79.3916 285.117 77.7621 284.613 76.2222C284.11 74.6823 283.284 73.2673 282.191 72.0716C281.097 70.8759 279.762 69.9268 278.273 69.2877C276.785 68.6485 275.177 68.3339 273.557 68.3649Z" fill="#860579"/>
    <path d="M268.559 68.3647H185.615C182.176 68.4291 178.878 69.7498 176.345 72.0778C173.812 74.4057 172.218 77.5799 171.864 81.002L156.743 253.86C156.569 255.469 156.739 257.097 157.242 258.636C157.745 260.175 158.569 261.589 159.66 262.784C160.752 263.98 162.085 264.93 163.571 265.572C165.057 266.213 166.663 266.531 168.281 266.505H251.218C254.653 266.431 257.943 265.106 260.47 262.777C262.996 260.449 264.586 257.277 264.939 253.86L280.06 81.002C280.235 79.3959 280.067 77.771 279.567 76.2348C279.066 74.6987 278.245 73.2864 277.158 72.0915C276.07 70.8967 274.741 69.9465 273.259 69.304C271.777 68.6615 270.175 68.3413 268.559 68.3647Z" fill="#B44FAA"/>
    <path opacity="0.3" d="M268.559 68.3647H185.615C182.176 68.4291 178.878 69.7498 176.345 72.0778C173.812 74.4057 172.218 77.5799 171.864 81.002L156.743 253.86C156.569 255.469 156.739 257.097 157.242 258.636C157.745 260.175 158.569 261.589 159.66 262.784C160.752 263.98 162.085 264.93 163.571 265.572C165.057 266.213 166.663 266.531 168.281 266.505H251.218C254.653 266.431 257.943 265.106 260.47 262.777C262.996 260.449 264.586 257.277 264.939 253.86L280.06 81.002C280.235 79.3959 280.067 77.771 279.567 76.2348C279.066 74.6987 278.245 73.2864 277.158 72.0915C276.07 70.8967 274.741 69.9465 273.259 69.304C271.777 68.6615 270.175 68.3413 268.559 68.3647Z" fill="white"/>
    <path opacity="0.4" d="M268.206 72.4143H246.333C245.681 72.4197 245.046 72.6205 244.509 72.9908C243.972 73.3611 243.559 73.884 243.322 74.4917C242.46 76.724 240.952 78.6487 238.99 80.0201C237.029 81.3915 234.704 82.1474 232.311 82.1915H219.41C217.157 82.2369 214.958 81.4951 213.192 80.0937C211.427 78.6924 210.205 76.7193 209.738 74.5143C209.614 73.9177 209.284 73.3834 208.808 73.0041C208.331 72.6247 207.736 72.424 207.127 72.4369H185.262C182.924 72.4782 180.682 73.375 178.961 74.9576C177.24 76.5401 176.158 78.6987 175.921 81.0248L160.792 253.883C160.671 254.977 160.785 256.085 161.126 257.132C161.467 258.179 162.027 259.141 162.769 259.955C163.511 260.768 164.418 261.414 165.43 261.849C166.441 262.284 167.534 262.499 168.635 262.478H251.579C253.918 262.435 256.159 261.536 257.88 259.953C259.602 258.369 260.683 256.209 260.92 253.883L276.041 81.0248C276.164 79.9298 276.052 78.8211 275.713 77.7727C275.374 76.7244 274.814 75.7605 274.073 74.9455C273.331 74.1305 272.424 73.4831 271.412 73.0466C270.401 72.6101 269.307 72.3946 268.206 72.4143Z" fill="white"/>
    <path d="M247.537 166.34H189.492C189.093 166.346 188.697 166.268 188.331 166.11C187.964 165.952 187.636 165.718 187.367 165.423C187.097 165.128 186.894 164.78 186.77 164.401C186.646 164.021 186.604 163.62 186.647 163.223L186.94 159.897C187.026 159.053 187.419 158.27 188.043 157.696C188.667 157.122 189.479 156.796 190.327 156.781H248.38C248.779 156.774 249.175 156.852 249.541 157.01C249.908 157.168 250.236 157.403 250.506 157.697C250.775 157.992 250.978 158.34 251.102 158.72C251.226 159.099 251.268 159.5 251.225 159.897L250.939 163.223C250.851 164.069 250.456 164.853 249.83 165.427C249.203 166.001 248.387 166.326 247.537 166.34Z" fill="white"/>
    <path d="M246.288 180.64H188.234C187.836 180.647 187.44 180.569 187.074 180.411C186.708 180.253 186.38 180.018 186.112 179.724C185.843 179.429 185.641 179.08 185.517 178.701C185.394 178.322 185.353 177.921 185.397 177.524L185.683 174.197C185.771 173.355 186.163 172.573 186.787 171.999C187.411 171.425 188.223 171.099 189.07 171.081H247.123C247.522 171.075 247.918 171.153 248.284 171.311C248.651 171.469 248.979 171.703 249.248 171.998C249.517 172.293 249.721 172.641 249.845 173.02C249.969 173.4 250.011 173.801 249.968 174.197L249.675 177.524C249.587 178.367 249.194 179.149 248.571 179.723C247.947 180.297 247.135 180.623 246.288 180.64Z" fill="white"/>
    <path opacity="0.1" d="M229.902 75.6508C229.807 76.5875 229.371 77.4565 228.677 78.0932C227.983 78.73 227.08 79.0902 226.139 79.1056C225.697 79.1135 225.257 79.0272 224.851 78.8522C224.444 78.6772 224.08 78.4177 223.781 78.0908C223.483 77.764 223.258 77.3773 223.12 76.9566C222.983 76.5359 222.937 76.0907 222.985 75.6508C223.081 74.7141 223.517 73.8451 224.211 73.2084C224.904 72.5716 225.807 72.2115 226.749 72.1961C227.191 72.1881 227.63 72.2745 228.037 72.4494C228.443 72.6244 228.808 72.8839 229.106 73.2108C229.405 73.5376 229.63 73.9243 229.767 74.345C229.904 74.7657 229.951 75.2109 229.902 75.6508Z" fill="black"/>
    <path opacity="0.1" d="M228.337 75.6506C228.284 76.1619 228.045 76.6362 227.667 76.9841C227.288 77.3321 226.796 77.5297 226.282 77.5398C226.04 77.5445 225.8 77.4975 225.577 77.4019C225.355 77.3063 225.155 77.1644 224.992 76.9856C224.829 76.8067 224.706 76.5951 224.631 76.3649C224.556 76.1347 224.532 75.8912 224.558 75.6506C224.61 75.1387 224.848 74.6635 225.226 74.3152C225.605 73.967 226.099 73.7699 226.613 73.7614C226.855 73.7579 227.094 73.8058 227.316 73.9017C227.538 73.9977 227.737 74.1397 227.9 74.3182C228.063 74.4968 228.186 74.7079 228.261 74.9376C228.337 75.1672 228.362 75.4103 228.337 75.6506Z" fill="black"/>
    <g opacity="0.8">
        <path d="M257.992 81.4159C257.862 81.4177 257.733 81.3919 257.614 81.3402C257.495 81.2886 257.388 81.2122 257.3 81.1161C257.213 81.0201 257.147 80.9066 257.106 80.7831C257.066 80.6596 257.052 80.529 257.066 80.3998L257.232 78.5482C257.259 78.2746 257.386 78.0207 257.589 77.8347C257.792 77.6488 258.056 77.5438 258.331 77.5396C258.46 77.5379 258.588 77.5635 258.706 77.6148C258.825 77.666 258.932 77.7417 259.019 77.8369C259.106 77.9321 259.173 78.0446 259.214 78.1672C259.254 78.2898 259.269 78.4196 259.256 78.5482L259.091 80.3998C259.063 80.6741 258.936 80.9289 258.734 81.1161C258.531 81.3032 258.267 81.4099 257.992 81.4159Z" fill="white"/>
        <path d="M266.09 81.416C265.961 81.4178 265.832 81.392 265.713 81.3403C265.593 81.2887 265.486 81.2123 265.399 81.1163C265.311 81.0202 265.245 80.9067 265.205 80.7832C265.165 80.6597 265.151 80.5291 265.165 80.3999L265.549 76.057C265.576 75.7834 265.703 75.5295 265.906 75.3435C266.109 75.1576 266.372 75.0526 266.647 75.0484C266.777 75.0467 266.905 75.0723 267.023 75.1236C267.142 75.1748 267.249 75.2504 267.336 75.3456C267.423 75.4408 267.49 75.5534 267.53 75.676C267.571 75.7986 267.586 75.9284 267.573 76.057L267.189 80.3999C267.162 80.6742 267.035 80.929 266.832 81.1162C266.63 81.3034 266.366 81.41 266.09 81.416Z" fill="white"/>
        <path d="M262.041 81.4161C261.911 81.4179 261.782 81.3921 261.663 81.3404C261.544 81.2887 261.437 81.2124 261.35 81.1163C261.262 81.0203 261.196 80.9068 261.156 80.7833C261.115 80.6598 261.101 80.5291 261.115 80.4L261.386 77.3065C261.414 77.0309 261.542 76.7751 261.746 76.5877C261.95 76.4004 262.216 76.2945 262.493 76.2904C262.622 76.2884 262.751 76.3142 262.87 76.3659C262.989 76.4177 263.095 76.4942 263.182 76.5904C263.269 76.6866 263.334 76.8002 263.374 76.9237C263.413 77.0472 263.426 77.1777 263.411 77.3065L263.14 80.4C263.112 80.6743 262.986 80.9291 262.783 81.1163C262.581 81.3034 262.317 81.4101 262.041 81.4161Z" fill="white"/>
    </g>
    <g opacity="0.8">
        <path d="M188.649 81.4159H183.561C183.487 81.4175 183.415 81.4033 183.347 81.3744C183.28 81.3455 183.22 81.3025 183.17 81.2483C183.121 81.194 183.084 81.1299 183.062 81.0601C183.04 80.9903 183.033 80.9166 183.041 80.8439L183.274 78.1117C183.291 77.9566 183.364 77.8128 183.479 77.7075C183.594 77.6021 183.743 77.5425 183.899 77.5397H188.987C189.06 77.5381 189.133 77.5522 189.2 77.5812C189.268 77.6101 189.328 77.6531 189.377 77.7073C189.427 77.7616 189.464 77.8257 189.486 77.8955C189.508 77.9652 189.515 78.039 189.507 78.1117L189.266 80.8439C189.253 80.999 189.182 81.1436 189.068 81.2494C188.954 81.3552 188.804 81.4146 188.649 81.4159Z" fill="white"/>
        <path d="M191.004 80.6707C190.931 80.6721 190.858 80.658 190.79 80.6291C190.723 80.6003 190.662 80.5574 190.612 80.5033C190.562 80.4492 190.525 80.3852 190.501 80.3155C190.478 80.2457 190.47 80.1718 190.478 80.0987L190.59 78.8492C190.605 78.6935 190.677 78.5488 190.793 78.4432C190.908 78.3375 191.059 78.2784 191.215 78.2772C191.288 78.2756 191.361 78.2898 191.428 78.3187C191.496 78.3476 191.556 78.3906 191.605 78.4449C191.654 78.4991 191.691 78.5633 191.714 78.633C191.736 78.7028 191.743 78.7765 191.734 78.8492L191.629 80.0987C191.613 80.2538 191.54 80.3975 191.425 80.5029C191.31 80.6082 191.16 80.6679 191.004 80.6707Z" fill="white"/>
    </g>
    <path d="M237.973 144.46C248.101 134.764 249.111 119.383 240.229 110.104C231.347 100.825 215.935 101.164 205.807 110.859C195.679 120.555 194.669 135.937 203.551 145.216C212.433 154.494 227.844 154.156 237.973 144.46Z" fill="white"/>
    <path d="M221.977 126.734C215.594 126.734 210.197 129.165 209.738 134.441L209.227 140.305H232.356L232.868 134.441C233.327 129.165 228.367 126.734 221.977 126.734Z" fill="#860579"/>
    <path d="M222.188 124.318C225.153 124.318 226.523 121.917 226.779 118.952C227.035 115.986 226.094 113.585 223.128 113.585C220.163 113.585 218.801 115.994 218.537 118.952C218.274 121.91 219.222 124.318 222.188 124.318Z" fill="#860579"/>
    <path d="M244.888 161.357C243.315 161.357 241.983 161.959 241.877 163.261L241.749 164.714H247.462L247.59 163.261C247.695 161.959 246.468 161.357 244.888 161.357Z" fill="#860579"/>
    <path d="M244.94 160.762C245.693 160.762 246.009 160.168 246.077 159.438C246.145 158.708 245.904 158.113 245.174 158.113C244.444 158.113 244.105 158.708 244.037 159.438C243.97 160.168 244.21 160.762 244.94 160.762Z" fill="#860579"/>
    <path d="M227.306 194.941H204.726C204.113 194.952 203.506 194.833 202.943 194.591C202.381 194.349 201.876 193.99 201.463 193.538C201.05 193.085 200.738 192.55 200.548 191.968C200.358 191.386 200.294 190.77 200.36 190.162C200.494 188.867 201.097 187.667 202.055 186.786C203.013 185.906 204.26 185.406 205.561 185.382H228.141C228.753 185.372 229.36 185.493 229.922 185.735C230.484 185.977 230.988 186.336 231.401 186.788C231.813 187.24 232.125 187.775 232.316 188.356C232.507 188.938 232.572 189.553 232.507 190.162C232.374 191.456 231.772 192.658 230.813 193.539C229.855 194.419 228.607 194.918 227.306 194.941Z" fill="#860579"/>
    <path d="M224.573 248.245H200.405C199.757 248.262 199.112 248.14 198.516 247.886C197.919 247.632 197.384 247.253 196.946 246.774C196.509 246.295 196.181 245.727 195.983 245.109C195.785 244.491 195.722 243.838 195.799 243.194L197.342 225.567C197.48 224.199 198.115 222.93 199.126 221.999C200.137 221.069 201.455 220.541 202.829 220.517H227.005C227.651 220.505 228.293 220.632 228.887 220.888C229.481 221.144 230.013 221.523 230.449 222.001C230.885 222.479 231.214 223.044 231.414 223.659C231.615 224.274 231.682 224.924 231.611 225.567L230.068 243.194C229.927 244.562 229.29 245.83 228.278 246.761C227.266 247.691 225.948 248.219 224.573 248.245Z" fill="#860579"/>
    <g opacity="0.6">
        <path d="M217.122 230.015C217.162 229.63 217.119 229.242 216.997 228.875C216.875 228.508 216.677 228.171 216.415 227.886C216.153 227.602 215.834 227.376 215.478 227.224C215.123 227.072 214.739 226.997 214.352 227.004C213.529 227.016 212.738 227.329 212.13 227.884C211.521 228.438 211.136 229.196 211.048 230.015C211 230.473 211.068 230.936 211.246 231.36C211.423 231.785 211.705 232.159 212.064 232.446L211.537 238.52C211.512 238.75 211.535 238.983 211.607 239.203C211.678 239.424 211.796 239.626 211.952 239.797C212.108 239.968 212.299 240.104 212.512 240.195C212.724 240.286 212.954 240.331 213.186 240.327C213.676 240.316 214.146 240.127 214.506 239.794C214.867 239.461 215.093 239.008 215.143 238.52L215.677 232.446C216.08 232.17 216.419 231.81 216.668 231.39C216.918 230.97 217.073 230.501 217.122 230.015Z" fill="white"/>
    </g>
    <path d="M227.215 224.19H224.099L224.852 215.466C224.983 214.255 224.856 213.031 224.478 211.873C224.1 210.715 223.48 209.651 222.659 208.752C221.838 207.852 220.836 207.137 219.718 206.654C218.599 206.172 217.391 205.933 216.174 205.952C213.586 206.003 211.106 206.998 209.201 208.751C207.296 210.503 206.098 212.892 205.832 215.466L205.079 224.19H201.963L202.716 215.466C203.067 212.049 204.656 208.879 207.184 206.554C209.711 204.228 213.003 202.909 216.437 202.844C218.053 202.816 219.657 203.133 221.142 203.773C222.626 204.413 223.957 205.361 225.047 206.555C226.137 207.748 226.961 209.16 227.463 210.697C227.965 212.233 228.135 213.859 227.961 215.466L227.215 224.19Z" fill="#860579"/>
    <path d="M245.272 174.717L245.37 173.866C245.39 173.669 245.368 173.47 245.306 173.282C245.244 173.094 245.143 172.921 245.009 172.774C244.875 172.628 244.712 172.511 244.531 172.432C244.349 172.353 244.153 172.314 243.955 172.316C243.533 172.324 243.129 172.487 242.818 172.772C242.508 173.058 242.312 173.447 242.269 173.866L242.193 174.702C242.025 174.706 241.864 174.772 241.74 174.887C241.617 175.002 241.54 175.159 241.523 175.326L241.328 177.584C241.318 177.663 241.325 177.743 241.349 177.819C241.374 177.895 241.414 177.965 241.467 178.023C241.521 178.082 241.587 178.128 241.66 178.159C241.734 178.19 241.813 178.204 241.892 178.202H244.993C245.161 178.199 245.322 178.134 245.446 178.021C245.569 177.907 245.647 177.752 245.663 177.584L245.859 175.326C245.865 175.247 245.855 175.166 245.828 175.091C245.801 175.016 245.758 174.947 245.703 174.889C245.647 174.832 245.58 174.786 245.506 174.757C245.431 174.727 245.352 174.713 245.272 174.717ZM243.864 172.715C244.014 172.713 244.162 172.743 244.299 172.802C244.436 172.861 244.559 172.949 244.66 173.059C244.76 173.169 244.837 173.299 244.884 173.441C244.931 173.583 244.948 173.733 244.933 173.881L244.858 174.717H242.524L242.6 173.881C242.633 173.566 242.779 173.274 243.012 173.059C243.245 172.845 243.548 172.722 243.864 172.715Z" fill="#860579"/>
    <path d="M198.591 175.612L197.508 175.386C197.477 175.38 197.449 175.367 197.425 175.349C197.4 175.33 197.38 175.306 197.366 175.278C197.353 175.251 197.345 175.22 197.345 175.19C197.345 175.159 197.351 175.128 197.365 175.1L197.816 174.032C197.835 173.986 197.837 173.934 197.821 173.887C197.806 173.839 197.774 173.799 197.732 173.773C197.689 173.747 197.639 173.736 197.59 173.744C197.54 173.751 197.495 173.776 197.462 173.813L196.642 174.656C196.622 174.681 196.597 174.702 196.568 174.716C196.54 174.73 196.508 174.737 196.476 174.737C196.445 174.737 196.413 174.73 196.384 174.716C196.356 174.702 196.331 174.681 196.311 174.656L195.641 173.813C195.498 173.633 195.189 173.813 195.242 174.032L195.505 175.1C195.513 175.132 195.514 175.164 195.509 175.196C195.503 175.228 195.492 175.258 195.474 175.285C195.456 175.311 195.433 175.334 195.406 175.352C195.379 175.369 195.349 175.381 195.317 175.386L194.196 175.612C193.955 175.657 193.925 175.996 194.158 176.041L195.242 176.267C195.272 176.273 195.301 176.286 195.325 176.305C195.35 176.323 195.369 176.348 195.383 176.376C195.396 176.404 195.402 176.434 195.401 176.465C195.4 176.496 195.392 176.526 195.378 176.553L194.941 177.629C194.922 177.676 194.92 177.727 194.936 177.774C194.951 177.822 194.983 177.862 195.025 177.888C195.068 177.914 195.118 177.925 195.168 177.917C195.217 177.91 195.262 177.885 195.295 177.848L196.115 177.005C196.136 176.982 196.162 176.964 196.19 176.951C196.219 176.939 196.25 176.932 196.281 176.932C196.312 176.932 196.343 176.939 196.371 176.951C196.4 176.964 196.425 176.982 196.446 177.005L197.116 177.848C197.259 178.028 197.568 177.848 197.508 177.629L197.244 176.561C197.233 176.497 197.247 176.431 197.284 176.378C197.32 176.324 197.376 176.287 197.44 176.275L198.561 176.049C198.795 175.996 198.825 175.657 198.591 175.612Z" fill="#263238"/>
    <path d="M205.712 175.612L204.628 175.386C204.597 175.38 204.569 175.367 204.545 175.349C204.52 175.33 204.5 175.306 204.487 175.278C204.473 175.251 204.466 175.22 204.465 175.19C204.465 175.159 204.471 175.128 204.485 175.1L204.936 174.032C204.955 173.986 204.957 173.934 204.941 173.887C204.926 173.839 204.894 173.799 204.852 173.773C204.809 173.747 204.759 173.736 204.71 173.744C204.66 173.751 204.615 173.776 204.583 173.813L203.762 174.656C203.742 174.681 203.717 174.702 203.689 174.716C203.66 174.73 203.628 174.737 203.597 174.737C203.565 174.737 203.533 174.73 203.504 174.716C203.476 174.702 203.451 174.681 203.431 174.656L202.761 173.813C202.618 173.633 202.309 173.813 202.37 174.032L202.633 175.1C202.64 175.132 202.64 175.165 202.633 175.197C202.627 175.228 202.614 175.258 202.596 175.285C202.578 175.312 202.554 175.334 202.527 175.352C202.5 175.369 202.469 175.381 202.437 175.386L201.316 175.612C201.075 175.657 201.045 175.996 201.278 176.041L202.362 176.267C202.392 176.273 202.421 176.286 202.445 176.305C202.47 176.324 202.489 176.348 202.503 176.375C202.517 176.403 202.524 176.433 202.525 176.464C202.525 176.495 202.518 176.525 202.505 176.553L202.054 177.622C202.035 177.668 202.033 177.719 202.048 177.767C202.064 177.814 202.096 177.855 202.138 177.881C202.181 177.907 202.231 177.917 202.28 177.91C202.329 177.902 202.374 177.878 202.407 177.84L203.228 176.997C203.249 176.974 203.274 176.956 203.303 176.944C203.331 176.931 203.362 176.925 203.393 176.925C203.424 176.925 203.455 176.931 203.484 176.944C203.512 176.956 203.538 176.974 203.559 176.997L204.229 177.84C204.372 178.021 204.68 177.84 204.628 177.622L204.364 176.553C204.358 176.522 204.357 176.49 204.363 176.459C204.369 176.427 204.381 176.397 204.399 176.371C204.416 176.344 204.439 176.321 204.465 176.304C204.492 176.286 204.521 176.273 204.552 176.267L205.674 176.041C205.915 175.996 205.945 175.657 205.712 175.612Z" fill="#263238"/>
    <path d="M212.832 175.613L211.755 175.387C211.724 175.382 211.695 175.37 211.67 175.352C211.644 175.333 211.624 175.309 211.61 175.281C211.596 175.253 211.589 175.222 211.589 175.191C211.59 175.159 211.598 175.129 211.612 175.101L212.064 174.032C212.093 173.984 212.102 173.927 212.088 173.872C212.075 173.818 212.04 173.771 211.992 173.742C211.945 173.713 211.887 173.705 211.833 173.718C211.778 173.731 211.732 173.766 211.703 173.814L210.89 174.657C210.869 174.682 210.844 174.702 210.814 174.716C210.785 174.73 210.753 174.737 210.72 174.737C210.688 174.737 210.656 174.73 210.627 174.716C210.597 174.702 210.572 174.682 210.551 174.657L209.881 173.814C209.738 173.633 209.43 173.814 209.49 174.032L209.753 175.101C209.76 175.132 209.76 175.164 209.754 175.195C209.748 175.227 209.736 175.257 209.719 175.283C209.701 175.31 209.679 175.333 209.652 175.35C209.626 175.368 209.596 175.381 209.565 175.387L208.444 175.613C208.203 175.658 208.173 175.997 208.406 176.042L209.482 176.268C209.512 176.274 209.541 176.287 209.565 176.305C209.59 176.324 209.61 176.348 209.623 176.376C209.637 176.403 209.644 176.434 209.645 176.464C209.645 176.495 209.638 176.526 209.625 176.554L209.174 177.622C209.145 177.67 209.136 177.728 209.149 177.782C209.163 177.836 209.197 177.883 209.245 177.912C209.293 177.941 209.351 177.95 209.405 177.936C209.459 177.923 209.506 177.889 209.535 177.841L210.348 176.998C210.369 176.975 210.395 176.957 210.423 176.944C210.452 176.932 210.482 176.925 210.513 176.925C210.545 176.925 210.575 176.932 210.604 176.944C210.632 176.957 210.658 176.975 210.679 176.998L211.356 177.841C211.499 178.021 211.808 177.841 211.748 177.622L211.484 176.554C211.473 176.491 211.486 176.426 211.521 176.373C211.556 176.32 211.611 176.282 211.673 176.268L212.794 176.042C213.005 175.997 213.065 175.658 212.832 175.613Z" fill="#263238"/>
    <path d="M219.96 175.612L218.876 175.386C218.845 175.38 218.817 175.367 218.793 175.349C218.768 175.33 218.748 175.306 218.735 175.278C218.721 175.251 218.713 175.22 218.713 175.19C218.713 175.159 218.719 175.128 218.733 175.1L219.184 174.032C219.203 173.986 219.205 173.934 219.189 173.887C219.174 173.839 219.142 173.799 219.1 173.773C219.057 173.747 219.007 173.736 218.958 173.744C218.908 173.751 218.863 173.776 218.83 173.813L218.01 174.656C217.99 174.681 217.965 174.702 217.937 174.716C217.908 174.73 217.876 174.737 217.845 174.737C217.813 174.737 217.781 174.73 217.752 174.716C217.724 174.702 217.699 174.681 217.679 174.656L217.009 173.813C216.866 173.633 216.557 173.813 216.61 174.032L216.874 175.1C216.881 175.132 216.882 175.164 216.877 175.196C216.872 175.228 216.86 175.258 216.842 175.285C216.824 175.311 216.801 175.334 216.774 175.352C216.747 175.369 216.717 175.381 216.685 175.386L215.564 175.612C215.323 175.657 215.293 175.996 215.564 176.041L216.648 176.267C216.678 176.273 216.707 176.286 216.731 176.305C216.755 176.323 216.775 176.348 216.788 176.376C216.802 176.404 216.808 176.434 216.807 176.465C216.806 176.496 216.798 176.526 216.783 176.553L216.339 177.622C216.32 177.668 216.319 177.719 216.334 177.767C216.35 177.814 216.381 177.855 216.424 177.881C216.466 177.907 216.516 177.917 216.566 177.91C216.615 177.902 216.66 177.878 216.693 177.84L217.513 176.997C217.534 176.974 217.56 176.956 217.589 176.944C217.617 176.931 217.648 176.925 217.679 176.925C217.71 176.925 217.741 176.931 217.769 176.944C217.798 176.956 217.823 176.974 217.845 176.997L218.514 177.84C218.657 178.021 218.966 177.84 218.906 177.622L218.642 176.553C218.631 176.489 218.646 176.424 218.682 176.37C218.719 176.317 218.775 176.28 218.838 176.267L219.96 176.041C220.163 175.996 220.193 175.657 219.96 175.612Z" fill="#263238"/>
    <path d="M227.08 175.612L225.996 175.386C225.966 175.38 225.938 175.367 225.913 175.349C225.889 175.33 225.869 175.306 225.855 175.278C225.841 175.251 225.834 175.22 225.834 175.19C225.833 175.159 225.84 175.128 225.853 175.1L226.305 174.032C226.323 173.986 226.325 173.934 226.31 173.887C226.294 173.839 226.263 173.799 226.22 173.773C226.178 173.747 226.127 173.736 226.078 173.744C226.029 173.751 225.984 173.776 225.951 173.813L225.131 174.656C225.111 174.681 225.086 174.702 225.057 174.716C225.028 174.73 224.997 174.737 224.965 174.737C224.933 174.737 224.902 174.73 224.873 174.716C224.844 174.702 224.819 174.681 224.799 174.656L224.129 173.813C223.986 173.633 223.678 173.813 223.738 174.032L224.002 175.1C224.008 175.132 224.008 175.165 224.002 175.197C223.995 175.228 223.983 175.258 223.964 175.285C223.946 175.312 223.923 175.334 223.895 175.352C223.868 175.369 223.838 175.381 223.806 175.386L222.684 175.612C222.443 175.657 222.413 175.996 222.647 176.041L223.731 176.267C223.761 176.273 223.789 176.286 223.814 176.305C223.838 176.324 223.858 176.348 223.872 176.375C223.885 176.403 223.893 176.433 223.893 176.464C223.893 176.495 223.887 176.525 223.874 176.553L223.422 177.622C223.403 177.668 223.401 177.719 223.417 177.767C223.432 177.814 223.464 177.855 223.507 177.881C223.549 177.907 223.599 177.917 223.649 177.91C223.698 177.902 223.743 177.878 223.776 177.84L224.596 176.997C224.617 176.974 224.643 176.956 224.671 176.944C224.7 176.931 224.731 176.925 224.762 176.925C224.793 176.925 224.824 176.931 224.852 176.944C224.881 176.956 224.906 176.974 224.927 176.997L225.597 177.84C225.74 178.021 226.049 177.84 225.996 177.622L225.733 176.553C225.726 176.522 225.726 176.49 225.732 176.459C225.738 176.427 225.75 176.397 225.767 176.371C225.785 176.344 225.807 176.321 225.834 176.304C225.86 176.286 225.89 176.273 225.921 176.267L227.042 176.041C227.306 175.996 227.306 175.657 227.08 175.612Z" fill="#263238"/>
    <path d="M234.2 175.613L233.116 175.387C233.086 175.381 233.057 175.368 233.033 175.349C233.009 175.331 232.989 175.306 232.976 175.278C232.962 175.25 232.956 175.22 232.957 175.189C232.958 175.158 232.966 175.128 232.981 175.101L233.432 174.032C233.447 174.008 233.456 173.982 233.46 173.955C233.465 173.927 233.463 173.899 233.457 173.872C233.45 173.845 233.438 173.82 233.422 173.798C233.405 173.776 233.385 173.757 233.361 173.742C233.337 173.728 233.311 173.718 233.283 173.714C233.256 173.71 233.228 173.711 233.201 173.718C233.174 173.725 233.149 173.737 233.127 173.753C233.104 173.769 233.085 173.79 233.071 173.814L232.258 174.657C232.238 174.682 232.212 174.702 232.183 174.716C232.153 174.73 232.121 174.737 232.089 174.737C232.056 174.737 232.024 174.73 231.995 174.716C231.966 174.702 231.94 174.682 231.92 174.657L231.25 173.814C231.107 173.633 230.798 173.814 230.858 174.032L231.122 175.101C231.128 175.132 231.129 175.164 231.123 175.195C231.117 175.227 231.105 175.257 231.087 175.283C231.07 175.31 231.047 175.333 231.021 175.35C230.994 175.368 230.965 175.381 230.934 175.387L229.812 175.613C229.571 175.658 229.541 175.997 229.774 176.042L230.851 176.268C230.881 176.274 230.909 176.287 230.934 176.305C230.958 176.324 230.978 176.348 230.992 176.376C231.006 176.403 231.013 176.434 231.013 176.464C231.014 176.495 231.007 176.526 230.994 176.554L230.542 177.622C230.513 177.67 230.504 177.728 230.518 177.782C230.531 177.836 230.566 177.883 230.614 177.912C230.662 177.941 230.719 177.95 230.773 177.936C230.828 177.923 230.874 177.889 230.903 177.841L231.716 176.998C231.737 176.975 231.763 176.957 231.792 176.944C231.82 176.932 231.851 176.925 231.882 176.925C231.913 176.925 231.944 176.932 231.972 176.944C232.001 176.957 232.026 176.975 232.047 176.998L232.717 177.841C232.752 177.88 232.8 177.906 232.852 177.915C232.904 177.924 232.957 177.915 233.004 177.89C233.05 177.865 233.086 177.825 233.107 177.776C233.127 177.727 233.131 177.673 233.116 177.622L232.853 176.554C232.842 176.491 232.855 176.426 232.89 176.373C232.925 176.32 232.979 176.282 233.041 176.268L234.162 176.042C234.403 175.997 234.433 175.658 234.2 175.613Z" fill="#263238"/>
    <path d="M217.032 160.025H203.664C203.254 160.032 202.861 160.189 202.558 160.466C202.256 160.744 202.066 161.122 202.024 161.53C202.002 161.722 202.022 161.917 202.082 162.1C202.142 162.284 202.24 162.453 202.37 162.596C202.501 162.738 202.66 162.851 202.838 162.927C203.016 163.003 203.208 163.04 203.401 163.036H216.768C217.179 163.029 217.572 162.871 217.874 162.594C218.177 162.317 218.367 161.938 218.409 161.53C218.429 161.338 218.409 161.144 218.348 160.961C218.288 160.778 218.19 160.61 218.059 160.467C217.929 160.325 217.77 160.212 217.593 160.136C217.416 160.059 217.225 160.022 217.032 160.025Z" fill="#263238"/>
    <path d="M230.61 160.025H222.85C222.44 160.032 222.048 160.189 221.747 160.467C221.446 160.744 221.257 161.123 221.216 161.53C221.195 161.721 221.215 161.915 221.274 162.098C221.333 162.282 221.431 162.45 221.561 162.593C221.69 162.735 221.849 162.848 222.026 162.925C222.203 163.001 222.394 163.039 222.586 163.035H230.316C230.726 163.028 231.118 162.871 231.419 162.593C231.72 162.316 231.909 161.937 231.949 161.53C231.971 161.341 231.952 161.15 231.894 160.969C231.837 160.788 231.741 160.621 231.615 160.479C231.489 160.337 231.334 160.223 231.161 160.145C230.988 160.067 230.8 160.026 230.61 160.025Z" fill="#263238"/>
    <path d="M240.854 228.254C236.129 230.054 231.864 232.882 228.367 236.533C226.244 234.885 223.712 233.844 221.043 233.523L220.69 233.47L220.539 235.246L220.735 235.322C223.662 236.399 226.137 238.437 227.757 241.102L228.013 241.524L228.292 241.072C231.409 236.096 235.807 232.051 241.027 229.36L241.2 229.27L241.298 228.096L240.854 228.254Z" fill="#263238"/>
    <path opacity="0.2" d="M173.595 80.0613C172.636 81.7362 172.046 83.5966 171.864 85.5181L160.657 213.637H195.34L202.31 186.925L200.014 160.205L206.984 133.493L204.726 106.781L211.695 80.0613H173.595Z" fill="black"/>
    <path d="M201.677 99.2544L208.647 72.5347H120.939L113.977 99.2544L116.265 125.967L109.302 152.679L111.591 179.398L104.628 206.111H192.329L199.299 179.398L197.003 152.679L203.973 125.967L201.677 99.2544Z" fill="#860579"/>
    <path opacity="0.7" d="M201.677 99.2544L208.647 72.5347H120.939L113.977 99.2544L116.265 125.967L109.302 152.679L111.591 179.398L104.628 206.111H192.329L199.299 179.398L197.003 152.679L203.973 125.967L201.677 99.2544Z" fill="white"/>
    <path opacity="0.5" d="M201.677 99.2544H113.977L120.939 72.5347H208.647L201.677 99.2544Z" fill="white"/>
    <path opacity="0.5" d="M197.003 152.679H109.302L116.265 125.967H203.973L197.003 152.679Z" fill="white"/>
    <path opacity="0.5" d="M192.329 206.11H104.621L111.591 179.398H199.299L192.329 206.11Z" fill="white"/>
    <path opacity="0.2" d="M189.943 110.417C189.043 110.677 188.11 110.803 187.174 110.793C185.903 110.849 184.639 110.591 183.493 110.04C183.286 109.917 183.049 109.852 182.808 109.852C182.587 109.855 182.37 109.912 182.176 110.018H182.131C181.794 110.206 181.435 110.351 181.062 110.447C180.22 110.669 179.351 110.778 178.48 110.77C178.217 110.77 177.961 110.77 177.728 110.77C177.052 110.727 176.383 110.608 175.733 110.417C175.637 110.388 175.539 110.37 175.439 110.364C175.274 110.35 175.107 110.371 174.95 110.425C174.793 110.479 174.649 110.565 174.527 110.677C174.404 110.79 174.307 110.926 174.24 111.078C174.173 111.23 174.138 111.395 174.137 111.561V112.373H139.996C139.369 112.373 138.748 112.497 138.168 112.737C137.589 112.978 137.063 113.33 136.619 113.774C136.176 114.218 135.825 114.745 135.585 115.324C135.346 115.904 135.223 116.526 135.224 117.153V121.962C135.222 122.59 135.344 123.213 135.583 123.793C135.822 124.374 136.173 124.902 136.617 125.346C137.06 125.791 137.587 126.144 138.167 126.385C138.747 126.626 139.368 126.749 139.996 126.749H178.781H179.037C179.451 127.096 179.888 127.442 180.354 127.796C180.821 128.149 181.483 128.639 182.093 129.075C182.301 129.226 182.551 129.307 182.808 129.307C183.065 129.307 183.315 129.226 183.523 129.075C188.4 125.538 191.531 123.099 191.531 116.4V111.583C191.534 111.391 191.49 111.2 191.404 111.028C191.318 110.855 191.192 110.706 191.037 110.592C190.882 110.478 190.702 110.402 190.511 110.372C190.321 110.341 190.126 110.357 189.943 110.417Z" fill="black"/>
    <path d="M178.036 109.732H139.259C136.619 109.732 134.479 111.872 134.479 114.511V119.321C134.479 121.96 136.619 124.1 139.259 124.1H178.036C180.676 124.1 182.816 121.96 182.816 119.321V114.511C182.816 111.872 180.676 109.732 178.036 109.732Z" fill="#860579"/>
    <path d="M186.428 108.143C185.158 108.198 183.894 107.939 182.748 107.391C182.544 107.265 182.309 107.199 182.07 107.199C181.831 107.199 181.597 107.265 181.393 107.391C180.244 107.94 178.977 108.199 177.705 108.143C176.768 108.153 175.835 108.026 174.935 107.767C174.754 107.706 174.56 107.689 174.371 107.718C174.182 107.746 174.003 107.819 173.847 107.931C173.692 108.043 173.566 108.19 173.479 108.361C173.392 108.531 173.347 108.72 173.347 108.911V113.728C173.347 120.434 176.478 122.873 181.355 126.411C181.563 126.561 181.814 126.642 182.07 126.642C182.327 126.642 182.577 126.561 182.785 126.411C187.663 122.873 190.794 120.434 190.794 113.728V108.911C190.793 108.719 190.747 108.531 190.659 108.36C190.571 108.19 190.444 108.043 190.288 107.931C190.132 107.82 189.952 107.747 189.763 107.718C189.573 107.689 189.38 107.706 189.198 107.767C188.298 108.027 187.365 108.154 186.428 108.143Z" fill="#860579"/>
    <path opacity="0.3" d="M186.428 108.143C185.158 108.198 183.894 107.939 182.748 107.391C182.544 107.265 182.309 107.199 182.07 107.199C181.831 107.199 181.597 107.265 181.393 107.391C180.244 107.94 178.977 108.199 177.705 108.143C176.768 108.153 175.835 108.026 174.935 107.767C174.754 107.706 174.56 107.689 174.371 107.718C174.182 107.746 174.003 107.819 173.847 107.931C173.692 108.043 173.566 108.19 173.479 108.361C173.392 108.531 173.347 108.72 173.347 108.911V113.728C173.347 120.434 176.478 122.873 181.355 126.411C181.563 126.561 181.814 126.642 182.07 126.642C182.327 126.642 182.577 126.561 182.785 126.411C187.663 122.873 190.794 120.434 190.794 113.728V108.911C190.793 108.719 190.747 108.531 190.659 108.36C190.571 108.19 190.444 108.043 190.288 107.931C190.132 107.82 189.952 107.747 189.763 107.718C189.573 107.689 189.38 107.706 189.198 107.767C188.298 108.027 187.365 108.154 186.428 108.143Z" fill="white"/>
    <path opacity="0.2" d="M181.393 107.375C180.244 107.925 178.977 108.183 177.705 108.128C176.768 108.138 175.835 108.011 174.935 107.752C174.754 107.691 174.56 107.674 174.371 107.702C174.182 107.731 174.003 107.804 173.847 107.916C173.692 108.028 173.566 108.175 173.479 108.345C173.392 108.516 173.347 108.704 173.347 108.896V113.713C173.347 120.419 176.478 122.858 181.355 126.395C181.574 126.554 181.838 126.636 182.108 126.629V107.18C181.856 107.175 181.607 107.243 181.393 107.375Z" fill="white"/>
    <path d="M189.063 112.418C186.129 113.568 183.516 115.409 181.446 117.785C180.002 116.721 178.31 116.045 176.531 115.82H176.297V116.972L176.425 117.017C178.404 117.731 180.11 119.047 181.303 120.781L181.491 121.052L181.649 120.758C183.379 117.542 186.014 114.905 189.228 113.171L189.341 113.118V112.366L189.063 112.418Z" fill="#263238"/>
    <path d="M207.097 80.0536H203.77C203.342 80.0616 202.917 79.9782 202.524 79.809C202.131 79.6398 201.778 79.3887 201.489 79.0724C201.201 78.7562 200.983 78.382 200.851 77.9749C200.718 77.5679 200.674 77.1373 200.721 76.7118L201.015 73.385C201.105 72.4802 201.525 71.6401 202.193 71.024C202.862 70.408 203.734 70.0589 204.643 70.0432H207.97C208.398 70.0341 208.824 70.1167 209.218 70.2854C209.612 70.4542 209.966 70.7051 210.255 71.0215C210.544 71.3379 210.763 71.7124 210.896 72.12C211.028 72.5276 211.073 72.9589 211.025 73.385L210.732 76.7118C210.631 77.6135 210.207 78.4483 209.539 79.0623C208.871 79.6764 208.004 80.0285 207.097 80.0536Z" fill="#860579"/>
    <path d="M208.481 73.3777L207.759 72.5798L205.937 74.2508L204.417 72.5798L203.551 73.3777L205.079 75.0486L203.265 76.7195L203.988 77.5098L205.802 75.8389L207.33 77.5098L208.188 76.7195L206.66 75.0486L208.481 73.3777Z" fill="white"/>
    <path d="M132.748 108.753C134.675 110.853 136.511 113.028 138.34 115.219C140.169 117.409 141.938 119.644 143.699 121.887C143.775 121.985 143.744 121.947 143.76 121.978C143.775 122.008 143.76 122.015 143.76 122.023C143.773 122.051 143.79 122.076 143.812 122.098C143.876 122.189 143.958 122.267 144.052 122.326C144.147 122.386 144.252 122.426 144.362 122.444C144.447 122.456 144.533 122.456 144.618 122.444C144.663 122.448 144.708 122.448 144.753 122.444H144.821C144.858 122.444 144.821 122.444 144.941 122.399L146.823 121.375C149.352 120.036 151.903 118.726 154.538 117.552L156.743 120.284C154.621 122.233 152.408 124.68 150.172 126.471L148.486 127.796C148.382 127.881 148.271 127.959 148.155 128.029C148.027 128.12 147.894 128.203 147.756 128.277C147.484 128.434 147.202 128.575 146.913 128.699C146.33 128.944 145.718 129.113 145.092 129.203C143.825 129.389 142.533 129.26 141.328 128.827C140.716 128.609 140.134 128.313 139.597 127.946C139.326 127.766 139.07 127.555 138.845 127.352C138.717 127.246 138.611 127.126 138.491 127.013L138.19 126.712C136.195 124.665 134.231 122.602 132.304 120.502C130.377 118.402 128.473 116.287 126.651 114.09L132.748 108.753Z" fill="#B55B52"/>
    <path d="M153.544 119.208L155.298 113.57L159.919 115.873C159.919 115.873 159.242 119.983 155.885 120.698L153.544 119.208Z" fill="#B55B52"/>
    <path d="M157.142 112.012L161.312 113.156L159.912 115.874L155.291 113.57L157.142 112.012Z" fill="#B55B52"/>
    <path d="M108.452 110.289C107.955 112.682 107.338 115.053 106.698 117.417C106.058 119.78 105.358 122.121 104.628 124.462L104.357 125.342L104.222 125.779C104.204 125.842 104.178 125.902 104.147 125.959C104.061 126.202 104.013 126.455 104.004 126.712C103.988 127.259 104.14 127.798 104.44 128.255C104.588 128.456 104.752 128.644 104.929 128.82L105.554 129.504L106.788 130.882C107.594 131.815 108.407 132.748 109.174 133.727L106.548 136.738C105.464 136.12 104.425 135.451 103.386 134.788L101.843 133.765L101.091 133.245C100.835 133.065 100.624 132.944 100.21 132.605C98.7375 131.35 97.7213 129.644 97.3199 127.751C97.1179 126.786 97.0696 125.795 97.1769 124.815C97.1769 124.574 97.2522 124.304 97.2898 124.063L97.3726 123.611L97.5307 122.708C97.9521 120.292 98.4037 117.883 98.908 115.49C99.4123 113.096 99.9542 110.71 100.594 108.354L108.452 110.289Z" fill="#B55B52"/>
    <path d="M106.6 133.486L109.701 131.898L111.071 137.166C111.071 137.166 108.58 138.122 106.653 136.895L106.6 133.486Z" fill="#B55B52"/>
    <path d="M113.992 130.204L114.135 135.052L110.665 137.317L109.46 131.996L113.992 130.204Z" fill="#B55B52"/>
    <path d="M124.145 85.4053C124.22 85.7741 124.484 86.0375 124.725 85.9924C124.966 85.9472 125.109 85.601 125.033 85.2397C124.958 84.8784 124.695 84.6075 124.454 84.6526C124.213 84.6978 124.07 85.0515 124.145 85.4053Z" fill="#263238"/>
    <path d="M124.446 86.0454C125.124 87.0952 125.942 88.0473 126.877 88.8754C126.66 89.1101 126.393 89.2943 126.097 89.4152C125.8 89.5361 125.481 89.5908 125.161 89.5754L124.446 86.0454Z" fill="#A02724"/>
    <path d="M122.361 83.6141C122.318 83.6136 122.276 83.6006 122.239 83.5767C122.203 83.5528 122.175 83.519 122.157 83.4793C122.14 83.4396 122.134 83.3957 122.141 83.3529C122.148 83.31 122.167 83.2701 122.196 83.2378C122.431 82.9711 122.727 82.764 123.058 82.6332C123.389 82.5024 123.746 82.4516 124.1 82.4851C124.129 82.4905 124.157 82.5017 124.182 82.5178C124.207 82.534 124.228 82.5549 124.245 82.5794C124.262 82.6039 124.273 82.6314 124.28 82.6604C124.286 82.6894 124.286 82.7194 124.281 82.7485C124.276 82.7774 124.266 82.805 124.25 82.8299C124.235 82.8547 124.215 82.8761 124.191 82.893C124.167 82.9098 124.14 82.9217 124.111 82.9279C124.083 82.9341 124.053 82.9346 124.025 82.9292C123.744 82.9023 123.461 82.9429 123.199 83.0476C122.937 83.1524 122.704 83.3182 122.519 83.5313C122.479 83.5781 122.423 83.6078 122.361 83.6141Z" fill="#263238"/>
    <path d="M113.292 90.6516C114.12 94.1064 114.955 100.436 111.99 102.732C111.99 102.732 113.149 106.239 121.022 106.239C129.677 106.239 125.161 103.981 125.161 103.981C120.434 103.063 120.555 98.9611 121.398 96.274L113.292 90.6516Z" fill="#B55B52"/>
    <path d="M111.064 103.372C110.552 102.416 109.98 101.317 111.154 100.971C112.449 100.595 120.751 99.8946 123.197 100.602C122.444 101.934 123.716 103.613 123.716 103.613L111.064 103.372Z" fill="#263238"/>
    <path d="M117.943 264.879H123.37L123.912 253.95H118.478L117.943 264.879Z" fill="#B55B52"/>
    <path d="M83.4785 263.374L88.9805 263.667L92.3224 252.897L86.8204 252.603L83.4785 263.374Z" fill="#B55B52"/>
    <path d="M88.8148 263.231L83.629 262.109C83.5381 262.089 83.443 262.1 83.3594 262.141C83.2758 262.182 83.2089 262.251 83.1698 262.335L81.371 266.241C81.3267 266.336 81.3047 266.44 81.3068 266.545C81.3088 266.649 81.3348 266.752 81.3828 266.845C81.4308 266.938 81.4994 267.019 81.5835 267.081C81.6675 267.144 81.7648 267.186 81.8677 267.205C83.6816 267.566 84.5849 267.649 86.8654 268.146C88.2654 268.447 91.4341 269.222 93.3685 269.651C95.3028 270.08 95.9727 268.213 95.2201 267.867C91.833 266.324 90.418 264.962 89.4998 263.69C89.335 263.459 89.0914 263.295 88.8148 263.231Z" fill="#263238"/>
    <path d="M123.084 264.33H117.928C117.835 264.331 117.745 264.363 117.672 264.422C117.6 264.481 117.55 264.562 117.529 264.653L116.596 268.846C116.572 268.947 116.571 269.053 116.594 269.155C116.617 269.256 116.663 269.351 116.728 269.433C116.794 269.514 116.877 269.579 116.971 269.624C117.066 269.668 117.169 269.69 117.273 269.689C119.132 269.689 121.789 269.546 124.16 269.546C126.892 269.546 129.248 269.696 132.44 269.696C134.374 269.696 134.916 267.739 134.103 267.559C130.407 266.753 127.397 266.663 124.205 264.698C123.872 264.476 123.484 264.349 123.084 264.33Z" fill="#263238"/>
    <path d="M102.152 104.328C98.0576 106.277 96.9436 118.094 96.9436 118.094L107.082 122.776C108.796 119.885 109.729 116.599 109.792 113.239C109.995 107.135 106.344 102.363 102.152 104.328Z" fill="#263238"/>
    <path opacity="0.4" d="M107.632 111.613C105.803 114.458 105.976 118.854 106.608 122.565L107.06 122.775C108.772 119.884 109.705 116.599 109.769 113.239C109.769 112.878 109.769 112.486 109.769 112.163L107.632 111.613Z" fill="black"/>
    <path d="M130.445 104.042C130.445 104.042 135.473 109.717 130.723 144.836H105.487C105.313 140.96 107.745 122.061 103.981 103.801C106.77 103.264 109.591 102.907 112.426 102.732C116.001 102.529 119.584 102.529 123.159 102.732C125.618 102.981 128.054 103.419 130.445 104.042Z" fill="#860579"/>
    <path opacity="0.6" d="M130.445 104.042C130.445 104.042 135.473 109.717 130.723 144.836H105.487C105.313 140.96 107.745 122.061 103.981 103.801C106.77 103.264 109.591 102.907 112.426 102.732C116.001 102.529 119.584 102.529 123.159 102.732C125.618 102.981 128.054 103.419 130.445 104.042Z" fill="#FAFAFA"/>
    <path opacity="0.2" d="M132.65 114.775L132.56 114.692L127.54 112.012C127.028 119.742 130.483 124.59 132.537 126.705C132.795 122.733 132.833 118.75 132.65 114.775Z" fill="black"/>
    <path opacity="0.2" d="M123.912 253.95L123.633 259.588H118.199L118.477 253.95H123.912Z" fill="black"/>
    <path opacity="0.2" d="M86.8203 252.611L92.3223 252.897L90.5987 258.451L85.0967 258.158L86.8203 252.611Z" fill="black"/>
    <path d="M111.545 87.1441C112.757 91.6601 113.239 94.3773 116.061 96.2589C120.261 99.089 125.485 95.8374 125.65 91.0429C125.793 86.7302 123.791 80.054 118.937 79.1433C117.865 78.9312 116.756 78.9975 115.718 79.3358C114.679 79.6741 113.744 80.2732 113.002 81.0757C112.261 81.8783 111.738 82.8575 111.483 83.92C111.228 84.9824 111.249 86.0924 111.545 87.1441Z" fill="#B55B52"/>
    <path d="M121.774 144.836C121.774 144.836 116.415 180.896 113.495 194.414C110.258 209.242 92.9923 258.165 92.9923 258.165L84.5398 256.336C84.5398 256.336 95.3707 216.445 98.0878 195.762C99.1416 187.686 100.414 174.687 102.024 163.826C103.582 153.289 105.502 144.844 105.502 144.844L121.774 144.836Z" fill="#263238"/>
    <path d="M95.0168 255.343L93.4362 258.399L83.9375 256.336L84.7353 253.484L95.0168 255.343Z" fill="#860579"/>
    <path opacity="0.6" d="M95.0168 255.343L93.4362 258.399L83.9375 256.336L84.7353 253.484L95.0168 255.343Z" fill="white"/>
    <path opacity="0.6" d="M118.387 157.684C112.193 158.896 112.847 181.995 113.593 193.872C115.384 185.473 117.996 169.32 119.78 157.85C119.348 157.637 118.857 157.579 118.387 157.684Z" fill="black"/>
    <path d="M130.724 144.836C130.724 144.836 133.245 180.121 132.733 194.512C132.199 209.483 125.101 258.489 125.101 258.489H117.108C117.108 258.489 116.814 210.318 116.461 195.649C116.069 179.617 114.135 144.829 114.135 144.829L130.724 144.836Z" fill="#263238"/>
    <path d="M126.637 255.313C126.674 255.313 126.185 258.632 126.185 258.632H116.46L116.197 255.666L126.637 255.313Z" fill="#860579"/>
    <path opacity="0.6" d="M126.637 255.313C126.674 255.313 126.185 258.632 126.185 258.632H116.46L116.197 255.666L126.637 255.313Z" fill="white"/>
    <path d="M127.502 110.642C127.502 120.111 132.537 124.01 132.537 124.01L140.749 116.016C138.805 112.768 136.592 109.689 134.133 106.811C129.384 101.37 127.502 104.561 127.502 110.642Z" fill="#263238"/>
    <path opacity="0.2" d="M125.334 92.759C125.167 93.2336 124.886 93.6599 124.516 94.001C124.146 94.3421 123.698 94.5875 123.212 94.716C122.677 94.8251 122.191 95.1036 121.826 95.5103C121.461 95.9169 121.237 96.4301 121.187 96.974C122.162 96.6481 123.045 96.0963 123.766 95.3638C124.487 94.6313 125.024 93.7388 125.334 92.759Z" fill="black"/>
    <path d="M123.212 78.1499C124.898 76.0199 122.301 75.8919 122.301 75.8919C122.978 73.3554 119.938 74.7178 119.938 74.7178C118.116 72.2038 117.085 75.2672 117.085 75.2672C115.196 73.1371 114.827 76.6145 114.827 76.6145C112.93 73.9124 111.967 77.8112 111.967 77.8112C110.221 75.0038 109.152 78.6542 109.152 78.6542C105.547 77.3671 107.255 81.1154 107.255 81.1154C104.184 81.1982 106.653 83.5842 106.653 83.5842C102.965 83.5842 106.217 85.6992 106.217 85.6992C103.289 87.6185 106.969 88.1378 106.969 88.1378C104.583 91.9012 108.685 90.4861 108.685 90.4861C107.022 94.1893 110.702 92.556 110.702 92.556C110.469 96.1236 112.524 95.1527 113.517 94.4903C113.706 95.243 114.067 95.9957 114.729 96.0559C116.016 96.229 116.235 93.7979 116.235 93.7979C116.235 93.7979 117.424 94.7312 118.425 94.2269C119.426 93.7226 119.05 92.4506 119.05 92.4506C119.267 92.6131 119.531 92.7009 119.802 92.7009C120.074 92.7009 120.338 92.6131 120.555 92.4506C120.984 92.1194 120.984 89.7259 120.442 88.883L122.399 88.1303C122.399 88.1303 123.852 87.9271 123.204 86.0078C122.814 84.9047 122.779 83.7067 123.106 82.5831C125.319 81.5444 123.498 80.3251 123.498 80.3251C126.064 78.6768 123.212 78.1499 123.212 78.1499Z" fill="#263238"/>
    <path d="M119.245 87.3095C119.551 88.4324 120.221 89.4223 121.149 90.1245C122.376 91.0427 123.294 90.1245 123.204 88.7471C123.129 87.4977 122.391 85.5182 121.036 85.1418C119.682 84.7655 118.921 85.9773 119.245 87.3095Z" fill="#B55B52"/>
</svg>
