<svg width="181" height="181" viewBox="0 0 181 181" fill="none" xmlns="http://www.w3.org/2000/svg">
    <g opacity="0.564545">
        <path d="M110.606 14.3466C110.606 17.1561 108.329 19.4338 105.519 19.4338C102.71 19.4338 100.432 17.1561 100.432 14.3466C100.432 11.5373 102.71 9.25977 105.519 9.25977C108.329 9.25977 110.606 11.5373 110.606 14.3466Z" fill="#A8469F"/>
    </g>
    <g opacity="0.900438">
        <path d="M70.4081 29.3353L67.3871 31.0794C66.8401 31.3953 66.1408 31.2078 65.825 30.6609L60.37 21.2124C60.0541 20.6656 60.2416 19.9663 60.7885 19.6506L63.8096 17.9063C64.3565 17.5906 65.0558 17.7779 65.3716 18.3248L70.8266 27.7733C71.1425 28.3203 70.955 29.0194 70.4081 29.3353Z" fill="#CF15BD"/>
    </g>
    <g opacity="0.900438">
        <path d="M19.1288 43.9898L19.8083 44.2203C20.5788 44.4816 21.4286 44.3469 22.0808 43.8603L22.6559 43.4311C24.2981 42.2056 26.6329 43.3951 26.6068 45.4441L26.5976 46.1616C26.5871 46.9753 26.9776 47.7419 27.6419 48.2118L28.2279 48.6261C29.9009 49.8093 29.4909 52.3971 27.5343 53.0054L26.8489 53.2184C26.0719 53.4599 25.4638 54.0684 25.2223 54.8454L25.0091 55.5308C24.4009 57.4874 21.8129 57.8973 20.6298 56.2243L20.2153 55.6384C19.7454 54.9741 18.9788 54.5834 18.1653 54.5939L17.4476 54.6029C15.3988 54.6291 14.2093 52.2946 15.4348 50.6523L15.8641 50.0771C16.3508 49.4251 16.4853 48.5753 16.2239 47.8046L15.9934 47.1251C15.3354 45.1844 17.1881 43.3318 19.1288 43.9898Z" fill="#C916B8"/>
    </g>
    <g opacity="0.900438">
        <path d="M18.141 80.4639L18.904 83.8679C19.0422 84.484 18.6547 85.0957 18.0383 85.2337L7.39249 87.6202C6.77632 87.7582 6.16482 87.3707 6.02649 86.7545L5.26349 83.3504C5.12549 82.7342 5.51299 82.1227 6.12915 81.9847L16.7752 79.5982C17.3913 79.4602 18.0028 79.8477 18.141 80.4639Z" fill="#C916B8"/>
    </g>
    <g opacity="0.900438">
        <path d="M28.5929 122.207C28.5929 125.016 26.3154 127.294 23.506 127.294C20.6965 127.294 18.4192 125.016 18.4192 122.207C18.4192 119.398 20.6965 117.12 23.506 117.12C26.3154 117.12 28.5929 119.398 28.5929 122.207Z" fill="#F61CE0"/>
    </g>
    <g opacity="0.900438">
        <path d="M18.3187 148.241L18.9982 148.471C19.7687 148.732 20.6186 148.598 21.2707 148.111L21.8459 147.682C23.4881 146.457 25.8229 147.646 25.7967 149.695L25.7876 150.413C25.7771 151.226 26.1676 151.993 26.8319 152.463L27.4179 152.877C29.0909 154.06 28.6809 156.648 26.7242 157.256L26.0389 157.469C25.2619 157.711 24.6537 158.319 24.4122 159.096L24.1991 159.782C23.5909 161.738 21.0029 162.148 19.8197 160.475L19.4052 159.889C18.9354 159.225 18.1687 158.834 17.3552 158.845L16.6376 158.854C14.5887 158.88 13.3992 156.546 14.6247 154.903L15.0541 154.328C15.5407 153.676 15.6752 152.826 15.4139 152.056L15.1834 151.376C14.5254 149.435 16.3781 147.583 18.3187 148.241Z" fill="#F61CE0"/>
    </g>
    <g opacity="0.900438">
        <path d="M149.258 38.7694C147.716 36.7602 148.193 33.7674 150.315 32.1394C152.437 30.5114 155.451 30.8249 156.993 32.8341C156.996 32.8379 156.999 32.8417 157.002 32.8454" stroke="#860478" stroke-width="3.33333" stroke-linecap="round" stroke-linejoin="round"/>
    </g>
    <g opacity="0.900438">
        <path d="M160.715 67.7505L161.394 67.981C162.165 68.2424 163.015 68.1077 163.667 67.621L164.242 67.1919C165.884 65.9664 168.219 67.1559 168.193 69.2049L168.183 69.9224C168.173 70.736 168.564 71.5027 169.228 71.9725L169.814 72.3869C171.487 73.57 171.077 76.1579 169.12 76.7662L168.435 76.9792C167.658 77.2207 167.05 77.8292 166.808 78.6062L166.595 79.2915C165.987 81.2482 163.399 81.658 162.216 79.985L161.801 79.3992C161.331 78.7349 160.565 78.3442 159.751 78.3547L159.034 78.3639C156.985 78.3899 155.795 76.0554 157.021 74.4132L157.45 73.838C157.937 73.1859 158.071 72.336 157.81 71.5654L157.579 70.8859C156.921 68.9452 158.774 67.0925 160.715 67.7505Z" fill="#F61CE0"/>
    </g>
    <g opacity="0.900438">
        <path d="M167.726 126.769C171.185 127.224 173.636 130.605 173.155 134.258C172.674 137.911 169.432 140.542 165.973 140.086C165.966 140.085 165.96 140.085 165.953 140.084" stroke="#C916B8" stroke-width="2.5" stroke-linecap="round" stroke-linejoin="round"/>
    </g>
    <g opacity="0.900438">
        <path d="M156.829 169.684L153.808 171.428C153.261 171.744 152.562 171.557 152.246 171.01L146.791 161.561C146.476 161.014 146.663 160.315 147.21 159.999L150.231 158.255C150.778 157.939 151.477 158.127 151.793 158.674L157.248 168.122C157.564 168.669 157.376 169.368 156.829 169.684Z" fill="#860478"/>
    </g>
    <g opacity="0.900438">
        <path d="M57.8182 175.198C55.6944 172.43 56.3519 168.306 59.275 166.064C62.1982 163.821 66.3512 164.253 68.475 167.021L68.4872 167.036" stroke="#A8469F" stroke-width="3.33333" stroke-linecap="round" stroke-linejoin="round"/>
    </g>
    <g opacity="0.2">
        <path d="M180.955 90.6364C180.955 140.409 140.607 180.757 90.8342 180.757C41.0619 180.757 0.713135 140.409 0.713135 90.6364C0.713135 40.8639 41.0619 0.515625 90.8342 0.515625C140.607 0.515625 180.955 40.8639 180.955 90.6364Z" fill="#CF15BD"/>
    </g>
    <path d="M151.8 90.6389C151.8 124.309 124.505 151.604 90.8352 151.604C57.1651 151.604 29.8699 124.309 29.8699 90.6389C29.8699 56.9687 57.1651 29.6738 90.8352 29.6738C124.505 29.6738 151.8 56.9687 151.8 90.6389Z" fill="#CF15BD"/>
    <path d="M65.0994 92.9573L83.6714 108.579C83.6714 108.579 109.336 78.0675 114.278 72.1921" stroke="white" stroke-width="8.44265" stroke-linecap="round" stroke-linejoin="round"/>
</svg>
