<svg width="24" height="24" viewBox="0 0 24 24" fill="none" xmlns="http://www.w3.org/2000/svg">
    <path d="M12.0097 1.99976C10.03 1.99976 8.09468 2.61089 6.4486 3.75587C4.80252 4.90085 3.51955 6.52826 2.76195 8.4323C2.00434 10.3363 1.80611 12.4315 2.19234 14.4528C2.57856 16.4741 3.53189 18.3308 4.93177 19.7881C6.33165 21.2454 8.1152 22.2378 10.0569 22.6399C11.9986 23.0419 14.0112 22.8356 15.8402 22.0469C17.6692 21.2582 19.2325 19.9226 20.3324 18.2091C21.4323 16.4955 22.0193 14.4808 22.0193 12.4199C22.0193 11.0515 21.7604 9.69653 21.2574 8.4323C20.7544 7.16806 20.0171 6.01935 19.0876 5.05175C18.1581 4.08415 17.0546 3.31661 15.8402 2.79294C14.6258 2.26928 13.3242 1.99976 12.0097 1.99976ZM12.0097 20.7561C10.4259 20.7561 8.87768 20.2672 7.56082 19.3512C6.24395 18.4352 5.21758 17.1333 4.61149 15.61C4.00541 14.0868 3.84683 12.4107 4.15581 10.7936C4.46479 9.17657 5.22745 7.69122 6.34735 6.52539C7.46725 5.35956 8.8941 4.56562 10.4474 4.24397C12.0008 3.92231 13.6109 4.0874 15.0741 4.71834C16.5373 5.34928 17.788 6.41775 18.6679 7.78862C19.5478 9.15949 20.0174 10.7712 20.0174 12.4199C20.0174 14.6308 19.1737 16.7511 17.672 18.3145C16.1703 19.8778 14.1335 20.7561 12.0097 20.7561Z" fill="#181725"/>
    <path d="M12.227 6.16779C11.2979 6.16779 10.4068 6.55204 9.74975 7.23599C9.09274 7.91995 8.72363 8.84759 8.72363 9.81485C8.72363 10.0912 8.82909 10.3563 9.01681 10.5517C9.20453 10.7471 9.45913 10.8569 9.7246 10.8569C9.99007 10.8569 10.2447 10.7471 10.4324 10.5517C10.6201 10.3563 10.7256 10.0912 10.7256 9.81485C10.7256 9.50572 10.8136 9.20352 10.9786 8.94648C11.1436 8.68945 11.3781 8.48911 11.6524 8.37081C11.9268 8.2525 12.2287 8.22155 12.5199 8.28186C12.8112 8.34217 13.0787 8.49103 13.2887 8.70963C13.4987 8.92822 13.6417 9.20672 13.6996 9.50992C13.7576 9.81312 13.7278 10.1274 13.6142 10.413C13.5005 10.6986 13.3081 10.9427 13.0612 11.1145C12.8143 11.2862 12.524 11.3779 12.227 11.3779C11.9615 11.3779 11.7069 11.4877 11.5192 11.6831C11.3315 11.8785 11.2261 12.1435 11.2261 12.4199V14.5039C11.2261 14.7803 11.3315 15.0453 11.5192 15.2407C11.7069 15.4362 11.9615 15.5459 12.227 15.5459C12.4925 15.5459 12.7471 15.4362 12.9348 15.2407C13.1225 15.0453 13.228 14.7803 13.228 14.5039V13.2952C14.0369 13.0493 14.7331 12.5073 15.1884 11.7691C15.6436 11.0309 15.8272 10.1463 15.7053 9.27828C15.5834 8.41028 15.1642 7.6174 14.525 7.04579C13.8858 6.47417 13.0697 6.16235 12.227 6.16779Z" fill="#181725"/>
    <path d="M12.2275 18.6719C12.7803 18.6719 13.2285 18.2054 13.2285 17.6299C13.2285 17.0544 12.7803 16.5879 12.2275 16.5879C11.6747 16.5879 11.2266 17.0544 11.2266 17.6299C11.2266 18.2054 11.6747 18.6719 12.2275 18.6719Z" fill="#181725"/>
</svg>
