<svg width="17" height="16" viewBox="0 0 17 16" fill="none" xmlns="http://www.w3.org/2000/svg">
    <path d="M12.4997 8.66536H9.16634V11.9987C9.16634 12.1755 9.0961 12.3451 8.97108 12.4701C8.84605 12.5951 8.67649 12.6654 8.49967 12.6654C8.32286 12.6654 8.15329 12.5951 8.02827 12.4701C7.90325 12.3451 7.83301 12.1755 7.83301 11.9987V8.66536H4.49967C4.32286 8.66536 4.15329 8.59513 4.02827 8.4701C3.90325 8.34508 3.83301 8.17551 3.83301 7.9987C3.83301 7.82189 3.90325 7.65232 4.02827 7.52729C4.15329 7.40227 4.32286 7.33203 4.49967 7.33203H7.83301V3.9987C7.83301 3.82189 7.90325 3.65232 8.02827 3.52729C8.15329 3.40227 8.32286 3.33203 8.49967 3.33203C8.67649 3.33203 8.84605 3.40227 8.97108 3.52729C9.0961 3.65232 9.16634 3.82189 9.16634 3.9987V7.33203H12.4997C12.6765 7.33203 12.8461 7.40227 12.9711 7.52729C13.0961 7.65232 13.1663 7.82189 13.1663 7.9987C13.1663 8.17551 13.0961 8.34508 12.9711 8.4701C12.8461 8.59513 12.6765 8.66536 12.4997 8.66536Z" fill="#FEFEFE"/>
</svg>
