<svg width="220" height="100" viewBox="0 0 220 100" fill="none" xmlns="http://www.w3.org/2000/svg">
    <path d="M193.546 99.9999C189.551 99.9999 185.955 99.1259 182.759 97.3779C179.562 95.5799 177.04 93.0578 175.192 89.8115C173.394 86.5653 172.495 82.8195 172.495 78.5744C172.495 74.3293 173.419 70.5835 175.267 67.3373C177.165 64.091 179.737 61.5938 182.983 59.8458C186.23 58.0479 189.85 57.1489 193.846 57.1489C197.841 57.1489 201.462 58.0479 204.708 59.8458C207.955 61.5938 210.502 64.091 212.35 67.3373C214.247 70.5835 215.196 74.3293 215.196 78.5744C215.196 82.8195 214.223 86.5653 212.275 89.8115C210.377 93.0578 207.78 95.5799 204.484 97.3779C201.237 99.1259 197.592 99.9999 193.546 99.9999ZM193.546 90.8603C195.444 90.8603 197.217 90.4109 198.865 89.5119C200.563 88.563 201.912 87.1646 202.91 85.3167C203.909 83.4688 204.409 81.2214 204.409 78.5744C204.409 74.6289 203.36 71.6074 201.262 69.5098C199.215 67.3622 196.693 66.2885 193.696 66.2885C190.699 66.2885 188.177 67.3622 186.13 69.5098C184.132 71.6074 183.133 74.6289 183.133 78.5744C183.133 82.5199 184.107 85.5664 186.055 87.7139C188.052 89.8115 190.55 90.8603 193.546 90.8603Z" fill="#5B2C6F"/>
    <path d="M147.576 89.6616L158.064 57.823H169.227L153.869 99.3255H141.134L125.851 57.823H137.088L147.576 89.6616Z" fill="#5B2C6F"/>
    <path d="M100.928 99.9999C96.9322 99.9999 93.3363 99.1259 90.1399 97.3779C86.9436 95.5799 84.4215 93.0578 82.5736 89.8115C80.7757 86.5653 79.8767 82.8195 79.8767 78.5744C79.8767 74.3293 80.8006 70.5835 82.6485 67.3373C84.5463 64.091 87.1184 61.5938 90.3647 59.8458C93.611 58.0479 97.2318 57.1489 101.227 57.1489C105.223 57.1489 108.844 58.0479 112.09 59.8458C115.336 61.5938 117.883 64.091 119.731 67.3373C121.629 70.5835 122.578 74.3293 122.578 78.5744C122.578 82.8195 121.604 86.5653 119.656 89.8115C117.758 93.0578 115.161 95.5799 111.865 97.3779C108.619 99.1259 104.973 99.9999 100.928 99.9999ZM100.928 90.8603C102.825 90.8603 104.598 90.4109 106.246 89.5119C107.945 88.563 109.293 87.1646 110.292 85.3167C111.291 83.4688 111.79 81.2214 111.79 78.5744C111.79 74.6289 110.741 71.6074 108.644 69.5098C106.596 67.3622 104.074 66.2885 101.077 66.2885C98.0808 66.2885 95.5587 67.3622 93.5111 69.5098C91.5134 71.6074 90.5145 74.6289 90.5145 78.5744C90.5145 82.5199 91.4884 85.5664 93.4362 87.7139C95.4339 89.8115 97.931 90.8603 100.928 90.8603Z" fill="#5B2C6F"/>
    <path d="M55.5406 57.2239C60.6348 57.2239 64.7301 58.7971 67.8266 61.9435C70.973 65.0399 72.5462 69.385 72.5462 74.9786V99.3257H62.0582V76.4019C62.0582 73.1556 61.2341 70.6835 59.586 68.9854C57.9379 67.2374 55.6905 66.3634 52.8437 66.3634C49.997 66.3634 47.7246 67.2374 46.0265 68.9854C44.3784 70.6835 43.5544 73.1556 43.5544 76.4019V99.3257H33.0664V76.4019C33.0664 73.1556 32.2423 70.6835 30.5942 68.9854C28.9461 67.2374 26.6987 66.3634 23.8519 66.3634C20.9552 66.3634 18.6579 67.2374 16.9598 68.9854C15.3117 70.6835 14.4876 73.1556 14.4876 76.4019V99.3257H3.99963V57.8232H14.4876V62.8424C15.8361 61.0945 17.5591 59.721 19.6567 58.7222C21.8043 57.7233 24.1516 57.2239 26.6987 57.2239C29.9449 57.2239 32.8416 57.9231 35.3887 59.3215C37.9358 60.6699 39.9085 62.6177 41.3069 65.1648C42.6554 62.7675 44.6032 60.8447 47.1502 59.3964C49.7473 57.948 52.5441 57.2239 55.5406 57.2239Z" fill="#5B2C6F"/>
    <path fill-rule="evenodd" clip-rule="evenodd" d="M39.144 47.1351C39.144 47.1351 22.1431 32.8171 22.1431 18.7286C22.1431 13.7614 24.1163 8.99776 27.6286 5.48547C31.1409 1.97318 35.9046 0 40.8717 0C45.8388 0 50.6025 1.97318 54.1148 5.48547C57.6271 8.99776 59.6002 13.7614 59.6002 18.7286C59.6002 32.8171 42.5994 47.1351 42.5994 47.1351C41.6536 48.006 40.0968 47.9966 39.144 47.1351ZM40.8717 26.9223C41.9477 26.9223 43.0132 26.7104 44.0073 26.2986C45.0014 25.8868 45.9047 25.2833 46.6655 24.5224C47.4264 23.7616 48.0299 22.8583 48.4417 21.8642C48.8535 20.8701 49.0654 19.8046 49.0654 18.7286C49.0654 17.6525 48.8535 16.5871 48.4417 15.593C48.0299 14.5988 47.4264 13.6956 46.6655 12.9347C45.9047 12.1739 45.0014 11.5703 44.0073 11.1585C43.0132 10.7468 41.9477 10.5348 40.8717 10.5348C38.6986 10.5348 36.6144 11.3981 35.0778 12.9347C33.5412 14.4713 32.6779 16.5554 32.6779 18.7286C32.6779 20.9017 33.5412 22.9858 35.0778 24.5224C36.6144 26.059 38.6986 26.9223 40.8717 26.9223Z" fill="#5B2C6F"/>
    <path d="M97.0574 21.6548C95.7644 21.6548 94.7163 22.7029 94.7163 23.9958C94.7163 25.2888 95.7644 26.3369 97.0574 26.3369L97.0574 23.9958L97.0574 21.6548ZM216.937 25.6512C217.851 24.737 217.851 23.2547 216.937 22.3405L202.038 7.44199C201.124 6.52774 199.642 6.52774 198.728 7.44199C197.813 8.35623 197.813 9.83852 198.728 10.7528L211.971 23.9959L198.728 37.239C197.813 38.1532 197.813 39.6355 198.728 40.5497C199.642 41.464 201.124 41.464 202.038 40.5497L216.937 25.6512ZM97.0574 23.9958L97.0574 26.3369L215.281 26.3369L215.281 23.9959L215.281 21.6548L97.0574 21.6548L97.0574 23.9958Z" fill="#5B2C6F"/>
</svg>
