<svg width="24" height="24" viewBox="0 0 24 24" fill="none" xmlns="http://www.w3.org/2000/svg">
    <g clip-path="url(#clip0_42_2204)">
        <path d="M7.9395 6.76842C7.74237 6.56842 7.63285 6.30526 7.64381 6.03158C7.64381 5.75789 7.75332 5.50526 7.96141 5.30526C8.15854 5.11579 8.43233 5 8.71708 5C9.00183 5 9.27562 5.09474 9.4837 5.28421L15.6824 11.2421C15.781 11.3368 15.8576 11.4526 15.9124 11.5789C15.9671 11.7053 16 11.8421 16 11.9789C16 12.1158 15.9671 12.2526 15.9124 12.3895C15.8576 12.5158 15.781 12.6316 15.6824 12.7263L9.4837 18.6842C9.38514 18.7789 9.26467 18.8632 9.13324 18.9158C8.99087 18.9684 8.8485 19 8.70613 19C8.56375 19 8.41043 18.9789 8.27901 18.9263C8.14759 18.8737 8.02712 18.7895 7.9176 18.6947C7.81903 18.6 7.74237 18.4737 7.68761 18.3474C7.6219 18.2211 7.6 18.0842 7.6 17.9368C7.6 17.8 7.63285 17.6632 7.68761 17.5368C7.74237 17.4105 7.82999 17.2947 7.9395 17.1895L13.3606 11.9789L12.3312 11L7.9395 6.76842Z" fill="#181725"/>
    </g>
    <defs>
        <clipPath id="clip0_42_2204">
            <rect width="8.4" height="14" fill="white" transform="translate(16 19) rotate(-180)"/>
        </clipPath>
    </defs>
</svg>
