<svg width="84" height="80" viewBox="0 0 84 80" fill="none" xmlns="http://www.w3.org/2000/svg">
    <path d="M77.6809 30.64L70.3715 18.8331C70.2533 18.6566 69.7802 18.6566 69.6655 18.8331L66.3912 23.3006L63.3746 20.4076C63.2019 20.2729 62.9891 20.1998 62.7701 20.1998C62.551 20.1998 62.3382 20.2729 62.1655 20.4076L59.1489 23.3006L51.4707 14.6763C51.1882 14.3603 50.4734 14.3656 50.2033 14.6763L43.9424 21.9556L39.0495 17.4722C38.7918 17.1898 38.167 17.1598 37.8492 17.4175L34.8909 19.8198L28.3264 12.5581C28.0405 12.2404 27.3132 12.2528 27.052 12.5811L18.583 23.2159L14.3996 18.7025C14.0766 18.3495 13.277 18.3759 13.0017 18.7413L5.44873 28.6754V49.0961H77.6809V30.64Z" fill="#EBEBEB"/>
    <path d="M12.9204 19.619C13.0338 19.5617 13.1577 19.5281 13.2846 19.5202C13.4114 19.5123 13.5385 19.5303 13.6582 19.5731L14.3113 19.8149C14.4322 19.8581 14.5607 19.8761 14.6889 19.8675C14.817 19.859 14.942 19.8243 15.0562 19.7655L15.2698 19.6437L14.3995 18.7046C14.0765 18.3516 13.2769 18.3781 13.0016 18.7435L12.0078 20.0585C12.106 20.0457 12.2011 20.0152 12.2885 19.9685L12.9204 19.619Z" fill="#FAFAFA"/>
    <path d="M70.3717 18.8326C70.2534 18.6561 69.7804 18.6561 69.6657 18.8326L68.8749 19.9111L68.4565 20.5006L68.6207 20.6771C68.7164 20.7579 68.8361 20.8048 68.9613 20.8106C69.0864 20.8163 69.2099 20.7806 69.3126 20.7089L69.8245 20.2959C69.9213 20.2307 70.0353 20.1959 70.1519 20.1959C70.2686 20.1959 70.3826 20.2307 70.4794 20.2959L70.6559 20.4353C70.7581 20.505 70.8803 20.5395 71.0039 20.5334C71.1276 20.5274 71.2458 20.4812 71.3407 20.4018L70.3717 18.8326Z" fill="#FAFAFA"/>
    <path d="M37.8581 17.4297L36.6226 18.4323L37.0409 18.7412C37.1552 18.8153 37.2886 18.8547 37.4248 18.8547C37.561 18.8547 37.6944 18.8153 37.8087 18.7412L38.0788 18.5277C38.1917 18.4527 38.3238 18.4119 38.4594 18.41C38.5949 18.4081 38.7281 18.4453 38.8431 18.5171C38.9663 18.5965 39.1118 18.6341 39.2581 18.6242C39.4044 18.6144 39.5436 18.5576 39.655 18.4623L39.8598 18.2293L39.0549 17.4933C38.7919 17.202 38.167 17.1738 37.8581 17.4297Z" fill="#FAFAFA"/>
    <path d="M50.2017 14.6895L47.8594 17.4148L48.1506 17.7873C48.3413 18.0291 48.8743 18.0485 49.1038 17.819L49.6333 17.2895C49.7582 17.1918 49.9107 17.1359 50.0692 17.1299C50.2276 17.1239 50.3839 17.168 50.5159 17.256C50.6444 17.3419 50.7962 17.3865 50.9508 17.3837C51.1054 17.3808 51.2555 17.3307 51.3808 17.2401L51.9209 16.7706C52.0334 16.6899 52.1656 16.6411 52.3036 16.6293C52.4415 16.6175 52.58 16.6431 52.7046 16.7035L53.7637 17.233L51.4708 14.6771C51.1884 14.3647 50.4735 14.37 50.2017 14.6895Z" fill="#FAFAFA"/>
    <path d="M62.1673 20.4117L60.8223 21.702L61.8813 21.3084C61.9584 21.2801 62.0411 21.2709 62.1225 21.2813C62.2039 21.2917 62.2816 21.3216 62.3491 21.3684L62.6386 21.6084C62.7172 21.6621 62.8093 21.6927 62.9045 21.6968C62.9996 21.7008 63.094 21.6782 63.1769 21.6314L63.424 21.4796C63.5009 21.4366 63.5875 21.414 63.6756 21.414C63.7636 21.414 63.8502 21.4366 63.9271 21.4796L65.4822 22.438L63.364 20.4134C63.1924 20.2818 62.9823 20.2103 62.766 20.21C62.5497 20.2096 62.3393 20.2805 62.1673 20.4117Z" fill="#FAFAFA"/>
    <path d="M27.0434 12.5789L25.5024 14.5117L25.6701 14.6882C25.8201 14.8095 26.0044 14.8805 26.197 14.8913C26.3896 14.9021 26.5807 14.852 26.7433 14.7482L27.197 14.4252C27.347 14.3322 27.52 14.2829 27.6965 14.2829C27.873 14.2829 28.046 14.3322 28.196 14.4252L29.1686 15.1118C29.3198 15.207 29.4948 15.2574 29.6734 15.2574C29.8521 15.2574 30.027 15.207 30.1782 15.1118L30.4395 14.9159L28.3266 12.5577C28.0301 12.2382 27.3046 12.2506 27.0434 12.5789Z" fill="#FAFAFA"/>
    <g opacity="0.05">
        <path d="M14.7948 19.1301L12.103 21.7372H13.6846L12.509 24.5932L14.9996 22.9904L17.1018 25.1509L18.5828 23.2164L14.7948 19.1301Z" fill="black"/>
        <path d="M28.4112 12.6592L30.1957 17.9951L27.3239 20.1239L26.9355 26.3441L34.8909 19.8326L28.4112 12.6592Z" fill="black"/>
        <path d="M39.2719 17.6924L38.1881 19.5899H39.6355L37.0337 23.8315L41.0864 21.7274L42.9345 23.2119L43.9424 21.9693L39.2719 17.6924Z" fill="black"/>
        <path d="M59.1504 23.3052L51.9293 15.1963L53.3944 19.0548L50.9268 21.3513L57.0164 22.5286L55.0571 23.9442L56.0862 24.7597L54.5011 27.8257L59.1504 23.3052Z" fill="black"/>
        <path d="M63.3747 20.4111L62.1338 22.8029L63.8071 22.6564L64.0401 25.8053L66.393 23.3042L63.3747 20.4111Z" fill="black"/>
        <path d="M71.1182 20.04L74.6908 27.4677L71.8966 31.4145L74.9997 30.8708L77.6809 49.0921V30.6396L71.1182 20.04Z" fill="black"/>
    </g>
    <path d="M75.4021 34.6605C73.8524 35.806 66.7531 35.6472 65.1503 34.6605C65.0638 34.2774 65.055 33.6014 65.1186 32.7012L67.5403 33.8132L65.2245 31.5186C65.3621 30.2283 65.5881 28.6644 65.8776 26.9699L66.7601 27.4447L65.9535 26.5127C66.1194 25.556 66.3065 24.5711 66.5059 23.5579L67.9463 24.7176L66.6613 22.7954C66.7019 22.5871 66.746 22.377 66.7884 22.1687L68.76 23.7962L67.0902 20.7513C67.3991 19.3393 67.7239 17.9607 68.0504 16.6686L69.3372 17.6465C69.3054 17.5918 68.7918 16.7163 68.2781 15.8055C68.7017 14.1922 69.1289 12.7642 69.5261 11.661C69.5823 11.507 69.6845 11.374 69.8189 11.2801C69.9532 11.1861 70.1132 11.1357 70.2771 11.1357C70.4411 11.1357 70.601 11.1861 70.7354 11.2801C70.8697 11.374 70.9719 11.507 71.0282 11.661C71.4077 12.7201 71.8119 14.0527 72.2161 15.5725L71.4306 17.2988L72.3679 16.1514C72.6221 17.1223 72.8727 18.1549 73.1163 19.2122L71.4306 22.9189L73.4217 20.5642C73.4534 20.709 73.487 20.8555 73.517 21.002L72.7068 22.9189L73.6494 21.6145C73.9918 23.2331 74.306 24.8605 74.5761 26.398L72.2408 29.2221L74.7702 27.5347C74.8267 27.8877 74.8832 28.2407 74.9361 28.5779L73.75 29.8894L75.0756 29.5081C75.4251 31.974 75.5751 33.8997 75.4021 34.6605Z" fill="#E0E0E0"/>
    <path opacity="0.15" d="M75.4021 34.6605C73.8524 35.806 66.7531 35.6472 65.1503 34.6605C65.0638 34.2774 65.055 33.6014 65.1186 32.7012L67.5403 33.8132L65.2245 31.5186C65.3621 30.2283 65.5881 28.6644 65.8776 26.9699L66.7601 27.4447L65.9535 26.5127C66.1194 25.556 66.3065 24.5711 66.5059 23.5579L67.9463 24.7176L66.6613 22.7954C66.7019 22.5871 66.746 22.377 66.7884 22.1687L68.76 23.7962L67.0902 20.7513C67.3991 19.3393 67.7239 17.9607 68.0504 16.6686L69.3372 17.6465C69.3054 17.5918 68.7918 16.7163 68.2781 15.8055C68.7017 14.1922 69.1289 12.7642 69.5261 11.661C69.5823 11.507 69.6845 11.374 69.8189 11.2801C69.9532 11.1861 70.1132 11.1357 70.2771 11.1357C70.4411 11.1357 70.601 11.1861 70.7354 11.2801C70.8697 11.374 70.9719 11.507 71.0282 11.661C71.4077 12.7201 71.8119 14.0527 72.2161 15.5725L71.4306 17.2988L72.3679 16.1514C72.6221 17.1223 72.8727 18.1549 73.1163 19.2122L71.4306 22.9189L73.4217 20.5642C73.4534 20.709 73.487 20.8555 73.517 21.002L72.7068 22.9189L73.6494 21.6145C73.9918 23.2331 74.306 24.8605 74.5761 26.398L72.2408 29.2221L74.7702 27.5347C74.8267 27.8877 74.8832 28.2407 74.9361 28.5779L73.75 29.8894L75.0756 29.5081C75.4251 31.974 75.5751 33.8997 75.4021 34.6605Z" fill="black"/>
    <path d="M70.652 28.0677L72.8072 23.9974L70.6079 26.6927L70.269 14.0615L70.0042 21.7486L68.4651 19.5228L69.9566 23.136L69.6953 30.9149L66.7617 28.2107L69.6565 32.0481L69.4112 46.4285C69.4112 46.8821 70.9503 46.8821 70.9503 46.4285L70.652 28.0713V28.0677Z" fill="#E0E0E0"/>
    <path d="M83.0451 40.3961C81.4248 41.3951 74.2196 41.554 72.6504 40.3961C72.5074 39.7677 72.5815 38.3556 72.8057 36.5128L74.8444 37.3813L72.9646 35.2949C73.1411 34.0258 73.3776 32.6101 73.6477 31.131L74.8956 31.6782L73.7289 30.6897C73.7947 30.3473 73.8601 30.0019 73.9248 29.6536L76.0111 30.8556L74.1366 28.5857C74.3696 27.4348 74.6167 26.2769 74.8762 25.1472L75.9511 25.7244L75.0686 24.2117C75.3351 23.1103 75.847 21.1351 76.1153 20.1678L77.2203 21.031L76.2936 19.5641C76.5672 18.6198 76.8355 17.7761 77.0932 17.0647C77.1498 16.9087 77.2532 16.7739 77.3891 16.6786C77.5251 16.5833 77.687 16.5322 77.853 16.5322C78.0191 16.5322 78.181 16.5833 78.317 16.6786C78.453 16.7739 78.5563 16.9087 78.6129 17.0647C79.0066 18.1485 79.4249 19.5465 79.8485 21.1245L78.9854 23.0538L80.115 22.1977C80.4098 23.3592 80.6993 24.5894 80.9817 25.8462L79.5555 29.44L81.2641 27.1542C81.3648 27.6343 81.4654 28.1161 81.5624 28.5945L80.5457 30.5908L81.7107 29.3411C81.9878 30.7638 82.2403 32.1653 82.4521 33.4627L80.1274 37.1147L82.6445 34.7089C82.7045 35.1025 82.7574 35.4837 82.8069 35.8491L81.0523 38.0026L82.9445 36.9912C83.1246 38.6062 83.174 39.8224 83.0451 40.3961Z" fill="#E0E0E0"/>
    <path d="M80.7632 31.701L78.405 35.0389L78.1579 27.8337L79.4305 23.525L78.1031 26.4675L77.8384 18.7468L77.5383 29.8883L76.2145 28.2996L77.4995 31.3445L77.323 37.6671L74.5835 34.9436L77.2735 39.5205L77.097 46.4292C77.097 46.9269 78.7827 46.9269 78.7827 46.4292L78.4703 37.1853L80.7632 31.701Z" fill="#F0F0F0"/>
    <path d="M0.746484 38.2277C2.19741 39.2974 8.84132 39.1474 10.3399 38.2277C10.444 37.7759 10.4246 36.8915 10.3152 35.7195L8.5889 36.3443L10.1934 34.6216C10.0169 33.1142 9.72211 31.2908 9.36556 29.3668L8.38945 29.7728L9.23847 28.6961C9.20317 28.5072 9.16433 28.3184 9.12727 28.1277L6.8079 29.3086L8.81484 26.5727C8.50241 25.0723 8.16704 23.572 7.82108 22.1599L6.31543 23.4184L7.61809 21.3567C7.52454 20.9808 7.42746 20.6118 7.33214 20.2553L5.99948 20.9808L7.09032 19.378C6.8026 18.3543 6.51489 17.4364 6.24483 16.6915C6.19243 16.5475 6.09699 16.4231 5.97147 16.3352C5.84595 16.2473 5.69643 16.2002 5.54319 16.2002C5.38996 16.2002 5.24043 16.2473 5.11491 16.3352C4.98939 16.4231 4.89396 16.5475 4.84156 16.6915C4.43558 17.8141 3.99783 19.3039 3.56185 20.9808C3.94135 21.8633 4.24142 22.5482 4.24142 22.5482L3.27943 22.1034C3.17352 22.5305 3.07114 22.9683 2.967 23.4096C3.4224 24.8058 3.99077 26.5568 3.99077 26.5868L2.75519 24.361C1.43841 30.1823 0.39699 36.6974 0.746484 38.2277Z" fill="#E0E0E0"/>
    <path d="M5.19109 32.0554L3.1665 28.2446L5.2264 30.7687L5.54235 18.9424L5.78947 26.1494L7.23157 24.0665L5.83536 27.4485L6.08601 34.7243L8.83077 32.1931L6.12131 35.7851L6.35078 44.7872C6.35078 45.2126 4.91221 45.2126 4.91221 44.7872L5.19109 32.0625V32.0554Z" fill="#F0F0F0"/>
    <path d="M8.60682 34.7672C10.1336 35.7045 16.9029 35.8545 18.3785 34.7672C18.4473 34.3592 18.4675 33.9444 18.4385 33.5316L16.8623 34.2377L18.3291 31.9871C18.2355 31.0552 18.089 29.959 17.9019 28.764L16.3663 29.5672L17.7148 27.6149C17.6831 27.4243 17.6495 27.2319 17.6142 27.0378L15.1272 28.4799L17.2965 25.2744C16.9629 23.5093 16.5746 21.6647 16.1703 19.9137L14.7353 21.001L15.8862 18.6764C15.8314 18.4522 15.775 18.2333 15.7238 18.0162L14.2993 19.1477L15.3884 16.7224C14.9912 15.215 14.5906 13.8753 14.2181 12.8391C14.1646 12.692 14.0672 12.5649 13.939 12.4751C13.8108 12.3853 13.658 12.3372 13.5015 12.3372C13.345 12.3372 13.1922 12.3853 13.064 12.4751C12.9358 12.5649 12.8383 12.692 12.7849 12.8391C12.4318 13.8311 12.0453 15.102 11.6622 16.5459L12.0876 19.1477L11.2651 18.0586C10.9121 19.5131 10.5467 21.077 10.2201 22.6479L11.2969 26.014L9.90418 24.173C9.58822 25.7616 9.30933 27.3166 9.08869 28.734L9.71178 30.2609L8.92983 29.7878C8.87511 30.1638 8.82569 30.5292 8.78333 30.8769L10.146 33.1415L8.6633 31.943C8.52209 33.2722 8.49385 34.2694 8.60682 34.7672Z" fill="#E0E0E0"/>
    <path opacity="0.15" d="M8.60682 34.7672C10.1336 35.7045 16.9029 35.8545 18.3785 34.7672C18.4473 34.3592 18.4675 33.9444 18.4385 33.5316L16.8623 34.2377L18.3291 31.9871C18.2355 31.0552 18.089 29.959 17.9019 28.764L16.3663 29.5672L17.7148 27.6149C17.6831 27.4243 17.6495 27.2319 17.6142 27.0378L15.1272 28.4799L17.2965 25.2744C16.9629 23.5093 16.5746 21.6647 16.1703 19.9137L14.7353 21.001L15.8862 18.6764C15.8314 18.4522 15.775 18.2333 15.7238 18.0162L14.2993 19.1477L15.3884 16.7224C14.9912 15.215 14.5906 13.8753 14.2181 12.8391C14.1646 12.692 14.0672 12.5649 13.939 12.4751C13.8108 12.3853 13.658 12.3372 13.5015 12.3372C13.345 12.3372 13.1922 12.3853 13.064 12.4751C12.9358 12.5649 12.8383 12.692 12.7849 12.8391C12.4318 13.8311 12.0453 15.102 11.6622 16.5459L12.0876 19.1477L11.2651 18.0586C10.9121 19.5131 10.5467 21.077 10.2201 22.6479L11.2969 26.014L9.90418 24.173C9.58822 25.7616 9.30933 27.3166 9.08869 28.734L9.71178 30.2609L8.92983 29.7878C8.87511 30.1638 8.82569 30.5292 8.78333 30.8769L10.146 33.1415L8.6633 31.943C8.52209 33.2722 8.49385 34.2694 8.60682 34.7672Z" fill="black"/>
    <path d="M13.8527 28.4819L15.9144 24.5986L13.8157 27.1721L13.4997 15.134L13.2473 22.4593L11.7805 20.3411L13.2032 23.7831L12.9472 31.1966L10.146 28.6213L12.9049 32.2786L12.6701 44.781C12.6701 45.2134 14.1352 45.2134 14.1352 44.781L13.8527 28.4819Z" fill="#E0E0E0"/>
    <path d="M41.482 79.9988C64.3919 79.9988 82.9641 69.2764 82.9641 56.0497C82.9641 42.823 64.3919 32.1006 41.482 32.1006C18.5721 32.1006 0 42.823 0 56.0497C0 69.2764 18.5721 79.9988 41.482 79.9988Z" fill="#F0F0F0"/>
    <path d="M52.0746 79.2084C58.9409 78.1652 65.433 76.093 70.8149 72.9846C77.75 68.9866 81.7039 63.9243 82.7065 58.7083L36.8787 32.251C27.8448 32.8299 19.0775 35.1175 12.1494 39.1155C6.76931 42.2239 3.1773 45.9712 1.37158 49.9339L52.0746 79.2084Z" fill="#FAFAFA"/>
    <path d="M9.79297 5.65248C9.79297 4.69932 10.8379 4.03563 12.0205 3.92443C13.415 3.79381 14.4035 4.41513 14.437 5.51304C15.3478 5.13883 16.3098 5.37889 16.2374 6.37971C16.4739 6.10611 17.3618 6.11494 17.6795 6.19084C17.8528 6.23956 18.0136 6.3252 18.1507 6.4419C18.2878 6.55859 18.398 6.70357 18.4738 6.86688C18.5493 7.02687 18.5781 7.20492 18.5568 7.38053C19.0863 7.20402 20.2954 7.09988 20.599 7.58705C21.1286 8.45549 18.9875 8.48196 18.5533 8.22073C18.4615 8.895 16.1527 9.0062 15.5932 8.38312C15.1554 8.82263 14.5341 8.91265 13.851 8.96031C12.7089 9.02915 12.0082 8.64083 11.115 8.18542C10.146 9.00797 8.46913 9.02739 7.59716 8.08305C7.37299 8.2931 6.7605 8.35841 6.26803 8.24014C5.94501 8.16424 5.87088 8.02656 5.87088 8.02656C5.67999 8.10622 5.48118 8.16539 5.2778 8.20308C4.64412 8.33546 3.46502 8.20308 3.95925 7.62412C4.13577 7.42995 4.74473 7.30639 5.00597 7.36641C5.28309 6.82275 6.39335 6.30734 7.0288 6.76803C7.05351 6.10964 7.65541 5.59423 8.50267 5.46361C8.78685 5.42125 9.46819 5.38242 9.79297 5.65248Z" fill="#EBEBEB"/>
    <path d="M27.0205 1.34533C27.0205 0.609279 27.8272 0.0973941 28.7415 0.0126684C29.8182 -0.0897085 30.5807 0.390404 30.6072 1.23766C31.3133 0.949946 32.0529 1.13528 31.9981 1.90841C32.1746 1.69836 32.8666 1.70365 33.1119 1.7619C33.2463 1.80045 33.3707 1.86779 33.4765 1.95923C33.5822 2.05067 33.6668 2.16403 33.7244 2.29144C33.7846 2.41458 33.8067 2.55283 33.788 2.68859C34.1992 2.55444 35.133 2.47148 35.366 2.84745C35.7808 3.51819 34.1304 3.53937 33.7862 3.33639C33.7156 3.8571 31.9311 3.94359 31.4915 3.46171C31.1544 3.80238 30.669 3.87651 30.1465 3.90828C29.264 3.96124 28.7221 3.66117 28.0284 3.30991C27.28 3.94535 25.9844 3.95594 25.3101 3.23048C25.1336 3.39287 24.6641 3.44229 24.2846 3.35227C24.0357 3.29226 23.9774 3.18635 23.9774 3.18635C23.8302 3.24945 23.6762 3.29564 23.5185 3.32403C23.0296 3.42641 22.1188 3.32403 22.5018 2.87746C22.6306 2.72742 23.1072 2.6321 23.3102 2.67976C23.5238 2.25966 24.3799 1.86075 24.8723 2.21554C24.89 1.70718 25.356 1.31003 26.0109 1.20942C26.2438 1.16706 26.7699 1.13881 27.0205 1.34533Z" fill="#EBEBEB"/>
    <path d="M68.3686 2.70275C68.3686 1.9667 69.1753 1.45482 70.0896 1.37009C71.1663 1.26771 71.9289 1.74783 71.9553 2.59508C72.6614 2.30737 73.401 2.49271 73.3462 3.26583C73.5228 3.05401 74.2147 3.06107 74.46 3.11932C74.5944 3.15788 74.7188 3.22521 74.8246 3.31665C74.9304 3.40809 75.015 3.52145 75.0725 3.64886C75.1318 3.77228 75.1538 3.91026 75.1361 4.04601C75.5473 3.9101 76.4811 3.8289 76.7141 4.20487C77.1289 4.87561 75.4697 4.8968 75.1343 4.69381C75.0637 5.22334 73.2792 5.30101 72.8485 4.81913C72.5096 5.1598 72.0259 5.23393 71.5035 5.26571C70.6209 5.31866 70.079 5.01859 69.3853 4.66733C68.6369 5.30277 67.3413 5.31336 66.667 4.5879C66.4905 4.75029 66.021 4.79972 65.6415 4.70969C65.3909 4.64968 65.3344 4.54377 65.3344 4.54377C65.1868 4.60607 65.0329 4.65223 64.8754 4.68145C64.3865 4.78383 63.4757 4.68145 63.8587 4.23488C63.9876 4.08484 64.4642 3.98953 64.6672 4.03718C64.8807 3.61709 65.7368 3.21817 66.2293 3.57296C66.2469 3.0646 66.7129 2.66745 67.3678 2.56508C67.592 2.52448 68.118 2.49624 68.3686 2.70275Z" fill="#EBEBEB"/>
    <path d="M56.433 8.89476C57.396 7.93177 57.396 6.37047 56.433 5.40749C55.4701 4.44451 53.9088 4.44451 52.9458 5.40749C51.9828 6.37047 51.9828 7.93177 52.9458 8.89476C53.9088 9.85774 55.4701 9.85774 56.433 8.89476Z" fill="#FFBDA7"/>
    <path d="M25.8239 35.1671L9.36415 44.6299C7.04125 45.9643 7.31838 48.2925 9.98194 49.8299L48.9787 72.351C62.3018 80.0628 84.537 64.055 73.8881 58.0765L33.6557 34.777C30.9851 33.236 28.1503 33.8309 25.8239 35.1671Z" fill="#E0E0E0"/>
    <path d="M11.6411 44.223L27.6296 34.9914C28.2156 31.8636 28.0497 27.5214 27.4071 23.2939L11.6464 32.3949L11.6411 44.223Z" fill="#37474F"/>
    <path d="M29.3823 55.4419L46.4545 45.8414L27.6278 34.9912L11.6411 44.2228L29.3823 55.4419Z" fill="#455A64"/>
    <path d="M25.5415 38.1371L40.7109 46.8938C40.9386 47.0047 41.189 47.0608 41.4422 47.0574C41.6954 47.054 41.9443 46.9914 42.1689 46.8744L43.3092 46.2143C43.7205 45.9777 43.7363 45.6018 43.3427 45.3741L28.1733 36.6173C27.9462 36.5055 27.6959 36.4489 27.4429 36.4523C27.1898 36.4557 26.9411 36.5189 26.7171 36.6367L25.575 37.2951C25.1638 37.5334 25.1496 37.9094 25.5415 38.1371Z" fill="#263238"/>
    <path d="M21.8221 40.2838L36.9916 49.0405C37.2186 49.1524 37.4689 49.2089 37.722 49.2056C37.9751 49.2022 38.2238 49.139 38.4478 49.0211L39.5898 48.3627C40.0011 48.1262 40.0152 47.7485 39.6216 47.5225L24.4539 38.7658C24.2266 38.6539 23.976 38.5974 23.7226 38.6007C23.4692 38.6041 23.2202 38.6673 22.9959 38.7852L21.8557 39.4436C21.4426 39.6801 21.4285 40.0578 21.8221 40.2838Z" fill="#263238"/>
    <path d="M18.1017 42.4305L33.2693 51.1873C33.4967 51.2991 33.7473 51.3557 34.0006 51.3523C34.254 51.3489 34.503 51.2857 34.7273 51.1678L35.8676 50.5095C36.2788 50.2712 36.2947 49.8952 35.9011 49.6675L20.737 40.9107C20.5096 40.7999 20.2595 40.7438 20.0066 40.7472C19.7536 40.7506 19.505 40.8132 19.2807 40.9302L18.1387 41.5903C17.7239 41.8268 17.7098 42.2116 18.1017 42.4305Z" fill="#263238"/>
    <path d="M14.3825 44.5802L29.5519 53.3335C29.7793 53.4444 30.0295 53.5004 30.2824 53.497C30.5353 53.4936 30.7839 53.431 31.0082 53.3141L32.1502 52.6557C32.5615 52.4174 32.5756 52.0414 32.1837 51.8137L17.0143 43.0605C16.7869 42.9487 16.5363 42.8923 16.283 42.8957C16.0296 42.899 15.7807 42.9622 15.5563 43.0799L14.4161 43.7383C14.0048 43.9783 13.9889 44.3525 14.3825 44.5802Z" fill="#263238"/>
    <path d="M46.2338 34.1425L27.4053 23.2959C28.0478 27.5234 28.2137 31.8655 27.6277 34.9933L46.4544 45.8418C47.0369 42.714 46.8763 38.37 46.2338 34.1425Z" fill="#263238"/>
    <path d="M33.7984 34.0796C33.3654 33.8108 32.8693 33.6604 32.3598 33.6437C32.0469 33.6402 31.7386 33.72 31.4667 33.8749L29.5356 34.9922L30.3458 36.6055C30.3873 37.5017 30.5863 38.3836 30.9336 39.2108L35.237 41.6944L37.2457 40.5347C37.2457 40.4958 37.2457 40.4588 37.2457 40.42C37.2492 38.0229 35.703 35.1811 33.7984 34.0796Z" fill="#455A64"/>
    <path d="M35.2406 41.5849C35.2406 41.6237 35.2406 41.6643 35.2406 41.6996L30.9337 39.2108L28.3267 37.7157C28.3267 37.6751 28.3267 37.6345 28.3267 37.5975C28.3267 36.2772 28.7927 35.3646 29.5287 34.9922C30.1341 34.685 30.9196 34.7433 31.781 35.241C32.2685 35.5308 32.709 35.8933 33.0872 36.316C33.0872 36.316 33.096 36.316 33.0978 36.3266C34.3563 37.7034 35.2406 39.7703 35.2406 41.5849Z" fill="#37474F"/>
    <path d="M18.1506 41.6438L15.7694 40.2705L13.2559 41.7267L13.2471 45.2781V46.1272L13.5824 45.9312L13.9355 45.73L15.0669 45.0769L15.5964 44.7698L16.3025 44.3656L16.7632 44.099L17.351 43.5483L17.4569 43.4495L17.9176 43.0188L18.0782 42.867L18.9166 42.0833L18.1506 41.6438Z" fill="#263238"/>
    <path d="M15.5844 45.3044L14.7725 43.6911L16.7141 42.5738C17.3284 42.2208 18.1456 42.2596 19.044 42.7785C20.9521 43.88 22.4984 46.7218 22.4984 49.133C22.4984 50.3915 22.0748 51.2794 21.3952 51.6818L21.3669 51.6977L19.3865 52.8415L18.5304 51.1399C16.8994 49.8937 15.648 47.4473 15.5844 45.3044Z" fill="#37474F"/>
    <path d="M15.5844 45.3044L14.7725 43.6911L16.7141 42.5738C17.3284 42.2208 18.1456 42.2596 19.044 42.7785C20.9521 43.88 22.4984 46.7218 22.4984 49.133C22.4984 50.3915 22.0748 51.2794 21.3952 51.6818L21.3669 51.6977L19.3865 52.8415L18.5304 51.1399C16.8994 49.8937 15.648 47.4473 15.5844 45.3044Z" fill="#263238"/>
    <path d="M13.5723 46.2951C13.5723 48.3674 14.7214 50.7662 16.2623 52.0918C16.498 52.2946 16.7515 52.476 17.0195 52.6336C18.9276 53.7368 20.4756 52.6813 20.4739 50.2772C20.4739 48.4627 19.5913 46.394 18.3381 45.0189C18.3334 45.0168 18.3296 45.013 18.3275 45.0083C17.9487 44.5856 17.5076 44.2231 17.0195 43.9334C15.1167 42.839 13.5723 43.8928 13.5723 46.2951Z" fill="#37474F"/>
    <path d="M13.5723 46.2944C13.5723 48.3667 14.7214 50.7655 16.2623 52.0911C15.194 50.8809 14.441 49.4258 14.07 47.8548C13.7788 46.4692 13.8935 44.4799 15.0779 43.9715C16.2623 43.4632 17.835 44.5275 18.3328 45.0094C17.954 44.5867 17.5129 44.2242 17.0248 43.9345C15.1167 42.8383 13.5723 43.8921 13.5723 46.2944Z" fill="#455A64"/>
    <path d="M17.0301 45.3605C15.8175 44.6545 14.8325 45.4047 14.8325 47.0233C14.8325 48.6419 15.8122 50.5217 17.0301 51.2154C18.248 51.9091 19.2294 51.1731 19.2294 49.5544C19.2294 47.9358 18.2392 46.0613 17.0301 45.3605ZM17.0301 50.7177C16.0257 50.1369 15.212 48.5819 15.212 47.2421C15.212 45.9024 16.0257 45.2864 17.0301 45.8671C18.0344 46.4478 18.8499 48.0029 18.8499 49.3426C18.8499 50.6824 18.0291 51.2966 17.0301 50.7177Z" fill="#F5F5F5"/>
    <path d="M18.8445 49.3424C18.8656 49.7624 18.7531 50.1783 18.5232 50.5304C18.1967 50.9769 17.6406 51.0758 17.0264 50.7175C16.0203 50.1367 15.2065 48.5817 15.2065 47.242C15.2065 46.3064 15.6037 45.7239 16.1862 45.6533C16.4832 45.6308 16.7794 45.7058 17.0299 45.8669C18.0307 46.4494 18.8445 48.0027 18.8445 49.3424Z" fill="#E0E0E0"/>
    <path opacity="0.4" d="M18.8445 49.3424C18.8656 49.7624 18.7531 50.1783 18.5232 50.5304C18.1967 50.9769 17.6406 51.0758 17.0264 50.7175C16.0203 50.1367 15.2065 48.5817 15.2065 47.242C15.2065 46.3064 15.6037 45.7239 16.1862 45.6533C16.4832 45.6308 16.7794 45.7058 17.0299 45.8669C18.0307 46.4494 18.8445 48.0027 18.8445 49.3424Z" fill="black"/>
    <path d="M18.8446 49.3412C18.8657 49.7612 18.7533 50.1771 18.5233 50.5292C18.2273 50.5526 17.9317 50.4789 17.6814 50.3191C16.677 49.7402 15.8633 48.1851 15.8633 46.8454C15.8424 46.4246 15.9555 46.0081 16.1863 45.6557C16.4829 45.6321 16.7791 45.7058 17.03 45.8657C18.0309 46.4482 18.8446 48.0015 18.8446 49.3412Z" fill="#263238"/>
    <path d="M16.7794 47.4522L16.4511 48.4071L15.6709 46.695C15.6853 46.492 15.7418 46.2942 15.8368 46.1143L16.7794 47.4522Z" fill="#E0E0E0"/>
    <path d="M16.4544 48.2139L17.0421 49.0435L16.4614 49.7107C16.3158 49.5903 16.2024 49.4356 16.1313 49.2606L16.4544 48.2139Z" fill="#E0E0E0"/>
    <path d="M17.6971 48.881L17.5312 48.9516L17.4906 48.761L16.8428 48.9375L18.1701 50.8279C18.3098 50.7563 18.4307 50.6529 18.5232 50.5261C18.5442 50.4978 18.5636 50.4683 18.5814 50.4378L17.6971 48.881Z" fill="#E0E0E0"/>
    <path d="M18.7755 48.641L17.697 48.8811L17.5964 48.7187L17.4905 48.761L17.314 47.9314L17.4446 48.0073V47.792H18.5337C18.6408 48.0668 18.7217 48.351 18.7755 48.641Z" fill="#E0E0E0"/>
    <path d="M17.4358 47.7922L17.2716 47.7392L17.314 47.9316L16.6079 47.5221L17.2292 45.9971C17.4246 46.1397 17.6024 46.305 17.7588 46.4895L17.4358 47.7922Z" fill="#E0E0E0"/>
    <path d="M17.7129 48.6893C17.7129 49.1958 17.4058 49.4288 17.0245 49.2082C16.6433 48.9876 16.3379 48.4015 16.3379 47.895C16.3379 47.3884 16.645 47.1554 17.0245 47.3742C17.404 47.5931 17.7129 48.1827 17.7129 48.6893Z" fill="#F5F5F5"/>
    <path d="M29.3856 55.4517L21.4267 50.8624L21.4355 50.7865C21.3513 49.3008 20.9312 47.8536 20.207 46.5537C19.2944 44.9298 17.9353 43.3341 16.096 42.9246C14.4315 42.5822 13.376 43.9519 13.2718 45.5723C13.2577 45.6888 13.2524 45.9024 13.2489 46.123L9.67451 44.0631C9.09555 40.9389 9.26147 36.609 9.90398 32.3975L29.6045 43.7436C28.9602 47.9711 28.796 52.3168 29.3856 55.4517Z" fill="#9D55BA"/>
    <path opacity="0.2" d="M29.3856 55.4517L21.4267 50.8624L21.4355 50.7865C21.3513 49.3008 20.9312 47.8536 20.207 46.5537C19.2944 44.9298 17.9353 43.3341 16.096 42.9246C14.4315 42.5822 13.376 43.9519 13.2718 45.5723C13.2577 45.6888 13.2524 45.9024 13.2489 46.123L9.67451 44.0631C9.09555 40.9389 9.26147 36.609 9.90398 32.3975L29.6045 43.7436C28.9602 47.9711 28.796 52.3168 29.3856 55.4517Z" fill="black"/>
    <path d="M46.234 34.1432L47.083 33.6542L27.4054 22.2939L27.4037 22.2957L27.4019 22.2939L9.9043 32.3957L9.90606 32.3975H9.9043L29.6048 43.7437L30.475 43.2424L11.6465 32.3957L27.4054 23.2965L46.234 34.1432Z" fill="#9D55BA"/>
    <path opacity="0.2" d="M46.234 34.1432L47.083 33.6542L27.4054 22.2939L27.4037 22.2957L27.4019 22.2939L9.9043 32.3957L9.90606 32.3975H9.9043L29.6048 43.7437L30.475 43.2424L11.6465 32.3957L27.4054 23.2965L46.234 34.1432Z" fill="white"/>
    <path d="M27.4053 23.2957L26.5616 22.7803L10.769 31.8971L11.6463 32.3949L27.4053 23.2957Z" fill="#455A64"/>
    <path d="M12.2642 44.0731V46.3819L9.12404 44.5762C8.97221 44.4885 8.84612 44.3625 8.75844 44.2106C8.67075 44.0588 8.62456 43.8866 8.62451 43.7113V41.835L12.2642 44.0731Z" fill="#37474F"/>
    <path d="M12.2642 44.0732C11.0463 43.3671 8.83456 42.1086 8.83456 42.1086C8.15499 41.7221 9.3535 41.0654 9.3535 41.0654L9.36409 41.2578C9.36917 41.3554 9.39866 41.4502 9.44985 41.5335C9.50104 41.6167 9.5723 41.6858 9.6571 41.7344L12.9844 43.6619L12.2642 44.0732Z" fill="#455A64"/>
    <path d="M12.9824 43.6611V45.9664L12.2622 46.3812V44.0742L12.9824 43.6611Z" fill="#263238"/>
    <path d="M9.3323 38.5993C9.90244 38.9805 10.462 39.2947 10.8309 39.4924C10.9635 39.5639 11.0743 39.6699 11.1516 39.7991C11.229 39.9283 11.27 40.0761 11.2704 40.2267V41.3634C11.2704 41.3899 11.2635 41.4159 11.2503 41.4389C11.2371 41.4618 11.2182 41.4809 11.1953 41.4943C11.1725 41.5077 11.1466 41.5149 11.1201 41.5151C11.0936 41.5154 11.0676 41.5087 11.0445 41.4958C10.5891 41.2399 9.57589 40.6733 9.3323 40.5179C9.01635 40.3167 9.02517 38.4016 9.3323 38.5993Z" fill="#9D55BA"/>
    <path opacity="0.8" d="M9.3323 38.5993C9.90244 38.9805 10.462 39.2947 10.8309 39.4924C10.9635 39.5639 11.0743 39.6699 11.1516 39.7991C11.229 39.9283 11.27 40.0761 11.2704 40.2267V41.3634C11.2704 41.3899 11.2635 41.4159 11.2503 41.4389C11.2371 41.4618 11.2182 41.4809 11.1953 41.4943C11.1725 41.5077 11.1466 41.5149 11.1201 41.5151C11.0936 41.5154 11.0676 41.5087 11.0445 41.4958C10.5891 41.2399 9.57589 40.6733 9.3323 40.5179C9.01635 40.3167 9.02517 38.4016 9.3323 38.5993Z" fill="white"/>
    <path d="M50.0925 60.6826L47.7131 59.3076L45.1996 60.7638L45.189 64.3153V65.159L45.5261 64.9648L45.8791 64.7636L47.0106 64.1105L47.5401 63.8034L48.2462 63.3992L48.7086 63.1326L49.2964 62.5819L49.4005 62.4831L49.863 62.0524L50.0236 61.9006L50.8603 61.1169L50.0925 60.6826Z" fill="#263238"/>
    <path d="M47.526 63.7224L46.7158 62.1091L48.6469 60.9918C49.2611 60.6387 50.0784 60.6776 50.9768 61.1965C52.8849 62.2979 54.4312 65.1398 54.4312 67.5421C54.4312 68.8006 54.0075 69.6885 53.3297 70.0909L53.3032 70.1068L51.3245 71.2506L50.4667 69.5491C48.841 68.3117 47.5896 65.8653 47.526 63.7224Z" fill="#37474F"/>
    <path d="M47.526 63.7224L46.7158 62.1091L48.6469 60.9918C49.2611 60.6387 50.0784 60.6776 50.9768 61.1965C52.8849 62.2979 54.4312 65.1398 54.4312 67.5421C54.4312 68.8006 54.0075 69.6885 53.3297 70.0909L53.3032 70.1068L51.3245 71.2506L50.4667 69.5491C48.841 68.3117 47.5896 65.8653 47.526 63.7224Z" fill="#263238"/>
    <path d="M45.5137 64.7148C45.5137 66.7853 46.6645 69.1841 48.2037 70.5097C48.4397 70.713 48.6938 70.8944 48.9627 71.0516C50.8708 72.1548 52.4171 71.0992 52.4171 68.6951C52.4171 66.8806 51.5345 64.8119 50.2795 63.4369L50.2689 63.4263C49.8907 63.0036 49.4502 62.6411 48.9627 62.3513C47.0599 61.2569 45.5137 62.3107 45.5137 64.7148Z" fill="#37474F"/>
    <path d="M45.5137 64.7141C45.5137 66.7846 46.6645 69.1834 48.2037 70.509C47.1354 69.2992 46.3828 67.8438 46.0132 66.2727C45.7202 64.8871 45.8367 62.8978 47.0193 62.3895C48.2019 61.8811 49.7782 62.9455 50.2742 63.4273C49.896 63.0047 49.4555 62.6422 48.968 62.3524C47.0599 61.2562 45.5137 62.31 45.5137 64.7141Z" fill="#455A64"/>
    <path d="M48.9679 63.7765C47.7535 63.0705 46.7686 63.8207 46.7686 65.4393C46.7686 67.0579 47.7535 68.9377 48.9679 69.6385C50.1823 70.3393 51.1655 69.5961 51.1655 67.9775C51.1655 66.3589 50.1805 64.4773 48.9679 63.7765ZM48.9679 69.1337C47.9635 68.5529 47.1481 66.9979 47.1481 65.6582C47.1481 64.3184 47.9635 63.7024 48.9679 64.2831C49.9722 64.8639 50.786 66.4189 50.786 67.7587C50.786 69.0984 49.9722 69.7126 48.9679 69.1337Z" fill="#F5F5F5"/>
    <path d="M50.7863 67.7586C50.8075 68.1786 50.695 68.5945 50.4651 68.9466C50.1385 69.3931 49.5914 69.492 48.9683 69.1337C47.9622 68.5529 47.1484 66.9979 47.1484 65.6581C47.1484 64.7226 47.5474 64.1401 48.1281 64.0695C48.4235 64.0466 48.7184 64.1203 48.9683 64.2796C49.9726 64.8621 50.7863 66.4189 50.7863 67.7586Z" fill="#E0E0E0"/>
    <path opacity="0.4" d="M50.7863 67.7586C50.8075 68.1786 50.695 68.5945 50.4651 68.9466C50.1385 69.3931 49.5914 69.492 48.9683 69.1337C47.9622 68.5529 47.1484 66.9979 47.1484 65.6581C47.1484 64.7226 47.5474 64.1401 48.1281 64.0695C48.4235 64.0466 48.7184 64.1203 48.9683 64.2796C49.9726 64.8621 50.7863 66.4189 50.7863 67.7586Z" fill="black"/>
    <path d="M50.7863 67.759C50.8075 68.179 50.695 68.5949 50.4651 68.9469C50.1696 68.9707 49.8744 68.8969 49.6249 68.7369C48.6205 68.1597 47.8068 66.6029 47.8068 65.2631C47.7854 64.8426 47.8978 64.4261 48.128 64.0734C48.4235 64.0505 48.7184 64.1242 48.9682 64.2835C49.9726 64.8625 50.7863 66.4193 50.7863 67.759Z" fill="#263238"/>
    <path d="M48.7208 65.8643L48.3925 66.8193L47.6123 65.1089C47.6266 64.9053 47.6831 64.7069 47.7782 64.5264L48.7208 65.8643Z" fill="#E0E0E0"/>
    <path d="M48.3962 66.624L48.9787 67.4536L48.3962 68.1208C48.2511 68.0004 48.1382 67.8457 48.0679 67.6707L48.3962 66.624Z" fill="#E0E0E0"/>
    <path d="M49.639 67.2987L49.4731 67.3693L49.4325 67.1787L48.7847 67.3552L50.112 69.2457C50.252 69.1745 50.373 69.0711 50.4651 68.9438C50.4862 68.9156 50.5057 68.8856 50.5251 68.8556L49.639 67.2987Z" fill="#E0E0E0"/>
    <path d="M50.7174 67.059L49.6389 67.299L49.5383 67.1384L49.4324 67.179L49.2559 66.3494L49.3865 66.4253L49.3777 66.21H50.4685C50.5781 66.4845 50.6614 66.7688 50.7174 67.059Z" fill="#E0E0E0"/>
    <path d="M49.3776 66.218L49.2135 66.165L49.2559 66.3574L48.5498 65.9479L49.1729 64.4229C49.368 64.5659 49.5457 64.7311 49.7024 64.9153L49.3776 66.218Z" fill="#E0E0E0"/>
    <path d="M49.6548 67.1014C49.6548 67.608 49.3477 67.8409 48.9682 67.6203C48.5887 67.3997 48.2798 66.8136 48.2798 66.3071C48.2798 65.8005 48.5869 65.5675 48.9682 65.7863C49.3494 66.0052 49.6548 66.6001 49.6548 67.1014Z" fill="#F5F5F5"/>
    <path d="M73.2157 53.9214C72.8446 54.6266 72.3631 55.2678 71.7894 55.8207C70.9775 56.6291 69.8478 57.4835 68.3192 58.3695C59.4548 63.4884 55.425 61.1584 47.8774 56.7986C46.3912 55.9407 44.7584 54.9346 43.0974 53.8738L42.9598 53.7873L42.7144 53.6284L42.3296 53.3813L41.9572 53.1395C41.1205 52.5976 40.2821 52.0451 39.4578 51.4962L39.2407 51.3514C39.1489 51.2897 39.0641 51.2279 38.9635 51.1749C34.0759 47.9042 32.0796 46.1496 31.4353 45.6836L31.4229 45.6748L31.3841 45.6466L34.0318 47.2934L35.5163 48.2184L39.8885 51.0425L42.5573 52.707L42.3967 52.1193L42.3367 44.7958C42.2226 44.3337 41.9923 43.9084 41.6677 43.5602C41.6513 43.5402 41.6329 43.5219 41.613 43.5055C41.2809 43.2228 40.9165 42.9805 40.5274 42.7836C39.2565 42.0546 35.1368 39.7564 31.3488 37.6029L30.9746 37.3876L43.2281 29.1498C43.6055 28.8961 44.0457 28.7514 44.5001 28.7318C44.9545 28.7122 45.4054 28.8183 45.8034 29.0386C50.345 31.5503 56.3041 34.7876 57.2766 35.6242C57.3878 35.7213 59.3206 38.3072 60.8069 39.8411C62.4449 41.525 64.1606 43.3449 64.3495 43.6185C65.585 44.4392 70.042 47.3446 72.4408 49.1892C72.5184 49.2492 72.5996 49.3321 72.7144 49.4363C72.876 49.5842 73.0131 49.757 73.1203 49.9482C73.8493 51.2138 73.9941 52.3629 73.2157 53.9214Z" fill="#9D55BA"/>
    <path opacity="0.2" d="M73.2157 53.9214C72.8446 54.6266 72.3631 55.2678 71.7894 55.8207C70.9775 56.6291 69.8478 57.4835 68.3192 58.3695C59.4548 63.4884 55.425 61.1584 47.8774 56.7986C46.3912 55.9407 44.7584 54.9346 43.0974 53.8738L42.9598 53.7873L42.7144 53.6284L42.3296 53.3813L41.9572 53.1395C41.1205 52.5976 40.2821 52.0451 39.4578 51.4962L39.2407 51.3514C39.1489 51.2897 39.0641 51.2279 38.9635 51.1749C34.0759 47.9042 32.0796 46.1496 31.4353 45.6836L31.4229 45.6748L31.3841 45.6466L34.0318 47.2934L35.5163 48.2184L39.8885 51.0425L42.5573 52.707L42.3967 52.1193L42.3367 44.7958C42.2226 44.3337 41.9923 43.9084 41.6677 43.5602C41.6513 43.5402 41.6329 43.5219 41.613 43.5055C41.2809 43.2228 40.9165 42.9805 40.5274 42.7836C39.2565 42.0546 35.1368 39.7564 31.3488 37.6029L30.9746 37.3876L43.2281 29.1498C43.6055 28.8961 44.0457 28.7514 44.5001 28.7318C44.9545 28.7122 45.4054 28.8183 45.8034 29.0386C50.345 31.5503 56.3041 34.7876 57.2766 35.6242C57.3878 35.7213 59.3206 38.3072 60.8069 39.8411C62.4449 41.525 64.1606 43.3449 64.3495 43.6185C65.585 44.4392 70.042 47.3446 72.4408 49.1892C72.5184 49.2492 72.5996 49.3321 72.7144 49.4363C72.876 49.5842 73.0131 49.757 73.1203 49.9482C73.8493 51.2138 73.9941 52.3629 73.2157 53.9214Z" fill="white"/>
    <path opacity="0.2" d="M69.8813 54.1141C69.5548 53.7364 69.2317 53.3586 68.8875 52.9933C68.4049 52.4656 67.8909 51.9675 67.3484 51.5017C66.5982 50.8416 65.8251 50.2061 65.0237 49.6113C64.6212 49.3147 64.2117 49.0288 63.7987 48.7499C63.3857 48.471 62.9603 48.2098 62.5208 47.9697C63.3451 48.531 64.1429 49.1276 64.9213 49.7437C65.6997 50.3597 66.4693 50.9934 67.2036 51.6659C67.9379 52.3384 68.0668 52.4037 68.7657 53.1097C69.4647 53.8158 70.1408 54.5501 70.8115 55.2861C70.5132 54.8925 70.2043 54.4954 69.8813 54.1141ZM63.6769 58.3204C63.5004 58.135 63.3239 57.9462 63.1474 57.7732C62.7749 57.4202 62.4025 57.0671 62.0089 56.7406C61.4408 56.2347 60.8328 55.7755 60.1908 55.3673C59.3361 54.7992 58.4485 54.2823 57.5325 53.8193C57.0754 53.5881 56.6094 53.3728 56.1399 53.168C55.6703 52.9632 55.1902 52.7832 54.6978 52.6385C55.6384 53.0327 56.5575 53.4764 57.4513 53.9676C58.3493 54.4531 59.2224 54.9833 60.0672 55.5562C60.7044 55.9499 61.3142 56.3863 61.8924 56.8624C62.6973 57.4908 63.4474 58.1827 64.2029 58.8746L63.6769 58.3204Z" fill="white"/>
    <path d="M75.3511 59.906C75.3512 60.2274 75.3186 60.5479 75.254 60.8627C74.6786 63.6569 71.7856 65.6603 69.3215 67.0689C68.1847 67.7131 66.9844 68.4015 65.8195 69.0634C64.9793 69.5312 64.1444 70.0713 63.2512 70.4279C61.7765 71.0232 60.1819 71.261 58.5977 71.1221C57.0135 70.9831 55.4847 70.4712 54.1361 69.6283C54.1322 69.6238 54.1274 69.6202 54.122 69.6177L53.3736 69.187C53.2895 67.7077 52.8732 66.2664 52.1557 64.9701C51.2414 63.3462 49.8822 61.7505 48.043 61.341C46.3785 60.9986 45.3229 62.3701 45.2188 63.9887C45.2047 64.1105 45.1976 64.3417 45.1958 64.5659L29.3857 55.4508C28.4907 50.685 29.3451 43.095 30.9743 37.3972L30.9354 37.3743C30.947 37.3821 30.9595 37.3886 30.9725 37.3937C34.5027 39.4659 37.5846 41.1004 39.8758 42.4207C40.5377 42.8038 41.2702 43.1586 41.6179 43.5151C41.8578 43.7377 42.0453 44.0108 42.1669 44.3147C42.2364 44.4737 42.2953 44.637 42.3434 44.8036C42.8217 46.4699 42.3805 52.136 42.564 52.7149L39.8899 51.038C37.1769 49.3453 34.0438 47.2854 31.3891 45.635L31.4279 45.6633C31.8833 46.0269 38.153 50.7168 41.9621 53.135C42.2128 53.3009 42.4652 53.4633 42.7158 53.6239C44.4598 54.7448 46.2884 55.8762 47.8788 56.8012C55.4247 61.161 59.4544 63.4857 68.3206 58.3704C70.0522 57.3501 71.1113 56.5558 72.0927 55.5073C72.3294 55.2511 72.5493 54.9799 72.7511 54.6954C72.7758 54.6636 72.7987 54.6301 72.8199 54.5965C73.7607 53.248 73.9761 51.6558 73.27 50.3179C73.2506 50.2738 73.2259 50.2296 73.2012 50.1855C73.1588 50.1061 73.1129 50.0302 73.067 49.9596C73.0406 49.9137 73.0123 49.8731 72.9841 49.8325C72.8282 49.6037 72.6509 49.3903 72.4545 49.1953C72.6311 49.3276 72.8076 49.4689 72.9841 49.603C73.1606 49.7372 73.2736 49.8378 73.4024 49.956L73.533 50.0761L73.6231 50.1661L73.6531 50.1961C73.8835 50.4403 74.092 50.7043 74.2761 50.9851C74.2938 51.0169 74.3114 51.0451 74.3291 51.0734C74.3413 51.0897 74.3525 51.1068 74.3626 51.1245C74.9893 52.1448 75.2893 53.3468 75.3529 54.6936C75.3635 54.8772 75.3546 59.5795 75.3511 59.906Z" fill="#9D55BA"/>
    <path opacity="0.05" d="M75.3511 59.906C75.3512 60.2274 75.3186 60.5479 75.254 60.8627C74.6786 63.6569 71.7856 65.6603 69.3215 67.0689C68.1847 67.7131 66.9844 68.4015 65.8195 69.0634C64.9793 69.5312 64.1444 70.0713 63.2512 70.4279C61.7765 71.0232 60.1819 71.261 58.5977 71.1221C57.0135 70.9831 55.4847 70.4712 54.1361 69.6283C54.1322 69.6238 54.1274 69.6202 54.122 69.6177L53.3736 69.187C53.2895 67.7077 52.8732 66.2664 52.1557 64.9701C51.2414 63.3462 49.8822 61.7505 48.043 61.341C46.3785 60.9986 45.3229 62.3701 45.2188 63.9887C45.2047 64.1105 45.1976 64.3417 45.1958 64.5659L29.3857 55.4508C28.4907 50.685 29.3451 43.095 30.9743 37.3972L30.9354 37.3743C30.947 37.3821 30.9595 37.3886 30.9725 37.3937C34.5027 39.4659 37.5846 41.1004 39.8758 42.4207C40.5377 42.8038 41.2702 43.1586 41.6179 43.5151C41.8578 43.7377 42.0453 44.0108 42.1669 44.3147C42.2364 44.4737 42.2953 44.637 42.3434 44.8036C42.8217 46.4699 42.3805 52.136 42.564 52.7149L39.8899 51.038C37.1769 49.3453 34.0438 47.2854 31.3891 45.635L31.4279 45.6633C31.8833 46.0269 38.153 50.7168 41.9621 53.135C42.2128 53.3009 42.4652 53.4633 42.7158 53.6239C44.4598 54.7448 46.2884 55.8762 47.8788 56.8012C55.4247 61.161 59.4544 63.4857 68.3206 58.3704C70.0522 57.3501 71.1113 56.5558 72.0927 55.5073C72.3294 55.2511 72.5493 54.9799 72.7511 54.6954C72.7758 54.6636 72.7987 54.6301 72.8199 54.5965C73.7607 53.248 73.9761 51.6558 73.27 50.3179C73.2506 50.2738 73.2259 50.2296 73.2012 50.1855C73.1588 50.1061 73.1129 50.0302 73.067 49.9596C73.0406 49.9137 73.0123 49.8731 72.9841 49.8325C72.8282 49.6037 72.6509 49.3903 72.4545 49.1953C72.6311 49.3276 72.8076 49.4689 72.9841 49.603C73.1606 49.7372 73.2736 49.8378 73.4024 49.956L73.533 50.0761L73.6231 50.1661L73.6531 50.1961C73.8835 50.4403 74.092 50.7043 74.2761 50.9851C74.2938 51.0169 74.3114 51.0451 74.3291 51.0734C74.3413 51.0897 74.3525 51.1068 74.3626 51.1245C74.9893 52.1448 75.2893 53.3468 75.3529 54.6936C75.3635 54.8772 75.3546 59.5795 75.3511 59.906Z" fill="black"/>
    <g opacity="0.3">
        <path d="M29.5516 44.1006C29.1809 47.7155 28.9038 51.3676 29.3063 54.9914C28.6479 51.3976 28.9268 47.6802 29.5516 44.1006Z" fill="black"/>
    </g>
    <g opacity="0.3">
        <path d="M34.8044 47.1924C34.4337 50.8056 34.1566 54.4576 34.5573 58.0814C33.9007 54.4876 34.1796 50.7703 34.8044 47.1924Z" fill="black"/>
    </g>
    <path opacity="0.2" d="M47.27 39.9684C46.2585 39.3329 42.6171 37.1671 41.5757 36.5846L40.01 35.7162C39.4805 35.4338 38.9598 35.1425 38.432 34.8654C38.9351 35.1867 39.447 35.4938 39.9553 35.808L41.491 36.7294C42.5165 37.3419 46.2126 39.4124 47.27 39.9684ZM50.8143 37.9226C49.8029 37.2854 46.1632 35.1214 45.1183 34.5371L43.5526 33.6687C43.0231 33.3862 42.5059 33.0968 41.9764 32.8196C42.4812 33.1409 42.9931 33.448 43.4997 33.7622L45.0353 34.6836C46.0608 35.2943 49.757 37.3648 50.8143 37.9226ZM44.6099 41.5058C43.5985 40.8703 39.9588 38.7045 38.9157 38.1221L37.35 37.2519C36.8205 36.9694 36.3015 36.68 35.772 36.4028C36.2768 36.7223 36.7887 37.0312 37.297 37.3454L38.8327 38.2668C39.8582 38.8775 43.5544 40.9462 44.6099 41.5058ZM53.4726 36.3869C52.4629 35.7515 48.8215 33.5839 47.7783 32.9997L46.2126 32.133C45.6831 31.8506 45.1642 31.5594 44.6346 31.2822C45.1395 31.6035 45.6496 31.9106 46.1597 32.2248L47.6953 33.1462C48.7191 33.7587 52.417 35.8309 53.4726 36.3869Z" fill="white"/>
    <path d="M61.5904 40.7026L61.7333 41.2992C62.0634 41.9188 62.7924 42.7007 63.0572 42.6354C63.2902 42.5772 63.4331 42.2365 63.5073 41.8164C63.5426 41.6146 63.5633 41.4105 63.5691 41.2057C63.592 40.5438 63.2955 38.9975 62.3758 38.5863C62.2835 38.5468 62.181 38.5374 62.0831 38.5596C61.9851 38.5818 61.8967 38.6344 61.8304 38.7098C61.7081 38.8322 61.6173 38.9824 61.5656 39.1476C61.4121 39.6083 61.5692 40.6779 61.5904 40.7026Z" fill="#455A64"/>
    <path d="M61.7334 41.2992C62.0635 41.9188 62.7925 42.7007 63.0572 42.6354C63.2902 42.5772 63.4332 42.2365 63.5073 41.8164C63.5427 41.6146 63.5633 41.4105 63.5691 41.2057C63.5921 40.5438 63.2955 38.9975 62.3759 38.5863C62.2836 38.5468 62.1811 38.5374 62.0832 38.5596C61.9852 38.5818 61.8968 38.6344 61.8305 38.7098L61.9576 38.994C62.6001 39.2694 62.7731 40.2614 62.713 41.0168C62.653 41.7723 62.1023 41.6823 61.7334 41.2992Z" fill="#37474F"/>
    <path d="M61.5674 39.1445C61.7986 38.8974 62.3758 38.885 62.8612 39.5523C63.3466 40.2195 63.5072 41.3668 63.509 41.8098C63.5429 41.6085 63.5629 41.405 63.569 41.2009C63.592 40.5372 63.2972 38.9927 62.3776 38.5814C61.9945 38.4102 61.6768 38.8038 61.5674 39.1445Z" fill="#263238"/>
    <path d="M45.4697 56.2599L46.723 57.0542C46.7498 57.0714 46.7722 57.0948 46.7882 57.1225C46.8042 57.1501 46.8133 57.1812 46.8147 57.2131L46.843 57.8344C46.8442 57.8568 46.8393 57.8791 46.8287 57.8988C46.8181 57.9186 46.8022 57.935 46.7829 57.9463C46.7635 57.9576 46.7414 57.9634 46.719 57.963C46.6966 57.9625 46.6748 57.9559 46.6559 57.9439L45.4062 57.1637C45.379 57.1462 45.3564 57.1225 45.3401 57.0946C45.3239 57.0667 45.3144 57.0353 45.3126 57.0031L45.2808 56.3694C45.28 56.347 45.2853 56.3247 45.2961 56.3051C45.307 56.2854 45.323 56.2691 45.3424 56.2579C45.3618 56.2466 45.3839 56.2409 45.4063 56.2412C45.4288 56.2416 45.4507 56.2481 45.4697 56.2599Z" fill="#9D55BA"/>
    <g opacity="0.2">
        <path d="M45.4697 56.2599L46.723 57.0542C46.7498 57.0714 46.7722 57.0948 46.7882 57.1225C46.8042 57.1501 46.8133 57.1812 46.8147 57.2131L46.843 57.8344C46.8442 57.8568 46.8393 57.8791 46.8287 57.8988C46.8181 57.9186 46.8022 57.935 46.7829 57.9463C46.7635 57.9576 46.7414 57.9634 46.719 57.963C46.6966 57.9625 46.6748 57.9559 46.6559 57.9439L45.4062 57.1637C45.379 57.1462 45.3564 57.1225 45.3401 57.0946C45.3239 57.0667 45.3144 57.0353 45.3126 57.0031L45.2808 56.3694C45.28 56.347 45.2853 56.3247 45.2961 56.3051C45.307 56.2854 45.323 56.2691 45.3424 56.2579C45.3618 56.2466 45.3839 56.2409 45.4063 56.2412C45.4288 56.2416 45.4507 56.2481 45.4697 56.2599Z" fill="white"/>
    </g>
    <path d="M42.3384 44.7961L42.5573 52.7074L44.2041 53.6588C45.0789 54.1642 46.0613 54.4546 47.0702 54.5061C48.0792 54.5577 49.086 54.3689 50.0078 53.9553C52.1913 52.9792 55.1778 51.5671 57.6278 50.155C59.9579 48.8069 62.1693 47.2633 64.2382 45.541C64.3715 45.43 64.4815 45.2936 64.5618 45.1398C64.642 44.986 64.691 44.8177 64.7057 44.6449C64.7205 44.472 64.7008 44.2979 64.6479 44.1327C64.5949 43.9675 64.5096 43.8144 64.3971 43.6823C62.3036 41.0347 61.1863 39.1142 57.2748 35.6299C58.6869 36.8549 54.4683 39.2996 51.5135 41.0029C48.5587 42.7062 44.9666 44.7838 43.0974 44.8385C42.8437 44.8442 42.5899 44.83 42.3384 44.7961Z" fill="#37474F"/>
    <path d="M44.213 53.6597L42.5661 52.7083L30.3921 45.0371C30.3921 43.8915 31.0399 40.2024 31.4512 39.1416C33.2463 40.1777 34.7396 41.0426 36.8983 42.287C39.3465 43.6991 40.7939 44.6205 42.3455 44.8094L44.213 53.6597Z" fill="#263238"/>
    <path d="M43.0938 44.8324C43.2981 44.823 43.5012 44.7964 43.7011 44.7529C43.5828 45.1801 43.2298 45.459 43.6163 47.0917C45.0849 53.2608 45.0973 54.0516 45.8598 54.3287C45.2796 54.1849 44.7224 53.9609 44.2041 53.6632L42.3384 44.8006C42.589 44.8307 42.8416 44.8414 43.0938 44.8324Z" fill="black"/>
    <path d="M35.5002 48.2517L34.0352 47.3268L34.84 41.0889L35.8815 41.6908L35.5002 48.2517Z" fill="black"/>
    <path d="M57.2639 36.9287C58.6583 37.8113 58.916 39.0469 60.2822 40.586C61.8708 42.367 62.5769 44.0086 60.374 42.6336C58.6618 41.5621 56.6072 40.1801 54.7627 39.031C55.8624 38.3073 56.8067 37.573 57.2639 36.9287Z" fill="#455A64"/>
    <path d="M75.2558 60.8617C75.1658 60.9535 75.0669 61.0524 74.961 61.1547C74.7068 61.4018 74.4068 61.6843 74.0696 61.9702L73.9143 62.1044C73.503 62.4574 73.0317 62.8351 72.5357 63.2217C72.4104 63.3188 72.2816 63.4176 72.1492 63.5165C71.7591 63.813 71.3478 64.1131 70.9136 64.4114C70.7636 64.5155 70.6082 64.6214 70.4529 64.7256C70.2658 64.8526 70.0734 64.9797 69.881 65.1051C69.6886 65.2304 69.4927 65.3557 69.295 65.4793C69.0973 65.6028 68.9014 65.7246 68.7001 65.8429C68.4989 65.9611 68.2995 66.0812 68.0965 66.1959C63.9996 68.5241 61.4702 69.8215 59.4474 69.7862H59.1632H59.0538C58.8437 69.7862 58.6196 69.7703 58.383 69.7491L58.1942 69.7297L58.0547 69.712L57.9523 69.6997L57.7758 69.6714L57.624 69.6449L57.4722 69.6149C57.2957 69.5743 57.0963 69.5267 56.8986 69.4684L56.7221 69.4155C56.3789 69.3053 56.0434 69.1727 55.7177 69.0183L55.58 68.9513C55.1635 68.7474 54.7602 68.5175 54.3727 68.2629L54.1309 68.1022V70.4092C56.5579 72.0632 58.1906 72.079 59.4474 72.1038C61.4685 72.1444 63.9979 70.8435 68.0965 68.5153C71.1695 66.7713 74.029 64.4449 75.254 63.174L75.2664 63.1599C75.6655 62.7353 75.8861 62.1735 75.8824 61.5907V60.0127C75.8877 60.1363 75.66 60.4416 75.2558 60.8617Z" fill="#37474F"/>
    <path d="M54.1382 68.0907C56.5652 69.7447 58.198 69.7605 59.4547 69.787C61.474 69.8241 64.0052 68.525 68.1038 66.1968C72.2024 63.8686 75.888 60.5484 75.888 60.0012C75.888 59.0675 75.3584 58.9421 75.3584 58.9421V59.6358C75.3584 59.6358 73.5527 61.8599 68.8275 64.7988C63.9222 67.8366 61.6876 68.9839 59.2164 68.9839C56.7453 68.9839 54.8548 67.5806 54.8548 67.5806L54.1382 68.0907Z" fill="#455A64"/>
    <path d="M62.4218 61.7514L63.7386 63.0876C63.9032 63.2553 64.1136 63.3705 64.3435 63.4189C64.5734 63.4672 64.8125 63.4466 65.0307 63.3594C66.4012 62.7925 67.721 62.1099 68.9757 61.319C70.1315 60.6239 71.2284 59.8352 72.2553 58.9608C72.4346 58.8025 72.5791 58.6088 72.6796 58.3919C72.7802 58.175 72.8346 57.9395 72.8395 57.7005L72.8819 55.6353C72.8821 55.6178 72.8768 55.6006 72.8668 55.5863C72.8568 55.5719 72.8427 55.5609 72.8262 55.5549C72.8098 55.5489 72.7919 55.5482 72.775 55.5528C72.7581 55.5574 72.743 55.5671 72.7319 55.5806C71.9358 56.5955 70.6826 57.6987 68.7762 58.8866C66.4445 60.3305 64.3793 61.1954 62.4624 61.6102C62.4479 61.6138 62.4347 61.6211 62.4239 61.6314C62.4132 61.6418 62.4054 61.6547 62.4012 61.6691C62.3971 61.6834 62.3969 61.6985 62.4005 61.713C62.4041 61.7275 62.4114 61.7407 62.4218 61.7514Z" fill="#37474F"/>
    <path d="M72.8962 60.348C72.8757 60.3278 72.8481 60.3166 72.8194 60.3166C72.7907 60.3166 72.7631 60.3278 72.7426 60.348C70.801 62.4238 66.773 64.6849 64.2241 65.4933C64.1994 65.5013 64.1784 65.518 64.165 65.5403C64.1516 65.5625 64.1467 65.5889 64.1512 65.6145C64.1558 65.6401 64.1694 65.6632 64.1896 65.6795C64.2098 65.6959 64.2352 65.7043 64.2612 65.7034C64.2717 65.705 64.2825 65.705 64.293 65.7034C66.8683 64.8861 70.9404 62.6021 72.9015 60.4998C72.92 60.4785 72.9298 60.451 72.9288 60.4229C72.9278 60.3947 72.9161 60.3679 72.8962 60.348ZM72.8679 59.4849C72.8472 59.4651 72.8197 59.4541 72.7911 59.4541C72.7625 59.4541 72.735 59.4651 72.7144 59.4849C70.7727 61.5624 66.7465 63.8235 64.1959 64.6284C64.1689 64.6381 64.1466 64.6578 64.1338 64.6834C64.121 64.7091 64.1186 64.7387 64.1271 64.7661C64.1338 64.789 64.1481 64.809 64.1677 64.8228C64.1872 64.8366 64.2109 64.8434 64.2347 64.842H64.2647C66.84 64.0247 70.9139 61.7407 72.8732 59.6367C72.8922 59.6156 72.9022 59.588 72.9012 59.5597C72.9002 59.5314 72.8883 59.5046 72.8679 59.4849Z" fill="#E0E0E0"/>
    <path d="M62.1042 62.2623C61.9814 62.1033 61.8218 61.9767 61.6391 61.8934C61.4564 61.81 61.2562 61.7724 61.0557 61.7839C59.6436 61.8598 57.349 61.7468 55.868 61.2385C54.1523 60.6454 53.8328 60.5872 54.1029 61.535C54.373 62.4829 55.162 63.7573 56.6641 64.0909C59.3541 64.6911 61.5446 64.5198 62.6567 64.0609C63.2233 63.8297 62.5931 62.8942 62.1042 62.2623Z" fill="#9D55BA"/>
    <path opacity="0.8" d="M62.1042 62.2623C61.9814 62.1033 61.8218 61.9767 61.6391 61.8934C61.4564 61.81 61.2562 61.7724 61.0557 61.7839C59.6436 61.8598 57.349 61.7468 55.868 61.2385C54.1523 60.6454 53.8328 60.5872 54.1029 61.535C54.373 62.4829 55.162 63.7573 56.6641 64.0909C59.3541 64.6911 61.5446 64.5198 62.6567 64.0609C63.2233 63.8297 62.5931 62.8942 62.1042 62.2623Z" fill="white"/>
    <path d="M56.6709 64.099C55.167 63.7654 54.3851 62.4892 54.1097 61.5431C53.8485 60.65 54.1185 60.65 55.5853 61.1495C56.1149 62.3021 56.8633 63.3612 57.9153 64.0584C58.0918 64.1731 58.2683 64.2808 58.4448 64.3955C57.8484 64.3298 57.2562 64.2308 56.6709 64.099Z" fill="white"/>
    <path d="M73.3214 55.3558C73.327 55.0167 73.42 54.6847 73.5915 54.3921C74.0429 53.5749 74.2649 52.6509 74.234 51.7179C74.1722 50.6694 74.6258 50.876 74.8729 51.289C75.12 51.702 75.7555 53.1988 75.3513 54.6286C75.0194 55.82 74.1157 57.0397 73.5191 57.7087C73.4944 57.7305 73.4641 57.745 73.4316 57.7505C73.3991 57.756 73.3657 57.7523 73.3353 57.7398C73.3048 57.7273 73.2784 57.7066 73.2591 57.6799C73.2398 57.6531 73.2284 57.6216 73.2261 57.5887C73.2596 57.0256 73.3126 56.0566 73.3214 55.3558Z" fill="#9D55BA"/>
    <path opacity="0.8" d="M73.3214 55.3558C73.327 55.0167 73.42 54.6847 73.5915 54.3921C74.0429 53.5749 74.2649 52.6509 74.234 51.7179C74.1722 50.6694 74.6258 50.876 74.8729 51.289C75.12 51.702 75.7555 53.1988 75.3513 54.6286C75.0194 55.82 74.1157 57.0397 73.5191 57.7087C73.4944 57.7305 73.4641 57.745 73.4316 57.7505C73.3991 57.756 73.3657 57.7523 73.3353 57.7398C73.3048 57.7273 73.2784 57.7066 73.2591 57.6799C73.2398 57.6531 73.2284 57.6216 73.2261 57.5887C73.2596 57.0256 73.3126 56.0566 73.3214 55.3558Z" fill="white"/>
    <path d="M59.8623 65.6499C58.8314 65.3833 57.2146 65.1821 56.6021 65.5951C56.1855 65.8705 56.655 66.633 56.8757 66.8837C57.1971 67.2388 57.6208 67.4854 58.0883 67.5897C58.7107 67.7074 59.3525 67.6711 59.9576 67.4838C61.8145 67.0055 61.9027 66.1759 59.8623 65.6499ZM75.1641 56.5101L75.1341 56.5401C74.8086 56.8695 74.5428 57.2529 74.3486 57.6733C74.1729 58.0345 74.0829 58.4313 74.0856 58.833C74.0797 58.9435 74.1029 59.0536 74.1527 59.1525C74.2727 59.3537 74.5057 59.2725 74.6822 59.1948C74.7706 59.1544 74.8541 59.1041 74.9311 59.0448C75 58.9957 75.066 58.9427 75.1288 58.8859C75.2058 58.8203 75.2784 58.7496 75.3459 58.6741C75.6989 58.2946 75.7324 56.3036 75.3459 56.3353C75.2894 56.3883 75.2294 56.4518 75.1641 56.5101Z" fill="#F0F0F0"/>
    <path d="M38.7093 52.3098C39.0041 53.7219 40.5644 54.0149 41.7312 53.9796C42.3507 53.9619 42.8591 53.849 43.0144 53.7589C43.4663 53.4995 43.258 52.9593 43.0144 52.6469C42.6067 52.1174 40.7709 51.0583 39.6183 51.0177C38.9458 50.9948 38.5028 51.3231 38.7093 52.3098Z" fill="#455A64"/>
    <path d="M38.7093 52.3098C39.004 53.7219 40.5644 54.0149 41.7311 53.9796C42.3507 53.9619 42.859 53.849 43.0144 53.7589C43.4662 53.4995 43.258 52.9593 43.0144 52.6469C43.2421 53.0758 42.04 53.3424 40.9686 52.9576C39.8972 52.5728 39.0941 51.7432 39.6236 51.0177C38.9458 50.9948 38.5027 51.3231 38.7093 52.3098Z" fill="#37474F"/>
    <path d="M38.7093 52.3098C39.004 53.7219 40.5644 54.0149 41.7312 53.9796C40.5697 53.946 39.643 53.2735 39.2935 52.5463C38.944 51.8191 39.2088 51.1095 39.6201 51.0177C38.9458 50.9948 38.5028 51.3231 38.7093 52.3098Z" fill="#263238"/>
    <path d="M45.1888 64.5676L45.1906 65.1607L44.0273 65.8332V65.2384L45.1888 64.5676Z" fill="#263238"/>
    <path d="M20.2583 52.1095L44.0274 65.8333V65.2384L20.2583 51.5146V52.1095Z" fill="#37474F"/>
    <path d="M21.4233 50.8447L20.2583 51.5137L44.0274 65.2375L45.1888 64.5668L21.4233 50.8447Z" fill="#455A64"/>
</svg>
