<svg width="40" height="40" viewBox="0 0 40 40" fill="none" xmlns="http://www.w3.org/2000/svg">
    <g clip-path="url(#clip0_1090_12993)">
        <path d="M15.5223 0.0613496C11.9026 0.0613496 8.89648 3.00614 8.89648 6.62577H33.375C36.9946 6.62577 40.0008 3.68098 40.0008 0H15.5223V0.0613496Z" fill="#04AB61"/>
        <path d="M8.89648 6.62577C8.89648 3.00614 11.8413 0 15.5223 0V24.4785C15.5223 28.0982 12.5775 31.1043 8.89648 31.1043V6.62577Z" fill="#04AB61"/>
        <path fill-rule="evenodd" clip-rule="evenodd" d="M17.6074 8.83203V15.4578H25.2761C28.8958 15.4578 31.9019 12.513 31.9019 8.83203H17.6074Z" fill="#FBB016"/>
        <path d="M0 15.4578C0 11.8382 2.94478 8.83203 6.62577 8.83203V33.3106C6.62577 36.9302 3.68098 39.9363 0 39.9363V15.4578Z" fill="#FBB016"/>
    </g>
    <defs>
        <clipPath id="clip0_1090_12993">
            <rect width="40" height="40" fill="white"/>
        </clipPath>
    </defs>
</svg>

