<svg width="16" height="16" viewBox="0 0 16 16" fill="none" xmlns="http://www.w3.org/2000/svg">
    <path d="M8.94281 7.59869L11.2998 5.24166C11.4249 5.11664 11.4951 4.94707 11.4951 4.77026C11.4951 4.59345 11.4249 4.42388 11.2998 4.29885C11.1748 4.17383 11.0052 4.10359 10.8284 4.10359C10.6516 4.10359 10.482 4.17383 10.357 4.29885L8 6.65588L5.64298 4.29885C5.51795 4.17383 5.34838 4.10359 5.17157 4.10359C4.99476 4.10359 4.82519 4.17383 4.70017 4.29885C4.57514 4.42388 4.50491 4.59345 4.50491 4.77026C4.50491 4.94707 4.57514 5.11664 4.70017 5.24166L7.05719 7.59869L4.70017 9.95571C4.57514 10.0807 4.50491 10.2503 4.50491 10.4271C4.50491 10.6039 4.57514 10.7735 4.70017 10.8985C4.82519 11.0235 4.99476 11.0938 5.17157 11.0938C5.34838 11.0938 5.51795 11.0235 5.64298 10.8985L8 8.54149L10.357 10.8985C10.482 11.0235 10.6516 11.0938 10.8284 11.0938C11.0052 11.0938 11.1748 11.0235 11.2998 10.8985C11.4249 10.7735 11.4951 10.6039 11.4951 10.4271C11.4951 10.2503 11.4249 10.0807 11.2998 9.95571L8.94281 7.59869Z" fill="black"/>
</svg>
