<svg width="24" height="24" viewBox="0 0 24 24" fill="none" xmlns="http://www.w3.org/2000/svg">
    <path fill-rule="evenodd" clip-rule="evenodd" d="M16.4568 2.88309C13.501 2.45791 10.4996 2.45791 7.54379 2.88309C6.83199 2.98569 6.1755 3.32507 5.6802 3.84649C5.18491 4.3679 4.8797 5.04096 4.81379 5.75709L4.68779 7.15309C4.39443 10.3778 4.39443 13.6224 4.68779 16.8471L4.81479 18.2431C4.88065 18.9591 5.18572 19.632 5.68081 20.1534C6.17591 20.6748 6.83217 21.0143 7.54379 21.1171C10.4988 21.5421 13.5008 21.5421 16.4558 21.1171C17.1676 21.0145 17.8241 20.6751 18.3194 20.1537C18.8147 19.6323 19.1199 18.9592 19.1858 18.2431L19.3118 16.8471C19.6048 13.6221 19.6048 10.3771 19.3118 7.15309L19.1848 5.75709C19.1196 5.04086 18.8148 4.36754 18.3196 3.84601C17.8243 3.32448 17.1677 2.98522 16.4558 2.88309M9.99979 9.00009C9.99979 8.46966 10.2105 7.96095 10.5856 7.58588C10.9607 7.21081 11.4694 7.00009 11.9998 7.00009C12.5302 7.00009 13.0389 7.21081 13.414 7.58588C13.7891 7.96095 13.9998 8.46966 13.9998 9.00009C13.9998 9.53053 13.7891 10.0392 13.414 10.4143C13.0389 10.7894 12.5302 11.0001 11.9998 11.0001C11.4694 11.0001 10.9607 10.7894 10.5856 10.4143C10.2105 10.0392 9.99979 9.53053 9.99979 9.00009ZM7.99979 15.5001C7.99979 14.7044 8.31586 13.9414 8.87847 13.3788C9.44108 12.8162 10.2041 12.5001 10.9998 12.5001H12.9998C13.7954 12.5001 14.5585 12.8162 15.1211 13.3788C15.6837 13.9414 15.9998 14.7044 15.9998 15.5001C15.9998 15.7653 15.8944 16.0197 15.7069 16.2072C15.5194 16.3947 15.265 16.5001 14.9998 16.5001H8.99979C8.73457 16.5001 8.48022 16.3947 8.29268 16.2072C8.10515 16.0197 7.99979 15.7653 7.99979 15.5001Z" fill="#303030"/>
</svg>
