<svg width="17" height="16" viewBox="0 0 17 16" fill="none" xmlns="http://www.w3.org/2000/svg">
    <path d="M13.2267 9.62764V12.5876C13.2265 13.0065 13.0601 13.4081 12.7639 13.7042C12.4678 14.0004 12.0662 14.1668 11.6473 14.167H3.91335C3.70518 14.1669 3.49909 14.1257 3.3069 14.0457C3.11472 13.9657 2.94023 13.8485 2.79347 13.7009C2.64671 13.5533 2.53057 13.3781 2.45172 13.1855C2.37287 12.9928 2.33287 12.7865 2.33401 12.5783V4.85298C2.33277 4.64514 2.3728 4.43913 2.45176 4.24687C2.53072 4.05462 2.64706 3.87995 2.79402 3.73299C2.94099 3.58602 3.11566 3.46969 3.30791 3.39072C3.50016 3.31176 3.70618 3.27174 3.91401 3.27298H6.87335" stroke="#5B2C6F" stroke-linecap="round" stroke-linejoin="round"/>
    <path d="M13.2266 5.99656L10.5033 3.27256M5.05664 10.5352V9.0919C5.05797 8.8539 5.15264 8.62523 5.31997 8.45656L11.6746 2.1019C11.759 2.01663 11.8594 1.94894 11.97 1.90275C12.0807 1.85655 12.1994 1.83276 12.3193 1.83276C12.4392 1.83276 12.5579 1.85655 12.6686 1.90275C12.7793 1.94894 12.8797 2.01663 12.964 2.1019L14.398 3.5359C14.4832 3.62022 14.5509 3.72061 14.5971 3.83127C14.6433 3.94193 14.6671 4.06065 14.6671 4.18056C14.6671 4.30048 14.6433 4.4192 14.5971 4.52986C14.5509 4.64052 14.4832 4.74091 14.398 4.82523L8.04331 11.1799C7.87433 11.3477 7.64612 11.4423 7.40798 11.4432H5.96464C5.84535 11.4434 5.7272 11.42 5.61696 11.3745C5.50671 11.3289 5.40655 11.262 5.3222 11.1777C5.23785 11.0933 5.17097 10.9932 5.1254 10.8829C5.07983 10.7727 5.05647 10.6545 5.05664 10.5352Z" stroke="#5B2C6F" stroke-linecap="round" stroke-linejoin="round"/>
</svg>
