<svg width="16" height="16" viewBox="0 0 16 16" fill="none" xmlns="http://www.w3.org/2000/svg">
    <path d="M0 12.0001C0 12.4716 0.187301 12.9237 0.520699 13.2571C0.854097 13.5905 1.30628 13.7778 1.77778 13.7778H14.2222C14.6937 13.7778 15.1459 13.5905 15.4793 13.2571C15.8127 12.9237 16 12.4716 16 12.0001V9.77783H0V12.0001Z" fill="#138808"/>
    <path d="M16 6.22217V3.99995C16 3.52845 15.8127 3.07626 15.4793 2.74287C15.1459 2.40947 14.6937 2.22217 14.2222 2.22217H1.77778C1.30628 2.22217 0.854097 2.40947 0.520699 2.74287C0.187301 3.07626 0 3.52845 0 3.99995L0 6.22217H16Z" fill="#FF9933"/>
    <path d="M0 6.07422H16V9.92622H0V6.07422Z" fill="#F7F7F7"/>
    <path d="M7.99995 9.77772C8.98179 9.77772 9.77772 8.98179 9.77772 7.99995C9.77772 7.01811 8.98179 6.22217 7.99995 6.22217C7.01811 6.22217 6.22217 7.01811 6.22217 7.99995C6.22217 8.98179 7.01811 9.77772 7.99995 9.77772Z" fill="#000080"/>
    <path d="M8 9.5C8.82843 9.5 9.5 8.82843 9.5 8C9.5 7.17157 8.82843 6.5 8 6.5C7.17157 6.5 6.5 7.17157 6.5 8C6.5 8.82843 7.17157 9.5 8 9.5Z" fill="#F7F7F7"/>
    <path d="M8.0443 7.44455L7.99986 7.73344L7.95541 7.44455L7.99986 6.57788L8.0443 7.44455ZM7.63186 6.62633L7.81319 7.47477L7.93097 7.74233L7.89897 7.4521L7.63186 6.62633ZM7.28875 6.76855L7.68341 7.54099L7.86653 7.76899L7.76075 7.49655L7.28875 6.76855ZM6.99408 6.99433L7.57541 7.63877L7.81141 7.81166L7.63853 7.57566L6.99408 6.99433ZM6.7683 7.28899L7.4963 7.76099L7.76875 7.86677L7.54075 7.68366L6.7683 7.28899ZM6.62608 7.6321L7.45186 7.89921L7.74208 7.93121L7.47453 7.81344L6.62608 7.6321ZM6.57764 8.0001L7.4443 8.04455L7.73319 8.0001L7.4443 7.95566L6.57764 8.0001ZM6.62608 8.3681L7.47453 8.18677L7.74208 8.06899L7.45186 8.10099L6.62608 8.3681ZM6.7683 8.71121L7.54075 8.31655L7.76875 8.13344L7.4963 8.23921L6.7683 8.71121ZM6.99408 9.00588L7.63853 8.42455L7.81141 8.18855L7.57541 8.36144L6.99408 9.00588ZM7.28875 9.23166L7.76075 8.50366L7.86653 8.23121L7.68341 8.45921L7.28875 9.23166ZM7.63186 9.37388L7.89897 8.5481L7.93097 8.25788L7.81319 8.52544L7.63186 9.37388ZM7.99986 9.42233L8.0443 8.55566L7.99986 8.26677L7.95541 8.55566L7.99986 9.42233ZM8.36786 9.37388L8.18653 8.52544L8.06875 8.25788L8.10075 8.5481L8.36786 9.37388ZM8.71097 9.23166L8.3163 8.45921L8.13319 8.23121L8.23897 8.50366L8.71097 9.23166ZM9.00564 9.00588L8.4243 8.36144L8.1883 8.18855L8.36119 8.42455L9.00564 9.00588ZM9.23141 8.71121L8.50341 8.23921L8.23097 8.13344L8.45897 8.31655L9.23141 8.71121ZM9.37364 8.3681L8.54786 8.10099L8.25764 8.06899L8.52519 8.18677L9.37364 8.3681ZM9.42208 8.0001L8.55541 7.95566L8.26653 8.0001L8.55541 8.04455L9.42208 8.0001ZM9.37364 7.6321L8.52519 7.81344L8.25764 7.93121L8.54786 7.89921L9.37364 7.6321ZM9.23141 7.28899L8.45897 7.68366L8.23097 7.86677L8.50341 7.76099L9.23141 7.28899ZM9.00564 6.99433L8.36119 7.57566L8.1883 7.81166L8.4243 7.63877L9.00564 6.99433ZM8.71097 6.76855L8.23897 7.49655L8.13319 7.76899L8.3163 7.54099L8.71097 6.76855ZM8.36786 6.62633L8.10075 7.4521L8.06875 7.74233L8.18653 7.47477L8.36786 6.62633Z" fill="#6666B3"/>
    <path d="M7.80446 6.60405C7.85356 6.60405 7.89335 6.56425 7.89335 6.51516C7.89335 6.46607 7.85356 6.42627 7.80446 6.42627C7.75537 6.42627 7.71558 6.46607 7.71558 6.51516C7.71558 6.56425 7.75537 6.60405 7.80446 6.60405Z" fill="#000080"/>
    <path d="M7.42653 6.70537C7.47563 6.70537 7.51542 6.66557 7.51542 6.61648C7.51542 6.56738 7.47563 6.52759 7.42653 6.52759C7.37744 6.52759 7.33765 6.56738 7.33765 6.61648C7.33765 6.66557 7.37744 6.70537 7.42653 6.70537Z" fill="#000080"/>
    <path d="M7.08791 6.90043C7.137 6.90043 7.1768 6.86064 7.1768 6.81155C7.1768 6.76245 7.137 6.72266 7.08791 6.72266C7.03882 6.72266 6.99902 6.76245 6.99902 6.81155C6.99902 6.86064 7.03882 6.90043 7.08791 6.90043Z" fill="#000080"/>
    <path d="M6.81155 7.1768C6.86064 7.1768 6.90043 7.137 6.90043 7.08791C6.90043 7.03882 6.86064 6.99902 6.81155 6.99902C6.76245 6.99902 6.72266 7.03882 6.72266 7.08791C6.72266 7.137 6.76245 7.1768 6.81155 7.1768Z" fill="#000080"/>
    <path d="M6.61648 7.51567C6.66557 7.51567 6.70537 7.47587 6.70537 7.42678C6.70537 7.37769 6.66557 7.33789 6.61648 7.33789C6.56738 7.33789 6.52759 7.37769 6.52759 7.42678C6.52759 7.47587 6.56738 7.51567 6.61648 7.51567Z" fill="#000080"/>
    <path d="M6.51516 7.89335C6.56425 7.89335 6.60405 7.85356 6.60405 7.80446C6.60405 7.75537 6.56425 7.71558 6.51516 7.71558C6.46607 7.71558 6.42627 7.75537 6.42627 7.80446C6.42627 7.85356 6.46607 7.89335 6.51516 7.89335Z" fill="#000080"/>
    <path d="M6.51516 8.28447C6.56425 8.28447 6.60405 8.24467 6.60405 8.19558C6.60405 8.14649 6.56425 8.10669 6.51516 8.10669C6.46607 8.10669 6.42627 8.14649 6.42627 8.19558C6.42627 8.24467 6.46607 8.28447 6.51516 8.28447Z" fill="#000080"/>
    <path d="M6.61648 8.66215C6.66557 8.66215 6.70537 8.62236 6.70537 8.57326C6.70537 8.52417 6.66557 8.48438 6.61648 8.48438C6.56738 8.48438 6.52759 8.52417 6.52759 8.57326C6.52759 8.62236 6.56738 8.66215 6.61648 8.66215Z" fill="#000080"/>
    <path d="M6.81155 9.00102C6.86064 9.00102 6.90043 8.96122 6.90043 8.91213C6.90043 8.86304 6.86064 8.82324 6.81155 8.82324C6.76245 8.82324 6.72266 8.86304 6.72266 8.91213C6.72266 8.96122 6.76245 9.00102 6.81155 9.00102Z" fill="#000080"/>
    <path d="M7.08791 9.27739C7.137 9.27739 7.1768 9.23759 7.1768 9.1885C7.1768 9.13941 7.137 9.09961 7.08791 9.09961C7.03882 9.09961 6.99902 9.13941 6.99902 9.1885C6.99902 9.23759 7.03882 9.27739 7.08791 9.27739Z" fill="#000080"/>
    <path d="M7.42653 9.47246C7.47563 9.47246 7.51542 9.43266 7.51542 9.38357C7.51542 9.33447 7.47563 9.29468 7.42653 9.29468C7.37744 9.29468 7.33765 9.33447 7.33765 9.38357C7.33765 9.43266 7.37744 9.47246 7.42653 9.47246Z" fill="#000080"/>
    <path d="M7.80446 9.57377C7.85356 9.57377 7.89335 9.53398 7.89335 9.48488C7.89335 9.43579 7.85356 9.396 7.80446 9.396C7.75537 9.396 7.71558 9.43579 7.71558 9.48488C7.71558 9.53398 7.75537 9.57377 7.80446 9.57377Z" fill="#000080"/>
    <path d="M8.19533 9.57377C8.24443 9.57377 8.28422 9.53398 8.28422 9.48488C8.28422 9.43579 8.24443 9.396 8.19533 9.396C8.14624 9.396 8.10645 9.43579 8.10645 9.48488C8.10645 9.53398 8.14624 9.57377 8.19533 9.57377Z" fill="#000080"/>
    <path d="M8.57326 9.47246C8.62236 9.47246 8.66215 9.43266 8.66215 9.38357C8.66215 9.33447 8.62236 9.29468 8.57326 9.29468C8.52417 9.29468 8.48438 9.33447 8.48438 9.38357C8.48438 9.43266 8.52417 9.47246 8.57326 9.47246Z" fill="#000080"/>
    <path d="M8.91213 9.27739C8.96122 9.27739 9.00102 9.23759 9.00102 9.1885C9.00102 9.13941 8.96122 9.09961 8.91213 9.09961C8.86304 9.09961 8.82324 9.13941 8.82324 9.1885C8.82324 9.23759 8.86304 9.27739 8.91213 9.27739Z" fill="#000080"/>
    <path d="M9.1885 9.00102C9.23759 9.00102 9.27739 8.96122 9.27739 8.91213C9.27739 8.86304 9.23759 8.82324 9.1885 8.82324C9.13941 8.82324 9.09961 8.86304 9.09961 8.91213C9.09961 8.96122 9.13941 9.00102 9.1885 9.00102Z" fill="#000080"/>
    <path d="M9.38357 8.66215C9.43266 8.66215 9.47246 8.62236 9.47246 8.57326C9.47246 8.52417 9.43266 8.48438 9.38357 8.48438C9.33447 8.48438 9.29468 8.52417 9.29468 8.57326C9.29468 8.62236 9.33447 8.66215 9.38357 8.66215Z" fill="#000080"/>
    <path d="M9.48488 8.28447C9.53398 8.28447 9.57377 8.24467 9.57377 8.19558C9.57377 8.14649 9.53398 8.10669 9.48488 8.10669C9.43579 8.10669 9.396 8.14649 9.396 8.19558C9.396 8.24467 9.43579 8.28447 9.48488 8.28447Z" fill="#000080"/>
    <path d="M9.48488 7.89335C9.53398 7.89335 9.57377 7.85356 9.57377 7.80446C9.57377 7.75537 9.53398 7.71558 9.48488 7.71558C9.43579 7.71558 9.396 7.75537 9.396 7.80446C9.396 7.85356 9.43579 7.89335 9.48488 7.89335Z" fill="#000080"/>
    <path d="M9.38357 7.51567C9.43266 7.51567 9.47246 7.47587 9.47246 7.42678C9.47246 7.37769 9.43266 7.33789 9.38357 7.33789C9.33447 7.33789 9.29468 7.37769 9.29468 7.42678C9.29468 7.47587 9.33447 7.51567 9.38357 7.51567Z" fill="#000080"/>
    <path d="M9.1885 7.1768C9.23759 7.1768 9.27739 7.137 9.27739 7.08791C9.27739 7.03882 9.23759 6.99902 9.1885 6.99902C9.13941 6.99902 9.09961 7.03882 9.09961 7.08791C9.09961 7.137 9.13941 7.1768 9.1885 7.1768Z" fill="#000080"/>
    <path d="M8.91213 6.90043C8.96122 6.90043 9.00102 6.86064 9.00102 6.81155C9.00102 6.76245 8.96122 6.72266 8.91213 6.72266C8.86304 6.72266 8.82324 6.76245 8.82324 6.81155C8.82324 6.86064 8.86304 6.90043 8.91213 6.90043Z" fill="#000080"/>
    <path d="M8.57326 6.70537C8.62236 6.70537 8.66215 6.66557 8.66215 6.61648C8.66215 6.56738 8.62236 6.52759 8.57326 6.52759C8.52417 6.52759 8.48438 6.56738 8.48438 6.61648C8.48438 6.66557 8.52417 6.70537 8.57326 6.70537Z" fill="#000080"/>
    <path d="M8.19533 6.60405C8.24443 6.60405 8.28422 6.56425 8.28422 6.51516C8.28422 6.46607 8.24443 6.42627 8.19533 6.42627C8.14624 6.42627 8.10645 6.46607 8.10645 6.51516C8.10645 6.56425 8.14624 6.60405 8.19533 6.60405Z" fill="#000080"/>
    <path d="M8.0001 8.4001C8.22101 8.4001 8.4001 8.22101 8.4001 8.0001C8.4001 7.77918 8.22101 7.6001 8.0001 7.6001C7.77918 7.6001 7.6001 7.77918 7.6001 8.0001C7.6001 8.22101 7.77918 8.4001 8.0001 8.4001Z" fill="#000080"/>
</svg>
