<svg width="32" height="32" viewBox="0 0 32 32" fill="none" xmlns="http://www.w3.org/2000/svg">
    <path d="M12.276 21.9401C12.276 23.8134 10.7933 25.3334 8.96533 25.3334C7.13733 25.3334 5.65467 23.8134 5.65467 21.9387M12.276 21.9401C12.276 20.0667 10.7933 18.5454 8.96533 18.5454C7.13733 18.5454 5.65467 20.0654 5.65467 21.9387M12.276 21.9401L19.724 21.9387M5.65467 21.9387H4V8.00008C4 7.64646 4.14048 7.30732 4.39052 7.05727C4.64057 6.80722 4.97971 6.66675 5.33333 6.66675H18.3907C18.7443 6.66675 19.0834 6.80722 19.3335 7.05727C19.5835 7.30732 19.724 7.64646 19.724 8.00008V10.9094M19.724 21.9387H20.552M19.724 21.9387V10.9094M19.724 10.9094H22.7387C23.0942 10.9095 23.4462 10.9806 23.7739 11.1187C24.1016 11.2568 24.3983 11.459 24.6467 11.7134L28 15.1521V21.9387H27.172M27.172 21.9387C27.172 23.8134 25.6907 25.3334 23.8627 25.3334C22.0347 25.3334 20.552 23.8134 20.552 21.9387M27.172 21.9387C27.172 20.0654 25.6907 18.5454 23.8627 18.5454C22.0347 18.5454 20.552 20.0654 20.552 21.9387" stroke="#5B2C6F" stroke-width="2" stroke-linecap="round" stroke-linejoin="round"/>
</svg>
