<svg width="24" height="24" viewBox="0 0 24 24" fill="none" xmlns="http://www.w3.org/2000/svg">
    <path d="M10.0391 1.67212C11.1654 0.699411 12.8346 0.699412 13.9609 1.67212L23.6533 10.0432C24.0712 10.4041 24.1176 11.0354 23.7568 11.4534C23.3959 11.8713 22.7647 11.9177 22.3467 11.5569L21 10.3938V19.0002C20.9999 21.2093 19.2091 23.0002 17 23.0002H7C4.79097 23.0002 3.00013 21.2092 3 19.0002V10.3938L1.65332 11.5569C1.23534 11.9177 0.60409 11.8713 0.243164 11.4534C-0.117644 11.0354 -0.0712123 10.4042 0.34668 10.0432L10.0391 1.67212ZM12.6533 3.18579C12.278 2.86179 11.722 2.86179 11.3467 3.18579L5 8.66626V19.0002C5.00013 20.1047 5.89554 21.0002 7 21.0002H10V15.0002C10 14.448 10.4477 14.0003 11 14.0002H13C13.5523 14.0002 14 14.448 14 15.0002V21.0002H17C18.1045 21.0002 18.9999 20.1047 19 19.0002V8.66626L12.6533 3.18579Z" fill="#5B2C6F"/>
</svg>
