<svg width="24" height="24" viewBox="0 0 24 24" fill="none" xmlns="http://www.w3.org/2000/svg">
    <path d="M21.0555 12.0004H19.0555C18.7903 12.0004 18.5359 12.1057 18.3484 12.2933C18.1608 12.4808 18.0555 12.7352 18.0555 13.0004C18.0555 13.2656 18.1608 13.5199 18.3484 13.7075C18.5359 13.895 18.7903 14.0004 19.0555 14.0004V16.0004H17.8695C17.9876 15.68 18.0502 15.3418 18.0545 15.0004C18.0544 14.34 17.8365 13.6981 17.4345 13.1742C17.0325 12.6503 16.4688 12.2736 15.8309 12.1027C15.1931 11.9318 14.5166 11.9761 13.9065 12.2288C13.2964 12.4815 12.7867 12.9285 12.4565 13.5004C12.3898 13.6141 12.3462 13.74 12.3284 13.8706C12.3105 14.0013 12.3187 14.1342 12.3524 14.2617C12.3861 14.3892 12.4447 14.5088 12.5248 14.6136C12.6049 14.7183 12.7049 14.8062 12.8191 14.8721C12.9334 14.9381 13.0595 14.9808 13.1903 14.9978C13.321 15.0148 13.4539 15.0057 13.5812 14.9712C13.7084 14.9366 13.8276 14.8772 13.9318 14.7964C14.0361 14.7156 14.1233 14.615 14.1885 14.5004C14.2762 14.3484 14.4025 14.2221 14.5545 14.1344C14.7065 14.0466 14.8789 14.0004 15.0545 14.0004C15.3197 14.0004 15.574 14.1057 15.7616 14.2933C15.9491 14.4808 16.0545 14.7352 16.0545 15.0004C16.0545 15.2656 15.9491 15.5199 15.7616 15.7075C15.574 15.895 15.3197 16.0004 15.0545 16.0004C14.7893 16.0004 14.5349 16.1057 14.3474 16.2933C14.1598 16.4808 14.0545 16.7352 14.0545 17.0004C14.0545 17.2656 14.1598 17.5199 14.3474 17.7075C14.5349 17.895 14.7893 18.0004 15.0545 18.0004C15.3197 18.0004 15.574 18.1057 15.7616 18.2933C15.9491 18.4808 16.0545 18.7352 16.0545 19.0004C16.0545 19.2656 15.9491 19.5199 15.7616 19.7075C15.574 19.895 15.3197 20.0004 15.0545 20.0004C14.8789 20.0004 14.7065 19.9542 14.5545 19.8664C14.4025 19.7786 14.2762 19.6524 14.1885 19.5004C14.1233 19.3857 14.0361 19.2851 13.9318 19.2043C13.8276 19.1235 13.7084 19.0641 13.5812 19.0296C13.4539 18.995 13.321 18.986 13.1903 19.003C13.0595 19.02 12.9334 19.0627 12.8191 19.1286C12.7049 19.1945 12.6049 19.2824 12.5248 19.3872C12.4447 19.492 12.3861 19.6115 12.3524 19.739C12.3187 19.8665 12.3105 19.9994 12.3284 20.1301C12.3462 20.2608 12.3898 20.3866 12.4565 20.5004C12.7867 21.0723 13.2964 21.5192 13.9065 21.7719C14.5166 22.0246 15.1931 22.0689 15.8309 21.898C16.4688 21.7271 17.0325 21.3505 17.4345 20.8266C17.8365 20.3027 18.0544 19.6607 18.0545 19.0004C18.0502 18.6589 17.9876 18.3207 17.8695 18.0004H19.0545V21.0004C19.0545 21.2656 19.1598 21.5199 19.3474 21.7075C19.5349 21.895 19.7893 22.0004 20.0545 22.0004C20.3197 22.0004 20.574 21.895 20.7616 21.7075C20.9491 21.5199 21.0545 21.2656 21.0545 21.0004V14.0004C21.3197 14.0004 21.574 13.895 21.7616 13.7075C21.9491 13.5199 22.0545 13.2656 22.0545 13.0004C22.0545 12.7352 21.9491 12.4808 21.7616 12.2933C21.574 12.1057 21.3207 12.0004 21.0555 12.0004ZM9.08447 11.2434C9.11561 11.3716 9.17181 11.4923 9.24983 11.5987C9.32785 11.7051 9.42615 11.795 9.53907 11.8632C9.65198 11.9314 9.77728 11.9766 9.90774 11.9962C10.0382 12.0158 10.1712 12.0094 10.2992 11.9773C10.4272 11.9453 10.5475 11.8882 10.6534 11.8094C10.7592 11.7306 10.8484 11.6317 10.9158 11.5183C10.9832 11.4049 11.0275 11.2793 11.0462 11.1487C11.0648 11.0181 11.0574 10.8851 11.0245 10.7574L9.26747 3.72737C9.14456 3.23356 8.85999 2.79505 8.45905 2.48167C8.05811 2.16829 7.56385 1.99805 7.05497 1.99805C6.54609 1.99805 6.05183 2.16829 5.65089 2.48167C5.24995 2.79505 4.96538 3.23356 4.84247 3.72737L3.08447 10.7574C3.0515 10.8851 3.04413 11.0181 3.06278 11.1487C3.08144 11.2793 3.12575 11.4049 3.19316 11.5183C3.26058 11.6317 3.34976 11.7306 3.45558 11.8094C3.5614 11.8882 3.68176 11.9453 3.80973 11.9773C3.9377 12.0094 4.07074 12.0158 4.2012 11.9962C4.33167 11.9766 4.45696 11.9314 4.56987 11.8632C4.68279 11.795 4.78108 11.7051 4.85911 11.5987C4.93713 11.4923 4.99333 11.3716 5.02447 11.2434L5.58447 9.00037H8.52447L9.08447 11.2434ZM6.08547 7.00037L6.78247 4.21337C6.80349 4.15798 6.84086 4.1103 6.88962 4.07665C6.93838 4.043 6.99623 4.02498 7.05547 4.02498C7.11471 4.02498 7.17256 4.043 7.22132 4.07665C7.27008 4.1103 7.30745 4.15798 7.32847 4.21337L8.02547 7.00037H6.08547ZM14.0555 7.00037H15.0555C15.3207 7.00037 15.575 7.10573 15.7626 7.29326C15.9501 7.4808 16.0555 7.73515 16.0555 8.00037V9.00037C16.0555 9.26559 16.1608 9.51994 16.3484 9.70748C16.5359 9.89501 16.7903 10.0004 17.0555 10.0004C17.3207 10.0004 17.575 9.89501 17.7626 9.70748C17.9501 9.51994 18.0555 9.26559 18.0555 9.00037V8.00037C18.0547 7.20497 17.7383 6.44236 17.1759 5.87993C16.6135 5.31749 15.8509 5.00117 15.0555 5.00037H14.0555C13.7903 5.00037 13.5359 5.10573 13.3484 5.29326C13.1608 5.4808 13.0555 5.73515 13.0555 6.00037C13.0555 6.26559 13.1608 6.51994 13.3484 6.70748C13.5359 6.89501 13.7903 7.00037 14.0555 7.00037ZM10.0555 16.0004H9.05547C8.79025 16.0004 8.5359 15.895 8.34836 15.7075C8.16083 15.5199 8.05547 15.2656 8.05547 15.0004V14.0004C8.05547 13.7352 7.95011 13.4808 7.76258 13.2933C7.57504 13.1057 7.32069 13.0004 7.05547 13.0004C6.79025 13.0004 6.5359 13.1057 6.34836 13.2933C6.16083 13.4808 6.05547 13.7352 6.05547 14.0004V15.0004C6.05626 15.7958 6.37259 16.5584 6.93503 17.1208C7.49746 17.6833 8.26006 17.9996 9.05547 18.0004H10.0555C10.3207 18.0004 10.575 17.895 10.7626 17.7075C10.9501 17.5199 11.0555 17.2656 11.0555 17.0004C11.0555 16.7352 10.9501 16.4808 10.7626 16.2933C10.575 16.1057 10.3207 16.0004 10.0555 16.0004Z" fill="black"/>
</svg>
