<svg width="16" height="16" viewBox="0 0 16 16" fill="none" xmlns="http://www.w3.org/2000/svg">
    <path fill-rule="evenodd" clip-rule="evenodd" d="M4.8335 6.66667C4.8335 5.82681 5.16713 5.02136 5.76099 4.4275C6.35486 3.83363 7.16031 3.5 8.00016 3.5C8.84001 3.5 9.64547 3.83363 10.2393 4.4275C10.8332 5.02136 11.1668 5.82681 11.1668 6.66667C11.1668 7.50652 10.8332 8.31197 10.2393 8.90584C9.64547 9.4997 8.84001 9.83333 8.00016 9.83333C7.16031 9.83333 6.35486 9.4997 5.76099 8.90584C5.16713 8.31197 4.8335 7.50652 4.8335 6.66667ZM8.00016 4.5C7.42553 4.5 6.87443 4.72827 6.4681 5.1346C6.06177 5.54093 5.8335 6.09203 5.8335 6.66667C5.8335 7.2413 6.06177 7.7924 6.4681 8.19873C6.87443 8.60506 7.42553 8.83333 8.00016 8.83333C8.5748 8.83333 9.1259 8.60506 9.53223 8.19873C9.93856 7.7924 10.1668 7.2413 10.1668 6.66667C10.1668 6.09203 9.93856 5.54093 9.53223 5.1346C9.1259 4.72827 8.5748 4.5 8.00016 4.5Z" fill="#008000"/>
    <path fill-rule="evenodd" clip-rule="evenodd" d="M2.34932 5.90459C2.46357 4.52257 3.09319 3.234 4.11325 2.29459C5.13331 1.35517 6.46925 0.833556 7.85599 0.833252H8.14399C9.53072 0.833556 10.8667 1.35517 11.8867 2.29459C12.9068 3.234 13.5364 4.52257 13.6507 5.90459C13.7777 7.44414 13.3021 8.97289 12.324 10.1686L9.12865 14.0759C8.99191 14.2431 8.81971 14.3779 8.62451 14.4704C8.42932 14.5629 8.216 14.6109 7.99999 14.6109C7.78397 14.6109 7.57065 14.5629 7.37546 14.4704C7.18026 14.3779 7.00807 14.2431 6.87132 14.0759L3.67599 10.1686C2.69787 8.97289 2.22223 7.44414 2.34932 5.90459ZM7.85599 1.83325C6.7204 1.83373 5.62647 2.26102 4.79119 3.03035C3.95591 3.79969 3.44031 4.85486 3.34665 5.98659C3.24084 7.26785 3.63665 8.54014 4.45065 9.53525L7.64599 13.4433C7.68894 13.4958 7.74304 13.5382 7.80438 13.5673C7.86572 13.5964 7.93276 13.6115 8.00065 13.6115C8.06854 13.6115 8.13558 13.5964 8.19692 13.5673C8.25826 13.5382 8.31236 13.4958 8.35532 13.4433L11.5507 9.53525C12.3642 8.53994 12.7595 7.26767 12.6533 5.98659C12.5597 4.85475 12.044 3.79948 11.2085 3.03013C10.3731 2.26077 9.27902 1.83356 8.14332 1.83325H7.85599Z" fill="#008000"/>
</svg>
