<svg width="16" height="16" viewBox="0 0 16 16" fill="none" xmlns="http://www.w3.org/2000/svg">
    <path d="M4.66602 11.9999C3.44668 12.2746 2.66602 12.6959 2.66602 13.1693C2.66602 13.9959 5.05402 14.6666 7.99935 14.6666C10.9447 14.6666 13.3327 13.9959 13.3327 13.1693C13.3327 12.6959 12.552 12.2746 11.3327 11.9999M9.66602 5.99992C9.66602 6.44195 9.49042 6.86587 9.17786 7.17843C8.8653 7.49099 8.44138 7.66659 7.99935 7.66659C7.55732 7.66659 7.1334 7.49099 6.82084 7.17843C6.50828 6.86587 6.33268 6.44195 6.33268 5.99992C6.33268 5.55789 6.50828 5.13397 6.82084 4.82141C7.1334 4.50885 7.55732 4.33325 7.99935 4.33325C8.44138 4.33325 8.8653 4.50885 9.17786 4.82141C9.49042 5.13397 9.66602 5.55789 9.66602 5.99992Z" stroke="#303030" stroke-linecap="round" stroke-linejoin="round"/>
    <path d="M8.83799 11.6626C8.61281 11.8792 8.31248 12.0003 7.99999 12.0003C7.68751 12.0003 7.38718 11.8792 7.16199 11.6626C5.10266 9.66725 2.34333 7.43859 3.68866 4.20259C4.41733 2.45259 6.16399 1.33325 7.99999 1.33325C9.83599 1.33325 11.5833 2.45325 12.3113 4.20259C13.6553 7.43392 10.9027 9.67392 8.83799 11.6626Z" stroke="#303030" stroke-linecap="round" stroke-linejoin="round"/>
</svg>
