<svg width="24" height="24" viewBox="0 0 24 24" fill="none" xmlns="http://www.w3.org/2000/svg">
    <path d="M3.795 13.6108L4.4955 14.9908C4.0155 15.4633 3.75 15.9778 3.75 16.4998C3.75 18.4288 7.3905 20.2498 12 20.2498C16.6095 20.2498 20.25 18.4288 20.25 16.4998C20.25 15.9778 19.983 15.4648 19.5045 14.9923L20.2185 13.6228C21.186 14.4328 21.75 15.4138 21.75 16.4998C21.75 19.5403 17.331 21.7498 12 21.7498C6.669 21.7498 2.25 19.5403 2.25 16.4998C2.25 15.4078 2.82 14.4238 3.795 13.6108Z" fill="#595959"/>
    <path d="M3.795 9.11084L4.4955 10.4908C4.0155 10.9648 3.75 11.4793 3.75 11.9998C3.75 13.9288 7.3905 15.7498 12 15.7498C16.6095 15.7498 20.25 13.9288 20.25 11.9998C20.25 11.4778 19.983 10.9648 19.5045 10.4923L20.2185 9.12284C21.186 9.93284 21.75 10.9138 21.75 11.9998C21.75 15.0403 17.331 17.2498 12 17.2498C6.669 17.2498 2.25 15.0403 2.25 11.9998C2.25 10.9078 2.82 9.92384 3.795 9.11084Z" fill="#595959"/>
    <path d="M12 12.75C6.669 12.75 2.25 10.5405 2.25 7.5C2.25 4.4595 6.669 2.25 12 2.25C17.331 2.25 21.75 4.4595 21.75 7.5C21.75 10.5405 17.331 12.75 12 12.75ZM12 11.25C16.6095 11.25 20.25 9.429 20.25 7.5C20.25 5.571 16.6095 3.75 12 3.75C7.3905 3.75 3.75 5.571 3.75 7.5C3.75 9.429 7.3905 11.25 12 11.25Z" fill="#595959"/>
</svg>
