<svg width="32" height="32" viewBox="0 0 32 32" fill="none" xmlns="http://www.w3.org/2000/svg">
    <path d="M25.9998 25.3334C27.8408 25.3334 29.3332 23.841 29.3332 22.0001C29.3332 20.1591 27.8408 18.6667 25.9998 18.6667C24.1589 18.6667 22.6665 20.1591 22.6665 22.0001C22.6665 23.841 24.1589 25.3334 25.9998 25.3334Z" stroke="#5B2C6F" stroke-width="2" stroke-linecap="round" stroke-linejoin="round"/>
    <path d="M5.99984 25.3334C7.84079 25.3334 9.33317 23.841 9.33317 22.0001C9.33317 20.1591 7.84079 18.6667 5.99984 18.6667C4.15889 18.6667 2.6665 20.1591 2.6665 22.0001C2.6665 23.841 4.15889 25.3334 5.99984 25.3334Z" stroke="#5B2C6F" stroke-width="2" stroke-linecap="round" stroke-linejoin="round"/>
    <path d="M26.9801 10.4934C28.6881 12.5721 29.2827 14.5494 29.3321 15.5947C28.4044 15.171 27.3959 14.9532 26.3761 14.9561C23.1161 14.9561 20.1894 17.1241 19.4907 20.0121C19.3227 20.7027 19.2401 21.0481 19.0587 21.1907C18.8774 21.3334 18.5841 21.3334 17.9987 21.3334H14.1614C13.5707 21.3334 13.2761 21.3334 13.0947 21.1894C12.9121 21.0427 12.8321 20.7001 12.6734 20.0121C12.0121 17.1614 9.32941 14.6827 6.53607 14.8921C6.25474 14.9147 6.11341 14.9254 6.01607 14.9027C5.92141 14.8814 5.82407 14.8267 5.62941 14.7161C5.06807 14.4001 4.49474 14.0987 3.94407 13.7641C3.56661 13.534 3.25225 13.2137 3.02928 12.832C2.80631 12.4504 2.68173 12.0192 2.66674 11.5774C2.64941 11.0654 2.94274 10.5587 3.53607 10.6974L12.0961 12.7121C12.7401 12.8641 13.0614 12.9387 13.3374 12.8881C13.6134 12.8374 13.9534 12.6054 14.6307 12.1414C16.3481 10.9681 19.0707 9.85742 21.7841 10.8374C22.5267 11.1054 22.8987 11.2401 23.1094 11.2467C23.3227 11.2534 23.6321 11.1627 24.2521 10.9827C25.1403 10.7204 26.0547 10.5563 26.9787 10.4934C25.9094 9.18941 24.4001 7.84675 22.3121 6.66675" stroke="#5B2C6F" stroke-width="2" stroke-linecap="round" stroke-linejoin="round"/>
</svg>
