<svg width="16" height="20" viewBox="0 0 16 20" fill="none" xmlns="http://www.w3.org/2000/svg">
    <path d="M8.70672 0.292893C8.89426 0.48043 8.99961 0.734784 8.99961 1V1.75H9.55661C10.6287 1.74995 11.6606 2.15855 12.442 2.8926C13.2234 3.62665 13.6957 4.63096 13.7626 5.701L13.9836 9.234C14.069 10.5812 14.5214 11.8794 15.2916 12.988C15.4507 13.2171 15.5479 13.4834 15.5737 13.7611C15.5995 14.0388 15.553 14.3184 15.4388 14.5729C15.3245 14.8273 15.1464 15.0478 14.9218 15.2131C14.6971 15.3784 14.4335 15.4827 14.1566 15.516L10.7496 15.925V17C10.7496 17.7293 10.4599 18.4288 9.94416 18.9445C9.42843 19.4603 8.72896 19.75 7.99961 19.75C7.27027 19.75 6.5708 19.4603 6.05507 18.9445C5.53935 18.4288 5.24961 17.7293 5.24961 17V15.925L1.84261 15.517C1.56555 15.4838 1.30179 15.3795 1.07698 15.2142C0.852178 15.0488 0.673983 14.8281 0.559727 14.5736C0.445471 14.319 0.399043 14.0392 0.424957 13.7613C0.450872 13.4835 0.548248 13.2171 0.707615 12.988C1.47786 11.8794 1.93018 10.5812 2.01561 9.234L2.23661 5.7C2.30377 4.63014 2.77613 3.62608 3.55754 2.89224C4.33894 2.15839 5.37065 1.74993 6.44261 1.75H6.99961V1C6.99961 0.734784 7.10497 0.48043 7.29251 0.292893C7.48004 0.105357 7.7344 0 7.99961 0C8.26483 0 8.51919 0.105357 8.70672 0.292893Z" fill="#860579"/>
</svg>
