<svg width="20" height="20" viewBox="0 0 20 20" fill="none" xmlns="http://www.w3.org/2000/svg">
    <path d="M10 -0.00195312C15.524 -0.00195312 20.002 4.47605 20.002 10C20.002 15.523 15.524 20 10 20C4.476 20 1.6749e-07 15.523 1.6749e-07 10C-0.000999833 4.47605 4.476 -0.00195312 10 -0.00195312ZM9.996 8.24805C9.75093 8.24838 9.51452 8.3387 9.33165 8.50184C9.14878 8.66499 9.03218 8.88961 9.004 9.13305L8.997 9.24905L9.001 14.751L9.007 14.867C9.03495 15.111 9.15164 15.3361 9.33485 15.4995C9.51807 15.6629 9.75499 15.7532 10.0005 15.7532C10.246 15.7532 10.4829 15.6629 10.6661 15.4995C10.8494 15.3361 10.9661 15.111 10.994 14.867L11 14.75L10.996 9.24805L10.989 9.13105C10.9601 8.8878 10.8429 8.66363 10.6597 8.50106C10.4765 8.33848 10.24 8.24881 9.995 8.24905M10 4.50005C9.66808 4.50005 9.34976 4.6319 9.11506 4.8666C8.88035 5.1013 8.7485 5.41963 8.7485 5.75155C8.7485 6.08347 8.88035 6.40179 9.11506 6.63649C9.34976 6.87119 9.66808 7.00305 10 7.00305C10.3319 7.00305 10.6502 6.87119 10.8849 6.63649C11.1196 6.40179 11.2515 6.08347 11.2515 5.75155C11.2515 5.41963 11.1196 5.1013 10.8849 4.8666C10.6502 4.6319 10.3319 4.50005 10 4.50005Z" fill="#860579"/>
</svg>
