<svg width="25" height="24" viewBox="0 0 25 24" fill="none" xmlns="http://www.w3.org/2000/svg">
    <path d="M18.077 4.43152L16.077 3.38197C14.3214 2.46066 13.4436 2 12.4993 2C11.555 2 10.6772 2.46066 8.92158 3.38197L6.92158 4.43152C5.14784 5.36234 4.10519 5.9095 3.45898 6.64132L12.4993 11.1615L21.5396 6.64132C20.8934 5.9095 19.8508 5.36234 18.077 4.43152Z" fill="#860579"/>
    <path d="M22.2484 7.96436L13.25 12.4635V21.904C13.9679 21.7252 14.7848 21.2965 16.0777 20.618L18.0777 19.5685C20.2294 18.4393 21.3052 17.8748 21.9026 16.8603C22.5 15.8458 22.5 14.5833 22.5 12.0585V11.9415C22.5 10.0489 22.5 8.86559 22.2484 7.96436Z" fill="#860579"/>
    <path d="M11.75 21.904V12.4635L2.75164 7.96436C2.5 8.86559 2.5 10.0489 2.5 11.9415V12.0585C2.5 14.5833 2.5 15.8458 3.0974 16.8603C3.69479 17.8748 4.77063 18.4393 6.92229 19.5685L8.92229 20.618C10.2152 21.2965 11.0321 21.7252 11.75 21.904Z" fill="#860579"/>
</svg>
