<svg width="24" height="24" viewBox="0 0 24 24" fill="none" xmlns="http://www.w3.org/2000/svg">
    <path fill-rule="evenodd" clip-rule="evenodd" d="M12.5932 23.2579L12.5822 23.2599L12.5112 23.2949L12.4912 23.2989L12.4772 23.2949L12.4062 23.2599C12.3955 23.2566 12.3875 23.2583 12.3822 23.2649L12.3782 23.2749L12.3612 23.7029L12.3662 23.7229L12.3762 23.7359L12.4802 23.8099L12.4952 23.8139L12.5072 23.8099L12.6112 23.7359L12.6232 23.7199L12.6272 23.7029L12.6102 23.2759C12.6075 23.2653 12.6018 23.2593 12.5932 23.2579ZM12.8582 23.1449L12.8452 23.1469L12.6602 23.2399L12.6502 23.2499L12.6472 23.2609L12.6652 23.6909L12.6702 23.7029L12.6782 23.7099L12.8792 23.8029C12.8918 23.8063 12.9015 23.8036 12.9082 23.7949L12.9122 23.7809L12.8782 23.1669C12.8748 23.1549 12.8682 23.1476 12.8582 23.1449ZM12.1432 23.1469C12.1388 23.1443 12.1335 23.1434 12.1285 23.1445C12.1234 23.1456 12.119 23.1487 12.1162 23.1529L12.1102 23.1669L12.0762 23.7809C12.0768 23.7929 12.0825 23.8009 12.0932 23.8049L12.1082 23.8029L12.3092 23.7099L12.3192 23.7019L12.3232 23.6909L12.3402 23.2609L12.3372 23.2489L12.3272 23.2389L12.1432 23.1469Z" fill="#303030"/>
    <path fill-rule="evenodd" clip-rule="evenodd" d="M4 5C4 4.20435 4.31607 3.44129 4.87868 2.87868C5.44129 2.31607 6.20435 2 7 2H17C17.7956 2 18.5587 2.31607 19.1213 2.87868C19.6839 3.44129 20 4.20435 20 5V21C19.9999 21.1883 19.9466 21.3728 19.8462 21.5322C19.7459 21.6916 19.6025 21.8194 19.4327 21.9009C19.2629 21.9824 19.0736 22.0143 18.8864 21.9929C18.6993 21.9715 18.522 21.8977 18.375 21.78L16.5 20.28L14.625 21.78C14.4329 21.9339 14.1908 22.0115 13.945 21.9981C13.6993 21.9846 13.4671 21.881 13.293 21.707L12 20.414L10.707 21.707C10.533 21.8811 10.3009 21.9849 10.0551 21.9986C9.80938 22.0122 9.56721 21.9348 9.375 21.781L7.5 20.28L5.625 21.78C5.47797 21.8977 5.30069 21.9715 5.11356 21.9929C4.92643 22.0143 4.73707 21.9824 4.56727 21.9009C4.39747 21.8194 4.25414 21.6916 4.15378 21.5322C4.05342 21.3728 4.00012 21.1883 4 21V5ZM7 4C6.73478 4 6.48043 4.10536 6.29289 4.29289C6.10536 4.48043 6 4.73478 6 5V18.92L6.875 18.22C7.05236 18.078 7.27279 18.0006 7.5 18.0006C7.72721 18.0006 7.94764 18.078 8.125 18.22L9.925 19.66L11.293 18.293C11.4805 18.1055 11.7348 18.0002 12 18.0002C12.2652 18.0002 12.5195 18.1055 12.707 18.293L14.074 19.66L15.875 18.22C16.0524 18.078 16.2728 18.0006 16.5 18.0006C16.7272 18.0006 16.9476 18.078 17.125 18.22L18 18.92V5C18 4.73478 17.8946 4.48043 17.7071 4.29289C17.5196 4.10536 17.2652 4 17 4H7ZM8 9C8 8.73478 8.10536 8.48043 8.29289 8.29289C8.48043 8.10536 8.73478 8 9 8H15C15.2652 8 15.5196 8.10536 15.7071 8.29289C15.8946 8.48043 16 8.73478 16 9C16 9.26522 15.8946 9.51957 15.7071 9.70711C15.5196 9.89464 15.2652 10 15 10H9C8.73478 10 8.48043 9.89464 8.29289 9.70711C8.10536 9.51957 8 9.26522 8 9ZM9 12C8.73478 12 8.48043 12.1054 8.29289 12.2929C8.10536 12.4804 8 12.7348 8 13C8 13.2652 8.10536 13.5196 8.29289 13.7071C8.48043 13.8946 8.73478 14 9 14H12C12.2652 14 12.5196 13.8946 12.7071 13.7071C12.8946 13.5196 13 13.2652 13 13C13 12.7348 12.8946 12.4804 12.7071 12.2929C12.5196 12.1054 12.2652 12 12 12H9Z" fill="#303030"/>
</svg>
