<svg width="40" height="41" viewBox="0 0 40 41" fill="none" xmlns="http://www.w3.org/2000/svg">
    <path d="M34.4695 16.728C34.4414 16.6683 34.4134 16.6062 34.3842 16.5477C34.3769 16.5306 34.3683 16.5148 34.3598 16.4965C34.1625 16.0904 33.9533 15.6986 33.7324 15.3209C33.7227 15.3051 33.7141 15.2904 33.7056 15.2734C33.4742 14.8811 33.2305 14.5047 32.9747 14.1441L32.9406 14.0978C32.6738 13.7189 32.3948 13.3583 32.1061 13.0196C32.0945 13.0038 32.0819 12.9887 32.0683 12.9746C31.7657 12.6187 31.4449 12.2787 31.1071 11.9561L31.0632 11.9135C30.7078 11.5762 30.3319 11.2613 29.9376 10.9705L29.8888 10.934C29.4605 10.6177 29.0066 10.3378 28.5317 10.097L28.4684 10.0654C27.8864 9.77381 27.2651 9.56862 26.6239 9.45624C26.591 9.45624 26.5569 9.44406 26.524 9.4404C25.6576 9.28824 24.7652 9.40725 23.969 9.7812C23.1727 10.1551 22.5112 10.7658 22.075 11.5297C22.0555 11.5577 22.0396 11.587 22.0226 11.6162C21.6981 12.1803 21.4572 12.7884 21.3075 13.4216C21.3002 13.4448 21.2953 13.4679 21.2904 13.4911C21.1677 14.0114 21.0895 14.5412 21.0565 15.0748C21.0553 15.0951 21.0553 15.1154 21.0565 15.1357C21.0261 15.6246 21.0261 16.1149 21.0565 16.6037V16.6634C21.0883 17.128 21.1436 17.5908 21.2222 18.0498C21.2246 18.0691 21.2282 18.0882 21.2332 18.107C21.3087 18.5456 21.4061 18.9915 21.5255 19.4398L21.5402 19.4946C21.6547 19.9202 21.7887 20.3474 21.9422 20.7762C21.9495 20.7928 21.9556 20.8099 21.9605 20.8274C22.1099 21.2384 22.2776 21.6497 22.4636 22.0615C22.4709 22.0798 22.4782 22.0956 22.4855 22.1127L22.5696 22.2942C22.7316 22.6402 22.9034 22.9776 23.0825 23.3029L23.1093 23.3528C23.3285 23.75 23.5596 24.1317 23.8024 24.498C23.812 24.5141 23.8226 24.5295 23.8341 24.5443C24.0887 24.9293 24.3555 25.2935 24.6309 25.6407L24.6662 25.6846C24.9618 26.0541 25.268 26.4005 25.5848 26.7237C25.5972 26.7388 25.6106 26.7531 25.625 26.7664C25.9607 27.1116 26.3162 27.437 26.6897 27.741C26.7068 27.7532 26.7226 27.7666 26.7384 27.78C27.1402 28.1025 27.5653 28.3949 28.0103 28.6547L28.0675 28.6876C28.5814 28.9862 29.1279 29.2245 29.6964 29.3978L29.778 29.4197C30.9402 29.7474 32.0732 29.7097 33.0673 29.2406C34.0613 28.7716 34.824 27.9249 35.3174 26.8236C35.3283 26.7981 35.3405 26.7725 35.3503 26.7469C35.5827 26.1997 35.7507 25.6273 35.851 25.0413C35.851 25.0194 35.8595 24.9963 35.8619 24.9756C35.9477 24.4678 35.9953 23.9542 36.0045 23.4393C36.0045 23.4186 36.0045 23.3967 36.0045 23.376C36.0107 22.8952 35.9896 22.4144 35.9411 21.936C35.9399 21.9164 35.9374 21.8969 35.9338 21.8775C35.8894 21.4167 35.8215 20.9585 35.7304 20.5046C35.7304 20.4851 35.723 20.4668 35.7194 20.4485C35.63 20.0148 35.5196 19.5771 35.388 19.1353C35.3841 19.1167 35.3793 19.0984 35.3734 19.0804C35.2467 18.6597 35.1013 18.2378 34.9373 17.8147C34.93 17.7976 34.9227 17.7806 34.9166 17.7635C34.7801 17.4159 34.6311 17.0707 34.4695 16.728Z" fill="#FFD700" stroke="#383F42" stroke-width="0.119584" stroke-miterlimit="10"/>
    <path d="M34.4695 16.728C34.4414 16.6683 34.4134 16.6062 34.3842 16.5477C34.3769 16.5306 34.3683 16.5148 34.3598 16.4965C34.1625 16.0904 33.9533 15.6986 33.7324 15.3209C33.7227 15.3051 33.7141 15.2904 33.7056 15.2734C33.4742 14.8811 33.2305 14.5047 32.9747 14.1441L32.9406 14.0978C32.6738 13.7189 32.3948 13.3583 32.1061 13.0196C32.0945 13.0038 32.0819 12.9887 32.0683 12.9746C31.7657 12.6187 31.4449 12.2787 31.1071 11.9561L31.0632 11.9135C30.7078 11.5762 30.3319 11.2613 29.9376 10.9705L29.8888 10.934C29.4605 10.6177 29.0066 10.3378 28.5317 10.097L28.4684 10.0654C27.8864 9.77381 27.2651 9.56862 26.6239 9.45624L26.524 9.4404C25.6576 9.28824 24.7652 9.40725 23.969 9.7812C23.1727 10.1551 22.5112 10.7658 22.075 11.5297C22.0555 11.5577 22.0396 11.587 22.0226 11.6162C21.6981 12.1803 21.4572 12.7884 21.3075 13.4216C21.3002 13.4448 21.2953 13.4679 21.2904 13.4911C21.1677 14.0114 21.0895 14.5412 21.0565 15.0748C21.0553 15.0951 21.0553 15.1154 21.0565 15.1357C21.0261 15.6246 21.0261 16.1149 21.0565 16.6037V16.6634C21.0883 17.128 21.1436 17.5908 21.2222 18.0498C21.2246 18.0691 21.2282 18.0882 21.2332 18.107C21.3087 18.5456 21.4061 18.9915 21.5255 19.4398L21.5402 19.4946C21.6547 19.9202 21.7887 20.3474 21.9422 20.7762C21.9495 20.7928 21.9556 20.8099 21.9605 20.8274C22.1099 21.2384 22.2776 21.6497 22.4636 22.0615C22.4709 22.0798 22.4782 22.0956 22.4855 22.1127L22.5696 22.2942C22.7316 22.6402 22.9034 22.9776 23.0825 23.3029L23.1093 23.3528C23.3285 23.75 23.5596 24.1317 23.8024 24.498C23.812 24.5141 23.8226 24.5295 23.8341 24.5443C24.0887 24.9293 24.3555 25.2935 24.6309 25.6407L24.6662 25.6846C24.9618 26.0541 25.268 26.4005 25.5848 26.7237C25.5972 26.7388 25.6106 26.7531 25.625 26.7664C25.9607 27.1116 26.3162 27.437 26.6897 27.741C26.7068 27.7532 26.7226 27.7666 26.7384 27.78C27.1402 28.1025 27.5653 28.3949 28.0103 28.6547L28.0675 28.6876C28.5814 28.9862 29.1279 29.2245 29.6964 29.3978L29.778 29.4197C30.9402 29.7474 32.0732 29.7097 33.0673 29.2406C34.0613 28.7716 34.824 27.9249 35.3174 26.8236L35.3503 26.7469C35.5827 26.1997 35.7507 25.6273 35.851 25.0413C35.851 25.0194 35.8595 24.9963 35.8619 24.9756C35.9477 24.4678 35.9953 23.9542 36.0045 23.4393C36.0045 23.4186 36.0045 23.3967 36.0045 23.376C36.0107 22.8952 35.9896 22.4144 35.9411 21.936C35.9399 21.9164 35.9374 21.8969 35.9338 21.8775C35.8894 21.4167 35.8215 20.9585 35.7304 20.5046C35.7304 20.4851 35.723 20.4668 35.7194 20.4485C35.63 20.0148 35.5196 19.5771 35.388 19.1353C35.3841 19.1167 35.3793 19.0984 35.3734 19.0804C35.2467 18.6597 35.1013 18.2378 34.9373 17.8147C34.93 17.7976 34.9227 17.7806 34.9166 17.7635C34.7801 17.4159 34.6311 17.0707 34.4695 16.728Z" fill="#FFD700" stroke="#383F42" stroke-width="0.119584" stroke-linejoin="round"/>
    <path d="M29.6963 29.3978L29.7779 29.4197C30.9401 29.7474 32.0731 29.7097 33.0672 29.2406C34.0613 28.7716 34.8239 27.9249 35.3173 26.8236L29.6963 29.3978Z" fill="#CFCFCF" stroke="#383F42" stroke-width="0.119584" stroke-linejoin="round"/>
    <path d="M35.868 24.9731L28.0103 28.6522L28.0675 28.6851C28.5812 28.9845 29.1278 29.2237 29.6963 29.3978L29.7779 29.4197L35.3539 26.742C35.5863 26.1948 35.7544 25.6224 35.8546 25.0364C35.8607 25.012 35.8655 24.9938 35.868 24.9731Z" fill="#333333" stroke="#383F42" stroke-width="0.119584" stroke-linejoin="round"/>
    <path d="M36.0115 23.3735L26.6895 27.7385C26.7065 27.7507 26.7223 27.7641 26.7382 27.7775C27.14 28.1 27.5651 28.3924 28.01 28.6522L28.0673 28.6851L35.8568 25.0388C35.8568 25.0169 35.8653 24.9938 35.8678 24.973C35.9535 24.4652 36.0012 23.9517 36.0103 23.4368C36.0103 23.4161 36.0115 23.3942 36.0115 23.3735Z" fill="#7D7D7D" stroke="#383F42" stroke-width="0.119584" stroke-linejoin="round"/>
    <path d="M35.9411 21.8752L25.5859 26.7238C25.5984 26.7389 25.6118 26.7531 25.6261 26.7664C25.9619 27.1116 26.3174 27.437 26.6909 27.741C26.7079 27.7532 26.7238 27.7666 26.7396 27.78L36.0117 23.4394C36.0117 23.4187 36.0117 23.3968 36.0117 23.376C36.018 22.8952 35.9968 22.4145 35.9484 21.9361C35.9473 21.9156 35.9448 21.8953 35.9411 21.8752Z" fill="#D4D4D4" stroke="#383F42" stroke-width="0.119584" stroke-linejoin="round"/>
    <path d="M35.7194 20.4485L24.6333 25.6407L24.6686 25.6845C24.9643 26.0541 25.2704 26.4005 25.5872 26.7237C25.5996 26.7388 25.6131 26.753 25.6274 26.7664L35.9509 21.9336C35.9496 21.9139 35.9472 21.8944 35.9436 21.8751C35.8958 21.4149 35.8247 20.9575 35.7304 20.5045C35.7279 20.4851 35.7194 20.4668 35.7194 20.4485Z" fill="#CFCFCF" stroke="#383F42" stroke-width="0.119584" stroke-linejoin="round"/>
    <path d="M35.3732 19.0804L23.7998 24.498C23.8094 24.5141 23.8199 24.5295 23.8315 24.5443C24.0861 24.9293 24.3529 25.2935 24.6282 25.6407L24.6635 25.6846L35.7301 20.5046C35.7301 20.4851 35.7228 20.4668 35.7192 20.4485C35.6298 20.0148 35.5194 19.5771 35.3878 19.1353C35.3839 19.1167 35.3791 19.0984 35.3732 19.0804Z" fill="#CFCFCF" stroke="#383F42" stroke-width="0.119584" stroke-linejoin="round"/>
    <path d="M34.9166 17.7637L23.0825 23.3067L23.1093 23.3566C23.3286 23.7538 23.5597 24.1355 23.8025 24.5018C23.8121 24.5179 23.8227 24.5334 23.8342 24.5481L35.3881 19.1391C35.3842 19.1205 35.3793 19.1022 35.3735 19.0842C35.2468 18.6635 35.1014 18.2416 34.9373 17.8185C34.93 17.7978 34.9227 17.7807 34.9166 17.7637Z" fill="#E8E8E8" stroke="#383F42" stroke-width="0.119584" stroke-linejoin="round"/>
    <path d="M34.4692 16.7279C34.4412 16.6682 34.4132 16.6061 34.384 16.5476C34.3767 16.5306 34.3681 16.5147 34.3596 16.4965L22.4634 22.0663C22.4707 22.0846 22.478 22.1004 22.4853 22.1175L22.5694 22.299C22.7314 22.645 22.9032 22.9824 23.0823 23.3077L23.1091 23.3577L34.9371 17.8195C34.9297 17.8024 34.9224 17.7854 34.9163 17.7683C34.7799 17.4175 34.6309 17.0707 34.4692 16.7279Z" fill="#F7F7F7" stroke="#383F42" stroke-width="0.119584" stroke-linejoin="round"/>
    <path d="M34.379 16.5429C34.3717 16.5259 34.3632 16.5101 34.3547 16.4918C34.1573 16.0857 33.9482 15.6938 33.7273 15.3162C33.7175 15.3003 33.709 15.2857 33.7005 15.2687L21.937 20.7764C21.9444 20.7929 21.9505 20.81 21.9553 20.8275C22.1047 21.2385 22.2724 21.6499 22.4584 22.0616C22.4657 22.0799 22.473 22.0957 22.4804 22.1128L34.379 16.5429Z" fill="#FFD700" stroke="#383F42" stroke-width="0.119584" stroke-linejoin="round"/>
    <path d="M33.7323 15.316C33.7225 15.3002 33.714 15.2856 33.7055 15.2685C33.474 14.8762 33.2303 14.4998 32.9745 14.1392L32.9404 14.0929L21.5205 19.4398L21.5351 19.4946C21.6496 19.9202 21.7836 20.3474 21.9371 20.7762C21.9445 20.7928 21.9506 20.8099 21.9554 20.8274L33.7323 15.316Z" fill="#FFD700" stroke="#383F42" stroke-width="0.119584" stroke-linejoin="round"/>
    <path d="M32.9795 14.1392L32.9454 14.0929C32.6786 13.714 32.3996 13.3534 32.1109 13.0147C32.0993 12.9989 32.0867 12.9838 32.0731 12.9697L21.2222 18.0498C21.2245 18.0691 21.2282 18.0882 21.2331 18.107C21.3087 18.5456 21.4061 18.9915 21.5255 19.4398L21.5401 19.4946L32.9795 14.1392Z" fill="#FFD700" stroke="#383F42" stroke-width="0.119584" stroke-linejoin="round"/>
    <path d="M32.111 13.0149C32.0995 12.999 32.0869 12.984 32.0733 12.9698C31.7707 12.6139 31.4499 12.274 31.1121 11.9514L31.0682 11.9087L21.0518 16.599V16.6587C21.085 17.125 21.1419 17.5894 21.2223 18.0499C21.2247 18.0692 21.2283 18.0884 21.2333 18.1072L32.111 13.0149Z" fill="#CFCFCF" stroke="#383F42" stroke-width="0.119584" stroke-linejoin="round"/>
    <path d="M31.1117 11.9514L31.0678 11.9087C30.7124 11.5715 30.3365 11.2566 29.9422 10.9658L29.8935 10.9293L21.0502 15.0713C21.0489 15.0916 21.0489 15.1119 21.0502 15.1322C21.0197 15.6211 21.0197 16.1114 21.0502 16.6002V16.6599L31.1117 11.9514Z" fill="#D4D4D4" stroke="#383F42" stroke-width="0.119584" stroke-linejoin="round"/>
    <path d="M29.9422 10.9657L29.8935 10.9291C29.4635 10.6143 29.0079 10.336 28.5315 10.0971L28.4682 10.0654L21.3012 13.4217C21.2939 13.4448 21.289 13.468 21.2841 13.4911C21.1614 14.0114 21.0832 14.5412 21.0502 15.0748C21.049 15.0951 21.049 15.1155 21.0502 15.1357L29.9422 10.9657Z" fill="#7D7D7D" stroke="#383F42" stroke-width="0.119584" stroke-linejoin="round"/>
    <path d="M28.5316 10.0969L28.4682 10.0652C27.8863 9.77368 27.2649 9.56849 26.6238 9.45611L22.0687 11.5271C22.0492 11.5552 22.0334 11.5844 22.0164 11.6136C21.6919 12.1777 21.451 12.7858 21.3012 13.4191C21.2939 13.4422 21.2891 13.4654 21.2842 13.4885L28.5316 10.0969Z" fill="#333333" stroke="#383F42" stroke-width="0.119584" stroke-linejoin="round"/>
    <path d="M26.5239 9.44407C25.6578 9.29157 24.7658 9.41004 23.9695 9.7833C23.1733 10.1566 22.5116 10.7665 22.0748 11.5297C22.0554 11.5577 22.0395 11.587 22.0225 11.6162L26.5239 9.44407Z" fill="#CFCFCF" stroke="#383F42" stroke-width="0.119584" stroke-linejoin="round"/>
    <path d="M33.4457 17.2002C35.9609 22.5721 35.336 28.1742 32.0498 29.7128C28.7637 31.2515 24.0607 28.144 21.5455 22.7721C19.0302 17.4002 19.6552 11.7981 22.9413 10.2594C26.2275 8.7208 30.9304 11.8283 33.4457 17.2002Z" fill="#FFD700" stroke="#383F42" stroke-width="0.119584" stroke-miterlimit="10"/>
    <path d="M29.5771 13.3961C26.0807 13.3693 23.0777 13.2633 21.0615 11.9793C21.506 11.2347 22.1597 10.6373 22.9413 10.2616C25.3924 9.11276 28.6317 10.5515 31.1645 13.5862C30.6434 13.4677 30.1114 13.404 29.5771 13.3961Z" fill="#383F42" stroke="#383F42" stroke-width="0.119584" stroke-miterlimit="10"/>
    <path d="M32.2546 17.7567C34.4418 22.4279 33.991 27.2559 31.2478 28.5403C28.5045 29.8248 24.5077 27.0793 22.3205 22.4081C20.1334 17.7369 20.5842 12.909 23.3274 11.6245C26.0706 10.3401 30.0675 13.0856 32.2546 17.7567Z" fill="#FFD700" stroke="#383F42" stroke-width="0.119584" stroke-linejoin="round"/>
    <path d="M32.1561 26.3292C32.4387 26.5082 32.7031 26.669 32.9541 26.8165C32.5545 27.5998 31.9795 28.2028 31.2485 28.5476C28.505 29.828 24.5116 27.0833 22.3187 22.41C21.8741 21.4647 21.5271 20.4765 21.2832 19.4606C21.971 19.4727 22.656 19.5514 23.3286 19.6958C26.6861 20.395 27.9653 23.6648 32.1561 26.3292Z" fill="#383F42" stroke="#383F42" stroke-width="0.119584" stroke-miterlimit="10"/>
    <path d="M22.7986 22.187C24.9208 26.7177 28.7498 29.4417 31.4811 28.4233C31.4056 28.4659 31.3276 28.5073 31.2484 28.5451C28.5049 29.8279 24.5115 27.0832 22.3186 22.41C20.1258 17.7368 20.5826 12.9076 23.3261 11.6272C23.4053 11.5895 23.4869 11.5554 23.5698 11.5249C21.0382 12.9697 20.6752 17.6515 22.7986 22.187Z" fill="#383F42" stroke="#383F42" stroke-width="0.119584" stroke-miterlimit="10"/>
    <path d="M24.6204 19.5231C24.6204 19.4768 24.6204 19.433 24.6204 19.3867V19.3367C24.6139 18.9357 24.5838 18.5355 24.5303 18.138C24.5303 18.1209 24.5303 18.1051 24.523 18.0892C24.4684 17.6852 24.389 17.2848 24.2854 16.8905C24.2854 16.8751 24.2805 16.858 24.2708 16.8393C24.1641 16.4321 24.0315 16.0321 23.8736 15.6418L23.8529 15.5906C23.6843 15.1793 23.4894 14.7793 23.2694 14.3931C23.261 14.3755 23.2517 14.3584 23.2414 14.3419C23.0012 13.9241 22.7321 13.5235 22.4361 13.1431C22.4239 13.1261 22.4105 13.1103 22.3971 13.0944C22.0613 12.6657 21.6914 12.2648 21.291 11.8957L21.2361 11.8457C20.7457 11.3958 20.2128 10.9943 19.6451 10.6469L19.561 10.597C18.5783 10.0062 17.5036 9.58408 16.3814 9.34829C14.9579 9.04779 13.4874 9.04779 12.0639 9.34829C10.9418 9.58408 9.867 10.0062 8.88428 10.597L8.80022 10.6469C8.23248 10.9943 7.69966 11.3958 7.20918 11.8457L7.15436 11.8957C6.75495 12.2654 6.38548 12.6663 6.04941 13.0944C6.03601 13.1103 6.02261 13.1261 6.01042 13.1431C5.71443 13.5235 5.44536 13.9241 5.20516 14.3419C5.19484 14.3584 5.18549 14.3755 5.17714 14.3931C4.95664 14.7791 4.76171 15.1791 4.5936 15.5906L4.57289 15.6418C4.41559 16.0323 4.28295 16.4322 4.17574 16.8393C4.16986 16.856 4.16538 16.8731 4.16234 16.8905C4.0561 17.2846 3.97472 17.685 3.91868 18.0892L3.91016 18.1355C3.85707 18.533 3.82737 18.9333 3.82122 19.3343C3.82001 19.3509 3.82001 19.3676 3.82122 19.3843C3.82122 19.4305 3.82122 19.4744 3.82122 19.5207C3.82121 19.8755 3.83911 20.23 3.87483 20.583C3.87483 20.6001 3.87483 20.6159 3.88092 20.633C3.92275 21.0362 3.98906 21.4365 4.07949 21.8317C4.07949 21.8488 4.08559 21.8658 4.09046 21.8817C4.185 22.288 4.30379 22.6883 4.44619 23.0804C4.4535 23.0963 4.45837 23.1133 4.46446 23.1292C4.61951 23.5406 4.80058 23.9419 5.00658 24.3304C5.01389 24.3474 5.02364 24.3645 5.03217 24.3815C5.25206 24.7973 5.50036 25.1974 5.7753 25.5791C5.78649 25.5968 5.7987 25.6139 5.81185 25.6302C6.1198 26.0552 6.45988 26.456 6.82909 26.829L6.87782 26.8789C7.32012 27.3208 7.80123 27.722 8.31536 28.0777L8.38723 28.1264C9.12036 28.625 9.91418 29.0278 10.7494 29.3252L10.892 29.3751C13.0561 30.1028 15.3989 30.1028 17.5631 29.3751L17.7069 29.3252C18.5399 29.0274 19.3313 28.6241 20.0617 28.1252C20.0861 28.1094 20.1105 28.0935 20.1336 28.0765C20.6477 27.7208 21.1289 27.3196 21.5712 26.8777C21.5882 26.8619 21.604 26.8448 21.6199 26.8278C21.9895 26.4548 22.33 26.054 22.6383 25.629L22.6749 25.5778C22.9494 25.1962 23.1973 24.7961 23.4168 24.3803C23.4267 24.3638 23.4356 24.3467 23.4436 24.3291C23.6471 23.9415 23.8253 23.541 23.9772 23.1304L23.9955 23.0816C24.1379 22.6895 24.2567 22.2892 24.3512 21.8829C24.3512 21.8671 24.3597 21.85 24.3622 21.8329C24.453 21.4378 24.5197 21.0374 24.562 20.6342C24.562 20.6171 24.562 20.6013 24.562 20.5842C24.5993 20.2317 24.6188 19.8776 24.6204 19.5231Z" fill="#FFD700" stroke="#383F42" stroke-width="0.119584" stroke-linejoin="round"/>
    <path d="M17.7006 29.3252H10.7432L10.8857 29.3751C13.0499 30.1028 15.3927 30.1028 17.5568 29.3751L17.7006 29.3252Z" fill="#FFD700" stroke="#383F42" stroke-width="0.119584" stroke-linejoin="round"/>
    <path d="M20.1334 28.0778H8.30908L8.38096 28.1265C9.11408 28.6251 9.90791 29.028 10.7431 29.3253L10.8857 29.3752H17.5544L17.6981 29.3253C18.5341 29.0282 19.3284 28.6249 20.0616 28.1253C20.0859 28.1107 20.1127 28.0949 20.1334 28.0778Z" fill="#CFCFCF" stroke="#383F42" stroke-width="0.119584" stroke-linejoin="round"/>
    <path d="M21.6196 26.829H6.82275L6.87148 26.879C7.31378 27.3208 7.7949 27.722 8.30902 28.0777L8.3809 28.1265H20.0615C20.0859 28.1106 20.1102 28.0948 20.1334 28.0777C20.6475 27.722 21.1286 27.3208 21.5709 26.879C21.588 26.8631 21.6038 26.8461 21.6196 26.829Z" fill="#333333" stroke="#383F42" stroke-width="0.119584" stroke-linejoin="round"/>
    <path d="M22.6711 25.579H5.76904C5.78024 25.5968 5.79244 25.6139 5.80559 25.6302C6.11354 26.0552 6.45362 26.4559 6.82283 26.829L6.87156 26.8789H21.5746C21.5917 26.8631 21.6075 26.846 21.6234 26.829C21.993 26.456 22.3335 26.0552 22.6418 25.6302L22.6711 25.579Z" fill="#7D7D7D" stroke="#383F42" stroke-width="0.119584" stroke-linejoin="round"/>
    <path d="M23.4434 24.3303H5.00635C5.01366 24.3473 5.0234 24.3644 5.03193 24.3814C5.25183 24.7972 5.50013 25.1973 5.77506 25.579C5.78626 25.5967 5.79846 25.6138 5.81161 25.6301H22.6381L22.6747 25.579C22.9492 25.1973 23.1971 24.7972 23.4166 24.3814C23.4265 24.3649 23.4354 24.3478 23.4434 24.3303Z" fill="#D4D4D4" stroke="#383F42" stroke-width="0.119584" stroke-linejoin="round"/>
    <path d="M23.9956 23.0829H4.44873C4.45604 23.0988 4.46091 23.1158 4.467 23.1317C4.62135 23.5423 4.80161 23.9427 5.00669 24.3304C5.014 24.3475 5.02375 24.3645 5.03227 24.3816H23.4279C23.4378 24.3651 23.4467 24.348 23.4547 24.3304C23.6582 23.9428 23.8364 23.5423 23.9883 23.1317L23.9956 23.0829Z" fill="#CFCFCF" stroke="#383F42" stroke-width="0.119584" stroke-linejoin="round"/>
    <path d="M24.3623 21.8342H4.08203C4.08203 21.8512 4.08812 21.8683 4.093 21.8841C4.18753 22.2904 4.30632 22.6907 4.44872 23.0829C4.45603 23.0987 4.46091 23.1158 4.467 23.1316H23.9773L23.9956 23.0829C24.138 22.6907 24.2568 22.2904 24.3513 21.8841C24.355 21.8683 24.3598 21.8512 24.3623 21.8342Z" fill="#CFCFCF" stroke="#383F42" stroke-width="0.119584" stroke-linejoin="round"/>
    <path d="M24.5665 20.5854H3.87695C3.87695 20.6024 3.87695 20.6183 3.88304 20.6353C3.92487 21.0386 3.99119 21.4389 4.08162 21.8341C4.08162 21.8511 4.08771 21.8682 4.09258 21.884H24.3509C24.3509 21.8682 24.3594 21.8511 24.3619 21.8341C24.4527 21.4389 24.5194 21.0386 24.5617 20.6353C24.5629 20.6183 24.5653 20.6024 24.5665 20.5854Z" fill="#E8E8E8" stroke="#383F42" stroke-width="0.119584" stroke-linejoin="round"/>
    <path d="M24.6204 19.523C24.6204 19.4767 24.6204 19.4328 24.6204 19.3865V19.3366H3.82611C3.82489 19.3532 3.82489 19.3699 3.82611 19.3865C3.82611 19.4328 3.82611 19.4767 3.82611 19.523C3.8261 19.8778 3.84399 20.2323 3.87971 20.5853C3.87971 20.6024 3.87971 20.6182 3.8858 20.6353H24.562C24.562 20.6182 24.562 20.6024 24.562 20.5853C24.5993 20.2324 24.6188 19.8779 24.6204 19.523Z" fill="#F7F7F7" stroke="#383F42" stroke-width="0.119584" stroke-linejoin="round"/>
    <path d="M24.6204 19.3867V19.3368C24.6139 18.9358 24.5838 18.5355 24.5303 18.138C24.5303 18.121 24.5303 18.1051 24.523 18.0893H3.92234L3.91016 18.1356C3.85707 18.5331 3.82737 18.9334 3.82122 19.3343C3.82001 19.351 3.82001 19.3677 3.82122 19.3843L24.6204 19.3867Z" fill="#FFD700" stroke="#383F42" stroke-width="0.119584" stroke-linejoin="round"/>
    <path d="M24.5291 18.1355C24.5291 18.1184 24.5291 18.1026 24.5218 18.0868C24.4671 17.6827 24.3878 17.2824 24.2842 16.888C24.2842 16.8726 24.2793 16.8555 24.2696 16.8368H4.17452C4.16864 16.8535 4.16416 16.8706 4.16112 16.888C4.05488 17.2821 3.9735 17.6825 3.91747 18.0868L3.91016 18.1355H24.5291Z" fill="#FFD700" stroke="#383F42" stroke-width="0.119584" stroke-linejoin="round"/>
    <path d="M24.2842 16.8904C24.2842 16.8749 24.2793 16.8579 24.2696 16.8392C24.1629 16.432 24.0303 16.032 23.8724 15.6417L23.8517 15.5905H4.59239L4.57168 15.6417C4.41439 16.0322 4.28174 16.4321 4.17453 16.8392C4.16866 16.8559 4.16418 16.873 4.16113 16.8904H24.2842Z" fill="#FFD700" stroke="#383F42" stroke-width="0.119584" stroke-linejoin="round"/>
    <path d="M23.8723 15.6418L23.8516 15.5907C23.683 15.1794 23.4881 14.7794 23.2681 14.3931C23.2597 14.3756 23.2504 14.3585 23.24 14.342H5.20991C5.19959 14.3585 5.19024 14.3756 5.18189 14.3931C4.96139 14.7791 4.76646 15.1792 4.59835 15.5907L4.57764 15.6418H23.8723Z" fill="#CFCFCF" stroke="#383F42" stroke-width="0.119584" stroke-linejoin="round"/>
    <path d="M23.268 14.3931C23.2597 14.3755 23.2503 14.3584 23.24 14.3419C22.9998 13.9241 22.7307 13.5235 22.4348 13.1431C22.4226 13.1261 22.4092 13.1102 22.3958 13.0944H6.04805C6.03465 13.1102 6.02125 13.1261 6.00907 13.1431C5.71307 13.5235 5.444 13.9241 5.2038 14.3419C5.19349 14.3584 5.18413 14.3755 5.17578 14.3931H23.268Z" fill="#D4D4D4" stroke="#383F42" stroke-width="0.119584" stroke-linejoin="round"/>
    <path d="M22.435 13.1406C22.4228 13.1236 22.4094 13.1077 22.396 13.0919C22.0602 12.6631 21.6902 12.2623 21.2898 11.8931L21.235 11.8432H7.20804L7.15322 11.8931C6.75381 12.2629 6.38433 12.6637 6.04826 13.0919C6.03486 13.1077 6.02146 13.1236 6.00928 13.1406H22.435Z" fill="#7D7D7D" stroke="#383F42" stroke-width="0.119584" stroke-linejoin="round"/>
    <path d="M21.2894 11.8958L21.2346 11.8458C20.7441 11.3959 20.2113 10.9944 19.6436 10.647L19.5595 10.5971H8.88275L8.79869 10.647C8.23095 10.9944 7.69812 11.3959 7.20765 11.8458L7.15283 11.8958H21.2894Z" fill="#333333" stroke="#383F42" stroke-width="0.119584" stroke-linejoin="round"/>
    <path d="M19.6437 10.647L19.5596 10.597C18.5769 10.0062 17.5022 9.5841 16.38 9.34832H12.0625C10.9404 9.5841 9.86561 10.0062 8.88289 10.597L8.79883 10.647H19.6437Z" fill="#CFCFCF" stroke="#383F42" stroke-width="0.119584" stroke-linejoin="round"/>
    <path d="M13.399 9.1229C19.1422 9.1229 23.798 13.7787 23.798 19.5219C23.798 25.2651 19.1422 29.9209 13.399 29.9209C7.65579 29.9209 3 25.2651 3 19.5219C3 13.7787 7.65579 9.1229 13.399 9.1229Z" fill="#FFD700" stroke="#383F42" stroke-width="0.119584" stroke-linejoin="round"/>
    <path d="M13.3992 11.1623C18.0161 11.1623 21.7588 14.905 21.7588 19.5219C21.7588 24.1389 18.0161 27.8816 13.3992 27.8816C8.78229 27.8816 5.03955 24.1389 5.03955 19.5219C5.03955 14.905 8.78229 11.1623 13.3992 11.1623Z" fill="#FFD700" stroke="#383F42" stroke-width="0.119584" stroke-linejoin="round"/>
    <path d="M12.3549 19.0725C10.8065 15.9744 8.09099 15.0827 6.47803 14.8317C7.10485 13.9026 7.91212 13.1089 8.85184 12.498C9.79155 11.8871 10.8445 11.4714 11.9481 11.2757C13.0517 11.0799 14.1834 11.1081 15.2759 11.3585C16.3684 11.6089 17.3994 12.0765 18.3076 12.7334C19.2157 13.3903 19.9825 14.2231 20.5623 15.1823C21.1421 16.1415 21.5231 17.2075 21.6827 18.3169C21.8422 19.4263 21.777 20.5565 21.491 21.6402C21.205 22.7239 20.7039 23.7391 20.0177 24.6252C16.8051 24.3256 13.9959 22.3544 12.3549 19.0725Z" fill="#383F42"/>
    <path d="M5.03809 19.5219C5.03855 17.3449 5.88839 15.254 7.40683 13.6939C8.92527 12.1338 10.9925 11.2277 13.1687 11.1684H13.3027C11.1483 11.2586 9.1121 12.1778 7.6196 13.7341C6.12709 15.2904 5.29376 17.3632 5.29376 19.5195C5.29376 21.6758 6.12709 23.7487 7.6196 25.3049C9.1121 26.8612 11.1483 27.7805 13.3027 27.8706L13.1687 27.8816C10.9914 27.8222 8.92331 26.9153 7.4047 25.3539C5.8861 23.7925 5.03696 21.7 5.03809 19.5219Z" fill="#383F42" stroke="#383F42" stroke-width="0.119584" stroke-miterlimit="10"/>
</svg>
