<svg width="24" height="24" viewBox="0 0 24 24" fill="none" xmlns="http://www.w3.org/2000/svg">
    <path d="M18 7V17" stroke="#860579" stroke-width="1.5" stroke-linecap="round" stroke-linejoin="round"/>
    <path d="M6.972 5.26693C6.88355 5.19704 6.77719 5.15348 6.66513 5.14124C6.55306 5.129 6.43981 5.14859 6.33836 5.19775C6.23691 5.24691 6.15136 5.32365 6.09152 5.41919C6.03167 5.51473 5.99996 5.6252 6 5.73793V18.2619C6.00014 18.3746 6.032 18.4849 6.09191 18.5803C6.15183 18.6757 6.23739 18.7523 6.33881 18.8013C6.44022 18.8504 6.5534 18.8699 6.66537 18.8576C6.77735 18.8453 6.88362 18.8018 6.972 18.7319L14.903 12.4709C14.9742 12.4148 15.0317 12.3432 15.0712 12.2616C15.1108 12.1801 15.1313 12.0906 15.1313 11.9999C15.1313 11.9093 15.1108 11.8198 15.0712 11.7382C15.0317 11.6567 14.9742 11.5851 14.903 11.5289L6.972 5.26693Z" fill="#860579" stroke="#860579" stroke-width="1.5" stroke-linecap="round" stroke-linejoin="round"/>
</svg>
