<svg width="14" height="15" viewBox="0 0 14 15" fill="none" xmlns="http://www.w3.org/2000/svg">
    <path d="M7.00016 0.333252C10.6822 0.333252 13.6668 3.31792 13.6668 6.99992C13.6668 10.6819 10.6822 13.6666 7.00016 13.6666C3.31816 13.6666 0.333496 10.6819 0.333496 6.99992C0.333496 3.31792 3.31816 0.333252 7.00016 0.333252ZM7.00016 1.66659C5.58567 1.66659 4.22912 2.22849 3.22893 3.22868C2.22873 4.22888 1.66683 5.58543 1.66683 6.99992C1.66683 8.41441 2.22873 9.77096 3.22893 10.7712C4.22912 11.7713 5.58567 12.3333 7.00016 12.3333C8.41465 12.3333 9.7712 11.7713 10.7714 10.7712C11.7716 9.77096 12.3335 8.41441 12.3335 6.99992C12.3335 5.58543 11.7716 4.22888 10.7714 3.22868C9.7712 2.22849 8.41465 1.66659 7.00016 1.66659ZM7.00016 2.99992C7.16345 2.99994 7.32105 3.05989 7.44308 3.1684C7.5651 3.2769 7.64306 3.42642 7.66216 3.58859L7.66683 3.66658V6.72392L9.4715 8.52858C9.59106 8.64856 9.66048 8.80954 9.66565 8.97884C9.67082 9.14814 9.61135 9.31306 9.49933 9.4401C9.38731 9.56715 9.23113 9.64679 9.06251 9.66285C8.8939 9.67891 8.72549 9.63019 8.5915 9.52658L8.52883 9.47125L6.52883 7.47125C6.42522 7.36755 6.35867 7.23259 6.3395 7.08725L6.3335 6.99992V3.66658C6.3335 3.48977 6.40373 3.3202 6.52876 3.19518C6.65378 3.07016 6.82335 2.99992 7.00016 2.99992Z" fill="#FFA500"/>
</svg>
