<svg width="56" height="22" viewBox="0 0 56 22" fill="none" xmlns="http://www.w3.org/2000/svg">
    <path d="M15.6586 -0.000488281H18.4756V9.37333H15.6586V-0.000488281Z" fill="#EBCFAA"/>
    <path d="M18.4749 -0.000244141H29.7725V9.37357H18.4749V-0.000244141Z" fill="#DDAF72"/>
    <path d="M19.7372 1.1228H28.5107V9.37331H19.7372V1.1228Z" fill="#E4BF8E"/>
    <path d="M28.1055 1.1228H28.5107V9.41994H28.1055V1.1228Z" fill="#EBCFAA"/>
    <path opacity="0.44" d="M19.737 1.1228H19.9395V9.41994H19.737V1.1228Z" fill="#A4A4A5"/>
    <path d="M15.8517 1.1228H18.1484V9.37331H15.8517V1.1228Z" fill="#EFD9BB"/>
    <path opacity="0.44" d="M15.8515 1.1228H15.9043V9.41994H15.8515V1.1228Z" fill="#A4A4A5"/>
    <path d="M28.1021 10.9862L29.2002 9.88815L19.9527 0.640625L19.7374 2.30557V2.62107L28.1021 10.9862Z" fill="#EBCFAA"/>
    <path d="M19.0142 1.57911L20.1123 0.480957L29.3597 9.72832L28.2615 10.8265L19.0142 1.57911Z" fill="#DDAF72"/>
    <path opacity="0.44" d="M15.9559 10.9862L15.6766 9.88815L18.0293 0.640625L18.1318 1.90225L18.1272 2.48897L15.9559 10.9862Z" fill="#A4A4A5"/>
    <path d="M18.0424 1.1228H18.1484V9.41994H18.0424V1.1228Z" fill="#F3E2CC"/>
    <path d="M15.9159 10.8282L15.6365 9.7302L17.9892 0.482666L18.2686 1.5811L15.9159 10.8282Z" fill="#EBCFAA"/>
    <path d="M35.727 1.60254H42.2861C43.1728 1.60254 44.0237 1.95496 44.6505 2.58208L51.4894 9.42097C52.0636 9.99486 52.3857 10.7731 52.3857 11.5852V18.1331H47.7554V16.9519H37.5116V18.1331H34.6577V2.67106C34.6585 2.08123 35.1368 1.60254 35.727 1.60254Z" fill="#FF9E5C"/>
    <path d="M39.9946 13.5679H40.8366V13.6603C42.6045 14.0458 43.9287 15.6183 43.9287 17.502C43.9287 19.3857 42.6041 20.9577 40.8366 21.3436V21.436H39.9946C37.8218 21.436 36.0605 19.6747 36.0605 17.502C36.0605 15.3292 37.8222 13.5679 39.9946 13.5679Z" fill="#3C3C3B"/>
    <path d="M40.8364 21.4358C38.6637 21.4358 36.9023 19.6744 36.9023 17.5017C36.9023 15.329 38.6637 13.5676 40.8364 13.5676C43.0092 13.5676 44.7705 15.329 44.7705 17.5017C44.7705 19.6744 43.0092 21.4358 40.8364 21.4358Z" fill="#2D2D2C"/>
    <path d="M38.0117 17.5017C38.0117 18.9744 39.2057 20.1684 40.6787 20.1684C42.1517 20.1684 43.3457 18.9744 43.3457 17.5017C43.3457 16.0287 42.1517 14.8347 40.6787 14.8347C39.2057 14.8347 38.0117 16.0287 38.0117 17.5017Z" fill="#C8C8C9"/>
    <path d="M40.6608 15.1958C41.8568 15.2859 42.7998 16.283 42.7998 17.5019C42.7998 18.7211 41.8568 19.7178 40.6608 19.8083C39.4645 19.7182 38.5215 18.7211 38.5215 17.5019C38.5215 16.283 39.4649 15.2859 40.6608 15.1958Z" fill="#3C3C3B"/>
    <path d="M40.5513 15.0374H41.1221V19.9428H40.5513V15.0374Z" fill="#A4A4A5"/>
    <path d="M40.4727 15.0374H40.6611V19.9428H40.4727V15.0374Z" fill="#C8C8C9"/>
    <path d="M42.3717 15.5557L42.7754 15.9592L39.3077 19.4289L38.904 19.0254L42.3717 15.5557Z" fill="#A4A4A5"/>
    <path d="M42.314 15.4974L42.4473 15.6306L38.9786 19.0993L38.8454 18.966L42.314 15.4974Z" fill="#C8C8C9"/>
    <path d="M43.2891 17.2044V17.7751H38.3836V17.2044H43.2891Z" fill="#A4A4A5"/>
    <path d="M42.7687 19.026L42.3652 19.4297L38.8956 15.962L39.2991 15.5583L42.7687 19.026Z" fill="#A4A4A5"/>
    <path d="M42.4495 19.3478L42.3164 19.4812L38.8433 16.017L38.9764 15.8835L42.4495 19.3478Z" fill="#C8C8C9"/>
    <path d="M40.6606 16.6462H40.8366V16.6645C41.2252 16.7457 41.5166 17.09 41.5166 17.5022C41.5166 17.9149 41.2248 18.2583 40.8366 18.3395V18.3582H40.6606C40.1878 18.3582 39.8046 17.9751 39.8046 17.5022C39.8046 17.0294 40.1881 16.6462 40.6606 16.6462Z" fill="#C8C8C9"/>
    <path d="M39.9804 17.502C39.9804 17.9748 40.3635 18.3579 40.8364 18.3579C41.3093 18.3579 41.6924 17.9748 41.6924 17.502C41.6924 17.0291 41.3093 16.646 40.8364 16.646C40.3635 16.646 39.9804 17.0291 39.9804 17.502Z" fill="#A4A4A5"/>
    <path d="M40.8369 14.8347C42.3099 14.8347 43.5039 16.0287 43.5039 17.5017C43.5039 18.9744 42.3099 20.1684 40.8369 20.1684C39.3639 20.1684 38.1699 18.9744 38.1699 17.5017C38.1699 16.0287 39.3639 14.8347 40.8369 14.8347ZM40.6609 19.8082C41.8568 19.718 42.7999 18.721 42.7999 17.5017C42.7999 16.2825 41.8568 15.2858 40.6609 15.1957C39.4645 15.2858 38.5215 16.2829 38.5215 17.5017C38.5215 18.721 39.4649 19.7176 40.6609 19.8082Z" fill="#A4A4A5"/>
    <path d="M42.7993 17.502C42.7993 16.2827 41.8563 15.2861 40.6604 15.1959C40.7186 15.1913 40.7769 15.187 40.8364 15.187C42.1151 15.187 43.1514 16.2233 43.1514 17.502C43.1514 18.7803 42.1147 19.817 40.8364 19.817C40.7769 19.817 40.7186 19.8123 40.6604 19.8084C41.8559 19.7179 42.7993 18.7213 42.7993 17.502Z" fill="#7C7C7D"/>
    <path d="M26.2919 16.6458H27.5869V18.1331H26.2919V16.6458Z" fill="#575756"/>
    <path d="M27.5869 15.5535H37.6406V18.1334H27.5869V15.5535Z" fill="#2D2D2C"/>
    <path d="M10.7632 13.5679H11.6052V13.6603C13.3731 14.0458 14.6973 15.6183 14.6973 17.502C14.6973 19.3857 13.3727 20.9577 11.6052 21.3436V21.436H10.7632C8.5904 21.436 6.8291 19.6747 6.8291 17.502C6.8291 15.3292 8.5904 13.5679 10.7632 13.5679Z" fill="#3C3C3B"/>
    <path d="M11.605 21.4358C9.43224 21.4358 7.67089 19.6744 7.67089 17.5017C7.67089 15.329 9.43224 13.5676 11.605 13.5676C13.7777 13.5676 15.5391 15.329 15.5391 17.5017C15.5391 19.6744 13.7777 21.4358 11.605 21.4358Z" fill="#2D2D2C"/>
    <path d="M8.78022 17.5017C8.78022 18.9744 9.97424 20.1684 11.4472 20.1684C12.9202 20.1684 14.1143 18.9744 14.1143 17.5017C14.1143 16.0287 12.9202 14.8347 11.4472 14.8347C9.97424 14.8347 8.78022 16.0287 8.78022 17.5017Z" fill="#C8C8C9"/>
    <path d="M11.429 15.1958C12.6253 15.2859 13.5684 16.283 13.5684 17.5019C13.5684 18.7211 12.6253 19.7178 11.429 19.8083C10.2326 19.7182 9.28963 18.7211 9.28963 17.5019C9.28963 16.283 10.2326 15.2859 11.429 15.1958Z" fill="#3C3C3B"/>
    <path d="M11.3198 15.0374H11.8906V19.9428H11.3198V15.0374Z" fill="#A4A4A5"/>
    <path d="M11.2412 15.0374H11.4297V19.9428H11.2412V15.0374Z" fill="#C8C8C9"/>
    <path d="M13.1393 15.5579L13.543 15.9614L10.0753 19.4311L9.67158 19.0276L13.1393 15.5579Z" fill="#A4A4A5"/>
    <path d="M13.0806 15.4937L13.2139 15.627L9.74521 19.0956L9.61196 18.9624L13.0806 15.4937Z" fill="#C8C8C9"/>
    <path d="M14.0576 17.2044V17.7751H9.15215V17.2044H14.0576Z" fill="#A4A4A5"/>
    <path d="M13.5373 19.0248L13.1338 19.4285L9.66415 15.9608L10.0676 15.5571L13.5373 19.0248Z" fill="#A4A4A5"/>
    <path d="M13.219 19.349L13.0859 19.4824L9.61287 16.0182L9.74595 15.8848L13.219 19.349Z" fill="#C8C8C9"/>
    <path d="M11.4292 16.6462H11.6052V16.6645C11.9934 16.7457 12.2852 17.09 12.2852 17.5022C12.2852 17.9149 11.9934 18.2583 11.6052 18.3395V18.3582H11.4292C10.9563 18.3582 10.5732 17.9751 10.5732 17.5022C10.5732 17.0294 10.9563 16.6462 11.4292 16.6462Z" fill="#C8C8C9"/>
    <path d="M10.749 17.502C10.749 17.9748 11.1321 18.3579 11.605 18.3579C12.0778 18.3579 12.4609 17.9748 12.4609 17.502C12.4609 17.0291 12.0778 16.646 11.605 16.646C11.1321 16.646 10.749 17.0291 10.749 17.502Z" fill="#A4A4A5"/>
    <path d="M11.6054 14.8347C13.0781 14.8347 14.2725 16.0287 14.2725 17.5017C14.2725 18.9744 13.0784 20.1684 11.6054 20.1684C10.1324 20.1684 8.93842 18.9744 8.93842 17.5017C8.93842 16.0287 10.1324 14.8347 11.6054 14.8347ZM11.4294 19.8082C12.6258 19.718 13.5688 18.721 13.5688 17.5017C13.5688 16.2825 12.6258 15.2858 11.4294 15.1957C10.2331 15.2858 9.29006 16.2829 9.29006 17.5017C9.29006 18.721 10.2331 19.7176 11.4294 19.8082Z" fill="#A4A4A5"/>
    <path d="M13.5683 17.502C13.5683 16.2827 12.6253 15.2861 11.4289 15.1959C11.4872 15.1913 11.5455 15.187 11.6049 15.187C12.8833 15.187 13.9199 16.2233 13.9199 17.502C13.9199 18.7803 12.8833 19.817 11.6049 19.817C11.5455 19.817 11.4872 19.8123 11.4289 19.8084C12.6253 19.7179 13.5683 18.7213 13.5683 17.502Z" fill="#7C7C7D"/>
    <path d="M6.32996 16.6458H7.625V18.1331H6.32996V16.6458Z" fill="#575756"/>
    <path d="M7.6258 15.5535H11.875V18.1334H7.6258V15.5535Z" fill="#2D2D2C"/>
    <path d="M22.0663 15.7173H23.3613V17.2047H22.0663V15.7173Z" fill="#575756"/>
    <path d="M4.01482 13.0137H6.02246V16.6563H4.01482V13.0137Z" fill="#575756"/>
    <path d="M6.02254 11.6172H40.9922V16.6458H6.02254V11.6172Z" fill="#2D2D2C"/>
    <path opacity="0.81" d="M4.01545 13.0164H30.3721V15.7005H4.01545V13.0164Z" fill="#A4A4A5"/>
    <path d="M0.518957 13.0164H2.60742L0.518957 14.6071V13.0164Z" fill="#C8C8C9"/>
    <path d="M0.00159484 13.0164H0.519531V14.6071H0.00159484V13.0164Z" fill="#E5E5E5"/>
    <path d="M19.5245 16.3828H22.8271V17.2042H19.5245V16.3828Z" fill="#2D2D2C"/>
    <path d="M35.1636 3.44824H37.6406V13.3563H35.1636V3.44824Z" fill="#3C3C3B"/>
    <path d="M2.81681 13.0164H4.90527L2.81681 14.6071V13.0164Z" fill="#C8C8C9"/>
    <path d="M2.81706 9.37354H35.6982V13.0162H2.81706V9.37354Z" fill="#C8C8C9"/>
    <path d="M38.4183 1.60254H44.2008C45.0878 1.60254 45.9384 1.95496 46.5655 2.58208L53.4044 9.42097C53.9783 9.99486 54.3008 10.7731 54.3008 11.5852V18.1331H49.6704V16.9519H39.4266V18.1331H37.3498V2.67106C37.3498 2.08123 37.8281 1.60254 38.4183 1.60254Z" fill="#FF6800"/>
    <path d="M44.2448 12.3125C46.7258 12.5759 48.7054 14.5004 49.0625 16.9518H39.4264C39.7839 14.5004 41.7636 12.5755 44.2448 12.3125Z" fill="#2D2D2C"/>
    <path d="M44.3491 13.5679H45.1911V13.6603C46.9586 14.0458 48.2832 15.6183 48.2832 17.502C48.2832 19.3857 46.9586 20.9577 45.1911 21.3436V21.436H44.3491C42.1763 21.436 40.415 19.6747 40.415 17.502C40.415 15.3292 42.1767 13.5679 44.3491 13.5679Z" fill="#3C3C3B"/>
    <path d="M45.1909 21.4358C43.0182 21.4358 41.2568 19.6744 41.2568 17.5017C41.2568 15.329 43.0182 13.5676 45.1909 13.5676C47.3637 13.5676 49.125 15.329 49.125 17.5017C49.125 19.6744 47.3637 21.4358 45.1909 21.4358Z" fill="#2D2D2C"/>
    <path d="M42.3665 17.5017C42.3665 18.9744 43.5606 20.1684 45.0336 20.1684C46.5066 20.1684 47.7002 18.9744 47.7002 17.5017C47.7002 16.0287 46.5062 14.8347 45.0336 14.8347C43.5606 14.8347 42.3665 16.0287 42.3665 17.5017Z" fill="#C8C8C9"/>
    <path d="M45.0149 15.1958C46.2113 15.2859 47.1543 16.283 47.1543 17.5019C47.1543 18.7211 46.2113 19.7178 45.0149 19.8083C43.819 19.7182 42.876 18.7211 42.876 17.5019C42.876 16.283 43.819 15.2859 45.0149 15.1958Z" fill="#3C3C3B"/>
    <path d="M44.9058 15.0374H45.4766V19.9428H44.9058V15.0374Z" fill="#A4A4A5"/>
    <path d="M44.8266 15.0374H45.0146V19.9428H44.8266V15.0374Z" fill="#C8C8C9"/>
    <path d="M46.7232 15.5514L47.127 15.9548L43.6598 19.425L43.256 19.0215L46.7232 15.5514Z" fill="#A4A4A5"/>
    <path d="M46.6685 15.4974L46.8018 15.6306L43.3331 19.0993L43.1999 18.966L46.6685 15.4974Z" fill="#C8C8C9"/>
    <path d="M47.6436 17.2049V17.7756H42.7381V17.2049H47.6436Z" fill="#A4A4A5"/>
    <path d="M47.1321 19.0202L46.7285 19.4238L43.2599 15.9552L43.6635 15.5516L47.1321 19.0202Z" fill="#A4A4A5"/>
    <path d="M46.804 19.348L46.6709 19.4814L43.1978 16.0172L43.3309 15.8838L46.804 19.348Z" fill="#C8C8C9"/>
    <path d="M45.0141 16.6462H45.1902V16.6645C45.5783 16.7457 45.8701 17.09 45.8701 17.5022C45.8701 17.9149 45.5783 18.2583 45.1902 18.3395V18.3582H45.0141C44.5413 18.3582 44.1582 17.9751 44.1582 17.5022C44.1582 17.0294 44.5417 16.6462 45.0141 16.6462Z" fill="#C8C8C9"/>
    <path d="M44.3345 17.502C44.3345 17.9748 44.718 18.3579 45.1909 18.3579C45.6638 18.3579 46.0469 17.9748 46.0469 17.502C46.0469 17.0291 45.6638 16.646 45.1909 16.646C44.718 16.646 44.3345 17.0291 44.3345 17.502Z" fill="#A4A4A5"/>
    <path d="M45.1908 14.8347C46.6638 14.8347 47.8574 16.0287 47.8574 17.5017C47.8574 18.9744 46.6634 20.1684 45.1908 20.1684C43.7178 20.1684 42.5238 18.9744 42.5238 17.5017C42.5242 16.0287 43.7178 14.8347 45.1908 14.8347ZM45.0148 19.8082C46.2111 19.718 47.1541 18.721 47.1541 17.5017C47.1541 16.2825 46.2111 15.2858 45.0148 15.1957C43.8188 15.2858 42.8758 16.2829 42.8758 17.5017C42.8758 18.721 43.8188 19.7176 45.0148 19.8082Z" fill="#A4A4A5"/>
    <path d="M47.1542 17.502C47.1542 16.2827 46.2112 15.2861 45.0149 15.1959C45.0731 15.1913 45.1314 15.187 45.1909 15.187C46.4696 15.187 47.5059 16.2233 47.5059 17.502C47.5059 18.7803 46.4696 19.817 45.1909 19.817C45.1314 19.817 45.0731 19.8123 45.0149 19.8084C46.2112 19.7179 47.1542 18.7213 47.1542 17.502Z" fill="#7C7C7D"/>
    <path d="M14.9673 13.5679H15.8093V13.6603C17.5768 14.0458 18.9014 15.6183 18.9014 17.502C18.9014 19.3857 17.5768 20.9577 15.8093 21.3436V21.436H14.9673C12.7945 21.436 11.0332 19.6747 11.0332 17.502C11.0332 15.3292 12.7945 13.5679 14.9673 13.5679Z" fill="#3C3C3B"/>
    <path d="M15.8091 21.4358C13.6363 21.4358 11.875 19.6744 11.875 17.5017C11.875 15.329 13.6363 13.5676 15.8091 13.5676C17.9818 13.5676 19.7432 15.329 19.7432 17.5017C19.7432 19.6744 17.9818 21.4358 15.8091 21.4358Z" fill="#2D2D2C"/>
    <path d="M12.9847 17.5017C12.9847 18.9744 14.1787 20.1684 15.6513 20.1684C17.1243 20.1684 18.3184 18.9744 18.3184 17.5017C18.3184 16.0287 17.1243 14.8347 15.6513 14.8347C14.1787 14.8347 12.9847 16.0287 12.9847 17.5017Z" fill="#C8C8C9"/>
    <path d="M15.6335 15.1958C16.8294 15.2859 17.7725 16.283 17.7725 17.5019C17.7725 18.7211 16.8294 19.7178 15.6335 19.8083C14.4371 19.7182 13.4941 18.7211 13.4941 17.5019C13.4941 16.283 14.4375 15.2859 15.6335 15.1958Z" fill="#3C3C3B"/>
    <path d="M15.5243 15.0374H16.0947V19.9428H15.5243V15.0374Z" fill="#A4A4A5"/>
    <path d="M15.4453 15.0374H15.6338V19.9428H15.4453V15.0374Z" fill="#C8C8C9"/>
    <path d="M17.3443 15.5577L17.748 15.9612L14.2804 19.4308L13.8767 19.0273L17.3443 15.5577Z" fill="#A4A4A5"/>
    <path d="M17.2876 15.4976L17.4209 15.6309L13.9522 19.0995L13.819 18.9663L17.2876 15.4976Z" fill="#C8C8C9"/>
    <path d="M18.2617 17.2049V17.7756H13.3563V17.2049H18.2617Z" fill="#A4A4A5"/>
    <path d="M17.7414 19.0248L17.3379 19.4285L13.8683 15.9608L14.2717 15.5571L17.7414 19.0248Z" fill="#A4A4A5"/>
    <path d="M17.4221 19.3488L17.2891 19.4822L13.816 16.0179L13.9491 15.8845L17.4221 19.3488Z" fill="#C8C8C9"/>
    <path d="M15.6333 16.6462H15.8093V16.6645C16.1975 16.7457 16.4893 17.09 16.4893 17.5022C16.4893 17.9149 16.1975 18.2583 15.8093 18.3395V18.3582H15.6333C15.1604 18.3582 14.7773 17.9751 14.7773 17.5022C14.7773 17.0294 15.1604 16.6462 15.6333 16.6462Z" fill="#C8C8C9"/>
    <path d="M14.9531 17.502C14.9531 17.9748 15.3362 18.3579 15.8091 18.3579C16.2815 18.3579 16.665 17.9748 16.665 17.502C16.665 17.0291 16.2815 16.646 15.8091 16.646C15.3362 16.646 14.9531 17.0291 14.9531 17.502Z" fill="#A4A4A5"/>
    <path d="M15.8095 14.8347C17.2822 14.8347 18.4766 16.0287 18.4766 17.5017C18.4766 18.9744 17.2825 20.1684 15.8095 20.1684C14.3365 20.1684 13.1425 18.9744 13.1425 17.5017C13.1425 16.0287 14.3365 14.8347 15.8095 14.8347ZM15.6335 19.8082C16.8295 19.718 17.7725 18.721 17.7725 17.5017C17.7725 16.2825 16.8295 15.2858 15.6335 15.1957C14.4372 15.2858 13.4942 16.2829 13.4942 17.5017C13.4942 18.721 14.4376 19.7176 15.6335 19.8082Z" fill="#A4A4A5"/>
    <path d="M17.772 17.502C17.772 16.2827 16.829 15.2861 15.633 15.1959C15.6909 15.1913 15.7496 15.187 15.809 15.187C17.0874 15.187 18.124 16.2233 18.124 17.502C18.124 18.7803 17.0874 19.817 15.809 19.817C15.7496 19.817 15.6913 19.8123 15.633 19.8084C16.8286 19.7179 17.772 18.7213 17.772 17.502Z" fill="#7C7C7D"/>
    <path d="M55.1417 14.6321H49.1254V18.1333H55.1417C55.6157 18.1333 56 17.749 56 17.275V15.4908C56 15.0167 55.6161 14.6321 55.1417 14.6321Z" fill="#BF4E00"/>
    <path d="M30.3723 13.0164H35.1807V16.6785H31.3499L30.3723 15.7005V13.0164Z" fill="#E5E5E5"/>
    <path d="M34.6297 -0.000244141H35.6982V9.37357H34.6297V-0.000244141Z" fill="#C8C8C9"/>
    <path d="M44.244 12.3126C44.4355 12.292 44.6298 12.2808 44.8268 12.2808C47.8447 12.2808 50.291 14.7271 50.291 17.745V18.1335H49.1254V17.745C49.125 14.9237 46.9872 12.6036 44.244 12.3126Z" fill="#8F3B00"/>
    <path d="M23.3614 16.3828H26.6641V17.2042H23.3614V16.3828Z" fill="#2D2D2C"/>
    <path d="M54.2998 12.6711V13.7513H53.1909C52.8155 13.7513 52.5109 13.4471 52.5109 13.0714V12.6711H54.2998Z" fill="#FFDE0D"/>
    <path d="M52.5109 11.5896H54.2998V12.6705H52.5109V11.5896Z" fill="#F1F1F1"/>
    <path d="M54.2998 12.6711V13.7513H53.5188C53.1431 13.7513 52.8389 13.4471 52.8389 13.0714V12.6711H54.2998Z" fill="#FFA700"/>
    <path d="M52.8389 11.5896H54.2998V12.6705H52.8389V11.5896Z" fill="#DBDBDB"/>
    <path d="M41.7169 9.14795H42.0234C41.7487 9.14795 41.5265 9.37019 41.5265 9.64451C41.5265 9.91922 41.7487 10.1415 42.0234 10.1415H41.7169C41.4422 10.1415 41.2199 9.91922 41.2199 9.64451C41.2199 9.37019 41.4422 9.14795 41.7169 9.14795Z" fill="#832707"/>
    <path d="M41.5257 9.64477C41.5257 9.37045 41.748 9.14819 42.0227 9.14819H43.3208C43.5951 9.14819 43.8174 9.37045 43.8174 9.64477C43.8174 9.91947 43.5951 10.1417 43.3208 10.1417H42.0227C41.748 10.1417 41.5257 9.91947 41.5257 9.64477Z" fill="#AE3409"/>
    <path d="M40.9492 9.41992H41.1377C41.0137 9.41992 40.9131 9.52056 40.9131 9.64451C40.9131 9.76845 41.0137 9.86909 41.1377 9.86909H40.9496C40.8257 9.86909 40.7251 9.76845 40.7251 9.64451C40.7247 9.52056 40.8253 9.41992 40.9492 9.41992Z" fill="#FFDE0D"/>
    <path opacity="0.21" d="M44.0987 9.42749H43.9106C44.0345 9.42749 44.1352 9.52813 44.1352 9.65207C44.1352 9.77602 44.0345 9.87666 43.9106 9.87666H44.0987C44.2226 9.87666 44.3232 9.77602 44.3232 9.65207C44.3236 9.52813 44.223 9.42749 44.0987 9.42749Z" fill="#A4A4A5"/>
    <path d="M40.9126 9.64475C40.9126 9.5208 41.0133 9.42017 41.1372 9.42017H43.7114H43.8994C44.0234 9.42017 44.124 9.5208 44.124 9.64475C44.124 9.7687 44.0234 9.86933 43.8994 9.86933H43.7114H41.1372C41.0129 9.86933 40.9126 9.7687 40.9126 9.64475Z" fill="#FFA700"/>
    <path d="M40.5517 2.57007H44.2254C45.0286 2.57007 45.7987 2.88907 46.3667 3.45713L51.109 8.19941L52.0664 9.15679H48.9619C48.6674 9.15679 48.3849 9.03946 48.1762 8.83119C47.7717 8.42671 47.2227 8.19941 46.6504 8.19941H39.5838V3.53756C39.5838 3.00331 40.017 2.57007 40.5517 2.57007Z" fill="#3C3C3B"/>
    <path d="M52.0598 9.73968H48.9552C48.503 9.73968 48.0775 9.56366 47.7573 9.24389C47.4597 8.94587 47.0645 8.78229 46.6437 8.78229H39.5775H37.9262H37.3434V8.19946H39.5775H46.6437C47.2161 8.19946 47.7651 8.42677 48.1696 8.83125C48.3778 9.03951 48.6603 9.15685 48.9548 9.15685H52.0594H53.1326L53.3972 9.42145C53.4966 9.52092 53.586 9.62855 53.6699 9.73968H52.8913H52.0598Z" fill="#FF8633"/>
    <path opacity="0.33" d="M39.5875 16.1857L39.7658 15.6985L39.9111 15.3706V8.20801H39.5875V16.1857Z" fill="#A4A4A5"/>
    <path d="M40.0898 15.0387L39.9115 15.3313V8.20801H40.0898V15.0387Z" fill="#FF8633"/>
    <path opacity="0.33" d="M51.564 14.6319H51.8877V9.14746L51.564 9.15912V14.6319Z" fill="#A4A4A5"/>
    <path d="M51.8875 9.15674H52.0654V14.6322H51.8875V9.15674Z" fill="#FF8633"/>
    <path d="M36.4509 3.31885H37.3496V18.1332H36.4509V3.31885Z" fill="#FF9E5C"/>
    <path d="M31.8129 -0.000244141H34.6299V9.37357H31.8129V-0.000244141Z" fill="#E5E5E5"/>
    <path d="M0.000383615 9.37354H2.81738V13.0162H0.000383615V9.37354Z" fill="#E5E5E5"/>
    <path d="M2.29945 13.0164H2.81738V14.6071H2.29945V13.0164Z" fill="#E5E5E5"/>
    <path d="M30.8899 13.0164H35.6982V16.6785H31.8679L30.8899 15.7005V13.0164Z" fill="#C8C8C9"/>
    <path d="M31.8469 14.0396H34.7412V15.6551H32.2786L31.8469 15.2239V14.0396Z" fill="#2D2D2C"/>
    <path opacity="0.44" d="M3.20637 9.86816H35.1807V10.7261H3.20637V9.86816Z" fill="#A4A4A5"/>
    <path opacity="0.44" d="M3.20637 11.4546H35.1807V12.3125H3.20637V11.4546Z" fill="#A4A4A5"/>
    <path opacity="0.44" d="M3.20637 9.86816H35.1807V10.2971H3.20637V9.86816Z" fill="#A4A4A5"/>
    <path d="M26.7213 13.0164H27.2393V13.8238H26.7213V13.0164Z" fill="#A4A4A5"/>
    <path d="M34.2233 14.0396H34.7412V15.6551H34.2233V14.0396Z" fill="#E5E5E5"/>
    <path d="M23.0905 13.0164H23.6084V13.8238H23.0905V13.0164Z" fill="#A4A4A5"/>
    <path d="M19.4401 13.0164H19.958V13.8238H19.4401V13.0164Z" fill="#A4A4A5"/>
    <path d="M10.9284 13.0164H11.4463V13.8238H10.9284V13.0164Z" fill="#A4A4A5"/>
    <path d="M7.27796 13.0164H7.7959V13.8238H7.27796V13.0164Z" fill="#A4A4A5"/>
    <path d="M40.5686 2.57007H40.8359C40.3017 2.57007 39.8684 3.00331 39.8684 3.53756V8.19941H39.6011V3.53756C39.6011 3.00331 40.0344 2.57007 40.5686 2.57007Z" fill="#2D2D2C"/>
    <g opacity="0.32">
        <path d="M44.2249 2.56982C44.3348 2.56982 44.444 2.57682 44.5524 2.58886L51.1201 9.15655H48.9613C48.9512 9.15655 48.9415 9.15383 48.9314 9.15344L42.3478 2.56982H44.2249Z" fill="#636362"/>
        <path d="M46.3658 3.4565L51.108 8.19917L52.0654 9.15655H51.1197L44.552 2.58887C45.2347 2.66308 45.8758 2.96654 46.3658 3.4565Z" fill="white"/>
        <path d="M39.5831 4.15454L43.6279 8.19936H39.5831V4.15454Z" fill="#A4A4A5"/>
        <path d="M39.5828 3.53732C39.5828 3.00306 40.016 2.56982 40.5503 2.56982H41.8612L47.8838 8.59277C47.5236 8.34098 47.0943 8.19916 46.6486 8.19916H43.6272L39.5824 4.15434L39.5828 3.53732Z" fill="white"/>
        <path d="M42.348 2.56982L48.9316 9.15344C48.648 9.14567 48.3772 9.03261 48.1759 8.83095C48.0865 8.74158 47.9878 8.66426 47.8853 8.59277L41.8627 2.56982H42.348Z" fill="#A4A4A5"/>
    </g>
    <path d="M46.0994 3.45674C45.5317 2.88907 44.7612 2.57007 43.9581 2.57007H44.2254C45.0286 2.57007 45.7987 2.88907 46.3667 3.45674L51.109 8.19941L52.0664 9.15679H51.7991L50.8417 8.19941L46.0994 3.45674Z" fill="#FF8633"/>
    <path opacity="0.39" d="M50.5977 10.4779H51.0834C51.7272 10.4779 52.249 9.95572 52.249 9.31227C52.249 8.66844 51.7272 8.14624 50.5433 8.14624H49.9566L49.8513 9.79253L50.5977 10.4779Z" fill="#A4A4A5"/>
    <path d="M50.1521 9.79215H51.0586C51.3379 9.79215 51.5645 9.56562 51.5645 9.28626V7.96634C51.5645 7.68698 51.3379 7.46045 51.0586 7.46045H50.1521V9.79215Z" fill="#424242"/>
    <path d="M49.8518 7.46094H50.1514V9.79225H49.8518V7.46094Z" fill="#686868"/>
</svg>
