<svg width="56" height="21" viewBox="0 0 56 21" fill="none" xmlns="http://www.w3.org/2000/svg">
    <path d="M31.9025 -0.000488281H28.8001C28.3702 -0.000488281 27.9986 0.295562 27.8996 0.714017C27.8431 0.954396 27.7838 1.19964 27.7206 1.45814C27.2191 3.50401 26.9098 5.59231 26.7839 7.69519L26.7772 7.80609H42.1885L35.7234 1.95348C34.3346 0.695904 33.7765 -0.000488281 31.9025 -0.000488281Z" fill="#E4E4E4"/>
    <path d="M32.2697 1.24683H29.1673C28.7374 1.24683 28.3658 1.54288 28.2672 1.96089C28.2102 2.20127 28.151 2.44652 28.0878 2.70501C27.5863 4.75089 27.277 6.83918 27.1515 8.94206L27.1444 9.05297H42.5557L36.0906 3.20035C34.7014 1.94321 34.1433 1.24683 32.2697 1.24683Z" fill="#626261"/>
    <path d="M32.5363 1.24683H29.4339C29.004 1.24683 28.6324 1.54288 28.5334 1.96089C28.4768 2.20127 28.4176 2.44652 28.3544 2.70501C27.8529 4.75089 27.5436 6.83918 27.4177 8.94206L27.411 9.05297H42.8223L36.3572 3.20035C34.9684 1.94321 34.4099 1.24683 32.5363 1.24683Z" fill="#828281"/>
    <g opacity="0.17">
        <path d="M32.3787 7.47415L28.0046 3.10048C28.0351 2.9688 28.0599 2.83625 28.0917 2.70501C28.1549 2.44651 28.2141 2.20127 28.2706 1.96089C28.2927 1.86766 28.3303 1.78149 28.3771 1.70239L34.1484 7.47415H32.3787Z" fill="#636362"/>
        <path d="M37.4404 7.47407H34.1485L28.3771 1.70231C28.5066 1.48358 28.72 1.32716 28.9701 1.27148C30.1804 1.3846 31.3231 1.88436 32.2325 2.70757L37.4404 7.47407Z" fill="white"/>
        <path d="M30.7019 7.47421L27.7104 4.48272C27.7979 4.02008 27.8973 3.5592 28.0038 3.1001L32.3779 7.47376H30.7019V7.47421Z" fill="#A4A4A5"/>
        <path d="M29.631 7.47391L27.5529 5.39533C27.602 5.09044 27.6532 4.78599 27.7107 4.48242L30.7021 7.47391H29.631Z" fill="#636362"/>
        <path d="M29.6309 7.47384H27.2748C27.345 6.77833 27.4409 6.08547 27.5527 5.39526L29.6309 7.47384Z" fill="white"/>
    </g>
    <path d="M32.9673 -0.000488281H31.3832C30.9532 -0.000488281 30.5816 0.295562 30.4826 0.714017C30.426 0.954396 30.3668 1.19964 30.3036 1.45814C29.8021 3.50401 29.4928 5.59231 29.3669 7.69519L29.3603 7.80609H44.7715L38.3064 1.95348C36.9172 0.695904 34.8413 -0.000488281 32.9673 -0.000488281Z" fill="#E4E4E4"/>
    <path d="M33.7569 -0.000488281H31.9037C31.4737 -0.000488281 31.1021 0.295562 31.0031 0.714017C30.9466 0.954396 30.8873 1.19964 30.8242 1.45814C30.3231 3.50401 30.0133 5.59231 29.8878 7.69519L29.8808 7.80609H45.292L38.8269 1.95348C37.4377 0.695904 35.6309 -0.000488281 33.7569 -0.000488281Z" fill="#C8C8C9"/>
    <path d="M32.658 1.24683H33.8065C35.2107 1.24683 36.5567 1.76559 37.5973 2.70766L42.8057 7.47416H32.461V1.4439C32.4605 1.3352 32.5489 1.24683 32.658 1.24683Z" fill="#636362"/>
    <g opacity="0.17">
        <path d="M32.8806 1.24683L39.1084 7.47416L32.8806 1.24683Z" fill="#636362"/>
        <path d="M32.0557 1.4439C32.0557 1.33476 32.144 1.24683 32.2527 1.24683H32.8806L39.1084 7.47416H37.3378L32.0557 2.19199V1.4439Z" fill="white"/>
        <path d="M33.4016 1.24683C34.8055 1.24683 36.1514 1.76559 37.192 2.70766L42.4004 7.47416H39.1084L32.8807 1.24683H33.4016Z" fill="#636362"/>
        <path d="M32.0557 2.19214L37.3379 7.4743H35.6614L32.0557 3.86861V2.19214Z" fill="#A4A4A5"/>
        <path d="M32.0555 3.86865L35.6611 7.47434H34.5909L32.0555 4.93931V3.86865Z" fill="#636362"/>
        <path d="M34.5908 7.47424H32.0554V4.93921L34.5908 7.47424Z" fill="white"/>
    </g>
    <path d="M33.806 1.24683H34.2112C35.615 1.24683 36.9614 1.76559 38.002 2.70766L43.21 7.47416H42.8052L37.5968 2.70766C36.5562 1.76559 35.2103 1.24683 33.806 1.24683Z" fill="#E4E4E4"/>
    <path d="M32.253 1.24683H32.6582C32.5495 1.24683 32.4611 1.3352 32.4611 1.4439V7.47416H32.0559V1.4439C32.0559 1.3352 32.1443 1.24683 32.253 1.24683Z" fill="#4A4A4A"/>
    <path d="M1.82548 8.21069C1.82725 7.58014 2.33849 7.06934 2.96993 7.06934H51.3184C51.9494 7.06934 52.4607 7.58014 52.4624 8.21069C52.4624 8.21158 52.4629 8.21246 52.4629 8.21379V16.9929H2.55855L1.82504 15.681V8.21379C1.82504 8.21246 1.82548 8.21202 1.82548 8.21069Z" fill="#E4E4E4"/>
    <path d="M9.02407 11.8015H9.98161V11.9067C11.9921 12.3455 13.498 14.1333 13.498 16.2755C13.498 18.4172 11.9921 20.2055 9.98161 20.6443V20.7495H9.02407C6.55312 20.7495 4.5501 18.7464 4.5501 16.2755C4.5501 13.8045 6.55312 11.8015 9.02407 11.8015Z" fill="#3C3C3B"/>
    <path d="M9.98208 20.7492C7.51118 20.7492 5.50811 18.7461 5.50811 16.2752C5.50811 13.8043 7.51118 11.8013 9.98208 11.8013C12.453 11.8013 14.4561 13.8043 14.4561 16.2752C14.4561 18.7461 12.453 20.7492 9.98208 20.7492Z" fill="#2D2D2C"/>
    <path d="M6.76936 16.2755C6.76936 17.9506 8.12723 19.3085 9.80238 19.3085C11.4775 19.3085 12.835 17.9506 12.835 16.2755C12.835 14.6003 11.4775 13.2424 9.80238 13.2424C8.12723 13.2424 6.76936 14.6003 6.76936 16.2755Z" fill="#C8C8C9"/>
    <path d="M9.78188 13.6526C11.1424 13.7551 12.2148 14.8885 12.2148 16.2756C12.2148 17.6622 11.1424 18.7956 9.78188 18.8985C8.42179 18.796 7.34936 17.6622 7.34936 16.2756C7.34936 14.8885 8.42179 13.7551 9.78188 13.6526Z" fill="#3C3C3B"/>
    <path d="M9.65753 13.4722H10.3066V19.0508H9.65753V13.4722Z" fill="#A4A4A5"/>
    <path d="M9.56837 13.4722H9.78223V19.0508H9.56837V13.4722Z" fill="#C8C8C9"/>
    <path d="M11.7225 14.0685L12.1816 14.5273L8.23809 18.4731L7.77897 18.0143L11.7225 14.0685Z" fill="#A4A4A5"/>
    <path d="M11.6639 13.9971L11.8154 14.1487L7.87076 18.0933L7.71922 17.9418L11.6639 13.9971Z" fill="#C8C8C9"/>
    <path d="M12.7715 15.9368V16.5859H7.19283V15.9368H12.7715Z" fill="#A4A4A5"/>
    <path d="M12.1915 18.0109L11.7324 18.4697L7.78887 14.5239L8.24798 14.0651L12.1915 18.0109Z" fill="#A4A4A5"/>
    <path d="M11.7973 18.3794L11.6455 18.5308L7.70642 14.5805L7.85817 14.4292L11.7973 18.3794Z" fill="#C8C8C9"/>
    <path d="M9.78143 15.3018H9.9816V15.3225C10.423 15.4149 10.7549 15.8059 10.7549 16.2752C10.7549 16.7445 10.423 17.1355 9.9816 17.2279V17.2487H9.78143C9.24367 17.2487 8.80798 16.813 8.80798 16.2752C8.80798 15.7374 9.24367 15.3018 9.78143 15.3018Z" fill="#C8C8C9"/>
    <path d="M9.00818 16.2752C9.00818 16.813 9.44387 17.2487 9.98163 17.2487C10.5194 17.2487 10.9551 16.813 10.9551 16.2752C10.9551 15.7374 10.5194 15.3018 9.98163 15.3018C9.44387 15.3018 9.00818 15.7374 9.00818 16.2752Z" fill="#A4A4A5"/>
    <path d="M9.98207 13.2424C11.6568 13.2424 13.0146 14.6003 13.0146 16.2755C13.0146 17.9506 11.6568 19.3085 9.98207 19.3085C8.30692 19.3085 6.94905 17.9506 6.94905 16.2755C6.94905 14.6003 8.30692 13.2424 9.98207 13.2424ZM9.7819 18.8984C11.1424 18.7959 12.2149 17.6621 12.2149 16.2755C12.2149 14.8889 11.1424 13.7555 9.7819 13.6525C8.42181 13.755 7.34938 14.8884 7.34938 16.2755C7.34938 17.6621 8.42181 18.7955 9.7819 18.8984Z" fill="#A4A4A5"/>
    <path d="M12.2153 16.2752C12.2153 14.8886 11.1429 13.7552 9.78238 13.6523C9.84866 13.6474 9.91494 13.6421 9.98255 13.6421C11.4363 13.6421 12.6152 14.8206 12.6152 16.2748C12.6152 17.729 11.4363 18.9075 9.98255 18.9075C9.91494 18.9075 9.84866 18.9026 9.78238 18.8973C11.1429 18.7952 12.2153 17.6618 12.2153 16.2752Z" fill="#7C7C7D"/>
    <path d="M4.21416 14.9255H14.2686V18.0925H4.21416V14.9255Z" fill="#6E6E6E"/>
    <path d="M40.9538 11.8015H41.9109V11.9067C43.9214 12.3455 45.4277 14.1333 45.4277 16.2755C45.4277 18.4172 43.9214 20.2055 41.9109 20.6443V20.7495H40.9538C38.4828 20.7495 36.4798 18.7464 36.4798 16.2755C36.4798 13.8045 38.4828 11.8015 40.9538 11.8015Z" fill="#3C3C3B"/>
    <path d="M41.9108 20.7492C39.4399 20.7492 37.4368 18.7461 37.4368 16.2752C37.4368 13.8043 39.4399 11.8013 41.9108 11.8013C44.3817 11.8013 46.3848 13.8043 46.3848 16.2752C46.3848 18.7461 44.3817 20.7492 41.9108 20.7492Z" fill="#2D2D2C"/>
    <path d="M38.6991 16.2755C38.6991 17.9506 40.0565 19.3085 41.7316 19.3085C43.4068 19.3085 44.7646 17.9506 44.7646 16.2755C44.7646 14.6003 43.4068 13.2424 41.7316 13.2424C40.0565 13.2424 38.6991 14.6003 38.6991 16.2755Z" fill="#C8C8C9"/>
    <path d="M41.711 13.6526C43.0711 13.7551 44.1436 14.8885 44.1436 16.2756C44.1436 17.6622 43.0711 18.7956 41.711 18.8985C40.3505 18.796 39.2781 17.6622 39.2781 16.2756C39.2781 14.8885 40.3505 13.7551 41.711 13.6526Z" fill="#3C3C3B"/>
    <path d="M41.5862 13.4722H42.2354V19.0508H41.5862V13.4722Z" fill="#A4A4A5"/>
    <path d="M41.4966 13.4722H41.7109V19.0508H41.4966V13.4722Z" fill="#C8C8C9"/>
    <path d="M43.6557 14.062L44.1143 14.5208L40.1685 18.4643L39.7099 18.0055L43.6557 14.062Z" fill="#A4A4A5"/>
    <path d="M43.5916 13.9964L43.7432 14.1479L39.7985 18.0926L39.647 17.9411L43.5916 13.9964Z" fill="#C8C8C9"/>
    <path d="M44.7002 15.9373V16.5864H39.1215V15.9373H44.7002Z" fill="#A4A4A5"/>
    <path d="M44.1128 18.0058L43.6543 18.4646L39.7085 14.521L40.1671 14.0622L44.1128 18.0058Z" fill="#A4A4A5"/>
    <path d="M43.7372 18.3808L43.5859 18.532L39.6413 14.5873L39.7925 14.4361L43.7372 18.3808Z" fill="#C8C8C9"/>
    <path d="M41.7101 15.3018H41.9099V15.3225C42.3518 15.4149 42.6836 15.8059 42.6836 16.2752C42.6836 16.7445 42.3518 17.1355 41.9099 17.2279V17.2487H41.7101C41.1724 17.2487 40.7367 16.813 40.7367 16.2752C40.7367 15.7374 41.1724 15.3018 41.7101 15.3018Z" fill="#C8C8C9"/>
    <path d="M40.9369 16.2752C40.9369 16.813 41.3726 17.2487 41.9104 17.2487C42.4481 17.2487 42.8838 16.813 42.8838 16.2752C42.8838 15.7374 42.4481 15.3018 41.9104 15.3018C41.3726 15.3018 40.9369 15.7374 40.9369 16.2752Z" fill="#A4A4A5"/>
    <path d="M41.9103 13.2424C43.5855 13.2424 44.9434 14.6003 44.9434 16.2755C44.9434 17.9506 43.5855 19.3085 41.9103 19.3085C40.2352 19.3085 38.8778 17.9506 38.8778 16.2755C38.8778 14.6003 40.2352 13.2424 41.9103 13.2424ZM41.7106 18.8984C43.0707 18.7959 44.1431 17.6621 44.1431 16.2755C44.1431 14.8889 43.0707 13.7555 41.7106 13.6525C40.3501 13.755 39.2777 14.8884 39.2777 16.2755C39.2777 17.6621 40.3501 18.7955 41.7106 18.8984Z" fill="#A4A4A5"/>
    <path d="M44.1436 16.2752C44.1436 14.8886 43.0712 13.7552 41.7111 13.6523C41.7769 13.6474 41.8437 13.6421 41.9108 13.6421C43.365 13.6421 44.5439 14.8206 44.5439 16.2748C44.5439 17.729 43.365 18.9075 41.9108 18.9075C41.8437 18.9075 41.7769 18.9026 41.7111 18.8973C43.0712 18.7952 44.1436 17.6618 44.1436 16.2752Z" fill="#7C7C7D"/>
    <path d="M4.6448 8.21094H55.2822C55.2822 8.21182 55.2822 8.21271 55.2822 8.21403V9.16406H54.7299V11.1936H55.2822V16.9932H51.1374V16.5513C51.1374 16.2446 51.1087 15.9446 51.0659 15.6499H40.107C40.0641 15.9451 40.0354 16.2446 40.0354 16.5513V16.9932H19.4087V16.5513C19.4087 16.2446 19.38 15.9446 19.3371 15.6499H8.37864C8.33534 15.9451 8.30662 16.2446 8.30662 16.5513V16.9932H4.6448V8.21403C4.6448 8.21271 4.6448 8.21226 4.6448 8.21094Z" fill="#C8C8C9"/>
    <path d="M4.65561 16.9932H4.90527V19.6877H4.65561V16.9932Z" fill="#3C3C3B"/>
    <path d="M3.88199 16.9932H4.65527V19.6877H3.88199V16.9932Z" fill="#535353"/>
    <path d="M5.78927 7.06934H54.1378C54.7688 7.06934 55.2805 7.58014 55.2822 8.21069H4.6448C4.64657 7.58014 5.15827 7.06934 5.78927 7.06934Z" fill="#E4E4E4"/>
    <path d="M45.586 10.3741C45.8039 10.3511 46.0248 10.3379 46.2488 10.3379C49.6809 10.3379 52.4629 13.1199 52.4629 16.552V16.9938H51.1373V16.552C51.1373 13.3435 48.7061 10.7051 45.586 10.3741Z" fill="#919191"/>
    <path d="M45.5862 10.3738C48.408 10.6734 50.6589 12.862 51.0654 15.6498H40.1065C40.5135 12.8615 42.7648 10.6729 45.5862 10.3738Z" fill="#6E6E6E"/>
    <path d="M45.7047 11.8015H46.6623V11.9067C48.6728 12.3455 50.1787 14.1333 50.1787 16.2755C50.1787 18.4172 48.6728 20.2055 46.6623 20.6443V20.7495H45.7047C43.2338 20.7495 41.2308 18.7464 41.2308 16.2755C41.2308 13.8045 43.2338 11.8015 45.7047 11.8015Z" fill="#3C3C3B"/>
    <path d="M46.6627 20.7492C44.1918 20.7492 42.1888 18.7461 42.1888 16.2752C42.1888 13.8043 44.1918 11.8013 46.6627 11.8013C49.1337 11.8013 51.1367 13.8043 51.1367 16.2752C51.1367 18.7461 49.1337 20.7492 46.6627 20.7492Z" fill="#2D2D2C"/>
    <path d="M43.4505 16.2755C43.4505 17.9506 44.8079 19.3085 46.4831 19.3085C48.1582 19.3085 49.5156 17.9506 49.5156 16.2755C49.5156 14.6003 48.1582 13.2424 46.4831 13.2424C44.8084 13.2424 43.4505 14.6003 43.4505 16.2755Z" fill="#C8C8C9"/>
    <path d="M46.4625 13.6526C47.8231 13.7551 48.8955 14.8885 48.8955 16.2756C48.8955 17.6622 47.8231 18.7956 46.4625 18.8985C45.1025 18.796 44.03 17.6622 44.03 16.2756C44.03 14.8885 45.1025 13.7551 46.4625 13.6526Z" fill="#3C3C3B"/>
    <path d="M46.3382 13.4722H46.9873V19.0508H46.3382V13.4722Z" fill="#A4A4A5"/>
    <path d="M46.249 13.4722H46.4629V19.0508H46.249V13.4722Z" fill="#C8C8C9"/>
    <path d="M48.4106 14.0539L48.8691 14.5127L44.9234 18.4562L44.4648 17.9974L48.4106 14.0539Z" fill="#A4A4A5"/>
    <path d="M48.3434 13.9878L48.4951 14.1392L44.5555 18.0888L44.4037 17.9375L48.3434 13.9878Z" fill="#C8C8C9"/>
    <path d="M49.4521 15.9373V16.5864H43.8735V15.9373H49.4521Z" fill="#A4A4A5"/>
    <path d="M48.857 18.0026L48.3984 18.4614L44.4527 14.5179L44.9112 14.0591L48.857 18.0026Z" fill="#A4A4A5"/>
    <path d="M48.4894 18.3804L48.3379 18.532L44.3935 14.5876L44.5451 14.4361L48.4894 18.3804Z" fill="#C8C8C9"/>
    <path d="M46.4621 15.3018H46.6623V15.3225C47.1037 15.4149 47.4355 15.8059 47.4355 16.2752C47.4355 16.7445 47.1037 17.1355 46.6623 17.2279V17.2487H46.4621C45.9243 17.2487 45.4886 16.813 45.4886 16.2752C45.4886 15.7374 45.9243 15.3018 46.4621 15.3018Z" fill="#C8C8C9"/>
    <path d="M45.6888 16.2752C45.6888 16.813 46.1245 17.2487 46.6623 17.2487C47.2001 17.2487 47.6357 16.813 47.6357 16.2752C47.6357 15.7374 47.2001 15.3018 46.6623 15.3018C46.1245 15.3018 45.6888 15.7374 45.6888 16.2752Z" fill="#A4A4A5"/>
    <path d="M46.6627 13.2424C48.3379 13.2424 49.6953 14.6003 49.6953 16.2755C49.6953 17.9506 48.3379 19.3085 46.6627 19.3085C44.9876 19.3085 43.6301 17.9506 43.6301 16.2755C43.6301 14.6003 44.9876 13.2424 46.6627 13.2424ZM46.4626 18.8984C47.8231 18.7959 48.8955 17.6621 48.8955 16.2755C48.8955 14.8889 47.8231 13.7555 46.4626 13.6525C45.1025 13.755 44.03 14.8884 44.03 16.2755C44.03 17.6621 45.1025 18.7955 46.4626 18.8984Z" fill="#A4A4A5"/>
    <path d="M48.896 16.2752C48.896 14.8886 47.8236 13.7552 46.463 13.6523C46.5293 13.6474 46.5956 13.6421 46.6632 13.6421C48.1174 13.6421 49.2959 14.8206 49.2959 16.2748C49.2959 17.729 48.1174 18.9075 46.6632 18.9075C46.5956 18.9075 46.5293 18.9026 46.463 18.8973C47.8236 18.7952 48.896 17.6618 48.896 16.2752Z" fill="#7C7C7D"/>
    <path d="M33.2871 8.59058H33.6357C33.3238 8.59058 33.071 8.84333 33.071 9.15529C33.071 9.46725 33.3238 9.72044 33.6357 9.72044H33.2871C32.9751 9.72044 32.7224 9.46725 32.7224 9.15529C32.7224 8.84377 32.9751 8.59058 33.2871 8.59058Z" fill="#6E6E6E"/>
    <path d="M33.0716 9.15578C33.0716 8.84382 33.3243 8.59106 33.6363 8.59106H35.113C35.425 8.59106 35.6777 8.84382 35.6777 9.15578C35.6777 9.46774 35.425 9.72094 35.113 9.72094H33.6363C33.3243 9.72094 33.0716 9.46774 33.0716 9.15578Z" fill="#919191"/>
    <path d="M32.416 8.8999H32.6299C32.4889 8.8999 32.3745 9.01435 32.3745 9.15531C32.3745 9.29626 32.4889 9.41071 32.6299 9.41071H32.416C32.2751 9.41071 32.1606 9.29626 32.1606 9.15531C32.1606 9.01391 32.2746 8.8999 32.416 8.8999Z" fill="#F6F6F6"/>
    <path opacity="0.21" d="M35.9975 8.90869H35.7837C35.9246 8.90869 36.0391 9.02313 36.0391 9.16409C36.0391 9.30505 35.9246 9.41949 35.7837 9.41949H35.9975C36.1385 9.41949 36.2529 9.30505 36.2529 9.16409C36.2529 9.02313 36.1389 8.90869 35.9975 8.90869Z" fill="#A4A4A5"/>
    <path d="M32.3743 9.15531C32.3743 9.01435 32.4887 8.8999 32.6297 8.8999H35.5571H35.771C35.9119 8.8999 36.0264 9.01435 36.0264 9.15531C36.0264 9.29626 35.9119 9.41071 35.771 9.41071H35.5571H32.6297C32.4887 9.41071 32.3743 9.29626 32.3743 9.15531Z" fill="#E4E4E4"/>
    <path d="M4.39355 17.543V18.0927H4.02768C4.22962 18.0927 4.39355 17.8461 4.39355 17.543Z" fill="#6E6E6E"/>
    <path d="M4.27867 16.9932C4.48061 16.9932 4.64453 17.2393 4.64453 17.5429C4.64453 17.846 4.48061 18.0925 4.27867 18.0925H2.64903V16.9936H4.27867V16.9932Z" fill="#6E6E6E"/>
    <path d="M2.64855 16.9932C2.68523 16.9932 2.71837 17.0095 2.75195 17.0245C2.60127 17.0926 2.48948 17.2941 2.48948 17.5424C2.48948 17.7907 2.60127 17.9927 2.75195 18.0603C2.71837 18.0753 2.68523 18.0917 2.64855 18.0917C2.44661 18.0917 2.28268 17.8455 2.28268 17.542C2.28268 17.2393 2.44661 16.9932 2.64855 16.9932Z" fill="#535353"/>
    <path d="M2.49067 17.5425C2.49067 17.2942 2.60248 17.0923 2.75315 17.0247C2.90383 17.0927 3.01562 17.2942 3.01562 17.5425C3.01562 17.7909 2.90383 17.9928 2.75315 18.0604C2.60248 17.9924 2.49067 17.7909 2.49067 17.5425Z" fill="#3C3C3B"/>
    <path d="M8.05654 16.9932H8.30664V19.6877H8.05654V16.9932Z" fill="#3C3C3B"/>
    <path d="M7.28336 16.9932H8.05664V19.6877H7.28336V16.9932Z" fill="#535353"/>
    <path d="M4.33984 16.9928H2.55866C1.34174 16.9928 0.324976 16.1427 0.0655961 15.0044H1.84679C2.10617 16.1427 3.12292 16.9928 4.33984 16.9928Z" fill="#E4E4E4"/>
    <path d="M1.84703 15.0044H4.64453V16.9928H4.34008C3.12316 16.9928 2.10641 16.1427 1.84703 15.0044Z" fill="#C8C8C9"/>
    <path d="M1.78085 14.4343C1.78085 14.6305 1.80514 14.821 1.84668 15.0048H0.0654836C0.0235056 14.821 -0.00034976 14.6305 -0.00034976 14.4343H1.78085Z" fill="#6E6E6E"/>
    <path d="M1.7812 14.4343H4.64453V15.0048H1.84703C1.80505 14.821 1.7812 14.631 1.7812 14.4343Z" fill="#535353"/>
    <path d="M1.56714 9.41089H2.02051V12.6021H1.56714V9.41089Z" fill="#ED6A3C"/>
    <path d="M1.82565 9.41089H2.02051V12.6021H1.82565V9.41089Z" fill="#E8450C"/>
    <path d="M29.1426 7.32593V7.60916C29.1426 7.80005 28.9879 7.95471 28.7975 7.95471C28.6066 7.95471 28.4524 7.80005 28.4524 7.60916V7.32593H29.1426Z" fill="#636362"/>
    <path d="M25.0918 7.32593V7.60916C25.0918 7.80005 24.9371 7.95471 24.7471 7.95471C24.5562 7.95471 24.4016 7.80005 24.4016 7.60916V7.32593H25.0918Z" fill="#636362"/>
    <path d="M21.041 7.32593V7.60916C21.041 7.80005 20.8864 7.95471 20.6959 7.95471C20.505 7.95471 20.3508 7.80005 20.3508 7.60916V7.32593H21.041Z" fill="#636362"/>
    <path d="M16.9912 7.32593V7.60916C16.9912 7.80005 16.8366 7.95471 16.6461 7.95471C16.4552 7.95471 16.301 7.80005 16.301 7.60916V7.32593H16.9912Z" fill="#636362"/>
    <path d="M12.9404 7.32593V7.60916C12.9404 7.80005 12.7858 7.95471 12.5958 7.95471C12.4049 7.95471 12.2502 7.80005 12.2502 7.60916V7.32593H12.9404Z" fill="#636362"/>
    <path d="M8.78027 7.32593V7.60916C8.78027 7.80005 8.62562 7.95471 8.43517 7.95471C8.24428 7.95471 8.09006 7.80005 8.09006 7.60916V7.32593H8.78027Z" fill="#636362"/>
    <path d="M35.2186 12.7773H19.3209L19.8772 16.9937H39.4346C39.4346 14.665 37.5469 12.7773 35.2186 12.7773Z" fill="#E4E4E4"/>
    <path opacity="0.44" d="M30.3868 7.06934H30.7549V16.9929H30.3868V7.06934Z" fill="#A4A4A5"/>
    <path opacity="0.44" d="M35.1806 13.665H19.4084V16.9928H38.5088C38.5088 15.1546 37.0188 13.665 35.1806 13.665Z" fill="#A4A4A5"/>
    <path d="M13.8575 10.3741C14.0753 10.3511 14.2963 10.3379 14.5203 10.3379C17.9523 10.3379 20.7344 13.1199 20.7344 16.552V16.9938H19.4088V16.552C19.4083 13.3435 16.9771 10.7051 13.8575 10.3741Z" fill="#919191"/>
    <path d="M52.9987 12.7773H54.711C55.1886 12.7773 55.5762 13.1644 55.5762 13.6425V16.9933H54.8581C53.8312 16.9933 52.9987 16.1608 52.9987 15.1339V12.7773Z" fill="#ABABAC"/>
    <path d="M51.1662 9.83105H54.7295V11.1933C53.4083 11.1933 52.1423 10.7033 51.1662 9.83105Z" fill="#6E6E6E"/>
    <path d="M50.803 9.47706L50.5131 9.16333H54.7295V9.83056H51.1662C51.0403 9.71876 50.9183 9.60211 50.803 9.47706Z" fill="#FFA700"/>
    <path d="M54.7295 9.16382V10.8505H54.5907C53.4931 10.8505 52.441 10.443 51.6297 9.71793C51.5259 9.62469 51.4238 9.52792 51.3279 9.42408L51.0867 9.16382H54.7295Z" fill="#A4A4A5"/>
    <path opacity="0.44" d="M42.9825 11.2668L43.3506 11.0556V7.19141H42.9825V11.2668Z" fill="#A4A4A5"/>
    <path d="M43.5537 10.9531L43.3509 11.0556V7.19141H43.5537V10.9531Z" fill="#E4E4E4"/>
    <path opacity="0.28" d="M40.7444 7.86085H43.4257C43.7434 7.86085 44.001 7.60323 44.001 7.28553C44.001 6.96782 43.7434 6.71021 43.4257 6.71021H40.3763V7.52237L40.7444 7.86085Z" fill="#A4A4A5"/>
    <path d="M40.7909 7.52271H43.0878C43.4055 7.52271 43.6631 7.2651 43.6631 6.94739C43.6631 6.62968 43.4055 6.37207 43.0878 6.37207H40.7909V7.52271Z" fill="#A4A4A5"/>
    <path d="M40.3765 6.37158H40.791V7.52222H40.3765V6.37158Z" fill="#C4C4C5"/>
    <path d="M19.5656 9.88344V9.5432C19.5656 9.30326 19.3707 9.1084 19.1308 9.1084H19.2205C19.4604 9.1084 19.6553 9.30326 19.6553 9.5432V9.88344C19.6553 10.1234 19.4604 10.3182 19.2205 10.3182H19.1308C19.3703 10.3187 19.5656 10.1234 19.5656 9.88344Z" fill="#DBDBDB"/>
    <path d="M17.3908 8.9978H17.4805C17.1796 8.9978 16.9352 9.2426 16.9352 9.54307V9.88332C16.9352 10.1842 17.18 10.4286 17.4805 10.4286H17.3908C17.0899 10.4286 16.8455 10.1838 16.8455 9.88332V9.54307C16.845 9.2426 17.0899 8.9978 17.3908 8.9978Z" fill="#DBDBDB"/>
    <path d="M17.4807 8.99756H19.1307H19.2203C19.5213 8.99756 19.7656 9.24235 19.7656 9.54283V9.88307C19.7656 10.184 19.5208 10.4283 19.2203 10.4283H19.1307H17.4807C17.1798 10.4283 16.9354 10.1835 16.9354 9.88307V9.54283C16.9354 9.24235 17.1798 8.99756 17.4807 8.99756ZM19.1307 10.3183H19.2203C19.4603 10.3183 19.6552 10.1234 19.6552 9.88351V9.54327C19.6552 9.30334 19.4603 9.10847 19.2203 9.10847H19.1307H17.4807C17.2408 9.10847 17.0459 9.30334 17.0459 9.54327V9.88351C17.0459 10.1234 17.2408 10.3183 17.4807 10.3183H19.1307Z" fill="#A4A4A5"/>
    <path d="M4.66045 12.7773H10.4609V13.6854H4.66045V12.7773Z" fill="#E4E4E4"/>
    <path d="M1.79313 12.7773H4.64453V13.6854H1.79313V12.7773Z" fill="#F2F2F2"/>
    <path opacity="0.44" d="M4.86017 12.9516H3.36089V9.41089H7.19238V10.6194C7.19282 11.9075 6.14823 12.9516 4.86017 12.9516Z" fill="#A4A4A5"/>
    <path d="M3.36183 9.41089H4.26855V12.6021H3.36183V9.41089Z" fill="#ED6A3C"/>
    <path d="M4.64455 12.6131H4.26852V9.41089H6.76953V10.4886C6.76953 11.6618 5.81817 12.6131 4.64455 12.6131Z" fill="#E8450C"/>
    <path opacity="0.44" d="M1.82565 12.6023H2.02051V12.9518H1.82565V12.6023Z" fill="#A4A4A5"/>
    <path d="M13.8577 10.3738C16.6795 10.6734 18.9304 12.862 19.3369 15.6498H8.37845C8.78453 12.8615 11.0363 10.6729 13.8577 10.3738Z" fill="#6E6E6E"/>
    <path d="M13.9772 11.8015H14.9343V11.9067C16.9448 12.3455 18.4512 14.1333 18.4512 16.2755C18.4512 18.4172 16.9448 20.2055 14.9343 20.6443V20.7495H13.9772C11.5062 20.7495 9.50323 18.7464 9.50323 16.2755C9.50323 13.8045 11.5062 11.8015 13.9772 11.8015Z" fill="#3C3C3B"/>
    <path d="M14.9342 20.7492C12.4633 20.7492 10.4603 18.7461 10.4603 16.2752C10.4603 13.8043 12.4633 11.8013 14.9342 11.8013C17.4051 11.8013 19.4082 13.8043 19.4082 16.2752C19.4082 18.7461 17.4051 20.7492 14.9342 20.7492Z" fill="#2D2D2C"/>
    <path d="M11.7225 16.2755C11.7225 17.9506 13.0799 19.3085 14.7551 19.3085C16.4302 19.3085 17.7881 17.9506 17.7881 16.2755C17.7881 14.6003 16.4302 13.2424 14.7551 13.2424C13.0799 13.2424 11.7225 14.6003 11.7225 16.2755Z" fill="#C8C8C9"/>
    <path d="M14.7345 13.6526C16.0946 13.7551 17.167 14.8885 17.167 16.2756C17.167 17.6622 16.0946 18.7956 14.7345 18.8985C13.3739 18.796 12.3015 17.6622 12.3015 16.2756C12.3015 14.8885 13.3739 13.7551 14.7345 13.6526Z" fill="#3C3C3B"/>
    <path d="M14.6097 13.4722H15.2588V19.0508H14.6097V13.4722Z" fill="#A4A4A5"/>
    <path d="M14.5201 13.4722H14.7344V19.0508H14.5201V13.4722Z" fill="#C8C8C9"/>
    <path d="M16.6837 14.0521L17.1426 14.5112L13.1968 18.4548L12.7379 17.9957L16.6837 14.0521Z" fill="#A4A4A5"/>
    <path d="M16.616 13.9964L16.7676 14.1479L12.8229 18.0926L12.6714 17.9411L16.616 13.9964Z" fill="#C8C8C9"/>
    <path d="M17.7236 15.9373V16.5864H12.145V15.9373H17.7236Z" fill="#A4A4A5"/>
    <path d="M17.1278 18.0023L16.6689 18.4614L12.7232 14.5179L13.182 14.0588L17.1278 18.0023Z" fill="#A4A4A5"/>
    <path d="M16.7606 18.3812L16.6094 18.5325L12.6647 14.5878L12.8159 14.4366L16.7606 18.3812Z" fill="#C8C8C9"/>
    <path d="M14.7336 15.3018H14.9333V15.3225C15.3752 15.4149 15.707 15.8059 15.707 16.2752C15.707 16.7445 15.3752 17.1355 14.9333 17.2279V17.2487H14.7336C14.1958 17.2487 13.7601 16.813 13.7601 16.2752C13.7601 15.7374 14.1958 15.3018 14.7336 15.3018Z" fill="#C8C8C9"/>
    <path d="M13.9603 16.2752C13.9603 16.813 14.396 17.2487 14.9338 17.2487C15.4715 17.2487 15.9072 16.813 15.9072 16.2752C15.9072 15.7374 15.4715 15.3018 14.9338 15.3018C14.396 15.3018 13.9603 15.7374 13.9603 16.2752Z" fill="#A4A4A5"/>
    <path d="M14.9338 13.2424C16.6089 13.2424 17.9668 14.6003 17.9668 16.2755C17.9668 17.9506 16.6089 19.3085 14.9338 19.3085C13.2591 19.3085 11.9012 17.9506 11.9012 16.2755C11.9012 14.6003 13.2591 13.2424 14.9338 13.2424ZM14.7341 18.8984C16.0941 18.7959 17.1666 17.6621 17.1666 16.2755C17.1666 14.8889 16.0941 13.7555 14.7341 13.6525C13.3735 13.755 12.3011 14.8884 12.3011 16.2755C12.3011 17.6621 13.3735 18.7955 14.7341 18.8984Z" fill="#A4A4A5"/>
    <path d="M17.1671 16.2752C17.1671 14.8886 16.0946 13.7552 14.7345 13.6523C14.8004 13.6474 14.8671 13.6421 14.9343 13.6421C16.3885 13.6421 17.5674 14.8206 17.5674 16.2748C17.5674 17.729 16.3885 18.9075 14.9343 18.9075C14.8671 18.9075 14.8004 18.9026 14.7345 18.8973C16.0946 18.7952 17.1671 17.6618 17.1671 16.2752Z" fill="#7C7C7D"/>
    <path d="M30.7556 7.06934H30.958V16.9929H30.7556V7.06934Z" fill="#E4E4E4"/>
    <path d="M53.4225 12.7773H55.1348C55.6129 12.7773 56 13.1644 56 13.6425V16.9933H55.282C54.255 16.9933 53.4225 16.1608 53.4225 15.1339V12.7773Z" fill="#969697"/>
</svg>
