<svg width="24" height="24" viewBox="0 0 24 24" fill="none" xmlns="http://www.w3.org/2000/svg">
    <g clip-path="url(#clip0_42_2165)">
        <path d="M1 17.5V6.25C1 5.65326 1.23705 5.08097 1.65901 4.65901C2.08097 4.23705 2.65326 4 3.25 4H21.25C21.8467 4 22.419 4.23705 22.841 4.65901C23.2629 5.08097 23.5 5.65326 23.5 6.25V17.5C23.5 18.0967 23.2629 18.669 22.841 19.091C22.419 19.5129 21.8467 19.75 21.25 19.75H3.25C2.65326 19.75 2.08097 19.5129 1.65901 19.091C1.23705 18.669 1 18.0967 1 17.5Z" stroke="#595959" stroke-width="1.5625" stroke-linecap="round" stroke-linejoin="round"/>
        <path d="M19.5625 11.8863L19.5738 11.8739M4.9375 11.8863L4.94875 11.8739M12.25 15.25C11.3549 15.25 10.4964 14.8944 9.86351 14.2615C9.23058 13.6286 8.875 12.7701 8.875 11.875C8.875 10.9799 9.23058 10.1214 9.86351 9.48851C10.4964 8.85558 11.3549 8.5 12.25 8.5C13.1451 8.5 14.0036 8.85558 14.6365 9.48851C15.2694 10.1214 15.625 10.9799 15.625 11.875C15.625 12.7701 15.2694 13.6286 14.6365 14.2615C14.0036 14.8944 13.1451 15.25 12.25 15.25Z" stroke="#595959" stroke-width="1.5625" stroke-linecap="round" stroke-linejoin="round"/>
    </g>
    <defs>
        <clipPath id="clip0_42_2165">
            <rect width="24" height="24" fill="white"/>
        </clipPath>
    </defs>
</svg>
