<svg width="32" height="32" viewBox="0 0 32 32" fill="none" xmlns="http://www.w3.org/2000/svg">
    <path d="M25.3333 26.6666H6.66667C5.95942 26.6666 5.28115 26.3856 4.78105 25.8855C4.28095 25.3854 4 24.7072 4 23.9999V11.9999C4 11.2927 4.28095 10.6144 4.78105 10.1143C5.28115 9.6142 5.95942 9.33325 6.66667 9.33325H25.3333C26.0406 9.33325 26.7189 9.6142 27.219 10.1143C27.719 10.6144 28 11.2927 28 11.9999V23.9999C28 24.7072 27.719 25.3854 27.219 25.8855C26.7189 26.3856 26.0406 26.6666 25.3333 26.6666Z" stroke="#FEFEFE" stroke-width="2"/>
    <path d="M21.9997 18.6666C21.8229 18.6666 21.6533 18.5963 21.5283 18.4713C21.4032 18.3463 21.333 18.1767 21.333 17.9999C21.333 17.8231 21.4032 17.6535 21.5283 17.5285C21.6533 17.4035 21.8229 17.3333 21.9997 17.3333C22.1765 17.3333 22.3461 17.4035 22.4711 17.5285C22.5961 17.6535 22.6663 17.8231 22.6663 17.9999C22.6663 18.1767 22.5961 18.3463 22.4711 18.4713C22.3461 18.5963 22.1765 18.6666 21.9997 18.6666Z" fill="#FEFEFE" stroke="#FEFEFE" stroke-width="2" stroke-linecap="round" stroke-linejoin="round"/>
    <path d="M24 9.33328V7.47061C23.9999 7.06195 23.9059 6.65878 23.7252 6.29224C23.5445 5.92569 23.2819 5.60558 22.9578 5.35663C22.6338 5.10767 22.2568 4.93653 21.8561 4.85642C21.4553 4.77632 21.0415 4.78938 20.6467 4.89461L5.98 8.80528C5.41207 8.95662 4.91005 9.29136 4.55199 9.75745C4.19392 10.2235 3.99987 10.7949 4 11.3826V11.9999" stroke="#FEFEFE" stroke-width="2"/>
</svg>
